<svg xmlns="http://www.w3.org/2000/svg" width="77.27" height="73.82" viewBox="0 0 77.27 73.82"><title>vaadin-logo</title><path d="M38.65 73.82a4.55 4.55 0 0 0 4.14-2.67l.11-.19 15.88-29.39a5.09 5.09 0 0 0-4.42-7.63c-2.26 0-3.79 1.11-4.83 3.48l-10.89 20.3-10.88-20.27c-1-2.4-2.58-3.5-4.84-3.5a5.09 5.09 0 0 0-4.42 7.62L34.4 71l.07.13a4.55 4.55 0 0 0 4.18 2.73m.01-43.69a4.06 4.06 0 0 0 4.06-4.06v-1a3.86 3.86 0 0 1 3.86-3.84h20.8a9.88 9.88 0 0 0 9.89-9.88V3.78a3.8 3.8 0 0 0-7.1-1.86 3.78 3.78 0 0 0-.48 1.85v2.41a3.86 3.86 0 0 1-3.9 3.82H47a8.13 8.13 0 0 0-8 6.91 12 12 0 0 0-.2 2h-.17a12 12 0 0 0-.2-2 8.13 8.13 0 0 0-8-6.9H11.47A3.86 3.86 0 0 1 7.61 6.2V3.81A3.78 3.78 0 0 0 7.12 2 3.8 3.8 0 0 0 0 3.82v7.61a9.88 9.88 0 0 0 9.89 9.87h20.8a3.86 3.86 0 0 1 3.86 3.84v1a4.06 4.06 0 0 0 4.06 4.06h.05z" data-name="Layer 1" fill="#00b4f0"/></svg>