<svg width="24" height="24" viewBox="0 0 24 24" xmlns="http://www.w3.org/2000/svg"><path fill-rule="evenodd" clip-rule="evenodd" d="M4 5.2c0-.44183.40934-.8.91429-.8H19.0857c.505 0 .9143.35817.9143.8 0 .44183-.4093.8-.9143.8H4.91429C4.40934 6 4 5.64183 4 5.2zm0 4.6c0-.44183.307-.8.68571-.8H15.3143c.3787 0 .6857.35817.6857.8 0 .4418-.307.8-.6857.8H4.68571C4.307 10.6 4 10.2418 4 9.8zM4 19c0-.4418.307-.8.68571-.8H15.3143c.3787 0 .6857.3582.6857.8s-.307.8-.6857.8H4.68571C4.307 19.8 4 19.4418 4 19zm0-4.6c0-.4418.40934-.8.91429-.8H19.0857c.505 0 .9143.3582.9143.8s-.4093.8-.9143.8H4.91429C4.40934 15.2 4 14.8418 4 14.4z"/></svg>