<svg width="24" height="24" viewBox="0 0 24 24" xmlns="http://www.w3.org/2000/svg"><path d="M12.9 8.50416V16.5c0 .497056-.402944.9-.9.9s-.9-.402944-.9-.9V8.50416l-3.002073 2.668508c-.371504.330227-.94037.296764-1.270595-.07474-.330227-.371505-.296764-.94037.07474-1.270596l4.491475-3.992422c.336011-.307135.85665-.316672 1.20438-.007578.002893.002462.005716.00501.008526.007578l4.491475 3.992422c.371504.330226.404967.899091.07474 1.270596-.330226.371504-.899091.404967-1.270596.07474L12.9 8.50416z" fill-rule="evenodd"/></svg>