<svg width="24" height="24" viewBox="0 0 24 24" xmlns="http://www.w3.org/2000/svg"><path d="M14.995836 12.90001h-7.99584c-.497057 0-.9-.402944-.9-.9 0-.497057.402943-.9.9-.9h7.99584l-2.66851-3.002073c-.330225-.371504-.296763-.94037.074742-1.270596.371504-.330226.94037-.296763 1.270596.074741l3.992422 4.491475c.307135.33601.316671.85665.007578 1.20438-.002463.002893-.00501.005716-.007578.008525l-3.992422 4.491475c-.330227.371504-.899092.404967-1.270596.07474-.371505-.330225-.404967-.89909-.074741-1.270595l2.668509-3.002073z" fill-rule="evenodd"/></svg>