<svg width="24" height="24" viewBox="0 0 24 24" xmlns="http://www.w3.org/2000/svg"><path d="M9.004164 12.90001l2.66851 3.002072c.330225.371505.296763.94037-.074742 1.270596-.371504.330226-.94037.296763-1.270596-.074741l-3.992422-4.491475c-.002568-.00281-.005115-.005632-.007578-.008525-.309093-.34773-.299557-.86837.007578-1.20438l3.992422-4.491475c.330227-.371504.899092-.404967 1.270596-.07474.371505.330225.404967.89909.074741 1.270595L9.004164 11.10001h7.99584c.497057 0 .9.402943.9.9 0 .497056-.402943.9-.9.9h-7.99584z" fill-rule="evenodd"/></svg>