<svg width="24" height="24" viewBox="0 0 24 24" xmlns="http://www.w3.org/2000/svg"><path d="M12.9 15.49583l3.002072-2.668508c.371505-.330226.94037-.296764 1.270596.07474.330227.371505.296764.94037-.07474 1.270597l-4.491475 3.992422c-.00281.002568-.005633.005115-.008525.007578-.34773.309093-.86837.299557-1.20438-.007578l-4.491475-3.992422c-.371505-.330227-.404968-.899092-.074741-1.270596.330226-.371505.899091-.404967 1.270595-.074741L11.1 15.495831V7.49999c0-.497057.402944-.9.9-.9s.9.402943.9.9v7.99584z" fill-rule="evenodd"/></svg>