<svg width="24" height="24" viewBox="0 0 24 24" xmlns="http://www.w3.org/2000/svg"><path d="M4.2 12h2.6c.662742 0 1.2.537258 1.2 1.2v5.6c0 .662742-.537258 1.2-1.2 1.2H4.2c-.662742 0-1.2-.537258-1.2-1.2v-5.6c0-.662742.537258-1.2 1.2-1.2zm.8 1.6c-.220914 0-.4.179087-.4.4v4c0 .220914.179086.4.4.4h1c.220914 0 .4-.179085.4-.4v-4c0-.220913-.179086-.4-.4-.4H5zM10.7 4h2.6c.662742 0 1.2.537258 1.2 1.2v13.6c0 .662742-.537258 1.2-1.2 1.2h-2.6c-.662742 0-1.2-.537258-1.2-1.2V5.2c0-.662742.537258-1.2 1.2-1.2zm.8 1.6c-.220913 0-.4.179086-.4.4v12c0 .220914.179087.4.4.4h1c.220914 0 .4-.179086.4-.4V6c0-.220914-.179086-.4-.4-.4h-1zM17.2 8h2.6c.662742 0 1.2.537258 1.2 1.2v9.6c0 .662742-.537258 1.2-1.2 1.2h-2.6c-.662742 0-1.2-.537258-1.2-1.2V9.2c0-.662742.537258-1.2 1.2-1.2zm.8 1.6c-.220914 0-.4.179086-.4.4v8c0 .220914.179086.4.4.4h1c.220914 0 .4-.179085.4-.4v-8c0-.220914-.179086-.4-.4-.4h-1z" fill-rule="evenodd"/></svg>