<svg width="24" height="24" viewBox="0 0 24 24" xmlns="http://www.w3.org/2000/svg"><path d="M8.8 16.2H7v-6.197965C7 7.791772 8.7878 6 11.009763 6H11V5c0-.552285.443865-1 1-1 .552285 0 1 .443865 1 1v1h-.009763C15.204768 6 17 7.800076 17 10.002035V16.2h-1.8v-6.193c0-1.226974-.9861-2.207-2.202517-2.207h-1.994966C9.785974 7.8 8.8 8.788107 8.8 10.007V16.2zm-3.8.9c0-.497056.403894-.9.89706-.9h12.20588c.495432 0 .89706.39948.89706.9 0 .497057-.403894.9-.89706.9H5.89706C5.401628 18 5 17.600523 5 17.1zm5.5 1.7h3v.75c0 .414213-.344138.75-.757027.75h-1.485946c-.418095 0-.757027-.3329-.757027-.75v-.75z" fill-rule="evenodd"/></svg>