<svg width="24" height="24" viewBox="0 0 24 24" xmlns="http://www.w3.org/2000/svg"><path d="M9 5h6v-.495316C15 4.214035 15.225955 4 15.504684 4h.990632C16.785965 4 17 4.225955 17 4.504684V5h1.756826c.546005 0 .993174.447248.993174.998957v1.002086C19.75 7.55734 19.305341 8 18.756826 8H5.243174C4.697169 8 4.25 7.552752 4.25 7.001043V5.998957C4.25 5.44266 4.694659 5 5.243174 5H7v-.495316C7 4.214035 7.225955 4 7.504684 4h.990632C8.785965 4 9 4.225955 9 4.504684V5zM5.504684 9h.990632C6.785965 9 7 9.225955 7 9.504684v.990632C7 10.785965 6.774045 11 6.495316 11h-.990632C5.214035 11 5 10.774045 5 10.495316v-.990632C5 9.214035 5.225955 9 5.504684 9zm3 0h.990632C9.785965 9 10 9.225955 10 9.504684v.990632C10 10.785965 9.774045 11 9.495316 11h-.990632C8.214035 11 8 10.774045 8 10.495316v-.990632C8 9.214035 8.225955 9 8.504684 9zm3 0h.990632C12.785965 9 13 9.225955 13 9.504684v.990632C13 10.785965 12.774045 11 12.495316 11h-.990632C11.214035 11 11 10.774045 11 10.495316v-.990632C11 9.214035 11.225955 9 11.504684 9zm-6 3h.990632C6.785965 12 7 12.225955 7 12.504684v.990632C7 13.785965 6.774045 14 6.495316 14h-.990632C5.214035 14 5 13.774045 5 13.495316v-.990632C5 12.214035 5.225955 12 5.504684 12zm3 0h.990632C9.785965 12 10 12.225955 10 12.504684v.990632C10 13.785965 9.774045 14 9.495316 14h-.990632C8.214035 14 8 13.774045 8 13.495316v-.990632C8 12.214035 8.225955 12 8.504684 12zm3 0h.990632c.290649 0 .504684.225955.504684.504684v.990632C13 13.785965 12.774045 14 12.495316 14h-.990632C11.214035 14 11 13.774045 11 13.495316v-.990632C11 12.214035 11.225955 12 11.504684 12zm-6 3h.990632C6.785965 15 7 15.225955 7 15.504684v.990632C7 16.785965 6.774045 17 6.495316 17h-.990632C5.214035 17 5 16.774045 5 16.495316v-.990632C5 15.214035 5.225955 15 5.504684 15zm3 0h.990632C9.785965 15 10 15.225955 10 15.504684v.990632C10 16.785965 9.774045 17 9.495316 17h-.990632C8.214035 17 8 16.774045 8 16.495316v-.990632C8 15.214035 8.225955 15 8.504684 15zm3 0h.990632c.290649 0 .504684.225955.504684.504684v.990632C13 16.785965 12.774045 17 12.495316 17h-.990632C11.214035 17 11 16.774045 11 16.495316v-.990632C11 15.214035 11.225955 15 11.504684 15zm3-6h.990632C15.785965 9 16 9.225955 16 9.504684v.990632C16 10.785965 15.774045 11 15.495316 11h-.990632C14.214035 11 14 10.774045 14 10.495316v-.990632C14 9.214035 14.225955 9 14.504684 9zm0 3h.990632c.290649 0 .504684.225955.504684.504684v.990632C16 13.785965 15.774045 14 15.495316 14h-.990632C14.214035 14 14 13.774045 14 13.495316v-.990632C14 12.214035 14.225955 12 14.504684 12zm0 3h.990632c.290649 0 .504684.225955.504684.504684v.990632C16 16.785965 15.774045 17 15.495316 17h-.990632C14.214035 17 14 16.774045 14 16.495316v-.990632C14 15.214035 14.225955 15 14.504684 15zm3 0h.990632c.290649 0 .504684.225955.504684.504684v.990632C19 16.785965 18.774045 17 18.495316 17h-.990632C17.214035 17 17 16.774045 17 16.495316v-.990632C17 15.214035 17.225955 15 17.504684 15zm-12 3h.990632C6.785965 18 7 18.225955 7 18.504684v.990632C7 19.785965 6.774045 20 6.495316 20h-.990632C5.214035 20 5 19.774045 5 19.495316v-.990632C5 18.214035 5.225955 18 5.504684 18zm3 0h.990632C9.785965 18 10 18.225955 10 18.504684v.990632C10 19.785965 9.774045 20 9.495316 20h-.990632C8.214035 20 8 19.774045 8 19.495316v-.990632C8 18.214035 8.225955 18 8.504684 18zm3 0h.990632c.290649 0 .504684.225955.504684.504684v.990632C13 19.785965 12.774045 20 12.495316 20h-.990632C11.214035 20 11 19.774045 11 19.495316v-.990632C11 18.214035 11.225955 18 11.504684 18zm3 0h.990632c.290649 0 .504684.225955.504684.504684v.990632C16 19.785965 15.774045 20 15.495316 20h-.990632C14.214035 20 14 19.774045 14 19.495316v-.990632C14 18.214035 14.225955 18 14.504684 18zm3 0h.990632c.290649 0 .504684.225955.504684.504684v.990632C19 19.785965 18.774045 20 18.495316 20h-.990632C17.214035 20 17 19.774045 17 19.495316v-.990632C17 18.214035 17.225955 18 17.504684 18zm0-6h.990632c.290649 0 .504684.225955.504684.504684v.990632C19 13.785965 18.774045 14 18.495316 14h-.990632C17.214035 14 17 13.774045 17 13.495316v-.990632C17 12.214035 17.225955 12 17.504684 12zm0-3h.990632C18.785965 9 19 9.225955 19 9.504684v.990632C19 10.785965 18.774045 11 18.495316 11h-.990632C17.214035 11 17 10.774045 17 10.495316v-.990632C17 9.214035 17.225955 9 17.504684 9z" fill-rule="evenodd"/></svg>