<svg width="24" height="24" viewBox="0 0 24 24" xmlns="http://www.w3.org/2000/svg"><path d="M12.9 11.727208l2.05 2.05c.351472.351471.351472.92132 0 1.272792-.351472.351472-.92132.351472-1.272792 0l-2.240812-2.240812a.914308.914308 0 0 1-.03547-.037529C11.216264 12.606838 11.1 12.366996 11.1 12.1V7.4c0-.497056.402944-.9.9-.9.497057 0 .9.402944.9.9v4.327208zM12 20c-4.418278 0-8-3.581722-8-8s3.581722-8 8-8 8 3.581722 8 8-3.581722 8-8 8zm0-1.65c3.507008 0 6.35-2.842992 6.35-6.35 0-3.507008-2.842992-6.35-6.35-6.35-3.507008 0-6.35 2.842992-6.35 6.35 0 3.507008 2.842992 6.35 6.35 6.35z"/></svg>