<svg width="24" height="24" viewBox="0 0 24 24" xmlns="http://www.w3.org/2000/svg"><path d="M20 11l-1.945435-.43518c-.2-.6-.4-1.2-.7-1.8L18.4 7 17 5.6l-1.743896 1.158545c-.5-.3-1.1-.6-1.8-.7L13 4h-2l-.45813 1.914795c-.6.2-1.2.4-1.7.7L7.1 5.6 5.6 7.1l1.113501 1.66482c-.3.5-.5 1.1-.7 1.7L4 11v2l2.013501.6c.2.6.4 1.2.7 1.8L5.6 17 7 18.4l1.84187-1.054102c.5.3 1.1.6 1.8.7L11 20h2l.456103-1.954102c.6-.2 1.2-.4 1.8-.7L17 18.4l1.4-1.4-1.045435-1.6c.3-.5.6-1.1.7-1.8L20 13v-2zm-8 5.2c-2.31 0-4.2-1.89-4.2-4.2 0-2.31 1.89-4.2 4.2-4.2 2.31 0 4.2 1.89 4.2 4.2 0 2.31-1.89 4.2-4.2 4.2z"/></svg>