<svg width="24" height="24" viewBox="0 0 24 24" xmlns="http://www.w3.org/2000/svg"><path d="M12.9 12.49584l3.002072-2.668508c.371505-.330227.94037-.296764 1.270596.07474.330227.371505.296764.94037-.07474 1.270596l-4.491475 3.992422a.900259.900259 0 0 1-.008468.007643c-.347788.309029-.868427.299492-1.204438-.007643l-4.491474-3.992422c-.371505-.330226-.404968-.899091-.074741-1.270595.330226-.371505.899091-.404968 1.270595-.074741L11.1 12.49584V4.5c0-.497056.402944-.9.9-.9s.9.402944.9.9v7.99584zM18.2 16.9c0-.497057.402944-.9.9-.9.497057 0 .9.402943.9.9v2.2c0 .497057-.402943.9-.9.9H4.9c-.497056 0-.9-.402943-.9-.9v-2.2c0-.497057.402944-.9.9-.9s.9.402943.9.9v1.3h12.4v-1.3z"/></svg>