<svg width="24" height="24" viewBox="0 0 24 24" fill="none" xmlns="http://www.w3.org/2000/svg"><path d="M11 7c0 .82843-.6716 1.5-1.5 1.5C8.67157 8.5 8 7.82843 8 7s.67157-1.5 1.5-1.5c.8284 0 1.5.67157 1.5 1.5Zm0 5c0 .8284-.6716 1.5-1.5 1.5-.82843 0-1.5-.6716-1.5-1.5s.67157-1.5 1.5-1.5c.8284 0 1.5.6716 1.5 1.5Zm0 5c0 .8284-.6716 1.5-1.5 1.5-.82843 0-1.5-.6716-1.5-1.5s.67157-1.5 1.5-1.5c.8284 0 1.5.6716 1.5 1.5Zm5-10c0 .82843-.6716 1.5-1.5 1.5S13 7.82843 13 7s.6716-1.5 1.5-1.5S16 6.17157 16 7Zm0 5c0 .8284-.6716 1.5-1.5 1.5S13 12.8284 13 12s.6716-1.5 1.5-1.5 1.5.6716 1.5 1.5Zm0 5c0 .8284-.6716 1.5-1.5 1.5S13 17.8284 13 17s.6716-1.5 1.5-1.5 1.5.6716 1.5 1.5Z" fill="#000"/></svg>