<svg width="24" height="24" viewBox="0 0 24 24" xmlns="http://www.w3.org/2000/svg"><path d="M16.14526 6.752408l1.486766 1.339388-4.909254 5.578324c-.223349.249992-.903305.565635-2.039867.946926a.20002.20002 0 0 1-.120015.002272c-.105986-.031147-.166655-.142316-.135508-.248302l.00002.000005c.331547-1.128177.608798-1.817041.831754-2.066593l4.886105-5.55202zm.89182-1.013364l1.240148-1.409164c.369021-.413042.995814-.442158 1.39998-.065033.404167.377126.432657 1.017683.063636 1.430725L18.52354 7.07878l-1.48646-1.339735zM15.015176 5l-1.608163 1.8h-5.414C7.330035 6.8 6.8 7.33413 6.8 7.993012v8.013976C6.8 16.669964 7.33413 17.2 7.993012 17.2h8.013976c.662976 0 1.193012-.53413 1.193012-1.193012v-4.44073L19 9.551534v6.445114C19 17.655354 17.657621 19 15.996649 19H8.00335C6.344646 19 5 17.657621 5 15.996649V8.00335C5 6.344646 6.342379 5 8.003351 5h7.011825z"/></svg>