<svg width="24" height="24" viewBox="0 0 24 24" xmlns="http://www.w3.org/2000/svg"><path d="M12 20c-4.418278 0-8-3.581722-8-8s3.581722-8 8-8 8 3.581722 8 8-3.581722 8-8 8zm0-1.65c3.507008 0 6.35-2.842992 6.35-6.35 0-3.507008-2.842992-6.35-6.35-6.35-3.507008 0-6.35 2.842992-6.35 6.35 0 3.507008 2.842992 6.35 6.35 6.35zM11.504684 7h.990632c.290649 0 .493682.21983.48011.491005l-.260415 5.203205c-.009032.180471-.14851.30579-.312828.30579h-.807876c-.168055 0-.304296-.136907-.31265-.30579l-.25737-5.203205C11.011272 7.22788 11.225955 7 11.504684 7zM11.6 14.6h.8c.276143 0 .5.223858.5.5v.8c0 .276143-.223857.5-.5.5h-.8c-.276142 0-.5-.223857-.5-.5v-.8c0-.276142.223858-.5.5-.5z" fill-rule="evenodd"/></svg>