<svg width="24" height="24" viewBox="0 0 24 24" xmlns="http://www.w3.org/2000/svg"><path d="M9.499084 17.649518l1.438825-1.438825c.354018.044055.708478.066743 1.062091.066743 2.124938 0 4.280443-.819293 6.186833-2.171027.747847-.530264 1.407366-1.112428 1.887348-1.64407.15489-.17156.282961-.32939.37763-.462339-.094669-.13295-.22274-.29078-.37763-.462339-.479982-.531642-1.139501-1.113806-1.887348-1.64407-.183374-.130023-.369054-.255119-.556789-.375033l1.205188-1.205188C20.693828 9.532138 22 10.981114 22 12c0 2.092764-5.51049 6-10 6-.813083 0-1.659655-.128157-2.500916-.350482zM5.16933 15.689621C3.30831 14.470233 2 13.019719 2 12c0-2.092764 5.51049-6 10-6 .815008 0 1.663663.128764 2.506889.352062l-1.438083 1.438083c-.35625-.044605-.712957-.067581-1.068806-.067581-2.124938 0-4.280443.819293-6.186833 2.171027-.747847.530264-1.407367 1.112428-1.887348 1.64407-.15489.17156-.282961.32939-.37763.462339.094669.13295.22274.29078.37763.462339.479981.531642 1.139501 1.113806 1.887348 1.64407.184875.131087.372093.257166.561399.377976L5.16933 15.689621zm6.495146-.205495l3.81965-3.81965c.010502.110426.015874.222348.015874.335524 0 1.932997-1.567003 3.5-3.5 3.5-.113176 0-.225098-.005372-.335524-.015874zm-3.14794-3.141711C8.505599 12.229755 8.5 12.11553 8.5 12c0-1.932997 1.567003-3.5 3.5-3.5.115531 0 .229755.005598.342415.016537l-3.825878 3.825878zm-4.012188 6.167869L18.713043 4.301589c.29308-.29308.768258-.29308 1.061338 0 .29308.29308.29308.768257 0 1.061337L5.565685 19.571622c-.29308.29308-.768257.29308-1.061337 0s-.29308-.768258 0-1.061338z"/></svg>