<svg width="24" height="24" viewBox="0 0 24 24" xmlns="http://www.w3.org/2000/svg"><path d="M12 18c-4.48951 0-10-3.907236-10-6s5.51049-6 10-6 10 3.907236 10 6-5.51049 6-10 6zm-8.074181-5.537661c.479981.531642 1.139501 1.113806 1.887348 1.64407C7.719557 15.458144 9.875062 16.277437 12 16.277437s4.280443-.819293 6.186833-2.171027c.747847-.530264 1.407366-1.112428 1.887348-1.64407.15489-.17156.282961-.32939.37763-.462339-.094669-.13295-.22274-.29078-.37763-.462339-.479982-.531642-1.139501-1.113806-1.887348-1.64407C16.280443 8.541857 14.124938 7.722564 12 7.722564s-4.280443.819293-6.186833 2.171027c-.747847.530264-1.407367 1.112428-1.887348 1.64407-.15489.17156-.282961.32939-.37763.462339.094669.13295.22274.29078.37763.462339zM12 15.5c-1.932997 0-3.5-1.567003-3.5-3.5s1.567003-3.5 3.5-3.5 3.5 1.567003 3.5 3.5-1.567003 3.5-3.5 3.5zm0-1.8c.938884 0 1.7-.761116 1.7-1.7 0-.938884-.761116-1.7-1.7-1.7-.938884 0-1.7.761116-1.7 1.7 0 .938884.761116 1.7 1.7 1.7z"/></svg>