<svg xmlns="http://www.w3.org/2000/svg" width="24" height="24"><path d="M3 5.25a.75.75 0 0 1 .75-.75h16.5a.75.75 0 0 1 0 1.5H3.75A.75.75 0 0 1 3 5.25zm.969 3.219a.75.75 0 0 1 1.062 0l3 3a.75.75 0 0 1 0 1.062l-3 3A.752.752 0 0 1 3.97 14.47L6.44 12 3.97 9.531a.75.75 0 0 1 0-1.062zM10.5 9.75a.75.75 0 0 1 .75-.75h9a.75.75 0 0 1 0 1.5h-9a.75.75 0 0 1-.75-.75zm0 4.5a.75.75 0 0 1 .75-.75h9a.75.75 0 0 1 0 1.5h-9a.75.75 0 0 1-.75-.75zM3 18.75a.75.75 0 0 1 .75-.75h16.5a.75.75 0 0 1 0 1.5H3.75a.75.75 0 0 1-.75-.75zm0 0"/></svg>