<svg width="24" height="24" viewBox="0 0 24 24" xmlns="http://www.w3.org/2000/svg"><path d="M4 7c0-.552285.44463-1 1.000872-1h13.998256C19.551895 6 20 6.443865 20 7c0 .552285-.44463 1-1.000872 1H5.000872C4.448105 8 4 7.556135 4 7zm0 5c0-.552285.44463-1 1.000872-1h13.998256C19.551895 11 20 11.443865 20 12c0 .552285-.44463 1-1.000872 1H5.000872C4.448105 13 4 12.556135 4 12zm0 5c0-.552285.44463-1 1.000872-1h13.998256C19.551895 16 20 16.443865 20 17c0 .552285-.44463 1-1.000872 1H5.000872C4.448105 18 4 17.556135 4 17z"/></svg>