<svg width="24" height="24" viewBox="0 0 24 24" xmlns="http://www.w3.org/2000/svg"><path d="M3.31836 8h1.07519V3.77246H3.31836l-1.0752.73242v.92578l1.01954-.68847h.05566V8zm-1.4707 3.0674v.0176h.98437v-.0205c0-.3487.25195-.5948.61524-.5948.34863 0 .57714.208.57714.5186 0 .249-.1582.4629-.77929 1.0371l-1.33594 1.2568V14h3.21387v-.8379H3.3418v-.0557l.69726-.6416c.75-.6679 1.02539-1.0839 1.02539-1.5527 0-.7471-.63281-1.2539-1.5791-1.2539-.98144 0-1.63769.5684-1.63769 1.4092zM2.94629 18.21h.51855c.41016 0 .65918.1992.65918.5244 0 .3164-.26367.5332-.64453.5332-.40722 0-.66797-.1992-.68261-.5215h-1.0254c.03809.8291.70313 1.3682 1.69043 1.3682 1.03418 0 1.75489-.5332 1.75489-1.2979 0-.5449-.37207-.9287-.95508-.9902v-.0557c.47461-.0879.7998-.4717.7998-.958 0-.6826-.64453-1.1543-1.58203-1.1543-.98144 0-1.61426.5273-1.6289 1.3535h.97558c.01172-.331.26074-.5508.62988-.5508.375 0 .60645.1905.60645.4981s-.2373.5098-.59766.5098h-.51855v.7412z"/><path fill-rule="evenodd" clip-rule="evenodd" d="M8 6.2c0-.44183.35817-.8.8-.8h12.4c.4418 0 .8.35817.8.8 0 .44183-.3582.8-.8.8H8.8c-.44183 0-.8-.35817-.8-.8zm0 6c0-.4418.35817-.8.8-.8h12.4c.4418 0 .8.3582.8.8s-.3582.8-.8.8H8.8c-.44183 0-.8-.3582-.8-.8zm0 6c0-.4418.35817-.8.8-.8h12.4c.4418 0 .8.3582.8.8s-.3582.8-.8.8H8.8c-.44183 0-.8-.3582-.8-.8z"/></svg>