<svg width="24" height="24" viewBox="0 0 24 24" xmlns="http://www.w3.org/2000/svg"><path d="M3.31836 8V4.74219H3.2627l-1.01954.68847v-.92578l1.0752-.73242h1.07519V8H3.31836zm-1.4707 3.0674c0-.8408.65625-1.4092 1.63769-1.4092.94629 0 1.5791.5068 1.5791 1.2539 0 .4688-.27539.8848-1.02539 1.5527l-.69726.6416v.0557h1.78125V14H1.90918v-.7178l1.33594-1.2568c.62109-.5742.77929-.7881.77929-1.0371 0-.3106-.22851-.5186-.57714-.5186-.36329 0-.61524.2461-.61524.5948v.0205h-.98437v-.0176zM2.94629 18.21v-.7412h.51855c.36036 0 .59766-.2022.59766-.5098 0-.3076-.23145-.4981-.60645-.4981-.36914 0-.61816.2198-.62988.5508h-.97558c.01464-.8262.64746-1.3535 1.6289-1.3535.9375 0 1.58203.4717 1.58203 1.1543 0 .4863-.32519.8701-.7998.958v.0557c.58301.0615.95508.4453.95508.9902 0 .7647-.72071 1.2979-1.75489 1.2979-.9873 0-1.65234-.5391-1.69043-1.3682h1.0254c.01464.3223.27539.5215.68261.5215.38086 0 .64453-.2168.64453-.5332 0-.3252-.24902-.5244-.65918-.5244h-.51855zM8 6.2c0-.44183.35817-.8.8-.8h12.4c.4418 0 .8.35817.8.8 0 .44183-.3582.8-.8.8H8.8c-.44183 0-.8-.35817-.8-.8zm0 6c0-.4418.35817-.8.8-.8h12.4c.4418 0 .8.3582.8.8s-.3582.8-.8.8H8.8c-.44183 0-.8-.3582-.8-.8zm0 6c0-.4418.35817-.8.8-.8h12.4c.4418 0 .8.3582.8.8s-.3582.8-.8.8H8.8c-.44183 0-.8-.3582-.8-.8z"/></svg>