<svg xmlns="http://www.w3.org/2000/svg" width="24" height="24"><path d="M3 5.25a.75.75 0 0 1 .75-.75h16.5a.75.75 0 0 1 0 1.5H3.75A.75.75 0 0 1 3 5.25zm15.969 3.219A.752.752 0 0 1 20.03 9.53L17.56 12l2.472 2.469a.752.752 0 0 1-1.062 1.062l-3-3a.75.75 0 0 1 0-1.062l3-3zM3 9.75A.75.75 0 0 1 3.75 9h9a.75.75 0 0 1 0 1.5h-9A.75.75 0 0 1 3 9.75zm0 4.5a.75.75 0 0 1 .75-.75h9a.75.75 0 0 1 0 1.5h-9a.75.75 0 0 1-.75-.75zm0 4.5a.75.75 0 0 1 .75-.75h16.5a.75.75 0 0 1 0 1.5H3.75a.75.75 0 0 1-.75-.75zm0 0"/></svg>