<svg width="24" height="24" viewBox="0 0 24 24" xmlns="http://www.w3.org/2000/svg"><path d="M7.103702 4.992031l.999705-.877458c.415077-.36432 1.046904-.323173 1.411224.091904a1 1 0 0 1 .114462.15966L11.01142 6.7604c.276241.478463.11271 1.090257-.365416 1.36708l-.16931.098026c-.406483.235342-.594395.721862-.451644 1.169339l.498086 1.561332a10.077553 10.077553 0 0 0 2.212452 3.790568l.986678 1.063707c.317324.342097.829058.419267 1.233154.185962l.175287-.101201c.478292-.276143 1.089882-.112268 1.366025.366025L17.87906 18.6555c.276142.478293.112267 1.089883-.366026 1.366026a1 1 0 0 1-.178956.081039l-1.259754.427041c-1.471577.498847-3.098907.095916-4.167709-1.031935l-1.201609-1.267996c-1.94333-2.050696-3.382433-4.52575-4.203304-7.229092l-.57321-1.887734c-.450985-1.485208.008655-3.096912 1.17521-4.120817z" fill-rule="evenodd"/></svg>