<svg width="24" height="24" viewBox="0 0 24 24" xmlns="http://www.w3.org/2000/svg"><path d="M5 4h14c1.6569 0 3 1.34315 3 3v10c0 1.6569-1.3431 3-3 3H5c-1.65685 0-3-1.3431-3-3V7c0-1.65685 1.34315-3 3-3zm14 1.8H5c-.66274 0-1.2.53726-1.2 1.2v10c0 .6627.53726 1.2 1.2 1.2h14c.6627 0 1.2-.5373 1.2-1.2V7c0-.66274-.5373-1.2-1.2-1.2zM5.74157 17.753633l4-4c.2891-.2891.7367-.347 1.0899-.141l1.7496 1.0206 4.1118-4.82682c.3018-.35428.8239-.42004 1.2041-.15165l2.2772 1.60747v2.2032l-2.6439-1.8663-4.0672 4.7745c-.2826.3317-.7622.4134-1.1386.1938l-1.8007-1.0504-2.67454 2.673H5.5c.03612-.1605.11665-.3115.24157-.4364zM11 10.25C11 11.7688 9.76878 13 8.25 13S5.5 11.7688 5.5 10.25c0-1.51878 1.23122-2.75 2.75-2.75S11 8.73122 11 10.25zm-1.5 0C9.5 9.55964 8.94036 9 8.25 9S7 9.55964 7 10.25c0 .6904.55964 1.25 1.25 1.25s1.25-.5596 1.25-1.25z"/></svg>