<svg width="24" height="24" viewBox="0 0 24 24" xmlns="http://www.w3.org/2000/svg"><path d="M6.95768 14.7344C7.48803 12.5424 9.43871 11 11.7936 11c1.3308 0 2.5402.5199 3.4361 1.3677l-2.1005 2.1006c-.0709.0708-.1122.1655-.1148.2631-.0055.2032.1548.3635.3581.358l4.6202-.1244c.4064-.0109.7448-.3493.7557-.7557l.1244-4.62021c.0026-.09759-.0336-.19014-.1008-.25729-.1398-.13983-.3728-.13355-.5203.01401l-1.6074 1.60729C15.3862 9.74358 13.6767 9 11.7936 9c-3.25406 0-5.95775 2.1635-6.74217 5.1719-.0127.0571-.02383.1134-.03351.1689-.18302 1.0483 1.08082 1.6262 1.73907.79.10061-.1279.17308-.2612.20069-.3964z"/></svg>