<svg width="24" height="24" viewBox="0 0 24 24" fill="none" xmlns="http://www.w3.org/2000/svg"><path fill-rule="evenodd" clip-rule="evenodd" d="M18.5303 7.46967c.2929.29289.2929.76777 0 1.06066L8.53033 18.5304c-.29289.2929-.76777.2929-1.06066 0s-.29289-.7678 0-1.0607L17.4697 7.46967c.2929-.29289.7677-.29289 1.0606 0Zm0 4.50003c.2929.2929.2929.7678 0 1.0607l-5.5 5.5c-.2929.2928-.7677.2928-1.0606 0-.2929-.2929-.2929-.7678 0-1.0607l5.4999-5.5c.2929-.2929.7678-.2929 1.0607 0Zm0 4.5c.2929.2928.2929.7677 0 1.0606l-1 1.0001c-.2929.2928-.7677.2929-1.0606 0-.2929-.2929-.2929-.7678 0-1.0607l1-1c.2929-.2929.7677-.2929 1.0606 0Z" fill="#000"/></svg>