<svg width="24" height="24" viewBox="0 0 24 24" xmlns="http://www.w3.org/2000/svg"><path d="M17.0423 14.7344C16.512 12.5424 14.5613 11 12.2064 11c-1.3308 0-2.54023.5199-3.43613 1.3677l2.10053 2.1006c.0709.0708.1122.1655.1148.2631.0055.2032-.1548.3635-.3581.358l-4.62018-.1244c-.40643-.0109-.74479-.3493-.75573-.7557L5.1272 9.58909c-.00263-.09759.03362-.19014.10077-.25729.13982-.13983.3728-.13355.52037.01401l1.60733 1.60729C8.61383 9.74358 10.3233 9 12.2064 9c3.2541 0 5.9577 2.1635 6.7422 5.1719.0127.0571.0238.1134.0335.1689.183 1.0483-1.0808 1.6262-1.7391.79-.1006-.1279-.1731-.2612-.2007-.3964z"/></svg>