<svg width="24" height="24" viewBox="0 0 24 24" xmlns="http://www.w3.org/2000/svg"><path d="M3.5 7.80469c-1 0-1.60938-.625-1.60938-1.51563 0-.89844.60938-1.51562 1.60938-1.51562 1.00781 0 1.60938.61718 1.60938 1.51562 0 .89063-.60157 1.51563-1.60938 1.51563zm0 6.00001c-1 0-1.60938-.625-1.60938-1.5156 0-.8985.60938-1.5157 1.60938-1.5157 1.00781 0 1.60938.6172 1.60938 1.5157 0 .8906-.60157 1.5156-1.60938 1.5156zm0 6c-1 0-1.60938-.625-1.60938-1.5156 0-.8985.60938-1.5157 1.60938-1.5157 1.00781 0 1.60938.6172 1.60938 1.5157 0 .8906-.60157 1.5156-1.60938 1.5156zM8 6.2c0-.44183.35817-.8.8-.8h12.4c.4418 0 .8.35817.8.8 0 .44183-.3582.8-.8.8H8.8c-.44183 0-.8-.35817-.8-.8zm0 6c0-.4418.35817-.8.8-.8h12.4c.4418 0 .8.3582.8.8s-.3582.8-.8.8H8.8c-.44183 0-.8-.3582-.8-.8zm0 6c0-.4418.35817-.8.8-.8h12.4c.4418 0 .8.3582.8.8s-.3582.8-.8.8H8.8c-.44183 0-.8-.3582-.8-.8z"/></svg>