<svg width="24" height="24" viewBox="0 0 24 24" xmlns="http://www.w3.org/2000/svg"><path d="M10.9 6.50416V14.5c0 .497056-.402944.9-.9.9s-.9-.402944-.9-.9V6.50416L6.097927 9.172667c-.371504.330227-.94037.296764-1.270595-.07474-.330227-.371505-.296764-.94037.07474-1.270596L9.393548 3.83491c.336011-.307135.85665-.316672 1.20438-.007578.002893.002462.005716.00501.008526.007578l4.491475 3.992422c.371504.330226.404967.899091.07474 1.270595-.330226.371505-.899091.404968-1.270596.074741L10.9 6.50416zM16.2 16.9c0-.497057.402944-.9.9-.9.497057 0 .9.402943.9.9v2.2c0 .497057-.402943.9-.9.9H2.9c-.497056 0-.9-.402943-.9-.9v-2.2c0-.497057.402944-.9.9-.9s.9.402943.9.9v1.3h12.4v-1.3z"/></svg>