<?xml version="1.0" encoding="UTF-8" standalone="no"?>
<svg width="70px" height="67px" viewBox="0 0 70 67" version="1.1" xmlns="http://www.w3.org/2000/svg" xmlns:xlink="http://www.w3.org/1999/xlink" xmlns:sketch="http://www.bohemiancoding.com/sketch/ns">
    <!-- Generator: Sketch 3.1.1 (8761) - http://www.bohemiancoding.com/sketch -->
    <title>vaadin-charts-logo</title>
    <desc>Created with Sketch.</desc>
    <defs/>
    <g id="Page-1" stroke="none" stroke-width="1" fill="none" fill-rule="evenodd" sketch:type="MSPage">
        <g id="vaadin-charts-demo-mockup-2014" sketch:type="MSArtboardGroup" transform="translate(-223.000000, -115.000000)">
            <g id="Group" sketch:type="MSLayerGroup" transform="translate(116.000000, 88.000000)">
                <g id="charts" transform="translate(107.000000, 27.000000)" sketch:type="MSShapeGroup">
                    <path d="M36.5797312,59.7029703 L28.6237236,59.7029703 L28.6237236,28.8564356 L36.3041835,36.5033457 C33.8742493,39.6658091 32.4291898,43.6278513 32.4291898,47.9281773 C32.4291898,52.3886224 33.9838841,56.4851521 36.5797312,59.7029703 Z M59.3983629,31.1179663 L59.3983629,18.4084158 L51.1256104,26.6609987 L51.1256104,29.1881188 C54.0958942,29.1882258 56.9043737,29.8825221 59.3983629,31.1179663 Z M17.3727802,59.7029703 L25.6455327,59.7029703 L25.6455327,30.5148515 L17.3727802,38.7387712 L17.3727802,59.7029703 Z M6.12183685,50.0252735 L6.12183685,59.7029703 L14.3945893,59.7029703 L14.3945893,41.7920792 L8.68168962,47.4778867 L6.12183685,50.0252735 Z" id="Path" fill="#439BF3"/>
                    <path d="M51.1249236,32.5049505 C42.6271236,32.5049505 35.7382908,39.4102371 35.7382908,47.9281773 C35.7382908,56.4460365 42.6271236,63.3514851 51.1249236,63.3514851 L51.1249236,47.9281773 L66.5129301,47.9281773 C66.5129301,39.4102371 59.6237741,32.5049505 51.1249236,32.5049505 Z M54.7656215,67 L54.7656215,51.5767327 L70.1529412,51.5767327 C70.1529412,60.0952005 63.2631954,67 54.7656215,67 Z M47.9089636,1.77181219 L53.3445572,7.24502756 L53.376232,7.27714475 L38.8423378,21.9054111 L27.8878608,10.8864897 L0,38.9489894 L5.79698173,44.7772277 L27.8878608,22.5487457 L38.8423378,33.5674195 L59.1724752,13.1092635 L64.5816457,18.5513525 L66.347475,0 L47.9089636,1.77181219 Z" id="path22-copy" fill="#FFFFFF"/>
                </g>
            </g>
        </g>
    </g>
</svg>