<?xml version="1.0" encoding="utf-8"?>
<!-- Generated by IcoMoon.io -->
<!DOCTYPE svg PUBLIC "-//W3C//DTD SVG 1.1//EN" "http://www.w3.org/Graphics/SVG/1.1/DTD/svg11.dtd">
<svg version="1.1" xmlns="http://www.w3.org/2000/svg" xmlns:xlink="http://www.w3.org/1999/xlink" width="16" height="16" viewBox="0 0 16 16">
<path fill="#444" d="M10.4 10h-0.5c0.1 0.3 0.1 0.7 0.1 1 0 2.2-1.8 4-4 4s-4-1.8-4-4c0-2.1 1.6-3.8 3.7-4l-0.2-1c-2.6 0.4-4.5 2.4-4.5 5 0 2.8 2.2 5 5 5 2.4 0 4.4-1.7 4.9-3.9l-0.5-2.1z"></path>
<path fill="#444" d="M13.1 13l-1.1-5h-4.1l-0.2-1h3.3v-1h-3.5l-0.6-2.5c0.9-0.1 1.6-0.8 1.6-1.7 0-1-0.8-1.8-1.8-1.8s-1.7 0.8-1.7 1.8c0 0.6 0.3 1.2 0.8 1.5l1.3 5.7h4.1l1.2 5h2.6v-1h-1.9z"></path>
</svg>
