<?xml version="1.0" encoding="utf-8"?>
<!-- Generated by IcoMoon.io -->
<!DOCTYPE svg PUBLIC "-//W3C//DTD SVG 1.1//EN" "http://www.w3.org/Graphics/SVG/1.1/DTD/svg11.dtd">
<svg version="1.1" xmlns="http://www.w3.org/2000/svg" xmlns:xlink="http://www.w3.org/1999/xlink" width="16" height="16" viewBox="0 0 16 16">
<path fill="#444" d="M12.3 6.5c0.5-0.5 0.9-0.8 1.2-1.1 1.6-1.6 3.2-4.1 2.2-5.1s-3.4 0.6-5 2.2c-0.3 0.3-0.6 0.7-1.1 1.2l-7-3.2c-0.7-0.3-1.5-0.2-2 0.3l-0.6 0.5 6.6 5.7c-1.3 1.6-2.7 3.1-3.4 4l-1.1-0.6c-0.5-0.3-1.2-0.3-1.6 0.2l-0.3 0.3 2.8 2.1 2 2.8 0.3-0.3c0.4-0.4 0.5-1.1 0.2-1.6l-0.5-1.1c0.9-0.7 2.4-2.1 4-3.4l5.7 6.6 0.5-0.5c0.5-0.5 0.6-1.3 0.3-2l-3.2-7z"></path>
</svg>
