<?xml version="1.0" encoding="utf-8"?>
<!-- Generated by IcoMoon.io -->
<!DOCTYPE svg PUBLIC "-//W3C//DTD SVG 1.1//EN" "http://www.w3.org/Graphics/SVG/1.1/DTD/svg11.dtd">
<svg version="1.1" xmlns="http://www.w3.org/2000/svg" xmlns:xlink="http://www.w3.org/1999/xlink" width="16" height="16" viewBox="0 0 16 16">
<path fill="#444" d="M13 9v2c0 0-0.8 1.7-4 1.9v-6.9h2.2c0.2 0.3 0.5 0.5 0.8 0.5 0.6 0 1-0.4 1-1s-0.4-1-1-1c-0.4 0-0.7 0.2-0.8 0.5h-2.2v-1.3c0.6-0.3 1-1 1-1.7 0-1.1-0.9-2-2-2s-2 0.9-2 2c0 0.7 0.4 1.4 1 1.7v1.3h-2.2c-0.1-0.3-0.4-0.5-0.8-0.5-0.6 0-1 0.4-1 1s0.4 1 1 1c0.4 0 0.7-0.2 0.8-0.5h2.2v7c-3.3-0.3-4-2-4-2v-2h-3c0 0 2.8 7 8 7 5 0 8-7 8-7h-3zM8 1c0.6 0 1 0.4 1 1s-0.4 1-1 1-1-0.4-1-1 0.4-1 1-1z"></path>
</svg>
