<?xml version="1.0" encoding="utf-8"?>
<!-- Generated by IcoMoon.io -->
<!DOCTYPE svg PUBLIC "-//W3C//DTD SVG 1.1//EN" "http://www.w3.org/Graphics/SVG/1.1/DTD/svg11.dtd">
<svg version="1.1" xmlns="http://www.w3.org/2000/svg" xmlns:xlink="http://www.w3.org/1999/xlink" width="16" height="16" viewBox="0 0 16 16">
<path fill="#444" d="M7.5 12.2c-2.3 0-4.2-1.9-4.2-4.2s1.9-4.2 4.2-4.2 4.2 1.9 4.2 4.2c0.1 2.3-1.9 4.2-4.2 4.2zM7.5 5.2c-1.5 0-2.7 1.3-2.7 2.8s1.2 2.8 2.8 2.8 2.8-1.2 2.8-2.8-1.4-2.8-2.9-2.8z"></path>
<path fill="#444" d="M8 16c-4.4 0-8-3.6-8-8s3.6-8 8-8 8 3.6 8 8c0 1.5-0.4 3-1.2 4.2-0.3 0.5-1.1 1.2-2.3 1.2-0.8 0-1.3-0.3-1.6-0.6-0.7-0.7-0.6-1.8-0.6-1.9v-6.9h1.5v7c0 0.2 0 0.6 0.2 0.8 0 0 0.2 0.2 0.5 0.2 0.7 0 1.1-0.5 1.1-0.5 0.6-1 1-2.2 1-3.4 0-3.6-2.9-6.5-6.5-6.5s-6.6 2.8-6.6 6.4 2.9 6.5 6.5 6.5c0.7 0 1.3-0.1 1.9-0.3l0.4 1.4c-0.7 0.3-1.5 0.4-2.3 0.4z"></path>
</svg>
