<?xml version="1.0" encoding="utf-8"?>
<!-- Generated by IcoMoon.io -->
<!DOCTYPE svg PUBLIC "-//W3C//DTD SVG 1.1//EN" "http://www.w3.org/Graphics/SVG/1.1/DTD/svg11.dtd">
<svg version="1.1" xmlns="http://www.w3.org/2000/svg" xmlns:xlink="http://www.w3.org/1999/xlink" width="16" height="16" viewBox="0 0 16 16">
<path fill="#444" d="M12.7 11.4c-0.5-0.2-0.7-0.7-0.7-1.2v-5.2c0 0 0-2.4-3-2.9v-1.1c0 0 0.1-1-1-1s-1 1-1 1v1.1c-3 0.5-3 2.9-3 2.9v5.2c0 0.5-0.3 1-0.7 1.2l-1.3 0.6v2h4c0 0-0.1 2 2 2s2-2 2-2h4v-2l-1.3-0.6zM13 13h-10v-0.4l0.7-0.4c0.8-0.3 1.3-1.1 1.3-2v-5.2c0-0.1 0-1.6 2.2-1.9l0.8-0.2 0.8 0.1c2 0.4 2.2 1.7 2.2 2v5.2c0 0.9 0.5 1.7 1.3 2.1l0.7 0.4v0.3z"></path>
</svg>
