<?xml version="1.0" encoding="utf-8"?>
<!-- Generated by IcoMoon.io -->
<!DOCTYPE svg PUBLIC "-//W3C//DTD SVG 1.1//EN" "http://www.w3.org/Graphics/SVG/1.1/DTD/svg11.dtd">
<svg version="1.1" xmlns="http://www.w3.org/2000/svg" xmlns:xlink="http://www.w3.org/1999/xlink" width="16" height="16" viewBox="0 0 16 16">
<path fill="#444" d="M8 6.2c1.433-0.018 2.767-0.429 3.903-1.129 0.046-0.036 0.098-0.126 0.098-0.229 0-0.008-0-0.016-0.001-0.023-0.066-1.142-0.781-2.103-1.781-2.522-0.137-0.050-0.219-0.16-0.219-0.29 0-0.002 0-0.005 0-0.008v-1.5c0-0.276-0.224-0.5-0.5-0.5s-0.5 0.224-0.5 0.5v1.2c0 0.166-0.134 0.3-0.3 0.3 0 0 0 0 0 0h-1.4c-0.166 0-0.3-0.134-0.3-0.3v-1.2c0-0.276-0.224-0.5-0.5-0.5s-0.5 0.224-0.5 0.5v1.5c-0.006 0.125-0.086 0.229-0.198 0.269-1.026 0.43-1.744 1.4-1.802 2.544-0.001 0.014-0.001 0.021-0.001 0.029 0 0.102 0.051 0.193 0.13 0.247 0.959 0.703 2.161 1.125 3.462 1.125 0.144 0 0.287-0.005 0.428-0.015zM10 3c0.552 0 1 0.448 1 1s-0.448 1-1 1c-0.552 0-1-0.448-1-1s0.448-1 1-1zM6 3c0.552 0 1 0.448 1 1s-0.448 1-1 1c-0.552 0-1-0.448-1-1s0.448-1 1-1z"></path>
<path fill="#444" d="M13 8v-1c1.216-1.124 1.981-2.721 2-4.497 0-0.28-0.224-0.503-0.5-0.503s-0.5 0.224-0.5 0.5c-0.018 1.112-0.431 2.125-1.105 2.906-0.876 0.978-2.15 1.594-3.569 1.594-0.020 0-0.040-0-0.059-0l-2.537 0c-0.022 0-0.049 0.001-0.075 0.001-1.414 0-2.684-0.612-3.561-1.586-0.669-0.781-1.079-1.793-1.094-2.901-0-0.279-0.224-0.503-0.5-0.503s-0.5 0.224-0.5 0.5c0.022 1.776 0.786 3.368 1.996 4.486l0.004 1.004c-3 0.060-3 1.42-3 3.47 0 0.276 0.224 0.5 0.5 0.5s0.5-0.224 0.5-0.5c0-1.72 0-2.4 2-2.47 0.031 1.11 0.245 2.161 0.612 3.136-0.383 0.006-0.696 0.176-0.942 0.414-0.445 0.624-0.711 1.402-0.711 2.242 0 0.2 0.015 0.397 0.044 0.589l-0.003 0.118c0 0.276 0.224 0.5 0.5 0.5s0.5-0.224 0.5-0.5v-0.14c-0.022-0.144-0.035-0.311-0.035-0.48 0-0.587 0.154-1.139 0.424-1.616 0.165-0.152 0.401-0.257 0.66-0.264 0.588 1.095 1.667 1.859 2.934 1.998l0.017-0.998h2v1c1.284-0.141 2.364-0.905 2.94-1.98 0.012-0.020 0.015-0.020 0.018-0.020 0.254 0 0.486 0.095 0.663 0.251 0.262 0.462 0.418 1.015 0.418 1.605 0 0.178-0.014 0.352-0.041 0.522l0.002 0.121c0 0.276 0.224 0.5 0.5 0.5s0.5-0.224 0.5-0.5v-0.14c0.025-0.165 0.039-0.356 0.039-0.551 0-0.839-0.266-1.616-0.717-2.251-0.238-0.226-0.551-0.396-0.9-0.466 0.336-0.917 0.55-1.975 0.578-3.080 2-0.012 2 0.708 2 2.458 0 0.276 0.224 0.5 0.5 0.5s0.5-0.224 0.5-0.5c0-2.030 0-3.39-3-3.47zM9 13h-2v-1h2v1zM9 11h-2v-1h2v1zM9 9h-2v-1h2v1z"></path>
</svg>
