<?xml version="1.0" encoding="utf-8"?>
<!-- Generated by IcoMoon.io -->
<!DOCTYPE svg PUBLIC "-//W3C//DTD SVG 1.1//EN" "http://www.w3.org/Graphics/SVG/1.1/DTD/svg11.dtd">
<svg version="1.1" xmlns="http://www.w3.org/2000/svg" xmlns:xlink="http://www.w3.org/1999/xlink" width="16" height="16" viewBox="0 0 16 16">
<path fill="#444" d="M14.67 4h-0.67v-2c0-1.105-0.895-2-2-2h-8c-1.105 0-2 0.895-2 2v2h-0.68c-0 0-0 0-0 0-0.177 0-0.32 0.143-0.32 0.32 0 0.004 0 0.007 0 0.011l-0 2.339c-0 0.003-0 0.006-0 0.010 0 0.177 0.143 0.32 0.32 0.32 0 0 0 0 0 0h0.68v6c0 0.55 0 1 1 1v1.5c0 0.276 0.224 0.5 0.5 0.5h2c0.276 0 0.5-0.224 0.5-0.5v-1.5h4v1.5c0 0.276 0.224 0.5 0.5 0.5h2c0.276 0 0.5-0.224 0.5-0.5v-1.5c1 0 1-0.45 1-1v-6h0.67c0.182 0 0.33-0.148 0.33-0.33s-0.148-0.33-0.33-0.33c-0.182 0-0.33 0.148-0.33 0.33s0.148 0.33 0.33 0.33c0.182 0 0.33-0.148 0.33-0.33v-2.34c0-0.182-0.148-0.33-0.33-0.33 0 0 0 0 0 0zM6 1h4v1h-4v-1zM4 12c-0.552 0-1-0.448-1-1s0.448-1 1-1c0.552 0 1 0.448 1 1s-0.448 1-1 1zM3 8v-5h10v5h-10zM12 12c-0.552 0-1-0.448-1-1s0.448-1 1-1c0.552 0 1 0.448 1 1s-0.448 1-1 1z"></path>
</svg>
