<?xml version="1.0" encoding="utf-8"?>
<!-- Generated by IcoMoon.io -->
<!DOCTYPE svg PUBLIC "-//W3C//DTD SVG 1.1//EN" "http://www.w3.org/Graphics/SVG/1.1/DTD/svg11.dtd">
<svg version="1.1" xmlns="http://www.w3.org/2000/svg" xmlns:xlink="http://www.w3.org/1999/xlink" width="16" height="16" viewBox="0 0 16 16">
<path fill="#444" d="M9 3h6v2h-6v-2z"></path>
<path fill="#444" d="M9 11h6v2h-6v-2z"></path>
<path fill="#444" d="M5 1h-2v2h-2v2h2v2h2v-2h2v-2h-2z"></path>
<path fill="#444" d="M7 10.4l-1.4-1.4-1.6 1.6-1.6-1.6-1.4 1.4 1.6 1.6-1.6 1.6 1.4 1.4 1.6-1.6 1.6 1.6 1.4-1.4-1.6-1.6z"></path>
<path fill="#444" d="M13 14.5c0 0.552-0.448 1-1 1s-1-0.448-1-1c0-0.552 0.448-1 1-1s1 0.448 1 1z"></path>
<path fill="#444" d="M13 9.5c0 0.552-0.448 1-1 1s-1-0.448-1-1c0-0.552 0.448-1 1-1s1 0.448 1 1z"></path>
</svg>
