<?xml version="1.0" encoding="utf-8"?>
<!-- Generated by IcoMoon.io -->
<!DOCTYPE svg PUBLIC "-//W3C//DTD SVG 1.1//EN" "http://www.w3.org/Graphics/SVG/1.1/DTD/svg11.dtd">
<svg version="1.1" xmlns="http://www.w3.org/2000/svg" xmlns:xlink="http://www.w3.org/1999/xlink" width="16" height="16" viewBox="0 0 16 16">
<path fill="#444" d="M3 0h1v3h-1v-3z"></path>
<path fill="#444" d="M11 0h1v3h-1v-3z"></path>
<path fill="#444" d="M6.6 14h-5.6v-8h13v0.6c0.4 0.2 0.7 0.4 1 0.7v-6.3h-2v3h-3v-3h-5v3h-3v-3h-2v14h7.3c-0.3-0.3-0.5-0.6-0.7-1z"></path>
<path fill="#444" d="M14 12h-3v-3h1v2h2z"></path>
<path fill="#444" d="M11.5 8c1.9 0 3.5 1.6 3.5 3.5s-1.6 3.5-3.5 3.5-3.5-1.6-3.5-3.5 1.6-3.5 3.5-3.5zM11.5 7c-2.5 0-4.5 2-4.5 4.5s2 4.5 4.5 4.5 4.5-2 4.5-4.5-2-4.5-4.5-4.5v0z"></path>
</svg>
