<?xml version="1.0" encoding="utf-8"?>
<!-- Generated by IcoMoon.io -->
<!DOCTYPE svg PUBLIC "-//W3C//DTD SVG 1.1//EN" "http://www.w3.org/Graphics/SVG/1.1/DTD/svg11.dtd">
<svg version="1.1" xmlns="http://www.w3.org/2000/svg" xmlns:xlink="http://www.w3.org/1999/xlink" width="16" height="16" viewBox="0 0 16 16">
<path fill="#444" d="M16 14h-14v-1h13v-7h1v8z"></path>
<path fill="#444" d="M13 4v7h-12v-7h12zM14 3h-14v9h14v-9z"></path>
<path fill="#444" d="M3 6h-1v3h1v1h4c-1.381 0-2.5-1.119-2.5-2.5s1.119-2.5 2.5-2.5h-4v1z"></path>
<path fill="#444" d="M11 6v-1h-4c1.381 0 2.5 1.119 2.5 2.5s-1.119 2.5-2.5 2.5h4v-1h1v-3h-1z"></path>
</svg>
