<?xml version="1.0" encoding="utf-8"?>
<!-- Generated by IcoMoon.io -->
<!DOCTYPE svg PUBLIC "-//W3C//DTD SVG 1.1//EN" "http://www.w3.org/Graphics/SVG/1.1/DTD/svg11.dtd">
<svg version="1.1" xmlns="http://www.w3.org/2000/svg" xmlns:xlink="http://www.w3.org/1999/xlink" width="16" height="16" viewBox="0 0 16 16">
<path fill="#444" d="M14.1 8.9c0-0.2 0-0.4 0-0.6 0-2.4-1.9-4.3-4.2-4.3-0.6 0-1.2 0.1-1.8 0.4-0.5-0.7-1.5-1.2-2.4-1.2-1.6 0-2.9 1.2-2.9 2.8 0 0.3 0.1 0.6 0.2 0.9-1.6 0.2-3 1.8-3 3.5 0 1.9 1.5 3.6 3.3 3.6h10.3c1.4 0 2.4-1.4 2.4-2.6s-0.8-2.2-1.9-2.5zM13.6 13h-10.3c-1.2 0-2.3-1.2-2.3-2.5s1.1-2.5 2.3-2.5c0.1 0 0.3 0 0.4 0l1.3 0.3-0.8-1.2c-0.2-0.3-0.4-0.7-0.4-1.1 0-1 0.8-1.8 1.8-1.8 0.8 0 1.5 0.5 1.7 1.2l0.3 0.6 0.5-0.3c0.5-0.3 1.1-0.5 1.8-0.5 1.8 0 3.2 1.5 3.2 3.3 0 0.3 0 0.6-0.1 0.9l-0.2 0.6h0.8c0.7 0 1.4 0.7 1.4 1.5 0 0.6-0.6 1.5-1.4 1.5z"></path>
</svg>
