<?xml version="1.0" encoding="utf-8"?>
<!-- Generated by IcoMoon.io -->
<!DOCTYPE svg PUBLIC "-//W3C//DTD SVG 1.1//EN" "http://www.w3.org/Graphics/SVG/1.1/DTD/svg11.dtd">
<svg version="1.1" xmlns="http://www.w3.org/2000/svg" xmlns:xlink="http://www.w3.org/1999/xlink" width="16" height="16" viewBox="0 0 16 16">
<path fill="#444" d="M14.1 9.8c0-0.2 0-0.4 0-0.6 0-2.4-1.9-4.3-4.2-4.3-0.3 0.1-0.6 0.1-0.9 0.1v-3h-2v2.4c-0.4-0.3-0.9-0.4-1.3-0.4-1.6 0-2.9 1.3-2.9 2.9 0 0.3 0.1 0.6 0.2 0.9-1.6 0.2-3 1.8-3 3.6 0 1.9 1.5 3.6 3.3 3.6h10.3c1.4 0 2.4-1.5 2.4-2.7s-0.8-2.3-1.9-2.5zM13.6 14h-10.3c-1.2 0-2.3-1.3-2.3-2.6s1.1-2.6 2.3-2.6c0.1 0 0.3 0 0.4 0l1.4 0.2-0.9-1c-0.2-0.3-0.4-0.7-0.4-1.2 0-1 0.8-1.8 1.8-1.8 0.5 0 1 0.2 1.3 0.6v2.4h-1.9l3 4 3-4h-2v-1.9c0.3-0.1 0.6-0.1 0.9-0.1 1.8 0 3.2 1.5 3.2 3.3 0 0.3 0 0.6-0.1 0.9l-0.2 0.6 0.8 0.1c0.7 0 1.4 0.7 1.4 1.5 0 0.7-0.6 1.6-1.4 1.6z"></path>
</svg>
