<?xml version="1.0" encoding="utf-8"?>
<!-- Generated by IcoMoon.io -->
<!DOCTYPE svg PUBLIC "-//W3C//DTD SVG 1.1//EN" "http://www.w3.org/Graphics/SVG/1.1/DTD/svg11.dtd">
<svg version="1.1" xmlns="http://www.w3.org/2000/svg" xmlns:xlink="http://www.w3.org/1999/xlink" width="16" height="16" viewBox="0 0 16 16">
<path fill="#444" d="M15.2 6l-1.1-0.2c-0.1-0.2-0.1-0.4-0.2-0.6l0.6-0.9 0.5-0.7-2.6-2.6-0.7 0.5-0.9 0.6c-0.2-0.1-0.4-0.1-0.6-0.2l-0.2-1.1-0.2-0.8h-3.6l-0.2 0.8-0.2 1.1c-0.2 0.1-0.4 0.1-0.6 0.2l-0.9-0.6-0.7-0.4-2.5 2.5 0.5 0.7 0.6 0.9c-0.2 0.2-0.2 0.4-0.3 0.6l-1.1 0.2-0.8 0.2v3.6l0.8 0.2 1.1 0.2c0.1 0.2 0.1 0.4 0.2 0.6l-0.6 0.9-0.5 0.7 2.6 2.6 0.7-0.5 0.9-0.6c0.2 0.1 0.4 0.1 0.6 0.2l0.2 1.1 0.2 0.8h3.6l0.2-0.8 0.2-1.1c0.2-0.1 0.4-0.1 0.6-0.2l0.9 0.6 0.7 0.5 2.6-2.6-0.5-0.7-0.6-0.9c0.1-0.2 0.2-0.4 0.2-0.6l1.1-0.2 0.8-0.2v-3.6l-0.8-0.2zM15 9l-1.7 0.3c-0.1 0.5-0.3 1-0.6 1.5l0.9 1.4-1.4 1.4-1.4-0.9c-0.5 0.3-1 0.5-1.5 0.6l-0.3 1.7h-2l-0.3-1.7c-0.5-0.1-1-0.3-1.5-0.6l-1.4 0.9-1.4-1.4 0.9-1.4c-0.3-0.5-0.5-1-0.6-1.5l-1.7-0.3v-2l1.7-0.3c0.1-0.5 0.3-1 0.6-1.5l-1-1.4 1.4-1.4 1.4 0.9c0.5-0.3 1-0.5 1.5-0.6l0.4-1.7h2l0.3 1.7c0.5 0.1 1 0.3 1.5 0.6l1.4-0.9 1.4 1.4-0.9 1.4c0.3 0.5 0.5 1 0.6 1.5l1.7 0.3v2z"></path>
<path fill="#444" d="M8 4.5c-1.9 0-3.5 1.6-3.5 3.5s1.6 3.5 3.5 3.5 3.5-1.6 3.5-3.5c0-1.9-1.6-3.5-3.5-3.5zM8 10.5c-1.4 0-2.5-1.1-2.5-2.5s1.1-2.5 2.5-2.5 2.5 1.1 2.5 2.5c0 1.4-1.1 2.5-2.5 2.5z"></path>
</svg>
