<?xml version="1.0" encoding="utf-8"?>
<!-- Generated by IcoMoon.io -->
<!DOCTYPE svg PUBLIC "-//W3C//DTD SVG 1.1//EN" "http://www.w3.org/Graphics/SVG/1.1/DTD/svg11.dtd">
<svg version="1.1" xmlns="http://www.w3.org/2000/svg" xmlns:xlink="http://www.w3.org/1999/xlink" width="16" height="16" viewBox="0 0 16 16">
<path fill="#444" d="M5.951 0.249l0.981-0.195 0.195 0.981-0.981 0.195-0.195-0.981z"></path>
<path fill="#444" d="M8.877 14.966l0.981-0.195 0.195 0.981-0.981 0.195-0.195-0.981z"></path>
<path fill="#444" d="M0.055 9.071l0.981-0.195 0.195 0.981-0.981 0.195-0.195-0.981z"></path>
<path fill="#444" d="M14.773 6.145l0.981-0.195 0.195 0.981-0.981 0.195-0.195-0.981z"></path>
<path fill="#444" d="M11.471 1.897l0.556-0.831 0.831 0.556-0.556 0.831-0.831-0.556z"></path>
<path fill="#444" d="M3.139 14.441l0.56-0.83 0.83 0.56-0.56 0.83-0.83-0.56z"></path>
<path fill="#444" d="M1.069 3.989l0.56-0.83 0.83 0.56-0.56 0.83-0.83-0.56z"></path>
<path fill="#444" d="M13.547 12.299l0.556-0.831 0.831 0.556-0.556 0.831-0.831-0.556z"></path>
<path fill="#444" d="M8.875 1.039l0.195-0.981 0.981 0.195-0.195 0.981-0.981-0.195z"></path>
<path fill="#444" d="M5.953 15.745l0.195-0.981 0.981 0.195-0.195 0.981-0.981-0.195z"></path>
<path fill="#444" d="M0.061 6.931l0.195-0.981 0.981 0.195-0.195 0.981-0.981-0.195z"></path>
<path fill="#444" d="M14.767 9.854l0.195-0.981 0.981 0.195-0.195 0.981-0.981-0.195z"></path>
<path fill="#444" d="M3.139 1.628l0.831-0.556 0.556 0.831-0.831 0.556-0.556-0.831z"></path>
<path fill="#444" d="M11.477 14.101l0.831-0.556 0.556 0.831-0.831 0.556-0.556-0.831z"></path>
<path fill="#444" d="M1.071 12.033l0.831-0.556 0.556 0.831-0.831 0.556-0.556-0.831z"></path>
<path fill="#444" d="M13.539 3.63l0.83-0.56 0.56 0.83-0.83 0.56-0.56-0.83z"></path>
<path fill="#444" d="M14 8c-0.003-1.895-0.884-3.583-2.258-4.681l-3.322 4.991-0.84-0.59 3.32-5c-0.836-0.47-1.836-0.747-2.9-0.747-3.314 0-6 2.686-6 6s2.686 6 6 6c3.304 0 5.984-2.671 6-5.971z"></path>
</svg>
