<?xml version="1.0" encoding="utf-8"?>
<!-- Generated by IcoMoon.io -->
<!DOCTYPE svg PUBLIC "-//W3C//DTD SVG 1.1//EN" "http://www.w3.org/Graphics/SVG/1.1/DTD/svg11.dtd">
<svg version="1.1" xmlns="http://www.w3.org/2000/svg" xmlns:xlink="http://www.w3.org/1999/xlink" width="16" height="16" viewBox="0 0 16 16">
<path fill="#444" d="M4.1 11c1.4 0 1.9-1 1.9-1l-0.8-0.5c0 0-0.3 0.5-1 0.5s-1.2-0.9-1.2-2.2c0-1.2 0.6-1.8 1.2-1.8 0.5 0 0.9 0.4 0.9 0.4l0.8-0.6c0 0-0.7-0.8-1.7-0.8-1.1 0-2.2 0.9-2.2 2.8s0.9 3.2 2.1 3.2zM8.7 9.9c-0.3 0.1-0.7 0-1-0.4l-0.8 0.5c0.4 0.6 1 1 1.6 1 0.1 0 0.3 0 0.4-0.1 0.7-0.2 1.1-0.8 1.1-1.6 0-1.2-0.8-1.6-1.3-1.8-0.5-0.3-0.7-0.4-0.7-0.8s0.1-0.7 0.6-0.7c0.3 0 0.6 0.4 0.6 0.4l0.8-0.6c-0.2-0.3-0.7-0.8-1.4-0.8-0.9 0-1.6 0.6-1.6 1.6 0 1.1 0.7 1.5 1.2 1.8 0.6 0.2 0.8 0.4 0.8 0.9 0 0.3 0 0.6-0.3 0.6zM12.7 9.9c-0.3 0.1-0.7 0-1-0.4l-0.8 0.5c0.4 0.6 1 1 1.6 1 0.1 0 0.3 0 0.4-0.1 0.7-0.2 1.1-0.8 1.1-1.6 0-1.2-0.8-1.6-1.3-1.8-0.5-0.3-0.7-0.4-0.7-0.8s0.1-0.7 0.6-0.7c0.3 0 0.6 0.4 0.6 0.4l0.8-0.6c-0.2-0.3-0.7-0.8-1.4-0.8-0.9 0-1.6 0.6-1.6 1.6 0 1.1 0.7 1.5 1.2 1.8 0.6 0.2 0.8 0.4 0.8 0.9 0 0.3 0 0.6-0.3 0.6zM0 0v16h16v-16h-16zM15 15h-14v-14h14v14z"></path>
</svg>
