<?xml version="1.0" encoding="utf-8"?>
<!-- Generated by IcoMoon.io -->
<!DOCTYPE svg PUBLIC "-//W3C//DTD SVG 1.1//EN" "http://www.w3.org/Graphics/SVG/1.1/DTD/svg11.dtd">
<svg version="1.1" xmlns="http://www.w3.org/2000/svg" xmlns:xlink="http://www.w3.org/1999/xlink" width="16" height="16" viewBox="0 0 16 16">
<path fill="#444" d="M9 7v-1h-1v-1h-1v1h-0.5v1h0.5v3.56c0.176 0.835 0.907 1.453 1.783 1.453 0.077 0 0.152-0.005 0.226-0.014l-0.009-0.999c-0.055 0.012-0.119 0.019-0.185 0.019-0.359 0-0.669-0.21-0.813-0.514l-0.002-3.505h1z"></path>
<path fill="#444" d="M14 3h1v9h-1v-9z"></path>
<path fill="#444" d="M13 6c-0.025-0.001-0.055-0.001-0.085-0.001-0.773 0-1.462 0.358-1.911 0.917l-0.004-0.915h-1v6h1v-3c-0.003-0.037-0.004-0.080-0.004-0.124 0-1.038 0.842-1.88 1.88-1.88 0.044 0 0.087 0.001 0.13 0.004l-0.006-1z"></path>
<path fill="#444" d="M4.19 12c-2.030 0-3.19-1.46-3.19-4s1.16-4 3.19-4c0.009-0 0.019-0 0.029-0 0.539 0 1.052 0.114 1.515 0.32l-0.424 0.901c-0.319-0.139-0.69-0.22-1.080-0.22-0.014 0-0.028 0-0.042 0-1.808-0-2.188 1.63-2.188 3s0.38 3 2.19 3c0.497-0.013 0.96-0.145 1.366-0.368l0.444 0.898c-0.524 0.285-1.146 0.458-1.806 0.47z"></path>
</svg>
