<?xml version="1.0" encoding="utf-8"?>
<!-- Generated by IcoMoon.io -->
<!DOCTYPE svg PUBLIC "-//W3C//DTD SVG 1.1//EN" "http://www.w3.org/Graphics/SVG/1.1/DTD/svg11.dtd">
<svg version="1.1" xmlns="http://www.w3.org/2000/svg" xmlns:xlink="http://www.w3.org/1999/xlink" width="16" height="16" viewBox="0 0 16 16">
<path fill="#444" d="M13 0.8c0-0.5-0.4-0.8-0.8-0.8h-0.2c-1.7 0-3 1.9-3 4.7v0.9c0 1 0.5 1.9 1.4 2.4-0.3 1.2-0.4 2.5-0.4 2.5v4c0 0.8 0.7 1.5 1.5 1.5s1.5-0.7 1.5-1.5v-4c0-0.4-0.1-1.4-0.3-2.3 0.2-0.2 0.3-0.4 0.3-0.7v-6.7z"></path>
<path fill="#444" d="M7.2 0h-0.2v3.5c0 0.3-0.2 0.5-0.5 0.5s-0.5-0.2-0.5-0.5v-3c0-0.3-0.2-0.5-0.5-0.5s-0.5 0.2-0.5 0.5v3c0 0.3-0.2 0.5-0.5 0.5s-0.5-0.2-0.5-0.5v-3.5h-0.2c-0.4 0-0.8 0.4-0.8 0.8v3.7c0 1 0.6 1.9 1.5 2.3-0.4 1.6-0.5 3.7-0.5 3.7v4c0 0.8 0.7 1.5 1.5 1.5s1.5-0.7 1.5-1.5v-4c0-0.5-0.1-2.3-0.4-3.7 0.8-0.4 1.4-1.3 1.4-2.3v-3.7c0-0.4-0.4-0.8-0.8-0.8z"></path>
</svg>
