<?xml version="1.0" encoding="utf-8"?>
<!-- Generated by IcoMoon.io -->
<!DOCTYPE svg PUBLIC "-//W3C//DTD SVG 1.1//EN" "http://www.w3.org/Graphics/SVG/1.1/DTD/svg11.dtd">
<svg version="1.1" xmlns="http://www.w3.org/2000/svg" xmlns:xlink="http://www.w3.org/1999/xlink" width="16" height="16" viewBox="0 0 16 16">
<path fill="#444" d="M13 2h-10l-3 3.5 8 9.5 8-9.5zM4.64 5h-2.89l1.52-1.78zM6.42 5l1.58-1.84 1.58 1.84h-3.16zM10 6l-2 6.68-2-6.68h4zM5.26 6l1.89 6.44-5.42-6.44h3.53zM10.75 6h3.53l-5.43 6.44zM11.37 5l1.37-1.78 1.51 1.78h-2.9zM12 3l-1.44 1.81-1.46-1.81h2.9zM5.43 4.83l-1.43-1.83h2.9z"></path>
</svg>
