<?xml version="1.0" encoding="utf-8"?>
<!-- Generated by IcoMoon.io -->
<!DOCTYPE svg PUBLIC "-//W3C//DTD SVG 1.1//EN" "http://www.w3.org/Graphics/SVG/1.1/DTD/svg11.dtd">
<svg version="1.1" xmlns="http://www.w3.org/2000/svg" xmlns:xlink="http://www.w3.org/1999/xlink" width="16" height="16" viewBox="0 0 16 16">
<path fill="#444" d="M4.7 16v0c-1.7 0-3.1-0.8-4-2.1-1.1-1.7-0.9-4 0.4-5.8 0.9-1.3 2.1-2.1 3.6-2.4 1.2-0.3 2.2-1.1 2.5-2.2 0.2-0.8 0.7-1.5 1.3-2 0.9-1 2.2-1.5 3.5-1.5 1.1 0 2.2 0.4 2.9 1.2 1.5 1.6 1.5 4.2-0.1 6-0.5 0.6-1.2 1.1-2 1.4-1.2 0.5-2.2 1.6-2.6 3-0.3 1-0.8 1.9-1.5 2.6-1.1 1.2-2.6 1.8-4 1.8zM12 1c-1 0-2 0.4-2.8 1.2-0.5 0.5-0.8 1-1 1.6-0.5 1.5-1.8 2.5-3.3 2.9-1.2 0.2-2.2 0.9-3 2-1.1 1.5-1.2 3.3-0.3 4.7 0.6 1 1.8 1.6 3.1 1.6v0c1.2 0 2.4-0.5 3.3-1.4 0.6-0.6 1.1-1.4 1.3-2.2 0.4-1.7 1.6-3 3.2-3.6 0.6-0.2 1.2-0.7 1.6-1.2 1.2-1.4 1.3-3.5 0.1-4.7-0.6-0.6-1.4-0.9-2.2-0.9z"></path>
</svg>
