<?xml version="1.0" encoding="utf-8"?>
<!-- Generated by IcoMoon.io -->
<!DOCTYPE svg PUBLIC "-//W3C//DTD SVG 1.1//EN" "http://www.w3.org/Graphics/SVG/1.1/DTD/svg11.dtd">
<svg version="1.1" xmlns="http://www.w3.org/2000/svg" xmlns:xlink="http://www.w3.org/1999/xlink" width="16" height="16" viewBox="0 0 16 16">
<path fill="#444" d="M14 3.7v-0.7h-1.5l-4.5-3-4.6 3h-1.4v0.7l-2 1.3v11h16v-10.9l-2-1.4zM8 1.2l2.7 1.8h-5.5l2.8-1.8zM3 4h10v3.7l-3.5 1.7-1.5-1.3-1.5 1.4-3.5-1.7v-3.8zM1 5.5l1-0.7v2.4l-1-0.4v-1.3zM1 7.9l4.6 2.3-4.6 4v-6.3zM1.9 15l6.1-5.3 6.1 5.3h-12.2zM15 14.2l-4.7-4.1 4.7-2.3v6.4zM15 6.7l-1 0.5v-2.3l1 0.7v1.1z"></path>
</svg>
