<?xml version="1.0" encoding="utf-8"?>
<!-- Generated by IcoMoon.io -->
<!DOCTYPE svg PUBLIC "-//W3C//DTD SVG 1.1//EN" "http://www.w3.org/Graphics/SVG/1.1/DTD/svg11.dtd">
<svg version="1.1" xmlns="http://www.w3.org/2000/svg" xmlns:xlink="http://www.w3.org/1999/xlink" width="16" height="16" viewBox="0 0 16 16">
<path fill="#444" d="M10 0c1.1 0 2 0.9 2 2 0 0.9-0.6 1.7-1.5 1.9 0 0 0 0.1 0 0.1 0.4 0 0.7 0.2 1 0.5l1.3 1.3c0.1 0.1 0.3 0.2 0.5 0.2h1.7v-6h-5z"></path>
<path fill="#444" d="M11.8 14.5l-3.8-4.5v2.5c0 0.8-0.7 1.5-1.5 1.5h-3.5c-0.6 0-1-0.4-1-1s0.4-1 1-1h2.5c0.3 0 0.5-0.2 0.5-0.5v-2c0-0.7 0.1-1.3 0.4-2l0.7-1.5h-0.8c-0.5 0-0.9 0.2-1.2 0.6l-0.5 0.7c-0.2 0.4-0.7 0.5-1.2 0.3-0.4-0.3-0.6-0.9-0.2-1.3l0.6-0.8c0.7-1 1.9-1.5 3.1-1.5h2l0.1-0.3c-0.6-0.3-1-1-1-1.7 0-1.1 0.9-2 2-2h-7v4.9l-0.6 0.8c-0.3 0.4-0.5 0.9-0.4 1.5 0.1 0.5 0.4 1 0.9 1.3 0 0 0 0 0 0v2.5c-1.1 0-2 0.9-2 2s0.9 2 2 2v1h11.6c-1.1 0-2.1-0.6-2.7-1.5z"></path>
<path fill="#444" d="M11.4 7.3l-0.7-0.8-0.6 1.5c-0.2 0.5-0.3 0.9 0 1.3l4.9 6.1v-7.4h-2.1c-0.6 0-1.1-0.2-1.5-0.7z"></path>
</svg>
