<?xml version="1.0" encoding="utf-8"?>
<!-- Generated by IcoMoon.io -->
<!DOCTYPE svg PUBLIC "-//W3C//DTD SVG 1.1//EN" "http://www.w3.org/Graphics/SVG/1.1/DTD/svg11.dtd">
<svg version="1.1" xmlns="http://www.w3.org/2000/svg" xmlns:xlink="http://www.w3.org/1999/xlink" width="16" height="16" viewBox="0 0 16 16">
<path fill="#444" d="M4.4 1.3c-0.6 0.3-0.8 1.1-0.4 1.5 0.5-0.9 1.3-0.6 2.5 0.4 0.8 0.7 1.9 0.1 1.9 0.1s0.2 1.2 1.7 1.4c1.7 0.2 2.3-0.8 2.3-0.8s0.4 1 1.9 0.4c1.1-0.4 0.7-1.1 0.7-1.1s1 0 1-0.7c0-0.9-1.1-0.8-1.1-0.8s0.2-1-0.9-1.1c-1-0.1-1.3 0.5-1.3 0.5s-0.3-1.1-1.8-1.1c-1.4 0-1.9 1.3-1.9 1.3s-0.4-0.6-1.6-0.6c-0.9 0-1.3 0.7-1.3 0.7s-1.1-0.5-1.7-0.1z"></path>
<path fill="#444" d="M12 12.1v-2.1l-4 2.1v-2.1h-2.4l-0.6-7h-2l-0.6 7h-2.4v6h16v-6l-4 2.1zM6 14h-4v-2h4v2z"></path>
</svg>
