<?xml version="1.0" encoding="utf-8"?>
<!-- Generated by IcoMoon.io -->
<!DOCTYPE svg PUBLIC "-//W3C//DTD SVG 1.1//EN" "http://www.w3.org/Graphics/SVG/1.1/DTD/svg11.dtd">
<svg version="1.1" xmlns="http://www.w3.org/2000/svg" xmlns:xlink="http://www.w3.org/1999/xlink" width="16" height="16" viewBox="0 0 16 16">
<path fill="#444" d="M9.5 7.5c0 0.828-0.672 1.5-1.5 1.5s-1.5-0.672-1.5-1.5c0-0.828 0.672-1.5 1.5-1.5s1.5 0.672 1.5 1.5z"></path>
<path fill="#444" d="M14.27 4h-2.54c0 0 0 0 0 0-0.955 0-1.73 0.775-1.73 1.73v3.27c0 0.552 0.448 1 1 1v6h4v-6c0.552 0 1-0.448 1-1v-3.27c0-0.955-0.775-1.73-1.73-1.73 0 0 0 0 0 0z"></path>
<path fill="#444" d="M15 2c0 1.105-0.895 2-2 2s-2-0.895-2-2c0-1.105 0.895-2 2-2s2 0.895 2 2z"></path>
<path fill="#444" d="M4.27 5h-2.54c-0.955 0-1.73 0.775-1.73 1.73s0.775 1.73 1.73 1.73c0.955 0 1.73-0.775 1.73-1.73s-0.775-1.73-1.73-1.73c-0.955 0-1.73 0.775-1.73 1.73v2.27c0 0.552 0.448 1 1 1l-1 3h1v3h4v-3h1l-1-3c0.552 0 1-0.448 1-1v-2.27c0-0.955-0.775-1.73-1.73-1.73 0 0 0 0 0 0z"></path>
<path fill="#444" d="M5 3c0 1.105-0.895 2-2 2s-2-0.895-2-2c0-1.105 0.895-2 2-2s2 0.895 2 2z"></path>
<path fill="#444" d="M7 13v3h2v-3c0.552 0 1-0.448 1-1v-1.54c0-0.806-0.654-1.46-1.46-1.46 0 0 0 0 0 0h-1.080c-0.806 0-1.46 0.654-1.46 1.46 0 0 0 0 0 0v1.54c0 0.552 0.448 1 1 1z"></path>
</svg>
