<?xml version="1.0" encoding="utf-8"?>
<!-- Generated by IcoMoon.io -->
<!DOCTYPE svg PUBLIC "-//W3C//DTD SVG 1.1//EN" "http://www.w3.org/Graphics/SVG/1.1/DTD/svg11.dtd">
<svg version="1.1" xmlns="http://www.w3.org/2000/svg" xmlns:xlink="http://www.w3.org/1999/xlink" width="16" height="16" viewBox="0 0 16 16">
<path fill="#444" d="M4 2c0-1.1-0.9-2-2-2s-2 0.9-2 2c0 0.7 0.4 1.4 1 1.7v12.3h2v-12.3c0.6-0.3 1-1 1-1.7z"></path>
<path fill="#444" d="M7.6 2c1.2 0 1.6 0.2 2.1 0.4 0.5 0.3 1.1 0.6 2.3 0.6s2.2-0.2 3-0.5v6.3c-0.2 0.3-0.9 1.2-3 1.2-0.9 0-1.3-0.2-1.9-0.4-0.7-0.3-1.5-0.6-3.1-0.6-0.8 0-1.5 0.2-2 0.5v-5.3c0.2-0.5 1-2.2 2.6-2.2zM16 1c0 0-1.6 1-4 1-2.1 0-1.8-1-4.4-1s-3.6 3-3.6 3v8c0 0 0.7-2 3-2 2.7 0 2.8 1 5 1 3.3 0 4-2 4-2v-8z"></path>
</svg>
