<?xml version="1.0" encoding="utf-8"?>
<!-- Generated by IcoMoon.io -->
<!DOCTYPE svg PUBLIC "-//W3C//DTD SVG 1.1//EN" "http://www.w3.org/Graphics/SVG/1.1/DTD/svg11.dtd">
<svg version="1.1" xmlns="http://www.w3.org/2000/svg" xmlns:xlink="http://www.w3.org/1999/xlink" width="16" height="16" viewBox="0 0 16 16">
<path fill="#444" d="M2 0c-1.1 0-2 0.9-2 2 0 0.7 0.4 1.4 1 1.7v12.3h2v-12.3c0.6-0.3 1-1 1-1.7 0-1.1-0.9-2-2-2z"></path>
<path fill="#444" d="M12 2c-2.1 0-1.8-1-4.4-1s-3.6 3-3.6 3v8c0 0 0.7-2 3-2 2.7 0 2.8 1 5 1 3.3 0 4-2 4-2v-8c0 0-1.6 1-4 1zM15 4.5c-0.2 0.2-0.8 0.4-2 0.6v-2.2c0.8-0.1 1.5-0.2 2-0.4v2zM5 7.9v-2.6c0.4-0.6 1.1-1.1 2-1.1v-2.1c0.2-0.1 0.4-0.1 0.6-0.1 1.2 0 1.6 0.2 2.1 0.4 0.1 0.1 0.2 0.2 0.3 0.2v2.2c0.5 0.2 1.1 0.4 2 0.4 0.4 0 0.7 0 1-0.1v2.6c-0.3 0-0.6 0.1-1 0.1-1.1 0-1.5-0.2-2-0.5v2.3c-0.7-0.3-1.5-0.6-3-0.6v-2.2c-0.9 0.2-1.5 0.6-2 1.1zM13 9.9v-2.2c1.1-0.2 1.7-0.6 2-0.8v1.8c-0.2 0.3-0.7 1-2 1.2z"></path>
<path fill="#444" d="M10 7.2v-2.4c0 0-1.2-0.6-3-0.6v2.6c1.7-0.4 3 0.4 3 0.4z"></path>
</svg>
