<?xml version="1.0" encoding="utf-8"?>
<!-- Generated by IcoMoon.io -->
<!DOCTYPE svg PUBLIC "-//W3C//DTD SVG 1.1//EN" "http://www.w3.org/Graphics/SVG/1.1/DTD/svg11.dtd">
<svg version="1.1" xmlns="http://www.w3.org/2000/svg" xmlns:xlink="http://www.w3.org/1999/xlink" width="16" height="16" viewBox="0 0 16 16">
<path fill="#444" d="M12.16 2c-1.215 0.603-2.641 0.968-4.149 1-1.53-0.032-2.956-0.397-4.229-1.026-2.611 0.026-3.781 1.196-3.781 3.866v6c0.017 1.197 0.991 2.16 2.19 2.16 0 0 0 0 0 0h0.23c0 0 0.001 0 0.002 0 0.963 0 1.78-0.621 2.074-1.485 0.305-0.915 1.145-2.515 2.085-2.515h2.84c0.94 0 1.78 1.6 2.080 2.5 0.298 0.879 1.116 1.5 2.078 1.5 0.001 0 0.001 0 0.002 0h0.23c1.21 0 2.19-0.98 2.19-2.19v-6c0-2.64-1.17-3.81-3.84-3.81zM5 7h-1v1h-1v-1h-1v-1h1v-1h1v1h1v1zM10.060 8.11c-0.585 0-1.060-0.475-1.060-1.060s0.475-1.060 1.060-1.060c0.585 0 1.060 0.475 1.060 1.060s-0.475 1.060-1.060 1.060zM13 8c-0.552 0-1-0.448-1-1s0.448-1 1-1c0.552 0 1 0.448 1 1s-0.448 1-1 1z"></path>
</svg>
