<?xml version="1.0" encoding="utf-8"?>
<!-- Generated by IcoMoon.io -->
<!DOCTYPE svg PUBLIC "-//W3C//DTD SVG 1.1//EN" "http://www.w3.org/Graphics/SVG/1.1/DTD/svg11.dtd">
<svg version="1.1" xmlns="http://www.w3.org/2000/svg" xmlns:xlink="http://www.w3.org/1999/xlink" width="16" height="16" viewBox="0 0 16 16">
<path fill="#444" d="M15.5 7h-0.5c-0.1 0-0.1 0-0.2 0-0.4-1.2-1.5-2-2.8-2s-2.4 0.9-2.8 2.1c-0.3-0.4-0.7-0.6-1.2-0.6s-0.9 0.2-1.2 0.6c-0.4-1.2-1.5-2.1-2.8-2.1s-2.4 0.9-2.8 2c-0.1 0-0.1 0-0.2 0h-0.5c-0.3 0-0.5 0.2-0.5 0.5s0.2 0.5 0.5 0.5h0.5c0 1.7 1.3 3 3 3 1.5 0 2.7-1.1 3-2.5 0 0 0 0 0 0 0.3 0 0.5-0.2 0.5-0.5s0.2-0.5 0.5-0.5 0.5 0.2 0.5 0.5c0 0.3 0.2 0.5 0.5 0.5 0 0 0 0 0 0 0.2 1.4 1.5 2.5 3 2.5 1.7 0 3-1.3 3-3h0.5c0.3 0 0.5-0.2 0.5-0.5s-0.2-0.5-0.5-0.5zM4 10c-1.1 0-2-0.9-2-2s0.9-2 2-2 2 0.9 2 2-0.9 2-2 2zM12 10c-1.1 0-2-0.9-2-2s0.9-2 2-2 2 0.9 2 2-0.9 2-2 2z"></path>
</svg>
