<?xml version="1.0" encoding="utf-8"?>
<!-- Generated by IcoMoon.io -->
<!DOCTYPE svg PUBLIC "-//W3C//DTD SVG 1.1//EN" "http://www.w3.org/Graphics/SVG/1.1/DTD/svg11.dtd">
<svg version="1.1" xmlns="http://www.w3.org/2000/svg" xmlns:xlink="http://www.w3.org/1999/xlink" width="16" height="16" viewBox="0 0 16 16">
<path fill="#444" d="M12.6 4c-0.2 0-0.4 0-0.6 0 0-0.2-0.2-0.6-0.4-0.8s-0.5-0.4-1.1-0.4c-0.2 0-0.4 0-0.6 0.1-0.1-0.2-0.2-0.3-0.3-0.5-0.2-0.2-0.5-0.4-1.1-0.4-0.8 0-1.2 0.5-1.4 1-0.1 0-0.3-0.1-0.5-0.1-0.5 0-0.8 0.2-1.1 0.4-0.5 0.6-0.5 1.4-0.5 1.5v0.4c-0.6 0-1.1 0.2-1.4 0.5-0.6 0.7-0.6 1.6-0.6 2.8 0 0.2 0 0.5 0 0.7 0 1.4 0.7 2.1 1.4 2.8l0.3 0.4c1.3 1.2 2.5 1.6 5.1 1.6 2.9 0 4.2-1.6 4.2-5.1v-2.5c0-0.7-0.2-2.1-1.4-2.4zM10.5 3.8c0.4 0 0.5 0.4 0.5 0.6v0.8c0 0.3 0.2 0.5 0.4 0.5 0.3 0 0.5-0.1 0.5-0.4 0 0 0-0.4 0.4-0.3 0.6 0.2 0.7 1.1 0.7 1.3 0 0 0 0 0 0v2.6c0 3.4-1.3 4.1-3.2 4.1-2.4 0-3.3-0.3-4.3-1.3-0.1-0.1-0.2-0.2-0.4-0.4-0.7-0.7-1.1-1.1-1.1-2.1 0-0.2 0-0.3 0-0.6 0-1 0-1.8 0.3-2.1 0.1-0.2 0.4-0.3 0.7-0.3v0.8l-0.3 1.2c0 0.1 0 0.1 0.1 0.1 0.1 0.1 0.2 0 0.2 0l1-1.2c0 0 0-0.1 0-0.1v-2c0-0.1 0-0.6 0.2-0.8 0.1-0.1 0.2-0.2 0.4-0.2 0.3 0 0.4 0.2 0.4 0.4v0.4c0 0.2 0.2 0.5 0.5 0.5s0.5-0.3 0.5-0.5v-1.3c0-0.1 0-0.5 0.5-0.5 0.3 0 0.5 0.2 0.5 0.5v1.2c0 0.3 0.2 0.6 0.5 0.6s0.5-0.3 0.5-0.5v-0.5c0-0.3 0.2-0.5 0.5-0.5z"></path>
</svg>
