<?xml version="1.0" encoding="utf-8"?>
<!-- Generated by IcoMoon.io -->
<!DOCTYPE svg PUBLIC "-//W3C//DTD SVG 1.1//EN" "http://www.w3.org/Graphics/SVG/1.1/DTD/svg11.dtd">
<svg version="1.1" xmlns="http://www.w3.org/2000/svg" xmlns:xlink="http://www.w3.org/1999/xlink" width="16" height="16" viewBox="0 0 16 16">
<path fill="#444" d="M11.18 6.060c1.107-0.808 1.819-2.101 1.82-3.56v-0.5h1v-2h-12v2h1v0.5c0.001 1.459 0.713 2.752 1.808 3.551 0.672 0.43 1.121 1.13 1.192 1.939-0.093 0.848-0.551 1.564-1.209 2.003-1.081 0.814-1.772 2.078-1.79 3.503l-0 0.503h-1v2h12v-2h-1v-0.5c-0.018-1.429-0.709-2.692-1.769-3.492-0.68-0.454-1.138-1.169-1.23-1.996 0.071-0.831 0.52-1.532 1.169-1.946zM9 8c0.072 1.142 0.655 2.136 1.519 2.763 0.877 0.623 1.445 1.61 1.481 2.732l0 0.505h-8v-0.5c0.036-1.127 0.604-2.114 1.459-2.723 0.886-0.642 1.468-1.635 1.54-2.766-0.063-1.124-0.641-2.091-1.498-2.683-0.914-0.633-1.499-1.662-1.502-2.827v-0.5h8v0.5c-0.003 1.166-0.587 2.195-1.479 2.813-0.88 0.607-1.458 1.574-1.521 2.678z"></path>
</svg>
