<?xml version="1.0" encoding="utf-8"?>
<!-- Generated by IcoMoon.io -->
<!DOCTYPE svg PUBLIC "-//W3C//DTD SVG 1.1//EN" "http://www.w3.org/Graphics/SVG/1.1/DTD/svg11.dtd">
<svg version="1.1" xmlns="http://www.w3.org/2000/svg" xmlns:xlink="http://www.w3.org/1999/xlink" width="16" height="16" viewBox="0 0 16 16">
<path fill="#444" d="M12 8v-3.1c0-2.2-1.6-3.9-3.8-3.9h-0.3c-2.1 0-3.9 1.7-3.9 3.9v3.1h-1l0.1 5c0 0-0.1 3 4.9 3s5-3 5-3v-5h-1zM9 14h-1v-2c-0.6 0-1-0.4-1-1s0.4-1 1-1 1 0.4 1 1v3zM10 8h-4v-3.1c0-1.1 0.9-1.9 1.9-1.9h0.3c1 0 1.8 0.8 1.8 1.9v3.1z"></path>
</svg>
