<?xml version="1.0" encoding="utf-8"?>
<!-- Generated by IcoMoon.io -->
<!DOCTYPE svg PUBLIC "-//W3C//DTD SVG 1.1//EN" "http://www.w3.org/Graphics/SVG/1.1/DTD/svg11.dtd">
<svg version="1.1" xmlns="http://www.w3.org/2000/svg" xmlns:xlink="http://www.w3.org/1999/xlink" width="16" height="16" viewBox="0 0 16 16">
<path fill="#444" d="M15 2v1h-1v-1h-1v1h-1v-1h-1v1h-1v-1h-1v1h-1v-1h-1v1h-1v-1h-1v1h-1v-1h-1v1h-1v-1h-1v1h-1v13h16v-14h-1zM15 15h-14v-11h14v11z"></path>
<path fill="#444" d="M15 0h1v1h-1v-1z"></path>
<path fill="#444" d="M14 1h1v1h-1v-1z"></path>
<path fill="#444" d="M13 0h1v1h-1v-1z"></path>
<path fill="#444" d="M12 1h1v1h-1v-1z"></path>
<path fill="#444" d="M11 0h1v1h-1v-1z"></path>
<path fill="#444" d="M10 1h1v1h-1v-1z"></path>
<path fill="#444" d="M9 0h1v1h-1v-1z"></path>
<path fill="#444" d="M8 1h1v1h-1v-1z"></path>
<path fill="#444" d="M7 0h1v1h-1v-1z"></path>
<path fill="#444" d="M6 1h1v1h-1v-1z"></path>
<path fill="#444" d="M5 0h1v1h-1v-1z"></path>
<path fill="#444" d="M4 1h1v1h-1v-1z"></path>
<path fill="#444" d="M3 0h1v1h-1v-1z"></path>
<path fill="#444" d="M2 1h1v1h-1v-1z"></path>
<path fill="#444" d="M1 0h1v1h-1v-1z"></path>
<path fill="#444" d="M0 1h1v1h-1v-1z"></path>
</svg>
