<?xml version="1.0" encoding="utf-8"?>
<!-- Generated by IcoMoon.io -->
<!DOCTYPE svg PUBLIC "-//W3C//DTD SVG 1.1//EN" "http://www.w3.org/Graphics/SVG/1.1/DTD/svg11.dtd">
<svg version="1.1" xmlns="http://www.w3.org/2000/svg" xmlns:xlink="http://www.w3.org/1999/xlink" width="16" height="16" viewBox="0 0 16 16">
<path fill="#444" d="M2 0v1h1v1h-1v1h1v1h-1v1h1v1h-1v1h1v1h-1v1h1v1h-1v1h1v1h-1v1h1v1h-1v1h1v1h13v-16h-14zM15 15h-11v-14h11v14z"></path>
<path fill="#444" d="M0 0h1v1h-1v-1z"></path>
<path fill="#444" d="M1 1h1v1h-1v-1z"></path>
<path fill="#444" d="M0 2h1v1h-1v-1z"></path>
<path fill="#444" d="M1 3h1v1h-1v-1z"></path>
<path fill="#444" d="M0 4h1v1h-1v-1z"></path>
<path fill="#444" d="M1 5h1v1h-1v-1z"></path>
<path fill="#444" d="M0 6h1v1h-1v-1z"></path>
<path fill="#444" d="M1 7h1v1h-1v-1z"></path>
<path fill="#444" d="M0 8h1v1h-1v-1z"></path>
<path fill="#444" d="M1 9h1v1h-1v-1z"></path>
<path fill="#444" d="M0 10h1v1h-1v-1z"></path>
<path fill="#444" d="M1 11h1v1h-1v-1z"></path>
<path fill="#444" d="M0 12h1v1h-1v-1z"></path>
<path fill="#444" d="M1 13h1v1h-1v-1z"></path>
<path fill="#444" d="M0 14h1v1h-1v-1z"></path>
<path fill="#444" d="M1 15h1v1h-1v-1z"></path>
</svg>
