<?xml version="1.0" encoding="utf-8"?>
<!-- Generated by IcoMoon.io -->
<!DOCTYPE svg PUBLIC "-//W3C//DTD SVG 1.1//EN" "http://www.w3.org/Graphics/SVG/1.1/DTD/svg11.dtd">
<svg version="1.1" xmlns="http://www.w3.org/2000/svg" xmlns:xlink="http://www.w3.org/1999/xlink" width="16" height="16" viewBox="0 0 16 16">
<path fill="#444" d="M1 11.9l-1 4.1 4.1-1 9.2-9.2-3.1-3.1-9.2 9.2zM1.5 15l-0.4-0.5 0.4-2 2 2-2 0.5zM10.9 4.4l-8.1 8-0.6-0.6 8.1-8 0.6 0.6z"></path>
<path fill="#444" d="M15.3 0.7c-1.1-1.1-2.6-0.5-2.6-0.5l-1.5 1.5 3.1 3.1 1.5-1.5c0-0.1 0.6-1.5-0.5-2.6zM13.4 1.6l-0.5-0.5c0.6-0.6 1.1-0.1 1.1-0.1l-0.6 0.6z"></path>
</svg>
