<?xml version="1.0" encoding="utf-8"?>
<!-- Generated by IcoMoon.io -->
<!DOCTYPE svg PUBLIC "-//W3C//DTD SVG 1.1//EN" "http://www.w3.org/Graphics/SVG/1.1/DTD/svg11.dtd">
<svg version="1.1" xmlns="http://www.w3.org/2000/svg" xmlns:xlink="http://www.w3.org/1999/xlink" width="16" height="16" viewBox="0 0 16 16">
<path fill="#444" d="M5 11h3v5h-3v-5z"></path>
<path fill="#444" d="M1 14h3v2h-3v-2z"></path>
<path fill="#444" d="M13 12h3v4h-3v-4z"></path>
<path fill="#444" d="M9 9h3v7h-3v-7z"></path>
<path fill="#444" d="M5 0c-2.761 0-5 2.239-5 5s2.239 5 5 5c2.761 0 5-2.239 5-5s-2.239-5-5-5zM5 9c-2.209 0-4-1.791-4-4s1.791-4 4-4v4h4c0 2.209-1.791 4-4 4z"></path>
</svg>
