<?xml version="1.0" encoding="utf-8"?>
<!-- Generated by IcoMoon.io -->
<!DOCTYPE svg PUBLIC "-//W3C//DTD SVG 1.1//EN" "http://www.w3.org/Graphics/SVG/1.1/DTD/svg11.dtd">
<svg version="1.1" xmlns="http://www.w3.org/2000/svg" xmlns:xlink="http://www.w3.org/1999/xlink" width="16" height="16" viewBox="0 0 16 16">
<path fill="#444" d="M15.93 7.75c-0.061-0.2-0.165-0.371-0.3-0.51-0.105-0.113-0.241-0.197-0.394-0.238 0.074 0.117 0.141 0.252 0.191 0.396 0.056 0.147 0.092 0.304 0.103 0.467 0.008 0.067 0.012 0.138 0.012 0.21s-0.004 0.143-0.012 0.214c-0.035-0.115-0.083-0.208-0.142-0.292-0.123-0.166-0.288-0.299-0.48-0.383-0.119-0.053-0.248-0.082-0.384-0.082-0.346 0-0.648 0.186-0.811 0.464-0.050 0.082-0.090 0.171-0.12 0.266-1.182-1.968-3.309-3.271-5.741-3.271-0.124 0-0.247 0.003-0.369 0.010-0.763 0.001-1.517 0.11-2.231 0.313-0.062-0.434-0.632-1.314-3.252-1.314l0.8 2.51c-0.507 0.411-0.927 0.905-1.247 1.465l-1.553 0.025s-0.17 4 1 4h0.54c0.379 0.638 0.868 1.171 1.445 1.589l0.015 2.411h1.080c1.31 0 1.92 0 1.92-0.75v-0.39c0.451 0.088 0.97 0.139 1.5 0.139s1.049-0.051 1.551-0.147l-0.051 0.398c0 0.75 0.62 0.75 1.94 0.75h1.060v-2.39c0.932-0.651 1.613-1.605 1.903-2.717 0.057-0.027 0.114-0.024 0.172-0.024s0.115-0.003 0.172-0.010c0.251-0.046 0.48-0.144 0.679-0.283 0.266-0.188 0.474-0.454 0.591-0.765 0.028-0.093 0.049-0.191 0.063-0.292l0.001-0.010c0.221-0.262 0.372-0.59 0.419-0.951 0.012-0.084 0.019-0.171 0.019-0.259 0-0.197-0.032-0.386-0.091-0.563zM3.51 7.75c0.414 0 0.75 0.336 0.75 0.75s-0.336 0.75-0.75 0.75c-0.414 0-0.75-0.336-0.75-0.75s0.336-0.75 0.75-0.75zM5.88 7c-0.046 0.015-0.099 0.024-0.154 0.024-0.194 0-0.362-0.11-0.445-0.271-0.013-0.038-0.019-0.078-0.019-0.12 0-0.19 0.136-0.348 0.315-0.383 0.571-0.141 1.224-0.221 1.896-0.221 0.038 0 0.075 0 0.113 0.001 0.026-0 0.064-0.001 0.101-0.001 0.672 0 1.324 0.080 1.949 0.232 0.126 0.024 0.262 0.182 0.262 0.372 0 0.042-0.007 0.082-0.019 0.119-0.070 0.129-0.197 0.223-0.346 0.247l-0.153 0c-0.512-0.127-1.101-0.2-1.706-0.2-0.016 0-0.031 0-0.047 0-0.011-0-0.026-0-0.042-0-0.605 0-1.193 0.073-1.756 0.211zM14.58 9.93c-0.13 0.095-0.285 0.165-0.453 0.199l-0.127 0.001s0-0.13 0-0.13 0-0.21 0-0.31c0.165 0.125 0.374 0.2 0.6 0.2 0.007 0 0.014-0 0.021-0zM14.66 9.25c-0.018 0.003-0.040 0.004-0.061 0.004-0.176 0-0.327-0.103-0.398-0.252-0.044-0.084-0.069-0.18-0.069-0.283s0.025-0.199 0.070-0.283c0.059-0.082 0.157-0.138 0.269-0.138 0.059 0 0.113 0.015 0.161 0.042 0.181 0.070 0.308 0.244 0.308 0.448 0 0 0 0.001 0 0.001 0.009 0.062 0.014 0.133 0.014 0.205s-0.005 0.143-0.015 0.213c-0.066 0.012-0.144 0.024-0.224 0.024-0.019 0-0.039-0.001-0.058-0.002z"></path>
<path fill="#444" d="M8 3h-1v-0.17h0.25v-1.090h-0.25l0.55-0.55h0.2v1.64h0.25v0.17z"></path>
<path fill="#444" d="M7.5 0.75c0.828 0 1.5 0.672 1.5 1.5s-0.672 1.5-1.5 1.5c-0.828 0-1.5-0.672-1.5-1.5s0.672-1.5 1.5-1.5zM7.5 0c-1.243 0-2.25 1.007-2.25 2.25s1.007 2.25 2.25 2.25c1.243 0 2.25-1.007 2.25-2.25s-1.007-2.25-2.25-2.25v0z"></path>
</svg>
