<?xml version="1.0" encoding="utf-8"?>
<!-- Generated by IcoMoon.io -->
<!DOCTYPE svg PUBLIC "-//W3C//DTD SVG 1.1//EN" "http://www.w3.org/Graphics/SVG/1.1/DTD/svg11.dtd">
<svg version="1.1" xmlns="http://www.w3.org/2000/svg" xmlns:xlink="http://www.w3.org/1999/xlink" width="16" height="16" viewBox="0 0 16 16">
<path fill="#444" d="M13 12h-2c-1 0-1.7-1.2-2.4-2.7-0.3 0.7-0.6 1.5-1 2.3 0.8 1.4 1.8 2.4 3.4 2.4h2v2l3-3-3-3v2z"></path>
<path fill="#444" d="M5.4 6.6c0.3-0.7 0.6-1.5 1-2.2-0.8-1.4-1.9-2.4-3.4-2.4h-3v2h3c1 0 1.7 1.2 2.4 2.6z"></path>
<path fill="#444" d="M16 3l-3-3v2h-2c-2.7 0-3.9 3-5 5.7-0.8 2.1-1.7 4.3-3 4.3h-3v2h3c2.6 0 3.8-2.8 4.9-5.6 0.9-2.2 1.8-4.4 3.1-4.4h2v2l3-3z"></path>
</svg>
