<?xml version="1.0" encoding="utf-8"?>
<!-- Generated by IcoMoon.io -->
<!DOCTYPE svg PUBLIC "-//W3C//DTD SVG 1.1//EN" "http://www.w3.org/Graphics/SVG/1.1/DTD/svg11.dtd">
<svg version="1.1" xmlns="http://www.w3.org/2000/svg" xmlns:xlink="http://www.w3.org/1999/xlink" width="16" height="16" viewBox="0 0 16 16">
<path fill="#444" d="M7 7h1v1h-1v-1z"></path>
<path fill="#444" d="M5 7h1v1h-1v-1z"></path>
<path fill="#444" d="M3 7h1v1h-1v-1z"></path>
<path fill="#444" d="M1 7h1v1h-1v-1z"></path>
<path fill="#444" d="M6 6h1v1h-1v-1z"></path>
<path fill="#444" d="M4 6h1v1h-1v-1z"></path>
<path fill="#444" d="M2 6h1v1h-1v-1z"></path>
<path fill="#444" d="M0 6h1v1h-1v-1z"></path>
<path fill="#444" d="M7 5h1v1h-1v-1z"></path>
<path fill="#444" d="M5 5h1v1h-1v-1z"></path>
<path fill="#444" d="M3 5h1v1h-1v-1z"></path>
<path fill="#444" d="M1 5h1v1h-1v-1z"></path>
<path fill="#444" d="M6 4h1v1h-1v-1z"></path>
<path fill="#444" d="M4 4h1v1h-1v-1z"></path>
<path fill="#444" d="M2 4h1v1h-1v-1z"></path>
<path fill="#444" d="M0 4h1v1h-1v-1z"></path>
<path fill="#444" d="M7 3h1v1h-1v-1z"></path>
<path fill="#444" d="M5 3h1v1h-1v-1z"></path>
<path fill="#444" d="M3 3h1v1h-1v-1z"></path>
<path fill="#444" d="M1 3h1v1h-1v-1z"></path>
<path fill="#444" d="M6 2h1v1h-1v-1z"></path>
<path fill="#444" d="M4 2h1v1h-1v-1z"></path>
<path fill="#444" d="M2 2h1v1h-1v-1z"></path>
<path fill="#444" d="M0 2h1v1h-1v-1z"></path>
<path fill="#444" d="M7 1h1v1h-1v-1z"></path>
<path fill="#444" d="M5 1h1v1h-1v-1z"></path>
<path fill="#444" d="M3 1h1v1h-1v-1z"></path>
<path fill="#444" d="M1 1h1v1h-1v-1z"></path>
<path fill="#444" d="M6 0h1v1h-1v-1z"></path>
<path fill="#444" d="M4 0h1v1h-1v-1z"></path>
<path fill="#444" d="M2 0h1v1h-1v-1z"></path>
<path fill="#444" d="M0 0h1v1h-1v-1z"></path>
<path fill="#444" d="M15 7h1v1h-1v-1z"></path>
<path fill="#444" d="M13 7h1v1h-1v-1z"></path>
<path fill="#444" d="M11 7h1v1h-1v-1z"></path>
<path fill="#444" d="M9 7h1v1h-1v-1z"></path>
<path fill="#444" d="M14 6h1v1h-1v-1z"></path>
<path fill="#444" d="M12 6h1v1h-1v-1z"></path>
<path fill="#444" d="M10 6h1v1h-1v-1z"></path>
<path fill="#444" d="M8 6h1v1h-1v-1z"></path>
<path fill="#444" d="M15 5h1v1h-1v-1z"></path>
<path fill="#444" d="M13 5h1v1h-1v-1z"></path>
<path fill="#444" d="M11 5h1v1h-1v-1z"></path>
<path fill="#444" d="M9 5h1v1h-1v-1z"></path>
<path fill="#444" d="M14 4h1v1h-1v-1z"></path>
<path fill="#444" d="M12 4h1v1h-1v-1z"></path>
<path fill="#444" d="M10 4h1v1h-1v-1z"></path>
<path fill="#444" d="M8 4h1v1h-1v-1z"></path>
<path fill="#444" d="M15 3h1v1h-1v-1z"></path>
<path fill="#444" d="M13 3h1v1h-1v-1z"></path>
<path fill="#444" d="M11 3h1v1h-1v-1z"></path>
<path fill="#444" d="M9 3h1v1h-1v-1z"></path>
<path fill="#444" d="M14 2h1v1h-1v-1z"></path>
<path fill="#444" d="M12 2h1v1h-1v-1z"></path>
<path fill="#444" d="M10 2h1v1h-1v-1z"></path>
<path fill="#444" d="M8 2h1v1h-1v-1z"></path>
<path fill="#444" d="M15 1h1v1h-1v-1z"></path>
<path fill="#444" d="M13 1h1v1h-1v-1z"></path>
<path fill="#444" d="M11 1h1v1h-1v-1z"></path>
<path fill="#444" d="M9 1h1v1h-1v-1z"></path>
<path fill="#444" d="M14 0h1v1h-1v-1z"></path>
<path fill="#444" d="M12 0h1v1h-1v-1z"></path>
<path fill="#444" d="M10 0h1v1h-1v-1z"></path>
<path fill="#444" d="M8 0h1v1h-1v-1z"></path>
<path fill="#444" d="M7 15h1v1h-1v-1z"></path>
<path fill="#444" d="M5 15h1v1h-1v-1z"></path>
<path fill="#444" d="M3 15h1v1h-1v-1z"></path>
<path fill="#444" d="M1 15h1v1h-1v-1z"></path>
<path fill="#444" d="M6 14h1v1h-1v-1z"></path>
<path fill="#444" d="M4 14h1v1h-1v-1z"></path>
<path fill="#444" d="M2 14h1v1h-1v-1z"></path>
<path fill="#444" d="M0 14h1v1h-1v-1z"></path>
<path fill="#444" d="M7 13h1v1h-1v-1z"></path>
<path fill="#444" d="M5 13h1v1h-1v-1z"></path>
<path fill="#444" d="M3 13h1v1h-1v-1z"></path>
<path fill="#444" d="M1 13h1v1h-1v-1z"></path>
<path fill="#444" d="M6 12h1v1h-1v-1z"></path>
<path fill="#444" d="M4 12h1v1h-1v-1z"></path>
<path fill="#444" d="M2 12h1v1h-1v-1z"></path>
<path fill="#444" d="M0 12h1v1h-1v-1z"></path>
<path fill="#444" d="M7 11h1v1h-1v-1z"></path>
<path fill="#444" d="M5 11h1v1h-1v-1z"></path>
<path fill="#444" d="M3 11h1v1h-1v-1z"></path>
<path fill="#444" d="M1 11h1v1h-1v-1z"></path>
<path fill="#444" d="M6 10h1v1h-1v-1z"></path>
<path fill="#444" d="M4 10h1v1h-1v-1z"></path>
<path fill="#444" d="M2 10h1v1h-1v-1z"></path>
<path fill="#444" d="M0 10h1v1h-1v-1z"></path>
<path fill="#444" d="M7 9h1v1h-1v-1z"></path>
<path fill="#444" d="M5 9h1v1h-1v-1z"></path>
<path fill="#444" d="M3 9h1v1h-1v-1z"></path>
<path fill="#444" d="M1 9h1v1h-1v-1z"></path>
<path fill="#444" d="M6 8h1v1h-1v-1z"></path>
<path fill="#444" d="M4 8h1v1h-1v-1z"></path>
<path fill="#444" d="M2 8h1v1h-1v-1z"></path>
<path fill="#444" d="M0 8h1v1h-1v-1z"></path>
<path fill="#444" d="M15 15h1v1h-1v-1z"></path>
<path fill="#444" d="M13 15h1v1h-1v-1z"></path>
<path fill="#444" d="M11 15h1v1h-1v-1z"></path>
<path fill="#444" d="M9 15h1v1h-1v-1z"></path>
<path fill="#444" d="M14 14h1v1h-1v-1z"></path>
<path fill="#444" d="M12 14h1v1h-1v-1z"></path>
<path fill="#444" d="M10 14h1v1h-1v-1z"></path>
<path fill="#444" d="M8 14h1v1h-1v-1z"></path>
<path fill="#444" d="M15 13h1v1h-1v-1z"></path>
<path fill="#444" d="M13 13h1v1h-1v-1z"></path>
<path fill="#444" d="M11 13h1v1h-1v-1z"></path>
<path fill="#444" d="M9 13h1v1h-1v-1z"></path>
<path fill="#444" d="M14 12h1v1h-1v-1z"></path>
<path fill="#444" d="M12 12h1v1h-1v-1z"></path>
<path fill="#444" d="M10 12h1v1h-1v-1z"></path>
<path fill="#444" d="M8 12h1v1h-1v-1z"></path>
<path fill="#444" d="M15 11h1v1h-1v-1z"></path>
<path fill="#444" d="M13 11h1v1h-1v-1z"></path>
<path fill="#444" d="M11 11h1v1h-1v-1z"></path>
<path fill="#444" d="M9 11h1v1h-1v-1z"></path>
<path fill="#444" d="M14 10h1v1h-1v-1z"></path>
<path fill="#444" d="M12 10h1v1h-1v-1z"></path>
<path fill="#444" d="M10 10h1v1h-1v-1z"></path>
<path fill="#444" d="M8 10h1v1h-1v-1z"></path>
<path fill="#444" d="M15 9h1v1h-1v-1z"></path>
<path fill="#444" d="M13 9h1v1h-1v-1z"></path>
<path fill="#444" d="M11 9h1v1h-1v-1z"></path>
<path fill="#444" d="M9 9h1v1h-1v-1z"></path>
<path fill="#444" d="M14 8h1v1h-1v-1z"></path>
<path fill="#444" d="M12 8h1v1h-1v-1z"></path>
<path fill="#444" d="M10 8h1v1h-1v-1z"></path>
<path fill="#444" d="M8 8h1v1h-1v-1z"></path>
</svg>
