<?xml version="1.0" encoding="utf-8"?>
<!-- Generated by IcoMoon.io -->
<!DOCTYPE svg PUBLIC "-//W3C//DTD SVG 1.1//EN" "http://www.w3.org/Graphics/SVG/1.1/DTD/svg11.dtd">
<svg version="1.1" xmlns="http://www.w3.org/2000/svg" xmlns:xlink="http://www.w3.org/1999/xlink" width="16" height="16" viewBox="0 0 16 16">
<path fill="#444" d="M8 3.1l1.4 2.2-1.6 1.1 1.3 0.3 2.8 0.6 0.6-2.7 0.4-1.4-1.8 1.1-2-3.3h-2.2l-2.6 4.3 1.7 1z"></path>
<path fill="#444" d="M16 12l-2.7-4.3-1.7 1 2 3.3h-2.6v-2l-3 3 3 3v-2h3.7z"></path>
<path fill="#444" d="M2.4 12v0l1.4-2.3 1.7 1.1-0.9-4.2-2.8 0.7-1.3 0.3 1.6 1-2.1 3.4 1.3 2h5.7v-2z"></path>
</svg>
