<?xml version="1.0" encoding="utf-8"?>
<!-- Generated by IcoMoon.io -->
<!DOCTYPE svg PUBLIC "-//W3C//DTD SVG 1.1//EN" "http://www.w3.org/Graphics/SVG/1.1/DTD/svg11.dtd">
<svg version="1.1" xmlns="http://www.w3.org/2000/svg" xmlns:xlink="http://www.w3.org/1999/xlink" width="16" height="16" viewBox="0 0 16 16">
<path fill="#444" d="M0 0v16h16v-16h-16zM3.6 14c-0.9 0-1.6-0.7-1.6-1.6s0.7-1.6 1.6-1.6 1.6 0.7 1.6 1.6-0.6 1.6-1.6 1.6zM7.6 14c0-3.1-2.5-5.6-5.6-5.6v-2.4c4.4 0 8 3.6 8 8h-2.4zM11.6 14c0-5.3-4.3-9.6-9.6-9.6v-2.4c6.6 0 12 5.4 12 12h-2.4z"></path>
</svg>
