<?xml version="1.0" encoding="utf-8"?>
<!-- Generated by IcoMoon.io -->
<!DOCTYPE svg PUBLIC "-//W3C//DTD SVG 1.1//EN" "http://www.w3.org/Graphics/SVG/1.1/DTD/svg11.dtd">
<svg version="1.1" xmlns="http://www.w3.org/2000/svg" xmlns:xlink="http://www.w3.org/1999/xlink" width="16" height="16" viewBox="0 0 16 16">
<path fill="#444" d="M15.81 10l-2.5-5h0.69c0.276 0 0.5-0.224 0.5-0.5s-0.224-0.5-0.5-0.5h-0.79c-1.056-1.145-2.541-1.881-4.198-1.95l-0.012-0.050c0-0.552-0.448-1-1-1s-1 0.448-1 1v0.050c-1.681 0.073-3.178 0.807-4.247 1.947l-0.753 0.003c-0.276 0-0.5 0.224-0.5 0.5s0.224 0.5 0.5 0.5h0.69l-2.5 5h-0.19c0 1.1 1.34 2 3 2s3-0.9 3-2h-0.19l-2.55-5.090c0.064-0.039 0.118-0.089 0.159-0.148 0.873-1.019 2.148-1.669 3.575-1.702l0.006 10.94h-1v1h-2v1h8v-1h-2v-1h-1v-10.94c1.418 0.030 2.679 0.682 3.524 1.693 0.053 0.084 0.117 0.145 0.193 0.186l-2.527 5.061h-0.19c0 1.1 1.34 2 3 2s3-0.9 3-2h-0.19zM5 10h-4l2-3.94zM11 10l2-3.94 2 3.94h-4z"></path>
</svg>
