<?xml version="1.0" encoding="utf-8"?>
<!-- Generated by IcoMoon.io -->
<!DOCTYPE svg PUBLIC "-//W3C//DTD SVG 1.1//EN" "http://www.w3.org/Graphics/SVG/1.1/DTD/svg11.dtd">
<svg version="1.1" xmlns="http://www.w3.org/2000/svg" xmlns:xlink="http://www.w3.org/1999/xlink" width="16" height="16" viewBox="0 0 16 16">
<path fill="#444" d="M15.7 14.3l-4.2-4.2c-0.2-0.2-0.5-0.3-0.8-0.3 0.8-1 1.3-2.4 1.3-3.8 0-3.3-2.7-6-6-6s-6 2.7-6 6 2.7 6 6 6c1.4 0 2.8-0.5 3.8-1.4 0 0.3 0 0.6 0.3 0.8l4.2 4.2c0.2 0.2 0.5 0.3 0.7 0.3s0.5-0.1 0.7-0.3c0.4-0.3 0.4-0.9 0-1.3zM6 10.5c-2.5 0-4.5-2-4.5-4.5s2-4.5 4.5-4.5 4.5 2 4.5 4.5-2 4.5-4.5 4.5z"></path>
</svg>
