<?xml version="1.0" encoding="utf-8"?>
<!-- Generated by IcoMoon.io -->
<!DOCTYPE svg PUBLIC "-//W3C//DTD SVG 1.1//EN" "http://www.w3.org/Graphics/SVG/1.1/DTD/svg11.dtd">
<svg version="1.1" xmlns="http://www.w3.org/2000/svg" xmlns:xlink="http://www.w3.org/1999/xlink" width="16" height="16" viewBox="0 0 16 16">
<path fill="#444" d="M1 15v-15h-1v16h16v-1h-15z"></path>
<path fill="#444" d="M12 5c-0.69 1-1.41 2-2 2-0.026 0.001-0.056 0.001-0.087 0.001-0.601 0-1.164-0.16-1.65-0.44-0.623-0.35-1.387-0.562-2.2-0.562-0.022 0-0.045 0-0.067 0-1.6 0.116-3.009 0.864-3.991 1.993l-0.006 2.347c0.77-1.12 2.32-2.84 4-2.84 0.014-0 0.031-0 0.048-0 0.579 0 1.121 0.156 1.587 0.428 0.643 0.358 1.429 0.573 2.264 0.573 0.035 0 0.071-0 0.106-0.001 1.395 0 2.335-1.32 3.245-2.6s1.75-2.4 2.75-2.4v-1.5c-1.81 0-3 1.61-4 3z"></path>
</svg>
