<?xml version="1.0" encoding="utf-8"?>
<!-- Generated by IcoMoon.io -->
<!DOCTYPE svg PUBLIC "-//W3C//DTD SVG 1.1//EN" "http://www.w3.org/Graphics/SVG/1.1/DTD/svg11.dtd">
<svg version="1.1" xmlns="http://www.w3.org/2000/svg" xmlns:xlink="http://www.w3.org/1999/xlink" width="16" height="16" viewBox="0 0 16 16">
<path fill="#444" d="M5.7 15.2c0.3 0.3 1 0.8 1.8 0.8 2.7 0 3.3-2 3.4-3.6 0.2-2.3 0.8-2.2 1.1-2.2 0.7 0 0.9 0.4 0.9 1.1-0.6 0.4-1 1-1 1.7 0 1.1 0.9 2 2 2s2-0.9 2-2-0.9-2-2-2c-0.1 0-0.1 0-0.2 0-0.2-0.9-0.7-1.8-1.8-1.8-1.6 0-2 1.4-2.1 2.9-0.1 2.1-0.8 2.9-2.3 2.9-0.4 0-0.8-0.2-1-0.4-0.6-0.5-0.5-2.3-0.5-2.3 2 0 4-1.8 4.7-4.8l-0.2-0.1c0.3-1.2 0.5-2.6 0.5-3.6 0-1.1-0.3-1.9-1-2.5s-1.5-0.8-2.1-0.8c-0.2-0.3-0.5-0.5-0.9-0.5-0.5 0-1 0.4-1 1s0.4 1 1 1c0.4 0 0.7-0.2 0.8-0.5 0.5 0 1 0.2 1.5 0.6s0.7 0.9 0.7 1.7c0 0.9-0.2 2.2-0.5 3.5l-0.2-0.1c-0.3 1.1-1.3 3.6-3.3 3.6h-1c-2 0-3-2.5-3.3-3.6l-0.2 0.1c-0.3-1.3-0.5-2.6-0.5-3.5 0-0.8 0.2-1.3 0.7-1.7 0.4-0.4 1-0.5 1.5-0.6 0.1 0.3 0.4 0.5 0.8 0.5 0.6 0 1-0.4 1-1s-0.4-1-1-1c-0.4 0-0.7 0.2-0.9 0.5-0.6 0-1.4 0.2-2.1 0.8s-1 1.4-1 2.5c0 1 0.2 2.4 0.5 3.7l-0.2 0.1c0.7 2.9 2.7 4.7 4.7 4.7 0 0-0.1 2.2 0.7 2.9zM14 14c-0.6 0-1-0.4-1-1s0.4-1 1-1 1 0.4 1 1-0.5 1-1 1z"></path>
</svg>
