<?xml version="1.0" encoding="utf-8"?>
<!-- Generated by IcoMoon.io -->
<!DOCTYPE svg PUBLIC "-//W3C//DTD SVG 1.1//EN" "http://www.w3.org/Graphics/SVG/1.1/DTD/svg11.dtd">
<svg version="1.1" xmlns="http://www.w3.org/2000/svg" xmlns:xlink="http://www.w3.org/1999/xlink" width="16" height="16" viewBox="0 0 16 16">
<path fill="#444" d="M6 0h10v4h-10v-4z"></path>
<path fill="#444" d="M6 6h10v4h-10v-4z"></path>
<path fill="#444" d="M6 12h10v4h-10v-4z"></path>
<path fill="#444" d="M3 1v2h-2v-2h2zM4 0h-4v4h4v-4z"></path>
<path fill="#444" d="M3 13v2h-2v-2h2zM4 12h-4v4h4v-4z"></path>
<path fill="#444" d="M5.3 5.9l-0.6-0.8-0.9 0.9h-3.8v4h4v-2.8l1.3-1.3zM2.7 7l-0.7 0.7-0.8-0.7h1.5zM1 8.2l0.9 0.8h-0.9v-0.8zM3 9h-0.9l0.9-0.9v0.9z"></path>
</svg>
