<?xml version="1.0" encoding="utf-8"?>
<!-- Generated by IcoMoon.io -->
<!DOCTYPE svg PUBLIC "-//W3C//DTD SVG 1.1//EN" "http://www.w3.org/Graphics/SVG/1.1/DTD/svg11.dtd">
<svg version="1.1" xmlns="http://www.w3.org/2000/svg" xmlns:xlink="http://www.w3.org/1999/xlink" width="16" height="16" viewBox="0 0 16 16">
<path fill="#444" d="M0 0v16h16v-16h-16zM12.8 5.6c0 0.1 0 0.2 0 0.3 0 3.3-2.5 7-7 7-1.4 0-2.7-0.4-3.8-1.1 0.2 0 0.4 0 0.6 0 1.2 0 2.2-0.4 3.1-1.1-1.1 0-2-0.7-2.3-1.7 0.2 0 0.3 0 0.5 0s0.4 0 0.6-0.1c-1.1-0.2-2-1.2-2-2.4 0 0 0 0 0 0 0.3 0.2 0.7 0.3 1.1 0.3-0.7-0.4-1.1-1.2-1.1-2 0-0.5 0.1-0.9 0.3-1.2 1.2 1.5 3.1 2.4 5.1 2.5 0-0.2-0.1-0.4-0.1-0.6 0-1.4 1.1-2.5 2.5-2.5 0.7 0 1.3 0.3 1.8 0.8 0.6-0.1 1.1-0.3 1.6-0.6-0.2 0.6-0.6 1.1-1.1 1.4 0.5-0.1 1-0.2 1.4-0.4-0.3 0.6-0.7 1-1.2 1.4z"></path>
</svg>
