<?xml version="1.0" encoding="utf-8"?>
<!-- Generated by IcoMoon.io -->
<!DOCTYPE svg PUBLIC "-//W3C//DTD SVG 1.1//EN" "http://www.w3.org/Graphics/SVG/1.1/DTD/svg11.dtd">
<svg version="1.1" xmlns="http://www.w3.org/2000/svg" xmlns:xlink="http://www.w3.org/1999/xlink" width="16" height="16" viewBox="0 0 16 16">
<path fill="#444" d="M8 0c-5.6 0-2.9 7.3-2.9 7.3 0.6 1 1.4 0.8 1.4 1.5 0 0.6-0.7 0.8-1.4 0.9-1.1 0-2.1-0.2-3.1 1.6-0.6 1.1-0.9 4.7-0.9 4.7h13.7c0 0-0.3-3.6-0.8-4.7-1-1.9-2-1.6-3.1-1.7-0.7-0.1-1.4-0.3-1.4-0.9s0.8-0.4 1.4-1.5c0 0.1 2.7-7.2-2.9-7.2z"></path>
</svg>
