<?xml version="1.0" encoding="utf-8"?>
<!-- Generated by IcoMoon.io -->
<!DOCTYPE svg PUBLIC "-//W3C//DTD SVG 1.1//EN" "http://www.w3.org/Graphics/SVG/1.1/DTD/svg11.dtd">
<svg version="1.1" xmlns="http://www.w3.org/2000/svg" xmlns:xlink="http://www.w3.org/1999/xlink" width="16" height="16" viewBox="0 0 16 16">
<path fill="#444" d="M8.92 13.67l-1.61-1.53-1.5-1.42 2-0.29 2.25-0.32 0.29-0.57c-0.006 0-0.013 0-0.020 0-0.482 0-0.884-0.34-0.979-0.794-0.001-0.617 0.799-0.417 1.429-1.457 0.080-0.020 2.82-7.29-2.78-7.29s-2.86 7.27-2.86 7.27c0.63 1 1.44 0.85 1.43 1.45s-0.74 0.8-1.43 0.87c-1.14 0.13-2.14-0.13-3.14 1.76-0.6 1.090-0.85 4.65-0.85 4.65h7.36v-0.17z"></path>
<path fill="#444" d="M11.72 16h0.56l-0.28-0.14-0.28 0.14z"></path>
<path fill="#444" d="M12 14.73l2.47 1.27-0.47-2.69 2-1.9-2.76-0.39-1.24-2.45-1.24 2.45-2.76 0.39 2 1.9-0.47 2.69 2.47-1.27z"></path>
</svg>
