<?xml version="1.0" encoding="utf-8"?>
<!-- Generated by IcoMoon.io -->
<!DOCTYPE svg PUBLIC "-//W3C//DTD SVG 1.1//EN" "http://www.w3.org/Graphics/SVG/1.1/DTD/svg11.dtd">
<svg version="1.1" xmlns="http://www.w3.org/2000/svg" xmlns:xlink="http://www.w3.org/1999/xlink" width="16" height="16" viewBox="0 0 16 16">
<path fill="#444" d="M7.5 14.4c-0.8-0.8-0.8-2 0-2.8s2-0.8 2.8 0l0.6 0.6 1.9-2.1c-0.7-0.4-1.3-0.4-2-0.4-0.7-0.1-1.4-0.3-1.4-0.9s0.8-0.4 1.4-1.5c0 0 2.7-7.3-2.9-7.3-5.5 0-2.8 7.3-2.8 7.3 0.6 1 1.4 0.8 1.4 1.5s-0.7 0.7-1.4 0.8c-1.1 0.1-2.1-0.1-3.1 1.7-0.6 1.1-0.9 4.7-0.9 4.7h8l-1.6-1.6z"></path>
<path fill="#444" d="M12.8 16h2.1c0 0-0.1-0.9-0.2-2l-1.9 2z"></path>
<path fill="#444" d="M11 16c-0.3 0-0.5-0.1-0.7-0.3l-2-2c-0.4-0.4-0.4-1 0-1.4s1-0.4 1.4 0l1.3 1.3 3.3-3.6c0.4-0.4 1-0.4 1.4-0.1 0.4 0.4 0.4 1 0.1 1.4l-4 4.3c-0.3 0.3-0.5 0.4-0.8 0.4 0 0 0 0 0 0z"></path>
</svg>
