<?xml version="1.0" encoding="utf-8"?>
<!-- Generated by IcoMoon.io -->
<!DOCTYPE svg PUBLIC "-//W3C//DTD SVG 1.1//EN" "http://www.w3.org/Graphics/SVG/1.1/DTD/svg11.dtd">
<svg version="1.1" xmlns="http://www.w3.org/2000/svg" xmlns:xlink="http://www.w3.org/1999/xlink" width="16" height="16" viewBox="0 0 16 16">
<path fill="#444" d="M15.9 4.4c-0.9 5-5.9 9.3-7.4 10.3s-2.9-0.4-3.4-1.4c-0.5-1.3-2.2-7.6-2.7-8.2-0.4-0.5-1.8 0.6-1.8 0.6l-0.6-0.9c0 0 2.7-3.3 4.8-3.7 2.2-0.4 2.2 3.4 2.7 5.5 0.5 2 0.9 3.2 1.3 3.2s1.3-1.1 2.2-2.9c0.9-1.7 0-3.3-1.9-2.2 0.8-4.3 7.7-5.4 6.8-0.3z"></path>
</svg>
