<?xml version="1.0" encoding="utf-8"?>
<!-- Generated by IcoMoon.io -->
<!DOCTYPE svg PUBLIC "-//W3C//DTD SVG 1.1//EN" "http://www.w3.org/Graphics/SVG/1.1/DTD/svg11.dtd">
<svg version="1.1" xmlns="http://www.w3.org/2000/svg" xmlns:xlink="http://www.w3.org/1999/xlink" width="16" height="16" viewBox="0 0 16 16">
<path fill="#444" d="M0 0v16h16v-16h-16zM13.9 5.3c-0.7 3.8-4.4 7-5.5 7.7s-2.2-0.3-2.5-1.1c-0.4-0.9-1.7-5.7-2-6.1-0.4-0.3-1.4 0.5-1.4 0.5l-0.5-0.7c0 0 2-2.4 3.6-2.7s1.6 2.5 2 4.1c0.4 1.5 0.6 2.4 1 2.4 0.3 0 1-0.9 1.7-2.2s0-2.5-1.4-1.6c0.5-3.3 5.7-4.1 5-0.3z"></path>
</svg>
