<?xml version="1.0" encoding="utf-8"?>
<!-- Generated by IcoMoon.io -->
<!DOCTYPE svg PUBLIC "-//W3C//DTD SVG 1.1//EN" "http://www.w3.org/Graphics/SVG/1.1/DTD/svg11.dtd">
<svg version="1.1" xmlns="http://www.w3.org/2000/svg" xmlns:xlink="http://www.w3.org/1999/xlink" width="16" height="16" viewBox="0 0 16 16">
<path fill="#444" d="M14.5 4h-12.12c-0.057 0.012-0.123 0.018-0.19 0.018-0.552 0-1-0.448-1-1 0-0.006 0-0.013 0-0.019l12.81-0.499v-1.19c0.005-0.041 0.008-0.089 0.008-0.138 0-0.652-0.528-1.18-1.18-1.18-0.049 0-0.097 0.003-0.144 0.009l-11.374 1.849c-0.771 0.289-1.31 1.020-1.31 1.877 0 0.011 0 0.023 0 0.034l-0 10.728c-0 0.003-0 0.006-0 0.010 0 0.828 0.672 1.5 1.5 1.5 0 0 0 0 0 0h13c0 0 0 0 0 0 0.828 0 1.5-0.672 1.5-1.5 0-0.004-0-0.007-0-0.011v-8.999c0-0.012 0.001-0.027 0.001-0.041 0-0.801-0.649-1.45-1.45-1.45-0.018 0-0.036 0-0.053 0.001zM13 11c-0.828 0-1.5-0.672-1.5-1.5s0.672-1.5 1.5-1.5c0.828 0 1.5 0.672 1.5 1.5s-0.672 1.5-1.5 1.5z"></path>
</svg>
