<?xml version="1.0" encoding="UTF-8"?>
<!DOCTYPE svg PUBLIC "-//W3C//DTD SVG 1.1//EN" "http://www.w3.org/Graphics/SVG/1.1/DTD/svg11.dtd">
<svg version="1.1" xmlns="http://www.w3.org/2000/svg" xmlns:xlink="http://www.w3.org/1999/xlink" width="16" height="16" viewBox="0 0 16 16">
<path fill="#444" d="M11,3 L11,0 L2,0 L2,14 L0,14 L0,15 L7,15 L7,10 L9,10 L9,8 L14,8 L14,3 L11,3 Z M6,10 L4,10 L4,8 L6,8 L6,10 Z M6,7 L4,7 L4,5 L6,5 L6,7 Z M6,4 L4,4 L4,2 L6,2 L6,4 Z M9,7 L7,7 L7,5 L9,5 L9,7 Z M9,4 L7,4 L7,2 L9,2 L9,4 Z M13,7 L11,7 L11,5 L13,5 L13,7 Z M14,11 L16,11 L16,16 L8,16 L8,11 L10,11 L10,9 L14,9 L14,11 Z" fill-rule="nonzero"></path>
</svg>
