<?xml version="1.0" encoding="utf-8"?>
<!-- Generated by IcoMoon.io -->
<!DOCTYPE svg PUBLIC "-//W3C//DTD SVG 1.1//EN" "http://www.w3.org/Graphics/SVG/1.1/DTD/svg11.dtd">
<svg version="1.1" xmlns="http://www.w3.org/2000/svg" xmlns:xlink="http://www.w3.org/1999/xlink" width="16" height="16" viewBox="0 0 16 16">
<path fill="#444" d="M7.9 6c0.2 0 0.3-0.2 0.3-0.5v-1.4c0-0.3-0.1-0.5-0.3-0.5s-0.3 0.2-0.3 0.5v1.4c0 0.3 0.1 0.5 0.3 0.5z"></path>
<path fill="#444" d="M7.1 11.9c-0.1 0.2-0.3 0.3-0.4 0.3s-0.1 0-0.1-0.1c0 0 0-0.1 0-0.2v-2.5h-0.6v2.6c0 0.2 0 0.4 0.1 0.5 0.1 0.2 0.2 0.2 0.4 0.2s0.4-0.1 0.7-0.4v0.4h0.6v-3.3h-0.7v2.5z"></path>
<path fill="#444" d="M3.8 8.9h0.7v3.8h0.7v-3.8h0.7v-0.7h-2.1z"></path>
<path fill="#444" d="M9.4 9.3c-0.2 0-0.4 0.2-0.6 0.4v-1.5h-0.6v4.4h0.6v-0.3c0.2 0.2 0.4 0.4 0.6 0.4s0.4-0.1 0.5-0.4c0-0.1 0.1-0.4 0.1-0.7v-1.3c0-0.3 0-0.5-0.1-0.7-0.1-0.1-0.2-0.3-0.5-0.3zM9.4 11.7c0 0.3-0.1 0.4-0.3 0.4-0.1 0-0.2 0-0.3-0.1v-2c0.1-0.1 0.2-0.1 0.3-0.1 0.2 0 0.3 0.2 0.3 0.5v1.3z"></path>
<path fill="#444" d="M11.3 9.3c-0.3 0-0.5 0.1-0.7 0.3-0.1 0.2-0.2 0.4-0.2 0.8v1.2c0 0.4 0.1 0.6 0.2 0.8 0.2 0.2 0.4 0.3 0.7 0.3s0.6-0.1 0.7-0.4c0.1-0.1 0.1-0.2 0.1-0.4 0-0.1 0-0.2 0-0.4v-0.1h-0.6c0 0.2 0 0.4 0 0.4 0 0.2-0.1 0.2-0.3 0.2s-0.3-0.2-0.3-0.5v-0.6h1.2v-0.7c0-0.4-0.1-0.6-0.2-0.8 0 0.1-0.3-0.1-0.6-0.1zM11.6 10.6h-0.6v-0.3c0-0.3 0.1-0.5 0.3-0.5s0.3 0.2 0.3 0.5v0.3z"></path>
<path fill="#444" d="M0 0v16h16v-16h-16zM9.3 3.1h0.6v2.5c0 0.1 0 0.2 0 0.2 0 0.1 0 0.2 0.1 0.2s0.2-0.1 0.4-0.3v-2.6h0.6v3.3h-0.6v-0.3c-0.2 0.3-0.5 0.4-0.7 0.4s-0.3-0.1-0.4-0.2c0-0.1-0.1-0.3-0.1-0.5v-2.7zM7 4.2c0-0.3 0-0.6 0.2-0.8s0.4-0.3 0.7-0.3c0.3 0 0.5 0.1 0.7 0.3 0.1 0.2 0.2 0.4 0.2 0.8v1.2c0 0.4-0.1 0.6-0.2 0.8-0.2 0.2-0.4 0.3-0.7 0.3s-0.5-0.1-0.7-0.3c-0.2-0.2-0.2-0.4-0.2-0.8v-1.2zM5.3 2l0.5 1.8 0.5-1.8h0.7l-0.8 2.7v1.8h-0.7v-1.8c-0.1-0.4-0.2-0.8-0.4-1.5-0.2-0.4-0.3-0.8-0.5-1.2h0.7zM12.8 12.9c-0.1 0.5-0.6 0.9-1.1 1-1.2 0.1-2.5 0.1-3.7 0.1s-2.5 0-3.7-0.1c-0.5-0.1-1-0.4-1.1-1-0.2-0.8-0.2-1.6-0.2-2.4 0-0.7 0-1.5 0.2-2.3 0.1-0.5 0.6-0.9 1.1-1 1.2-0.1 2.5-0.1 3.7-0.1s2.5 0 3.7 0.1c0.5 0.1 1 0.4 1.1 1 0.2 0.8 0.2 1.6 0.2 2.3 0 0.8 0 1.6-0.2 2.4z"></path>
</svg>
