<svg xmlns="http://www.w3.org/2000/svg" xmlns:xlink="http://www.w3.org/1999/xlink" viewBox="0 0 101 88"><defs><path id="a" d="M12 .013H0v11.9997h12V.013z"/></defs><g fill="none" fill-rule="evenodd"><path stroke="#FFF" stroke-width="2" d="M36.3877 82.5108V7.5238"/><path fill="#00B4F0" d="M42 81.9873c0-3.313-2.687-6-6-6-3.314 0-6 2.687-6 6 0 3.314 2.686 6 6 6 3.313 0 6-2.686 6-6"/><g transform="translate(30 .9873)"><mask id="b" fill="#fff"><use xlink:href="#a"/></mask><path fill="#FF3B4A" d="M12 6.0127c0-3.314-2.687-6-6-6-3.314 0-6 2.686-6 6 0 3.313 2.686 6 6 6 3.313 0 6-2.687 6-6" mask="url(#b)"/></g><path stroke="#FFF" stroke-width="2" d="M6.3877 82.5108v-39.067"/><path fill="#00B4F0" d="M12 81.9873c0-3.313-2.687-6-6-6-3.314 0-6 2.687-6 6 0 3.314 2.686 6 6 6 3.313 0 6-2.686 6-6"/><path fill="#FF3B4A" d="M12 42.9204c0-3.313-2.687-6-6-6-3.314 0-6 2.687-6 6 0 3.314 2.686 6 6 6 3.313 0 6-2.686 6-6"/><path stroke="#FFF" stroke-width="2" d="M65.3877 82.5108v-46.731"/><path fill="#00B4F0" d="M71 81.9873c0-3.313-2.687-6-6-6-3.314 0-6 2.687-6 6 0 3.314 2.686 6 6 6 3.313 0 6-2.686 6-6"/><path fill="#FF3B4A" d="M71 35.2564c0-3.314-2.687-6-6-6-3.314 0-6 2.686-6 6 0 3.313 2.686 6 6 6 3.313 0 6-2.687 6-6"/><path stroke="#FFF" stroke-width="2" d="M95.3877 82.5108v-26.446"/><path fill="#00B4F0" d="M101 81.9873c0-3.313-2.687-6-6-6-3.314 0-6 2.687-6 6 0 3.314 2.686 6 6 6 3.313 0 6-2.686 6-6"/><path fill="#FF3B4A" d="M101 55.5415c0-3.313-2.687-6-6-6-3.314 0-6 2.687-6 6 0 3.314 2.686 6 6 6 3.313 0 6-2.686 6-6"/></g></svg>