<svg width="24" height="22" viewBox="0 0 24 22" xmlns="http://www.w3.org/2000/svg"><path d="M16.196821 17.469612c-1.258547.457914-2.616921.707697-4.033927.707697-5 0-9.27-3.11-11-7.5.738365-1.873654 1.939413-3.514145 3.462424-4.779199L0 1.272792 1.272792 0l20.78894 20.788939-1.272793 1.272792-4.592118-4.592119zm-8.66926-8.669258c-.235138.579638-.364667 1.213262-.364667 1.876955 0 2.76 2.24 5 5 5 .663693 0 1.297317-.129528 1.876955-.364668l-1.644178-1.644178a3.058719 3.058719 0 0 1-.232777.008846c-1.66 0-3-1.34-3-3 0-.07834.002985-.155969.008846-.232777L7.527562 8.800354zm11.937708 6.846512l-2.797886-2.797885c.317496-.656877.495511-1.393612.495511-2.171672 0-2.76-2.24-5-5-5-.77806 0-1.514795.178015-2.171672.49551l-2.17066-2.17066c1.343962-.5323 2.808814-.82485 4.342332-.82485 5 0 9.27 3.11 11 7.5-.775972 1.969085-2.062959 3.68065-3.697625 4.969557zm-4.36334-4.36334l-3.545252-3.545252c.195727-.039977.398466-.060965.606217-.060965 1.66 0 3 1.34 3 3 0 .20775-.020988.41049-.060965.606217z" fill-rule="evenodd"/></svg>