<svg width="24" height="23" viewBox="0 0 24 23" xmlns="http://www.w3.org/2000/svg"><g fill="none" fill-rule="evenodd"><path d="M1-1h24v24H1z"/><path d="M17.033927 17.792303C15.77538 18.250217 14.417006 18.5 13 18.5c-5 0-9.27-3.11-11-7.5.738365-1.873654 1.939413-3.514145 3.462424-4.779199L.837106 1.595483 2.109898.322691l20.78894 20.788939-1.272793 1.272792-4.592118-4.592119zm-8.66926-8.669258C8.129529 9.702683 8 10.336307 8 11c0 2.76 2.24 5 5 5 .663693 0 1.297317-.129528 1.876955-.364668l-1.644178-1.644178A3.058715 3.058715 0 0 1 13 14c-1.66 0-3-1.34-3-3 0-.07834.002985-.155969.008846-.232777L8.364668 9.123045zm11.937708 6.846512l-2.797886-2.797885C17.821985 12.514795 18 11.77806 18 11c0-2.76-2.24-5-5-5-.77806 0-1.514795.178015-2.171672.49551l-2.17066-2.17066C10.00163 3.79255 11.466482 3.5 13 3.5c5 0 9.27 3.11 11 7.5-.775972 1.969085-2.062959 3.68065-3.697625 4.969557zm-4.36334-4.36334l-3.545252-3.545252C12.58951 8.020988 12.792249 8 13 8c1.66 0 3 1.34 3 3 0 .20775-.020988.41049-.060965.606217z" fill="#000" fill-rule="nonzero"/></g></svg>