<?xml version="1.0" encoding="utf-8"?>
<!-- Generated by IcoMoon.io -->
<!DOCTYPE svg PUBLIC "-//W3C//DTD SVG 1.1//EN" "http://www.w3.org/Graphics/SVG/1.1/DTD/svg11.dtd">
<svg version="1.1" xmlns="http://www.w3.org/2000/svg" xmlns:xlink="http://www.w3.org/1999/xlink" width="16" height="16" viewBox="0 0 16 16">
<path fill="#444" d="M0 0v16h16v-16h-16zM14 2v3h-0.1c-0.2-0.6-0.8-1-1.4-1s-1.2 0.4-1.4 1h-3.2c-0.2-0.6-0.7-1-1.4-1s-1.2 0.4-1.4 1h-0.2c-0.2-0.6-0.7-1-1.4-1s-1.2 0.4-1.4 1h-0.1v-3h12zM13.9 10c-0.2-0.6-0.8-1-1.4-1s-1.2 0.4-1.4 1h-0.2c-0.2-0.6-0.8-1-1.4-1s-1.2 0.4-1.4 1h-3.2c-0.2-0.6-0.7-1-1.4-1s-1.2 0.4-1.4 1h-0.1v-4h0.1c0.2 0.6 0.8 1 1.4 1s1.2-0.4 1.4-1h0.2c0.2 0.6 0.8 1 1.4 1s1.2-0.4 1.4-1h3.2c0.2 0.6 0.8 1 1.4 1s1.2-0.4 1.4-1h0.1l-0.1 4zM2 14v-3h0.1c0.2 0.6 0.8 1 1.4 1s1.2-0.4 1.4-1h3.2c0.2 0.6 0.8 1 1.4 1s1.2-0.4 1.4-1h0.2c0.2 0.6 0.8 1 1.4 1s1.2-0.4 1.4-1h0.1v3h-12z"></path>
</svg>
