<?xml version="1.0" encoding="utf-8"?>
<!-- Generated by IcoMoon.io -->
<!DOCTYPE svg PUBLIC "-//W3C//DTD SVG 1.1//EN" "http://www.w3.org/Graphics/SVG/1.1/DTD/svg11.dtd">
<svg version="1.1" xmlns="http://www.w3.org/2000/svg" xmlns:xlink="http://www.w3.org/1999/xlink" width="64" height="64" viewBox="0 0 64 64">
<path fill="#444444" d="M0 0v64h64v-64h-64zM56 8v12h-0.4c-0.8-2.4-3.2-4-5.6-4s-4.8 1.6-5.6 4h-12.8c-0.8-2.4-2.8-4-5.6-4s-4.8 1.6-5.6 4h-0.8c-0.8-2.4-2.8-4-5.6-4s-4.8 1.6-5.6 4h-0.4v-12h48zM55.6 40c-0.8-2.4-3.2-4-5.6-4s-4.8 1.6-5.6 4h-0.8c-0.8-2.4-3.2-4-5.6-4s-4.8 1.6-5.6 4h-12.8c-0.8-2.4-2.8-4-5.6-4s-4.8 1.6-5.6 4h-0.4v-16h0.4c0.8 2.4 3.2 4 5.6 4s4.8-1.6 5.6-4h0.8c0.8 2.4 3.2 4 5.6 4s4.8-1.6 5.6-4h12.8c0.8 2.4 3.2 4 5.6 4s4.8-1.6 5.6-4h0.4l-0.4 16zM8 56v-12h0.4c0.8 2.4 3.2 4 5.6 4s4.8-1.6 5.6-4h12.8c0.8 2.4 3.2 4 5.6 4s4.8-1.6 5.6-4h0.8c0.8 2.4 3.2 4 5.6 4s4.8-1.6 5.6-4h0.4v12h-48z"></path>
</svg>
