<?xml version="1.0" encoding="utf-8"?>
<!-- Generated by IcoMoon.io -->
<!DOCTYPE svg PUBLIC "-//W3C//DTD SVG 1.1//EN" "http://www.w3.org/Graphics/SVG/1.1/DTD/svg11.dtd">
<svg version="1.1" xmlns="http://www.w3.org/2000/svg" xmlns:xlink="http://www.w3.org/1999/xlink" width="64" height="64" viewBox="0 0 64 64">
<path fill="#444444" d="M41.6 40h-2c0.4 1.2 0.4 2.8 0.4 4 0 8.8-7.2 16-16 16s-16-7.2-16-16c0-8.4 6.4-15.2 14.8-16l-0.8-4c-10.4 1.6-18 9.6-18 20 0 11.2 8.8 20 20 20 9.6 0 17.6-6.8 19.6-15.6l-2-8.4z"></path>
<path fill="#444444" d="M52.4 52l-4.4-20h-16.4l-0.8-4h13.2v-4h-14l-2.4-10c3.6-0.4 6.4-3.2 6.4-6.8 0-4-3.2-7.2-7.2-7.2s-6.8 3.2-6.8 7.2c0 2.4 1.2 4.8 3.2 6l5.2 22.8h16.4l4.8 20h10.4v-4h-7.6z"></path>
</svg>
