<?xml version="1.0" encoding="utf-8"?>
<!-- Generated by IcoMoon.io -->
<!DOCTYPE svg PUBLIC "-//W3C//DTD SVG 1.1//EN" "http://www.w3.org/Graphics/SVG/1.1/DTD/svg11.dtd">
<svg version="1.1" xmlns="http://www.w3.org/2000/svg" xmlns:xlink="http://www.w3.org/1999/xlink" width="64" height="64" viewBox="0 0 64 64">
<path fill="#444444" d="M49.2 26c2-2 3.6-3.2 4.8-4.4 6.4-6.4 12.8-16.4 8.8-20.4s-13.6 2.4-20 8.8c-1.2 1.2-2.4 2.8-4.4 4.8l-28-12.8c-2.8-1.2-6-0.8-8 1.2l-2.4 2 26.4 22.8c-5.2 6.4-10.8 12.4-13.6 16l-4.4-2.4c-2-1.2-4.8-1.2-6.4 0.8l-1.2 1.2 11.2 8.4 8 11.2 1.2-1.2c1.6-1.6 2-4.4 0.8-6.4l-2-4.4c3.6-2.8 9.6-8.4 16-13.6l22.8 26.4 2-2c2-2 2.4-5.2 1.2-8l-12.8-28z"></path>
</svg>
