<?xml version="1.0" encoding="utf-8"?>
<!-- Generated by IcoMoon.io -->
<!DOCTYPE svg PUBLIC "-//W3C//DTD SVG 1.1//EN" "http://www.w3.org/Graphics/SVG/1.1/DTD/svg11.dtd">
<svg version="1.1" xmlns="http://www.w3.org/2000/svg" xmlns:xlink="http://www.w3.org/1999/xlink" width="16" height="16" viewBox="0 0 16 16">
<path fill="#444" d="M8 5h-1v5h4v-1l-2.93 0.070-0.070-4.070z"></path>
<path fill="#444" d="M5.46 0.87c-0.387-0.522-1-0.856-1.692-0.856-0.41 0-0.793 0.118-1.117 0.321l-0.991 0.765c-0.41 0.384-0.666 0.929-0.666 1.534 0 0.496 0.172 0.951 0.459 1.31z"></path>
<path fill="#444" d="M14.34 1.1l-1-0.77c-0.315-0.198-0.698-0.316-1.108-0.316-0.692 0-1.305 0.334-1.688 0.85l3.996 3.076c0.287-0.356 0.46-0.813 0.46-1.312 0-0.602-0.253-1.145-0.659-1.528z"></path>
<path fill="#444" d="M12.87 14c1.308-1.268 2.122-3.038 2.13-4.998-0.028-3.856-3.145-6.973-6.997-7.002-3.857 0.028-6.975 3.145-7.003 6.997 0.008 1.965 0.822 3.735 2.128 5.001l-0.938 0.942c-0.075 0.102-0.12 0.231-0.12 0.37 0 0.348 0.282 0.63 0.63 0.63 0.139 0 0.268-0.045 0.372-0.122l0.998-0.999c1.092 0.758 2.446 1.211 3.905 1.211s2.813-0.453 3.928-1.226l0.977 1.015c0.102 0.075 0.231 0.12 0.37 0.12 0.348 0 0.63-0.282 0.63-0.63 0-0.139-0.045-0.268-0.122-0.372zM2.87 9c0.028-2.822 2.308-5.102 5.127-5.13 2.825 0.028 5.105 2.308 5.133 5.127-0.028 2.825-2.308 5.105-5.127 5.133-2.825-0.028-5.105-2.308-5.133-5.127z"></path>
</svg>
