<?xml version="1.0" encoding="utf-8"?>
<!-- Generated by IcoMoon.io -->
<!DOCTYPE svg PUBLIC "-//W3C//DTD SVG 1.1//EN" "http://www.w3.org/Graphics/SVG/1.1/DTD/svg11.dtd">
<svg version="1.1" xmlns="http://www.w3.org/2000/svg" xmlns:xlink="http://www.w3.org/1999/xlink" width="16" height="16" viewBox="0 0 16 16">
<path fill="#444" d="M6.18 14c0 1.105-0.895 2-2 2s-2-0.895-2-2c0-1.105 0.895-2 2-2s2 0.895 2 2z"></path>
<path fill="#444" d="M14 14c0 1.105-0.895 2-2 2s-2-0.895-2-2c0-1.105 0.895-2 2-2s2 0.895 2 2z"></path>
<path fill="#444" d="M5 6h-1v1h-1v1h1v1h1v-1h1v-1h-1v-1z"></path>
<path fill="#444" d="M15.76 8.64l-3-4.53c-0.455-0.673-1.215-1.11-2.078-1.11-0.008 0-0.015 0-0.023 0l-2.659-0v-1c0-0.552-0.448-1-1-1s-1 0.448-1 1v1h-4.5c-0.828 0-1.5 0.672-1.5 1.5v8.5h1.37c0.474-1.135 1.546-1.931 2.812-2 1.278 0.072 2.345 0.868 2.81 1.978l2.188 0.021c0.474-1.135 1.546-1.931 2.812-2 1.303 0.003 2.405 0.827 2.822 1.979l1.187 0.021v-3.57c-0.001-0.294-0.090-0.568-0.243-0.795zM6.92 8.12c-0.266 1.117-1.255 1.935-2.435 1.935-1.381 0-2.5-1.119-2.5-2.5 0-1.18 0.818-2.17 1.918-2.432 0.195-0.049 0.399-0.075 0.609-0.075 1.37 0 2.48 1.11 2.48 2.48 0 0.21-0.026 0.414-0.075 0.609zM10 8v-3h0.85c0.003-0 0.006-0 0.009-0 0.777 0 1.461 0.394 1.866 0.992l1.325 2.008z"></path>
</svg>
