<?xml version="1.0" encoding="utf-8"?>
<!-- Generated by IcoMoon.io -->
<!DOCTYPE svg PUBLIC "-//W3C//DTD SVG 1.1//EN" "http://www.w3.org/Graphics/SVG/1.1/DTD/svg11.dtd">
<svg version="1.1" xmlns="http://www.w3.org/2000/svg" xmlns:xlink="http://www.w3.org/1999/xlink" width="64" height="64" viewBox="0 0 64 64">
<path fill="#444444" d="M52 36v8c0 0-3.2 6.8-16 7.6v-27.6h8.8c0.8 1.2 2 2 3.2 2 2.4 0 4-1.6 4-4s-1.6-4-4-4c-1.6 0-2.8 0.8-3.2 2h-8.8v-5.2c2.4-1.2 4-4 4-6.8 0-4.4-3.6-8-8-8s-8 3.6-8 8c0 2.8 1.6 5.6 4 6.8v5.2h-8.8c-0.4-1.2-1.6-2-3.2-2-2.4 0-4 1.6-4 4s1.6 4 4 4c1.6 0 2.8-0.8 3.2-2h8.8v28c-13.2-1.2-16-8-16-8v-8h-12c0 0 11.2 28 32 28 20 0 32-28 32-28h-12zM32 4c2.4 0 4 1.6 4 4s-1.6 4-4 4-4-1.6-4-4 1.6-4 4-4z"></path>
</svg>
