<?xml version="1.0" encoding="utf-8"?>
<!-- Generated by IcoMoon.io -->
<!DOCTYPE svg PUBLIC "-//W3C//DTD SVG 1.1//EN" "http://www.w3.org/Graphics/SVG/1.1/DTD/svg11.dtd">
<svg version="1.1" xmlns="http://www.w3.org/2000/svg" xmlns:xlink="http://www.w3.org/1999/xlink" width="64" height="64" viewBox="0 0 64 64">
<path fill="#444444" d="M30 48.8c-9.2 0-16.8-7.6-16.8-16.8s7.6-16.8 16.8-16.8 16.8 7.6 16.8 16.8c0.4 9.2-7.6 16.8-16.8 16.8zM30 20.8c-6 0-10.8 5.2-10.8 11.2s4.8 11.2 11.2 11.2 11.2-4.8 11.2-11.2-5.6-11.2-11.6-11.2z"></path>
<path fill="#444444" d="M32 64c-17.6 0-32-14.4-32-32s14.4-32 32-32 32 14.4 32 32c0 6-1.6 12-4.8 16.8-1.2 2-4.4 4.8-9.2 4.8-3.2 0-5.2-1.2-6.4-2.4-2.8-2.8-2.4-7.2-2.4-7.6v-27.6h6v28c0 0.8 0 2.4 0.8 3.2 0 0 0.8 0.8 2 0.8 2.8 0 4.4-2 4.4-2 2.4-4 4-8.8 4-13.6 0-14.4-11.6-26-26-26s-26.4 11.2-26.4 25.6 11.6 26 26 26c2.8 0 5.2-0.4 7.6-1.2l1.6 5.6c-2.8 1.2-6 1.6-9.2 1.6z"></path>
</svg>
