<?xml version="1.0" encoding="utf-8"?>
<!-- Generated by IcoMoon.io -->
<!DOCTYPE svg PUBLIC "-//W3C//DTD SVG 1.1//EN" "http://www.w3.org/Graphics/SVG/1.1/DTD/svg11.dtd">
<svg version="1.1" xmlns="http://www.w3.org/2000/svg" xmlns:xlink="http://www.w3.org/1999/xlink" width="64" height="64" viewBox="0 0 64 64">
<path fill="#444444" d="M56 48c0 4.418-3.582 8-8 8s-8-3.582-8-8c0-4.418 3.582-8 8-8s8 3.582 8 8z"></path>
<path fill="#444444" d="M46.8 64v0c-3.2 0-6.4-0.8-9.2-2.8l-24.8-13.2c-2-1.6-3.6-2.4-5.2-4-4.8-4.8-7.6-11.6-7.6-18.4s2.8-13.2 7.6-18c4.8-4.8 11.2-7.6 18-7.6s13.2 2.8 18.4 7.6c1.6 1.6 2.4 2.8 4 4.8l14 25.6c4 6.8 2.8 15.2-2.8 20.8-3.6 3.6-7.6 5.2-12.4 5.2zM25.6 4c-5.6 0-11.2 2.4-15.2 6.4s-6.4 9.6-6.4 15.2c0 6 2.4 11.2 6.4 15.2 1.2 1.2 2.4 2 4.4 3.2l25.2 13.6c2.4 1.6 4.8 2 7.2 2v0c3.6 0 6.8-1.2 9.2-4 4.4-4.4 5.2-10.8 2-16l-14-25.6c-1.2-1.6-2-2.8-3.2-4-4.4-3.6-9.6-6-15.6-6z"></path>
<path fill="#444444" d="M44 28v-4l-5.6-2c-0.4-0.8-0.4-1.2-0.8-2l2.4-5.2-2.8-2.8-5.2 2.4c-0.8-0.4-1.2-0.4-2-0.8l-2-5.6h-4l-2 5.6c-0.8 0.4-1.2 0.4-2 0.8l-5.2-2.4-2.8 2.8 2.4 5.2c-0.4 0.8-0.4 1.2-0.8 2l-5.6 2v4l5.6 2c0.4 0.8 0.4 1.2 0.8 2l-2.4 5.2 2.8 2.8 5.2-2.4c0.8 0.4 1.2 0.8 2 0.8l2 5.6h4l2-5.6c0.8-0.4 1.2-0.4 2-0.8l5.2 2.4 2.8-2.8-2.4-5.2c0.4-0.8 0.8-1.2 0.8-2l5.6-2zM26 32c-3.2 0-6-2.8-6-6s2.8-6 6-6 6 2.8 6 6-2.8 6-6 6z"></path>
</svg>
