<?xml version="1.0" encoding="utf-8"?>
<!-- Generated by IcoMoon.io -->
<!DOCTYPE svg PUBLIC "-//W3C//DTD SVG 1.1//EN" "http://www.w3.org/Graphics/SVG/1.1/DTD/svg11.dtd">
<svg version="1.1" xmlns="http://www.w3.org/2000/svg" xmlns:xlink="http://www.w3.org/1999/xlink" width="16" height="16" viewBox="0 0 16 16">
<path fill="#444" d="M14 12c0 1.105-0.895 2-2 2s-2-0.895-2-2c0-1.105 0.895-2 2-2s2 0.895 2 2z"></path>
<path fill="#444" d="M11.7 16v0c-0.8 0-1.6-0.2-2.3-0.7l-6.2-3.3c-0.5-0.4-0.9-0.6-1.3-1-1.2-1.2-1.9-2.9-1.9-4.6s0.7-3.3 1.9-4.5c1.2-1.2 2.8-1.9 4.5-1.9s3.3 0.7 4.6 1.9c0.4 0.4 0.6 0.7 1 1.2l3.5 6.4c1 1.7 0.7 3.8-0.7 5.2-0.9 0.9-1.9 1.3-3.1 1.3zM6.4 1c-1.4 0-2.8 0.6-3.8 1.6s-1.6 2.4-1.6 3.8c0 1.5 0.6 2.8 1.6 3.8 0.3 0.3 0.6 0.5 1.1 0.8l6.3 3.4c0.6 0.4 1.2 0.5 1.8 0.5v0c0.9 0 1.7-0.3 2.3-1 1.1-1.1 1.3-2.7 0.5-4l-3.5-6.4c-0.3-0.4-0.5-0.7-0.8-1-1.1-0.9-2.4-1.5-3.9-1.5z"></path>
<path fill="#444" d="M11 7v-1l-1.4-0.5c-0.1-0.2-0.1-0.3-0.2-0.5l0.6-1.3-0.7-0.7-1.3 0.6c-0.2-0.1-0.3-0.1-0.5-0.2l-0.5-1.4h-1l-0.5 1.4c-0.2 0.1-0.3 0.1-0.5 0.2l-1.3-0.6-0.7 0.7 0.6 1.3c-0.1 0.2-0.1 0.3-0.2 0.5l-1.4 0.5v1l1.4 0.5c0.1 0.2 0.1 0.3 0.2 0.5l-0.6 1.3 0.7 0.7 1.3-0.6c0.2 0.1 0.3 0.2 0.5 0.2l0.5 1.4h1l0.5-1.4c0.2-0.1 0.3-0.1 0.5-0.2l1.3 0.6 0.7-0.7-0.6-1.3c0.1-0.2 0.2-0.3 0.2-0.5l1.4-0.5zM6.5 8c-0.8 0-1.5-0.7-1.5-1.5s0.7-1.5 1.5-1.5 1.5 0.7 1.5 1.5-0.7 1.5-1.5 1.5z"></path>
</svg>
