<?xml version="1.0" encoding="utf-8"?>
<!-- Generated by IcoMoon.io -->
<!DOCTYPE svg PUBLIC "-//W3C//DTD SVG 1.1//EN" "http://www.w3.org/Graphics/SVG/1.1/DTD/svg11.dtd">
<svg version="1.1" xmlns="http://www.w3.org/2000/svg" xmlns:xlink="http://www.w3.org/1999/xlink" width="64" height="64" viewBox="0 0 64 64">
<path fill="#444444" d="M32 0c-17.6 0-32 14.4-32 32s14.4 32 32 32 32-14.4 32-32-14.4-32-32-32zM32 8c5.2 0 10 1.6 14 4.4l-33.6 33.6c-2.8-4-4.4-8.8-4.4-14 0-13.2 10.8-24 24-24zM32 56c-5.2 0-10-1.6-14-4.4l33.6-33.6c2.8 4 4.4 8.8 4.4 14 0 13.2-10.8 24-24 24z"></path>
</svg>
