<?xml version="1.0" encoding="utf-8"?>
<!-- Generated by IcoMoon.io -->
<!DOCTYPE svg PUBLIC "-//W3C//DTD SVG 1.1//EN" "http://www.w3.org/Graphics/SVG/1.1/DTD/svg11.dtd">
<svg version="1.1" xmlns="http://www.w3.org/2000/svg" xmlns:xlink="http://www.w3.org/1999/xlink" width="16" height="16" viewBox="0 0 16 16">
<path fill="#444" d="M8 0c-4.4 0-8 3.6-8 8s3.6 8 8 8 8-3.6 8-8-3.6-8-8-8zM8 2c1.3 0 2.5 0.4 3.5 1.1l-8.4 8.4c-0.7-1-1.1-2.2-1.1-3.5 0-3.3 2.7-6 6-6zM8 14c-1.3 0-2.5-0.4-3.5-1.1l8.4-8.4c0.7 1 1.1 2.2 1.1 3.5 0 3.3-2.7 6-6 6z"></path>
</svg>
