<?xml version="1.0" encoding="utf-8"?>
<!-- Generated by IcoMoon.io -->
<!DOCTYPE svg PUBLIC "-//W3C//DTD SVG 1.1//EN" "http://www.w3.org/Graphics/SVG/1.1/DTD/svg11.dtd">
<svg version="1.1" xmlns="http://www.w3.org/2000/svg" xmlns:xlink="http://www.w3.org/1999/xlink" width="16" height="16" viewBox="0 0 16 16">
<path fill="#444" d="M4.28 7h2.72l-1.15-1.68c-0.542-0.725-1.36-1.216-2.295-1.319l-0.555-0.001v1.54c-0.011 0.063-0.018 0.136-0.018 0.211 0 0.69 0.56 1.25 1.25 1.25 0.017 0 0.034-0 0.050-0.001z"></path>
<path fill="#444" d="M13 7v-0.28c0-0.003 0-0.007 0-0.010 0-0.934-0.749-1.693-1.678-1.71l-4.692-0c0.5 0.62 1.37 2 1.37 2h5z"></path>
<path fill="#444" d="M15 5.1c-0.552 0-1 0.448-1 1v1.9h-12v-4c0-0.552-0.448-1-1-1s-1 0.448-1 1v9h2v-2h12v2h2v-6.9c0-0.552-0.448-1-1-1z"></path>
</svg>
