<?xml version="1.0" encoding="utf-8"?>
<!-- Generated by IcoMoon.io -->
<!DOCTYPE svg PUBLIC "-//W3C//DTD SVG 1.1//EN" "http://www.w3.org/Graphics/SVG/1.1/DTD/svg11.dtd">
<svg version="1.1" xmlns="http://www.w3.org/2000/svg" xmlns:xlink="http://www.w3.org/1999/xlink" width="64" height="64" viewBox="0 0 64 64">
<path fill="#444444" d="M50.8 45.6c-2-0.8-2.8-2.8-2.8-4.8v-20.8c0 0 0-9.6-12-11.6v-4.4c0 0 0.4-4-4-4s-4 4-4 4v4.4c-12 2-12 11.6-12 11.6v20.8c0 2-1.2 4-2.8 4.8l-5.2 2.4v8h16c0 0-0.4 8 8 8s8-8 8-8h16v-8l-5.2-2.4zM52 52h-40v-1.6l2.8-1.6c3.2-1.2 5.2-4.4 5.2-8v-20.8c0-0.4 0-6.4 8.8-7.6l3.2-0.8 3.2 0.4c8 1.6 8.8 6.8 8.8 8v20.8c0 3.6 2 6.8 5.2 8.4l2.8 1.6v1.2z"></path>
</svg>
