<?xml version="1.0" encoding="utf-8"?>
<!-- Generated by IcoMoon.io -->
<!DOCTYPE svg PUBLIC "-//W3C//DTD SVG 1.1//EN" "http://www.w3.org/Graphics/SVG/1.1/DTD/svg11.dtd">
<svg version="1.1" xmlns="http://www.w3.org/2000/svg" xmlns:xlink="http://www.w3.org/1999/xlink" width="64" height="64" viewBox="0 0 64 64">
<path fill="#444444" d="M60.8 0l-14.4 14.4c-1.6-2.4-4.8-5.2-10.4-6v-4.4c0 0 0.4-4-4-4s-4 4-4 4v4.4c-12 2-12 11.6-12 11.6v20.8c0 2-1.2 4-2.8 4.8l-5.2 2.4v5.2l-8 8v2.8h2.8l61.2-61.6v-2.4h-3.2zM20 41.2c0-0.4 0-0.4 0 0v-21.2c0-0.4 0.4-6.4 8.8-7.6l3.2-0.8 3.2 0.4c4.8 0.8 7.2 3.2 8 5.2l-23.2 24z"></path>
<path fill="#444444" d="M48 40.8v-18.4l-4 4v14c0 3.6 2 6.8 5.2 8.4l2.8 1.6v1.6h-33.2l-4 4h9.6c0 0-0.4 8 8 8s8-8 8-8h15.6v-8l-5.2-2.4c-1.6-1.2-2.8-2.8-2.8-4.8z"></path>
</svg>
