<?xml version="1.0" encoding="utf-8"?>
<!-- Generated by IcoMoon.io -->
<!DOCTYPE svg PUBLIC "-//W3C//DTD SVG 1.1//EN" "http://www.w3.org/Graphics/SVG/1.1/DTD/svg11.dtd">
<svg version="1.1" xmlns="http://www.w3.org/2000/svg" xmlns:xlink="http://www.w3.org/1999/xlink" width="64" height="64" viewBox="0 0 64 64">
<path fill="#444444" d="M60.8 0l-14.4 14.4c-2-2.4-4.8-5.2-10.4-6v-4.4c0 0 0.4-4-4-4s-4 4-4 4v4.4c-11.2 2-12 11.6-12 11.6v20.8c0 2-1.2 4-2.8 4.8l-5.2 2.4v4h1.2l-9.2 9.2v2.8h2.8l61.2-61.6v-2.4h-3.2zM24 19.2v18l-4 4v-21.2c0 0 0-3.2 2.8-5.6 2.8-2.8 5.2-2.4 5.2-2.4s-4 2.8-4 7.2z"></path>
<path fill="#444444" d="M32 64c8.4 0 8-8 8-8h-16c0 0-0.4 8 8 8z"></path>
<path fill="#444444" d="M48 40.8v-18.4l-24 24-1.2 1.6-4 4h37.2v-4l-5.2-2.4c-1.6-1.2-2.8-2.8-2.8-4.8z"></path>
</svg>
