<?xml version="1.0" encoding="utf-8"?>
<!-- Generated by IcoMoon.io -->
<!DOCTYPE svg PUBLIC "-//W3C//DTD SVG 1.1//EN" "http://www.w3.org/Graphics/SVG/1.1/DTD/svg11.dtd">
<svg version="1.1" xmlns="http://www.w3.org/2000/svg" xmlns:xlink="http://www.w3.org/1999/xlink" width="16" height="16" viewBox="0 0 16 16">
<path fill="#444" d="M15.2 0l-3.6 3.6c-0.4-0.6-1.2-1.3-2.6-1.5v-1.1c0 0 0.1-1-1-1s-1 1-1 1v1.1c-3 0.5-3 2.9-3 2.9v5.2c0 0.5-0.3 1-0.7 1.2l-1.3 0.6v1.3l-2 2v0.7h0.7l15.3-15.4v-0.6h-0.8zM5 10.3c0-0.1 0-0.1 0 0v-5.3c0-0.1 0.1-1.6 2.2-1.9l0.8-0.2 0.8 0.1c1.2 0.2 1.8 0.8 2 1.3l-5.8 6z"></path>
<path fill="#444" d="M12 10.2v-4.6l-1 1v3.5c0 0.9 0.5 1.7 1.3 2.1l0.7 0.4v0.4h-8.3l-1 1h2.4c0 0-0.1 2 2 2s2-2 2-2h3.9v-2l-1.3-0.6c-0.4-0.3-0.7-0.7-0.7-1.2z"></path>
</svg>
