<?xml version="1.0" encoding="utf-8"?>
<!-- Generated by IcoMoon.io -->
<!DOCTYPE svg PUBLIC "-//W3C//DTD SVG 1.1//EN" "http://www.w3.org/Graphics/SVG/1.1/DTD/svg11.dtd">
<svg version="1.1" xmlns="http://www.w3.org/2000/svg" xmlns:xlink="http://www.w3.org/1999/xlink" width="64" height="64" viewBox="0 0 64 64">
<path fill="#444444" d="M24 56h16c0 0 0.4 8-8 8s-8-8-8-8z"></path>
<path fill="#444444" d="M50.8 45.6c-2-0.8-2.8-2.8-2.8-4.8v-20.8c0 0-0.8-9.6-12-11.6v-4.4c0 0 0.4-4-4-4s-4 4-4 4v4.4c-11.2 2-12 11.6-12 11.6v20.8c0 2-1.2 4-2.8 4.8l-5.2 2.4v4h48v-4l-5.2-2.4zM24 19.2v28.8h-8c3.2 0 4-4 4-4v-24c0 0 0-3.2 2.8-5.6 2.8-2.8 5.2-2.4 5.2-2.4s-4 2.8-4 7.2z"></path>
</svg>
