<?xml version="1.0" encoding="utf-8"?>
<!-- Generated by IcoMoon.io -->
<!DOCTYPE svg PUBLIC "-//W3C//DTD SVG 1.1//EN" "http://www.w3.org/Graphics/SVG/1.1/DTD/svg11.dtd">
<svg version="1.1" xmlns="http://www.w3.org/2000/svg" xmlns:xlink="http://www.w3.org/1999/xlink" width="64" height="64" viewBox="0 0 64 64">
<path fill="#444444" d="M6 38.4c4.4 2.8 10 7.6 10 13.2 0 1.6 0 2.8 0 4.4 0 0 0.4 0 0.4 0s3.6 0 8-4c4 4 8 4 8 4s4 0 8-4c4 4 7.6 4 7.6 4s0.4 0 0.4 0c0-1.2 0-2.8 0-4.4 0-5.6 5.6-10.4 10-13.2 2.4-1.6 2-4.8-0.8-5.6l-5.6-1.6v-15.2h-4v-4h-12v-8h-8v8h-12v4h-4v15.2l-5.2 1.6c-3.2 0.8-3.2 4-0.8 5.6zM16 20h4v-4h24v4h4v10l-13.2-4c-2-0.4-4-0.4-6 0l-12.8 4v-10z"></path>
<path fill="#444444" d="M56 56c-4 4-8 4-8 4s-4 0-8-4c-4 4-8 4-8 4s-4 0-8-4c-4 4-8 4-8 4s-4 0-8-4c-4 4-8 4-8 4v4h64v-4c0 0-4 0-8-4z"></path>
</svg>
