<?xml version="1.0" encoding="utf-8"?>
<!-- Generated by IcoMoon.io -->
<!DOCTYPE svg PUBLIC "-//W3C//DTD SVG 1.1//EN" "http://www.w3.org/Graphics/SVG/1.1/DTD/svg11.dtd">
<svg version="1.1" xmlns="http://www.w3.org/2000/svg" xmlns:xlink="http://www.w3.org/1999/xlink" width="16" height="16" viewBox="0 0 16 16">
<path fill="#444" d="M1.5 9.6c1.1 0.7 2.5 1.9 2.5 3.3 0 0.4 0 0.7 0 1.1 0 0 0.1 0 0.1 0s0.9 0 2-1c1 1 2 1 2 1s1 0 2-1c1 1 1.9 1 1.9 1s0.1 0 0.1 0c0-0.3 0-0.7 0-1.1 0-1.4 1.4-2.6 2.5-3.3 0.6-0.4 0.5-1.2-0.2-1.4l-1.4-0.4v-3.8h-1v-1h-3v-2h-2v2h-3v1h-1v3.8l-1.3 0.4c-0.8 0.2-0.8 1-0.2 1.4zM4 5h1v-1h6v1h1v2.5l-3.3-1c-0.5-0.1-1-0.1-1.5 0l-3.2 1v-2.5z"></path>
<path fill="#444" d="M14 14c-1 1-2 1-2 1s-1 0-2-1c-1 1-2 1-2 1s-1 0-2-1c-1 1-2 1-2 1s-1 0-2-1c-1 1-2 1-2 1v1h16v-1c0 0-1 0-2-1z"></path>
</svg>
