<?xml version="1.0" encoding="utf-8"?>
<!-- Generated by IcoMoon.io -->
<!DOCTYPE svg PUBLIC "-//W3C//DTD SVG 1.1//EN" "http://www.w3.org/Graphics/SVG/1.1/DTD/svg11.dtd">
<svg version="1.1" xmlns="http://www.w3.org/2000/svg" xmlns:xlink="http://www.w3.org/1999/xlink" width="16" height="16" viewBox="0 0 16 16">
<path fill="#444" d="M11 7.5c0 0 2-0.8 2-3.6 0-4.1-5.1-3.9-7-3.9h-4v16h4c3.7 0 8 0 8-4.4 0-3.8-3-4.1-3-4.1zM9 4.4c0 1.8-1.5 1.6-3 1.6v-3c1.8 0 3 0.1 3 1.4zM6 13v-4c1.8 0 4-0.3 4 2.2 0 1.9-2.5 1.8-4 1.8z"></path>
</svg>
