<?xml version="1.0" encoding="utf-8"?>
<!-- Generated by IcoMoon.io -->
<!DOCTYPE svg PUBLIC "-//W3C//DTD SVG 1.1//EN" "http://www.w3.org/Graphics/SVG/1.1/DTD/svg11.dtd">
<svg version="1.1" xmlns="http://www.w3.org/2000/svg" xmlns:xlink="http://www.w3.org/1999/xlink" width="64" height="64" viewBox="0 0 64 64">
<path fill="#444444" d="M44 30c0 0 8-3.2 8-14.4 0-16.4-20.4-15.6-28-15.6h-16v64h16c14.8 0 32 0 32-17.6 0-15.2-12-16.4-12-16.4zM36 17.6c0 7.2-6 6.4-12 6.4v-12c7.2 0 12 0.4 12 5.6zM24 52v-16c7.2 0 16-1.2 16 8.8 0 7.6-10 7.2-16 7.2z"></path>
</svg>
