<?xml version="1.0" encoding="utf-8"?>
<!-- Generated by IcoMoon.io -->
<!DOCTYPE svg PUBLIC "-//W3C//DTD SVG 1.1//EN" "http://www.w3.org/Graphics/SVG/1.1/DTD/svg11.dtd">
<svg version="1.1" xmlns="http://www.w3.org/2000/svg" xmlns:xlink="http://www.w3.org/1999/xlink" width="64" height="64" viewBox="0 0 64 64">
<path fill="#444444" d="M48 4h4v4h-4v-4z"></path>
<path fill="#444444" d="M48 20h4v4h-4v-4z"></path>
<path fill="#444444" d="M56 12h4v4h-4v-4z"></path>
<path fill="#444444" d="M40 12h4v4h-4v-4z"></path>
<path fill="#444444" d="M58.4 8.4l2.8-2.8-2.8-2.8-5.6 5.6 2.8 2.8z"></path>
<path fill="#444444" d="M55.6 16.8l-2.8 2.8 5.6 5.6 2.8-2.8-2.8-2.8z"></path>
<path fill="#444444" d="M44.4 11.2l2.8-2.8-5.6-5.6-2.8 2.8 2.8 2.8z"></path>
<path fill="#444444" d="M41.6 25.6l8-8-2.8-2.8-8 8-2.8-2.8-2.8 3.2c-3.2-2-7.2-3.2-11.2-3.2-12 0-22 10-22 22s10 22 22 22 22-10 22-22c0-4-1.2-7.6-2.8-11.2l2.8-2.8-2.4-2.4zM24 28.8c-8 0-13.6 7.2-13.6 11.2h-4c0-8 9.6-15.2 17.6-15.2v4z"></path>
</svg>
