<?xml version="1.0" encoding="utf-8"?>
<!-- Generated by IcoMoon.io -->
<!DOCTYPE svg PUBLIC "-//W3C//DTD SVG 1.1//EN" "http://www.w3.org/Graphics/SVG/1.1/DTD/svg11.dtd">
<svg version="1.1" xmlns="http://www.w3.org/2000/svg" xmlns:xlink="http://www.w3.org/1999/xlink" width="16" height="16" viewBox="0 0 16 16">
<path fill="#444" d="M12 1h1v1h-1v-1z"></path>
<path fill="#444" d="M12 5h1v1h-1v-1z"></path>
<path fill="#444" d="M14 3h1v1h-1v-1z"></path>
<path fill="#444" d="M10 3h1v1h-1v-1z"></path>
<path fill="#444" d="M14.6 2.1l0.7-0.7-0.7-0.7-1.4 1.4 0.7 0.7z"></path>
<path fill="#444" d="M13.9 4.2l-0.7 0.7 1.4 1.4 0.7-0.7-0.7-0.7z"></path>
<path fill="#444" d="M11.1 2.8l0.7-0.7-1.4-1.4-0.7 0.7 0.7 0.7z"></path>
<path fill="#444" d="M10.4 6.4l2-2-0.7-0.7-2 2-0.7-0.7-0.7 0.8c-0.8-0.5-1.8-0.8-2.8-0.8-3 0-5.5 2.5-5.5 5.5s2.5 5.5 5.5 5.5 5.5-2.5 5.5-5.5c0-1-0.3-1.9-0.7-2.8l0.7-0.7-0.6-0.6zM6 7.2c-2 0-3.4 1.8-3.4 2.8h-1c0-2 2.4-3.8 4.4-3.8v1z"></path>
</svg>
