<?xml version="1.0" encoding="utf-8"?>
<!-- Generated by IcoMoon.io -->
<!DOCTYPE svg PUBLIC "-//W3C//DTD SVG 1.1//EN" "http://www.w3.org/Graphics/SVG/1.1/DTD/svg11.dtd">
<svg version="1.1" xmlns="http://www.w3.org/2000/svg" xmlns:xlink="http://www.w3.org/1999/xlink" width="64" height="64" viewBox="0 0 64 64">
<path fill="#444444" d="M51.6 10c-6.4-4.8-5.6-10-5.6-10h-38v50c0 7.6 8.4 14 16 14h32v-52c0 0-3.2-0.8-4.4-2zM28 25.2c-3.6-1.2-9.2-3.2-9.2-7.6 0.4-3.2 5.2-5.6 5.2-6.4v-3.2h4v2.8c4 0.4 7.2 1.6 7.6 1.6l-1.2 3.6c0 0-2.8-1.2-6-1.2-2.8 0-4.4 1.2-4.8 3.2 0 1.2 2 2.4 5.2 3.6 6 2 7.6 4.4 7.6 7.6 0 2.8-0.4 6.4-8.4 7.2v3.6h-4v-3.2c0-0.4-5.6-2-6-2l2-3.6c0 0 4.4 2 8 1.6s5.2-2.4 5.2-4c0.4-1.2-1.6-2.4-5.2-3.6zM52 60h-28c-4 0-7.2-2.4-8-5.2-0.4-1.2 0-2.8 1.6-2.8h26.4v-41.2c4 2.4 8 4.4 8 5.2v44z"></path>
</svg>
