<?xml version="1.0" encoding="utf-8"?>
<!-- Generated by IcoMoon.io -->
<!DOCTYPE svg PUBLIC "-//W3C//DTD SVG 1.1//EN" "http://www.w3.org/Graphics/SVG/1.1/DTD/svg11.dtd">
<svg version="1.1" xmlns="http://www.w3.org/2000/svg" xmlns:xlink="http://www.w3.org/1999/xlink" width="64" height="64" viewBox="0 0 64 64">
<path fill="#444444" d="M50.4 10c-6.4-4.8-6.4-10-6.4-10h-36v50c0 7.6 6.4 14 14 14h34v-52c0 0-4-0.8-5.6-2zM22 12.8c3.2 0 6 2.8 6 6.4s-2.8 5.6-6 5.6-6-2.4-6-5.6 2.8-6.4 6-6.4zM36 12h4l-20 28h-4l20-28zM40 34c0 3.2-2.8 6-6 6s-6-2.8-6-6 2.8-6 6-6 6 2.8 6 6zM52 60h-30c-4 0-7.2-2.4-8-5.2-0.4-1.6 0-2.8 1.6-2.8h28.4v-41.2c0 2.4 4 4.4 8 5.2v44z"></path>
<path fill="#444444" d="M36 34c0 1.105-0.895 2-2 2s-2-0.895-2-2c0-1.105 0.895-2 2-2s2 0.895 2 2z"></path>
<path fill="#444444" d="M24 19.2c0 1.105-0.895 2-2 2s-2-0.895-2-2c0-1.105 0.895-2 2-2s2 0.895 2 2z"></path>
</svg>
