<?xml version="1.0" encoding="utf-8"?>
<!-- Generated by IcoMoon.io -->
<!DOCTYPE svg PUBLIC "-//W3C//DTD SVG 1.1//EN" "http://www.w3.org/Graphics/SVG/1.1/DTD/svg11.dtd">
<svg version="1.1" xmlns="http://www.w3.org/2000/svg" xmlns:xlink="http://www.w3.org/1999/xlink" width="16" height="16" viewBox="0 0 16 16">
<path fill="#444" d="M12.9 2.5c-1.6-1.2-1.4-2.5-1.4-2.5h-9.5v12.5c0 1.9 2.1 3.5 4 3.5h8v-13c0 0-0.8-0.2-1.1-0.5zM7 6.3c-0.9-0.3-2.3-0.8-2.3-1.9 0.1-0.8 1.3-1.4 1.3-1.6v-0.8h1v0.7c1 0.1 1.8 0.4 1.9 0.4l-0.3 0.9c0 0-0.7-0.3-1.5-0.3-0.7 0-1.1 0.3-1.2 0.8 0 0.3 0.5 0.6 1.3 0.9 1.5 0.5 1.9 1.1 1.9 1.9 0 0.7-0.1 1.6-2.1 1.8v0.9h-1v-0.8c0-0.1-1.4-0.5-1.5-0.5l0.5-0.9c0 0 1.1 0.5 2 0.4s1.3-0.6 1.3-1c0.1-0.3-0.4-0.6-1.3-0.9zM13 15h-7c-1 0-1.8-0.6-2-1.3-0.1-0.3 0-0.7 0.4-0.7h6.6v-10.3c1 0.6 2 1.1 2 1.3v11z"></path>
</svg>
