<?xml version="1.0" encoding="utf-8"?>
<!-- Generated by IcoMoon.io -->
<!DOCTYPE svg PUBLIC "-//W3C//DTD SVG 1.1//EN" "http://www.w3.org/Graphics/SVG/1.1/DTD/svg11.dtd">
<svg version="1.1" xmlns="http://www.w3.org/2000/svg" xmlns:xlink="http://www.w3.org/1999/xlink" width="16" height="16" viewBox="0 0 16 16">
<path fill="#444" d="M12.6 2.5c-1.6-1.2-1.6-2.5-1.6-2.5h-9v12.5c0 1.9 1.6 3.5 3.5 3.5h8.5v-13c0 0-1-0.2-1.4-0.5zM5.5 3.2c0.8 0 1.5 0.7 1.5 1.6s-0.7 1.4-1.5 1.4-1.5-0.6-1.5-1.4 0.7-1.6 1.5-1.6zM9 3h1l-5 7h-1l5-7zM10 8.5c0 0.8-0.7 1.5-1.5 1.5s-1.5-0.7-1.5-1.5 0.7-1.5 1.5-1.5 1.5 0.7 1.5 1.5zM13 15h-7.5c-1 0-1.8-0.6-2-1.3-0.1-0.4 0-0.7 0.4-0.7h7.1v-10.3c0 0.6 1 1.1 2 1.3v11z"></path>
<path fill="#444" d="M9 8.5c0 0.276-0.224 0.5-0.5 0.5s-0.5-0.224-0.5-0.5c0-0.276 0.224-0.5 0.5-0.5s0.5 0.224 0.5 0.5z"></path>
<path fill="#444" d="M6 4.8c0 0.276-0.224 0.5-0.5 0.5s-0.5-0.224-0.5-0.5c0-0.276 0.224-0.5 0.5-0.5s0.5 0.224 0.5 0.5z"></path>
</svg>
