<?xml version="1.0" encoding="utf-8"?>
<!-- Generated by IcoMoon.io -->
<!DOCTYPE svg PUBLIC "-//W3C//DTD SVG 1.1//EN" "http://www.w3.org/Graphics/SVG/1.1/DTD/svg11.dtd">
<svg version="1.1" xmlns="http://www.w3.org/2000/svg" xmlns:xlink="http://www.w3.org/1999/xlink" width="64" height="64" viewBox="0 0 64 64">
<path fill="#444444" d="M48 32v-8.4c5.2-1.6 8-7.6 8-13.6 0-1.2-0.8-2-2-2s-2 0.8-2 2c0 4-2 10-7.2 10h-0.8c0 0 0.8-8.4-8-11.2v-6.8c0-1.2-0.8-2-2-2s-2 0.8-2 2v6c-0.8 0-1.2 0-2 0s-1.2 0-2 0v-6c0-1.2-0.8-2-2-2s-2 0.8-2 2v6.8c-8.8 2.8-8 11.2-8 11.2h-0.8c-5.2 0-7.2-6-7.2-10 0-1.2-0.8-2-2-2s-2 0.8-2 2c0 5.6 2.8 11.6 8 13.6v8.4c-11.2 0.4-12 5.6-12 14 0 0.8 0.8 2 2 2s2-1.2 2-2c0-7.2 0-9.6 8-10 0 0 0 6.4 2.4 12.4-1.6 0.4-2.8 0.8-3.6 2-2.8 2.4-2.8 6.8-2.8 10.8v0.4c0 1.2 0.8 2.4 2 2.4s2-1.2 2-2v-0.4c0-3.2 0-6.8 1.6-8.4 0.4-0.8 1.6-1.2 2.8-1.2 2.8 4.4 6.8 8 13.6 8s11.2-3.6 13.6-8c1.2 0 2 0.4 2.8 0.8 1.6 1.6 1.6 4.8 1.6 8.4v0.4c0 1.2 0.8 2 2 2s2-0.8 2-2v-0.4c0-4 0-8.4-2.8-11.2-0.8-0.8-2.4-1.6-3.6-2 2.4-5.6 2.4-11.6 2.4-12 8 0 8 2.8 8 10 0 1.2 0.8 2 2 2s2-0.8 2-2c0-8.4-0.8-13.6-12-14zM28 56c-12-1.6-12-19.2-12-20v-12h12v32zM28 16h-4v-4h4v4zM32 12h4v4h-4v-4zM32 56v-32h12v12c0 0.8 0 18-12 20z"></path>
</svg>
