<?xml version="1.0" encoding="utf-8"?>
<!-- Generated by IcoMoon.io -->
<!DOCTYPE svg PUBLIC "-//W3C//DTD SVG 1.1//EN" "http://www.w3.org/Graphics/SVG/1.1/DTD/svg11.dtd">
<svg version="1.1" xmlns="http://www.w3.org/2000/svg" xmlns:xlink="http://www.w3.org/1999/xlink" width="16" height="16" viewBox="0 0 16 16">
<path fill="#444" d="M2 0v16h12v-16h-12zM13 15h-4v-3h-2v3h-4v-14h10v14z"></path>
<path fill="#444" d="M4 9h2v2h-2v-2z"></path>
<path fill="#444" d="M7 9h2v2h-2v-2z"></path>
<path fill="#444" d="M10 9h2v2h-2v-2z"></path>
<path fill="#444" d="M4 6h2v2h-2v-2z"></path>
<path fill="#444" d="M7 6h2v2h-2v-2z"></path>
<path fill="#444" d="M10 6h2v2h-2v-2z"></path>
<path fill="#444" d="M4 3h2v2h-2v-2z"></path>
<path fill="#444" d="M7 3h2v2h-2v-2z"></path>
<path fill="#444" d="M10 3h2v2h-2v-2z"></path>
</svg>
