<?xml version="1.0" encoding="utf-8"?>
<!-- Generated by IcoMoon.io -->
<!DOCTYPE svg PUBLIC "-//W3C//DTD SVG 1.1//EN" "http://www.w3.org/Graphics/SVG/1.1/DTD/svg11.dtd">
<svg version="1.1" xmlns="http://www.w3.org/2000/svg" xmlns:xlink="http://www.w3.org/1999/xlink" width="16" height="16" viewBox="0 0 16 16">
<path fill="#444" d="M3 0v16h4v-3h2v3h4v-16h-10zM6 12h-2v-2h2v2zM6 9h-2v-2h2v2zM6 6h-2v-2h2v2zM6 3h-2v-2h2v2zM9 12h-2v-2h2v2zM9 9h-2v-2h2v2zM9 6h-2v-2h2v2zM9 3h-2v-2h2v2zM12 12h-2v-2h2v2zM12 9h-2v-2h2v2zM12 6h-2v-2h2v2zM12 3h-2v-2h2v2z"></path>
</svg>
