<?xml version="1.0" encoding="utf-8"?>
<!-- Generated by IcoMoon.io -->
<!DOCTYPE svg PUBLIC "-//W3C//DTD SVG 1.1//EN" "http://www.w3.org/Graphics/SVG/1.1/DTD/svg11.dtd">
<svg version="1.1" xmlns="http://www.w3.org/2000/svg" xmlns:xlink="http://www.w3.org/1999/xlink" width="16" height="16" viewBox="0 0 16 16">
<path fill="#444" d="M0 2.5v0c0 0.8 0.7 1.5 1.5 1.5v0c0.8 0 1.5-0.7 1.5-1.5v0c0-0.8-0.7-1.5-1.5-1.5v0c-0.8 0-1.5 0.7-1.5 1.5z"></path>
<path fill="#444" d="M0 7.5v0c0 0.8 0.7 1.5 1.5 1.5v0c0.8 0 1.5-0.7 1.5-1.5v0c0-0.8-0.7-1.5-1.5-1.5v0c-0.8 0-1.5 0.7-1.5 1.5z"></path>
<path fill="#444" d="M0 12.5v0c0 0.8 0.7 1.5 1.5 1.5v0c0.8 0 1.5-0.7 1.5-1.5v0c0-0.8-0.7-1.5-1.5-1.5v0c-0.8 0-1.5 0.7-1.5 1.5z"></path>
<path fill="#444" d="M5 1h11v3h-11v-3z"></path>
<path fill="#444" d="M5 6h11v3h-11v-3z"></path>
<path fill="#444" d="M5 11h11v3h-11v-3z"></path>
</svg>
