<?xml version="1.0" encoding="utf-8"?>
<!-- Generated by IcoMoon.io -->
<!DOCTYPE svg PUBLIC "-//W3C//DTD SVG 1.1//EN" "http://www.w3.org/Graphics/SVG/1.1/DTD/svg11.dtd">
<svg version="1.1" xmlns="http://www.w3.org/2000/svg" xmlns:xlink="http://www.w3.org/1999/xlink" width="64" height="64" viewBox="0 0 64 64">
<path fill="#444444" d="M32 0c-17.6 0-32 14.4-32 32s14.4 32 32 32 32-14.4 32-32-14.4-32-32-32zM32 59.6c-15.2 0-27.6-12.4-27.6-27.6s12.4-27.6 27.6-27.6 27.6 12.4 27.6 27.6-12.4 27.6-27.6 27.6z"></path>
<path fill="#444444" d="M32 9.2c-12.8 0-22.8 10-22.8 22.8s10.4 22.8 22.8 22.8 22.8-10.4 22.8-22.8-10-22.8-22.8-22.8zM32 50.4c-10 0-18.4-8.4-18.4-18.4s8.4-18.4 18.4-18.4 18.4 8.4 18.4 18.4c0 10-8.4 18.4-18.4 18.4z"></path>
<path fill="#444444" d="M32 18.4c-7.6 0-13.6 6-13.6 13.6s6 13.6 13.6 13.6c7.6 0 13.6-6 13.6-13.6s-6-13.6-13.6-13.6z"></path>
</svg>
