<?xml version="1.0" encoding="utf-8"?>
<!-- Generated by IcoMoon.io -->
<!DOCTYPE svg PUBLIC "-//W3C//DTD SVG 1.1//EN" "http://www.w3.org/Graphics/SVG/1.1/DTD/svg11.dtd">
<svg version="1.1" xmlns="http://www.w3.org/2000/svg" xmlns:xlink="http://www.w3.org/1999/xlink" width="64" height="64" viewBox="0 0 64 64">
<path fill="#444444" d="M0 10v0c0 3.2 2.8 6 6 6v0c3.2 0 6-2.8 6-6v0c0-3.2-2.8-6-6-6v0c-3.2 0-6 2.8-6 6z"></path>
<path fill="#444444" d="M0 30v0c0 3.2 2.8 6 6 6v0c3.2 0 6-2.8 6-6v0c0-3.2-2.8-6-6-6v0c-3.2 0-6 2.8-6 6z"></path>
<path fill="#444444" d="M0 50v0c0 3.2 2.8 6 6 6v0c3.2 0 6-2.8 6-6v0c0-3.2-2.8-6-6-6v0c-3.2 0-6 2.8-6 6z"></path>
<path fill="#444444" d="M20 4h44v12h-44v-12z"></path>
<path fill="#444444" d="M20 24h44v12h-44v-12z"></path>
<path fill="#444444" d="M20 44h44v12h-44v-12z"></path>
</svg>
