<?xml version="1.0" encoding="utf-8"?>
<!-- Generated by IcoMoon.io -->
<!DOCTYPE svg PUBLIC "-//W3C//DTD SVG 1.1//EN" "http://www.w3.org/Graphics/SVG/1.1/DTD/svg11.dtd">
<svg version="1.1" xmlns="http://www.w3.org/2000/svg" xmlns:xlink="http://www.w3.org/1999/xlink" width="16" height="16" viewBox="0 0 16 16">
<path fill="#444" d="M11.9 0c-1.3 0-2 0.4-2.4 0.8-0.4-0.4-1.1-0.8-2.5-0.8-3.4 0-4 2-4 2v0 0 4h-3v10h7v-4.6l1.5-0.2c0 0 0.2-0.3 0.3 0.7h1.3c0.1-1 0.4-0.7 0.4-0.7l5.5 0.7v-9.8c0 0-0.6-2.1-4.1-2.1zM1 7h5v2h-5v-2zM6 10v1h-1v-1h1zM4 10v1h-1v-1h1zM2 15h-1v-1h1v1zM2 13h-1v-1h1v1zM2 11h-1v-1h1v1zM4 15h-1v-1h1v1zM4 13h-1v-1h1v1zM6 15h-1v-1h1v1zM6 13h-1v-1h1v1zM9 9.5c-0.9-0.1-1.3-0.3-2-0.3v-3.2h-3v-3.9c0-0.4 0.8-1.5 3-1.5 1.8 0 1.9 0.8 1.9 1 0 0 0 0 0 0v7.9zM15 9.9c-1-0.4-1.1-0.7-2.5-0.7-0.1 0-0.2 0-0.2 0-1 0-1.3 0.2-2.3 0.4v-7.6c0 0 0-0.1 0-0.1s0-0.1 0-0.1c0-0.2 0.2-1.1 1.9-1.1 2.3 0 3.1 0.9 3.1 1.4v7.8z"></path>
</svg>
