<?xml version="1.0" encoding="utf-8"?>
<!-- Generated by IcoMoon.io -->
<!DOCTYPE svg PUBLIC "-//W3C//DTD SVG 1.1//EN" "http://www.w3.org/Graphics/SVG/1.1/DTD/svg11.dtd">
<svg version="1.1" xmlns="http://www.w3.org/2000/svg" xmlns:xlink="http://www.w3.org/1999/xlink" width="64" height="64" viewBox="0 0 64 64">
<path fill="#444444" d="M36 12h24v8h-24v-8z"></path>
<path fill="#444444" d="M36 44h24v8h-24v-8z"></path>
<path fill="#444444" d="M20 4h-8v8h-8v8h8v8h8v-8h8v-8h-8z"></path>
<path fill="#444444" d="M28 41.6l-5.6-5.6-6.4 6.4-6.4-6.4-5.6 5.6 6.4 6.4-6.4 6.4 5.6 5.6 6.4-6.4 6.4 6.4 5.6-5.6-6.4-6.4z"></path>
<path fill="#444444" d="M52 58c0 2.209-1.791 4-4 4s-4-1.791-4-4c0-2.209 1.791-4 4-4s4 1.791 4 4z"></path>
<path fill="#444444" d="M52 38c0 2.209-1.791 4-4 4s-4-1.791-4-4c0-2.209 1.791-4 4-4s4 1.791 4 4z"></path>
</svg>
