<?xml version="1.0" encoding="utf-8"?>
<!-- Generated by IcoMoon.io -->
<!DOCTYPE svg PUBLIC "-//W3C//DTD SVG 1.1//EN" "http://www.w3.org/Graphics/SVG/1.1/DTD/svg11.dtd">
<svg version="1.1" xmlns="http://www.w3.org/2000/svg" xmlns:xlink="http://www.w3.org/1999/xlink" width="64" height="64" viewBox="0 0 64 64">
<path fill="#444444" d="M47.6 0c-5.2 0-8 1.6-9.6 3.2-1.6-1.6-4.4-3.2-10-3.2-13.6 0-16 8-16 8v0 0 16h-12v40h28v-18.4l6-0.8c0 0 0.8-1.2 1.2 2.8h5.2c0.4-4 1.6-2.8 1.6-2.8l22 2.8v-39.2c0 0-2.4-8.4-16.4-8.4zM4 28h20v8h-20v-8zM24 40v4h-4v-4h4zM16 40v4h-4v-4h4zM8 60h-4v-4h4v4zM8 52h-4v-4h4v4zM8 44h-4v-4h4v4zM16 60h-4v-4h4v4zM16 52h-4v-4h4v4zM24 60h-4v-4h4v4zM24 52h-4v-4h4v4zM36 38c-3.6-0.4-5.2-1.2-8-1.2v-12.8h-12v-15.6c0-1.6 3.2-6 12-6 7.2 0 7.6 3.2 7.6 4 0 0 0 0 0 0v31.6zM60 39.6c-4-1.6-4.4-2.8-10-2.8-0.4 0-0.8 0-0.8 0-4 0-5.2 0.8-9.2 1.6v-30.4c0 0 0-0.4 0-0.4s0-0.4 0-0.4c0-0.8 0.8-4.4 7.6-4.4 9.2 0 12.4 3.6 12.4 5.6v31.2z"></path>
</svg>
