<?xml version="1.0" encoding="utf-8"?>
<!-- Generated by IcoMoon.io -->
<!DOCTYPE svg PUBLIC "-//W3C//DTD SVG 1.1//EN" "http://www.w3.org/Graphics/SVG/1.1/DTD/svg11.dtd">
<svg version="1.1" xmlns="http://www.w3.org/2000/svg" xmlns:xlink="http://www.w3.org/1999/xlink" width="64" height="64" viewBox="0 0 64 64">
<path fill="#444444" d="M12 0h4v12h-4v-12z"></path>
<path fill="#444444" d="M44 0h4v12h-4v-12z"></path>
<path fill="#444444" d="M26.4 56h-22.4v-32h52v2.4c1.6 0.8 2.8 1.6 4 2.8v-25.2h-8v12h-12v-12h-20v12h-12v-12h-8v56h29.2c-1.2-1.2-2-2.4-2.8-4z"></path>
<path fill="#444444" d="M56 48h-12v-12h4v8h8z"></path>
<path fill="#444444" d="M46 32c7.6 0 14 6.4 14 14s-6.4 14-14 14-14-6.4-14-14 6.4-14 14-14zM46 28c-10 0-18 8-18 18s8 18 18 18 18-8 18-18-8-18-18-18v0z"></path>
</svg>
