<?xml version="1.0" encoding="utf-8"?>
<!-- Generated by IcoMoon.io -->
<!DOCTYPE svg PUBLIC "-//W3C//DTD SVG 1.1//EN" "http://www.w3.org/Graphics/SVG/1.1/DTD/svg11.dtd">
<svg version="1.1" xmlns="http://www.w3.org/2000/svg" xmlns:xlink="http://www.w3.org/1999/xlink" width="64" height="64" viewBox="0 0 64 64">
<path fill="#444444" d="M12 0h4v8h-4v-8z"></path>
<path fill="#444444" d="M36 0h4v8h-4v-8z"></path>
<path fill="#444444" d="M52 28v-24h-8v8h-12v-8h-12v8h-12v-8h-8v48h16v12h48v-36h-12zM16 48h-12v-28h44v8h-32v20zM20 40.8l10.4 6-10.4 10.4v-16.4zM22.8 60l11.2-11.2 6 3.6 6-3.2 11.2 11.2h-34.4zM60 57.2l-10.4-10.4 10.4-5.6v16zM60 36.8l-20 10.8-20-11.6v-4h40v4.8zM61.6 38.4v0 0 0z"></path>
</svg>
