<?xml version="1.0" encoding="utf-8"?>
<!-- Generated by IcoMoon.io -->
<!DOCTYPE svg PUBLIC "-//W3C//DTD SVG 1.1//EN" "http://www.w3.org/Graphics/SVG/1.1/DTD/svg11.dtd">
<svg version="1.1" xmlns="http://www.w3.org/2000/svg" xmlns:xlink="http://www.w3.org/1999/xlink" width="64" height="64" viewBox="0 0 64 64">
<path fill="#444444" d="M12 0h4v12h-4v-12z"></path>
<path fill="#444444" d="M44 0h4v12h-4v-12z"></path>
<path fill="#444444" d="M36 56.4c0-0.4 0-0.4 0 0l-32-0.4v-32h52v4.8c1.6 0.4 2.8 1.2 4 2.4v-27.2h-8v12h-12v-12h-20v12h-12v-12h-8v56h36v-3.6z"></path>
<path fill="#444444" d="M60 40c0 4.418-3.582 8-8 8s-8-3.582-8-8c0-4.418 3.582-8 8-8s8 3.582 8 8z"></path>
<path fill="#444444" d="M55.6 48h-7.2c-4.4 0-8.4 3.6-8.4 8.4v7.6h24v-7.6c0-4.8-3.6-8.4-8.4-8.4z"></path>
</svg>
