<?xml version="1.0" encoding="utf-8"?>
<!-- Generated by IcoMoon.io -->
<!DOCTYPE svg PUBLIC "-//W3C//DTD SVG 1.1//EN" "http://www.w3.org/Graphics/SVG/1.1/DTD/svg11.dtd">
<svg version="1.1" xmlns="http://www.w3.org/2000/svg" xmlns:xlink="http://www.w3.org/1999/xlink" width="64" height="64" viewBox="0 0 64 64">
<path fill="#444444" d="M56 4v12h-12v-12h-24v12h-12v-12h-8v60h64v-60h-8zM12 60h-8v-8h8v8zM12 48h-8v-8h8v8zM12 36h-8v-8h8v8zM24 60h-8v-8h8v8zM24 48h-8v-8h8v8zM24 36h-8v-8h8v8zM36 60h-8v-8h8v8zM36 48h-8v-8h8v8zM36 36h-8v-8h8v8zM48 60h-8v-8h8v8zM48 48h-8v-8h8v8zM48 36h-8v-8h8v8zM60 60h-8v-8h8v8zM60 48h-8v-8h8v8zM60 36h-8v-8h8v8z"></path>
<path fill="#444444" d="M12 0h4v12h-4v-12z"></path>
<path fill="#444444" d="M48 0h4v12h-4v-12z"></path>
</svg>
