<?xml version="1.0" encoding="utf-8"?>
<!-- Generated by IcoMoon.io -->
<!DOCTYPE svg PUBLIC "-//W3C//DTD SVG 1.1//EN" "http://www.w3.org/Graphics/SVG/1.1/DTD/svg11.dtd">
<svg version="1.1" xmlns="http://www.w3.org/2000/svg" xmlns:xlink="http://www.w3.org/1999/xlink" width="16" height="16" viewBox="0 0 16 16">
<path fill="#444" d="M3 0h1v2h-1v-2z"></path>
<path fill="#444" d="M9 0h1v2h-1v-2z"></path>
<path fill="#444" d="M13 7v-6h-2v2h-3v-2h-3v2h-3v-2h-2v12h4v3h12v-9h-3zM4 12h-3v-7h11v2h-8v5zM5 10.2l2.6 1.5-2.6 2.6v-4.1zM5.7 15l2.8-2.8 1.5 0.9 1.5-0.8 2.8 2.8h-8.6zM15 14.3l-2.6-2.6 2.6-1.4v4zM15 9.2l-5 2.7-5-2.9v-1h10v1.2zM15.4 9.6v0 0 0z"></path>
</svg>
