<?xml version="1.0" encoding="utf-8"?>
<!-- Generated by IcoMoon.io -->
<!DOCTYPE svg PUBLIC "-//W3C//DTD SVG 1.1//EN" "http://www.w3.org/Graphics/SVG/1.1/DTD/svg11.dtd">
<svg version="1.1" xmlns="http://www.w3.org/2000/svg" xmlns:xlink="http://www.w3.org/1999/xlink" width="64" height="64" viewBox="0 0 64 64">
<path fill="#444444" d="M60 24.4l-5.6-11.6c-1.6-2.8-4.4-4.8-7.6-4.8h-29.6c-3.2 0-6 2-7.6 4.8l-5.6 11.6c-2.4 0.4-4 2.4-4 4.4v14c0 2.4 1.6 4.4 4 4.8v8c0 2.4 2 4.4 4.4 4.4h3.6c2 0 4-2 4-4.4v-7.6h32v7.6c0 2.4 2 4.4 4.4 4.4h3.6c2.4 0 4.4-2 4.4-4.4v-8c2.4-0.4 4-2.4 4-4.8v-14c-0.4-2-2-4-4.4-4.4zM16 33.6c0 1.2-1.2 2.4-2.4 2.4h-7.2c-1.2 0-2.4-1.2-2.4-2.4v-3.2c0-1.2 1.2-2.4 2.4-2.4h7.2c1.2 0 2.4 1.2 2.4 2.4v3.2zM40 44h-16v-4h16v4zM8.4 24l4.8-9.6c0.8-1.6 2.4-2.4 4-2.4h29.6c1.6 0 3.2 0.8 4 2.4l4.8 9.6h-47.2zM60 33.6c0 1.2-1.2 2.4-2.4 2.4h-7.2c-1.2 0-2.4-1.2-2.4-2.4v-3.2c0-1.2 1.2-2.4 2.4-2.4h7.2c1.2 0 2.4 1.2 2.4 2.4v3.2z"></path>
</svg>
