<?xml version="1.0" encoding="utf-8"?>
<!-- Generated by IcoMoon.io -->
<!DOCTYPE svg PUBLIC "-//W3C//DTD SVG 1.1//EN" "http://www.w3.org/Graphics/SVG/1.1/DTD/svg11.dtd">
<svg version="1.1" xmlns="http://www.w3.org/2000/svg" xmlns:xlink="http://www.w3.org/1999/xlink" width="16" height="16" viewBox="0 0 16 16">
<path fill="#444" d="M14 13.1v-1.1h-9.4l0.6-1.1 9.2-0.9 1.6-6h-12.3l-0.7-3h-3v1h2.2l2.1 8.4-1.3 2.6v1.5c0 0.8 0.7 1.5 1.5 1.5s1.5-0.7 1.5-1.5-0.7-1.5-1.5-1.5h7.5v1.5c0 0.8 0.7 1.5 1.5 1.5s1.5-0.7 1.5-1.5c0-0.7-0.4-1.2-1-1.4zM4 5h10.7l-1.1 4-8.4 0.9-1.2-4.9z"></path>
</svg>
