<?xml version="1.0" encoding="utf-8"?>
<!-- Generated by IcoMoon.io -->
<!DOCTYPE svg PUBLIC "-//W3C//DTD SVG 1.1//EN" "http://www.w3.org/Graphics/SVG/1.1/DTD/svg11.dtd">
<svg version="1.1" xmlns="http://www.w3.org/2000/svg" xmlns:xlink="http://www.w3.org/1999/xlink" width="16" height="16" viewBox="0 0 16 16">
<path fill="#444" d="M12 4v-2l-4-2-4 2v1l-4 2v5l12 6 4-2v-8zM4 10.88l-3-1.5v-3.3l3 1.53v3.27zM4 6.49l-2.34-1.2 2.34-1.17v2.37zM8 12.88l-3-1.5v-8.31l3 1.54v8.27zM5.66 2.29l2.34-1.17 2.34 1.17-2.34 1.2zM12 14.88l-3-1.5v-6.31l3 1.54v6.27zM12 7.49l-2.34-1.2 2.34-1.17 2.34 1.17z"></path>
</svg>
