<?xml version="1.0" encoding="utf-8"?>
<!-- Generated by IcoMoon.io -->
<!DOCTYPE svg PUBLIC "-//W3C//DTD SVG 1.1//EN" "http://www.w3.org/Graphics/SVG/1.1/DTD/svg11.dtd">
<svg version="1.1" xmlns="http://www.w3.org/2000/svg" xmlns:xlink="http://www.w3.org/1999/xlink" width="64" height="64" viewBox="0 0 64 64">
<path fill="#444444" d="M56 56.8c0 0 0 0 0 0 0-2.4 8-7.2 8-12.4 0-6-5.6-10.8-12.4-12.8 2.8-3.2 4.4-6.8 4.4-11.2 0-11.2-11.6-20.4-26.4-20.4-14 0-29.6 8.4-29.6 20.4 0 8.4 6.4 14.4 9.2 16.8-0.4 4.8-2.4 6.8-2.4 6.8l-4.8 4h6c6.4 0 11.6-2 14.8-4.4 0 0.4 0 0.4 0 0.8 0 8 8.8 14.4 20 14.4 0.8 0 1.6 0 2.4 0 1.6 2 6.8 5.6 13.6 5.6 0.4-0.4-2.8-2-2.8-7.6zM29.6 4c12.4 0 22.4 7.6 22.4 16.4s-10.4 16.4-23.2 16.4c-0.8 0-2.4 0-3.2 0h-1.2l-0.4 0.8c-1.2 1.6-6 4.8-12.4 6 0.4-1.6 0.4-4 0.4-7.2v-1.2c-4-3.2-8.4-8.8-8.4-14.4 0-8.8 12.8-16.8 26-16.8z"></path>
</svg>
