<?xml version="1.0" encoding="utf-8"?>
<!-- Generated by IcoMoon.io -->
<!DOCTYPE svg PUBLIC "-//W3C//DTD SVG 1.1//EN" "http://www.w3.org/Graphics/SVG/1.1/DTD/svg11.dtd">
<svg version="1.1" xmlns="http://www.w3.org/2000/svg" xmlns:xlink="http://www.w3.org/1999/xlink" width="16" height="16" viewBox="0 0 16 16">
<path fill="#444" d="M9.5 7c0 0 0 0 0 0-0.6 0-1.1 0.6-1.5 1-0.4-0.4-0.9-1-1.5-1 0 0 0 0 0 0-1.5 0-2.1 1.9-1 2.9l2.5 2.1 2.5-2.1c1.1-1 0.5-2.9-1-2.9z"></path>
<path fill="#444" d="M11 1v-1h-6v1h-2v1h-1v14h12v-1h1v-14h-4zM6 1h4v2h-4v-2zM13 15h-10v-12h2v1h6v-1h2v12z"></path>
</svg>
