<?xml version="1.0" encoding="utf-8"?>
<!-- Generated by IcoMoon.io -->
<!DOCTYPE svg PUBLIC "-//W3C//DTD SVG 1.1//EN" "http://www.w3.org/Graphics/SVG/1.1/DTD/svg11.dtd">
<svg version="1.1" xmlns="http://www.w3.org/2000/svg" xmlns:xlink="http://www.w3.org/1999/xlink" width="64" height="64" viewBox="0 0 64 64">
<path fill="#444444" d="M44 4v-4h-24v4h-8v4h-4v56h48v-4h4v-56h-16zM24 4h16v8h-16v-8zM52 60h-40v-48h8v4h24v-4h8v48z"></path>
<path fill="#444444" d="M32 24c-10 0-5.2 12.8-5.2 12.8 1.2 1.6 2.8 1.6 2.8 2.4 0 1.2-1.2 1.2-2.4 1.6-2 0.4-3.6-0.4-5.6 3.2-1.2 1.6-1.6 8-1.6 8h24c0 0-0.4-6.4-1.6-8-1.6-3.2-3.6-2.8-5.6-3.2-1.2 0-2.4-0.4-2.4-1.6s1.2-0.8 2.4-2.4c0.4 0 5.2-12.8-4.8-12.8z"></path>
</svg>
