<?xml version="1.0" encoding="utf-8"?>
<!-- Generated by IcoMoon.io -->
<!DOCTYPE svg PUBLIC "-//W3C//DTD SVG 1.1//EN" "http://www.w3.org/Graphics/SVG/1.1/DTD/svg11.dtd">
<svg version="1.1" xmlns="http://www.w3.org/2000/svg" xmlns:xlink="http://www.w3.org/1999/xlink" width="64" height="64" viewBox="0 0 64 64">
<path fill="#444444" d="M38 28c0 0 0 0 0 0-2.4 0-4.4 2.4-6 4-1.6-1.6-3.6-4-6-4 0 0 0 0 0 0-6 0-8.4 7.6-4 11.6l10 8.4 10-8.4c4.4-4 2-11.6-4-11.6z"></path>
<path fill="#444444" d="M44 4v-4h-24v4h-8v4h-4v56h48v-4h4v-56h-16zM24 4h16v8h-16v-8zM52 60h-40v-48h8v4h24v-4h8v48z"></path>
</svg>
