<?xml version="1.0" encoding="utf-8"?>
<!-- Generated by IcoMoon.io -->
<!DOCTYPE svg PUBLIC "-//W3C//DTD SVG 1.1//EN" "http://www.w3.org/Graphics/SVG/1.1/DTD/svg11.dtd">
<svg version="1.1" xmlns="http://www.w3.org/2000/svg" xmlns:xlink="http://www.w3.org/1999/xlink" width="16" height="16" viewBox="0 0 16 16">
<path fill="#444" d="M11 1v-1h-6v1h-2v1h-1v14h12v-1h1v-14h-4zM6 1h4v2h-4v-2zM13 15h-10v-12h2v1h6v-1h2v12z"></path>
<path fill="#444" d="M9.3 13c0 0 0 0 0 0-0.2 0-0.3-0.1-0.4-0.3l-0.8-4.8-0.7 3.1c0 0.1-0.1 0.2-0.3 0.3-0.1 0-0.3 0-0.4-0.1l-1-1.3h-1.3c-0.2 0-0.4-0.2-0.4-0.4s0.2-0.4 0.4-0.4h1.6c0.1 0 0.2 0.1 0.3 0.1l0.6 0.8 0.9-4.3c0-0.2 0.2-0.3 0.4-0.3 0 0 0 0 0 0 0.2 0 0.3 0.2 0.3 0.4l0.9 5.3 0.6-1.7c0.1-0.1 0.2-0.2 0.3-0.2h1.3c0.2 0 0.4 0.2 0.4 0.4s-0.2 0.4-0.4 0.4h-1l-1 2.9c0 0-0.2 0.1-0.3 0.1z"></path>
</svg>
