<?xml version="1.0" encoding="utf-8"?>
<!-- Generated by IcoMoon.io -->
<!DOCTYPE svg PUBLIC "-//W3C//DTD SVG 1.1//EN" "http://www.w3.org/Graphics/SVG/1.1/DTD/svg11.dtd">
<svg version="1.1" xmlns="http://www.w3.org/2000/svg" xmlns:xlink="http://www.w3.org/1999/xlink" width="64" height="64" viewBox="0 0 64 64">
<path fill="#444444" d="M56 40c0 0-0.4 0-0.4 0 0-1.2 0.4-2.4 0.4-4 0-6.4-4-12-9.6-14.4l-14.4-17.6-10 12c-5.6 0-10 4.4-10 10 0 2.4 0.8 4.4 2.4 6.4-0.8-0.4-1.6-0.4-2.4-0.4-6.8 0-12 5.2-12 12s5.2 12 12 12h44c4.4 0 8-3.6 8-8s-3.6-8-8-8zM36 24v24h-8v-24h-7.6l11.6-13.6 11.6 13.6h-7.6z"></path>
</svg>
