<?xml version="1.0" encoding="utf-8"?>
<!-- Generated by IcoMoon.io -->
<!DOCTYPE svg PUBLIC "-//W3C//DTD SVG 1.1//EN" "http://www.w3.org/Graphics/SVG/1.1/DTD/svg11.dtd">
<svg version="1.1" xmlns="http://www.w3.org/2000/svg" xmlns:xlink="http://www.w3.org/1999/xlink" width="64" height="64" viewBox="0 0 64 64">
<path fill="#444444" d="M56.4 39.2c0-0.8 0-1.6 0-2.4 0-9.6-7.6-17.2-16.8-17.2-1.2 0.4-2.4 0.4-3.6 0.4v-12h-8v9.6c-1.6-1.2-3.6-1.6-5.2-1.6-6.4 0-11.6 5.2-11.6 11.6 0 1.2 0.4 2.4 0.8 3.6-6.4 0.8-12 7.2-12 14.4 0 7.6 6 14.4 13.2 14.4h41.2c5.6 0 9.6-6 9.6-10.8s-3.2-9.2-7.6-10zM54.4 56h-41.2c-4.8 0-9.2-5.2-9.2-10.4s4.4-10.4 9.2-10.4c0.4 0 1.2 0 1.6 0l5.6 0.8-3.6-4c-0.8-1.2-1.6-2.8-1.6-4.8 0-4 3.2-7.2 7.2-7.2 2 0 4 0.8 5.2 2.4v9.6h-7.6l12 16 12-16h-8v-7.6c1.2-0.4 2.4-0.4 3.6-0.4 7.2 0 12.8 6 12.8 13.2 0 1.2 0 2.4-0.4 3.6l-0.8 2.4 3.2 0.4c2.8 0 5.6 2.8 5.6 6 0 2.8-2.4 6.4-5.6 6.4z"></path>
</svg>
