<?xml version="1.0" encoding="utf-8"?>
<!-- Generated by IcoMoon.io -->
<!DOCTYPE svg PUBLIC "-//W3C//DTD SVG 1.1//EN" "http://www.w3.org/Graphics/SVG/1.1/DTD/svg11.dtd">
<svg version="1.1" xmlns="http://www.w3.org/2000/svg" xmlns:xlink="http://www.w3.org/1999/xlink" width="16" height="16" viewBox="0 0 16 16">
<path fill="#444" d="M14 10c0 0-0.1 0-0.1 0 0-0.3 0.1-0.6 0.1-1 0-2.2-1.8-4-4-4v-4h-4v3.1c-0.2-0.1-0.3-0.1-0.5-0.1-1.4 0-2.5 1.1-2.5 2.5 0 0.6 0.2 1.1 0.6 1.6-0.2-0.1-0.4-0.1-0.6-0.1-1.7 0-3 1.3-3 3s1.3 3 3 3h11c1.1 0 2-0.9 2-2s-0.9-2-2-2zM8 11.4l-2.9-3.4h1.9v-6h2v6h1.9l-2.9 3.4z"></path>
</svg>
