<?xml version="1.0" encoding="utf-8"?>
<!-- Generated by IcoMoon.io -->
<!DOCTYPE svg PUBLIC "-//W3C//DTD SVG 1.1//EN" "http://www.w3.org/Graphics/SVG/1.1/DTD/svg11.dtd">
<svg version="1.1" xmlns="http://www.w3.org/2000/svg" xmlns:xlink="http://www.w3.org/1999/xlink" width="64" height="64" viewBox="0 0 64 64">
<path fill="#444444" d="M56 52l-16 4h-24l-16-4v-4h56z"></path>
<path fill="#444444" d="M58.8 12h-6.8v-4h-48v20c0 6 3.2 11.2 8 13.6v2.4h32v-2.4c3.6-2 6.4-5.6 7.6-9.6 0 0 0.4 0 0.4 0 9.2 0 11.6-8 12-14 0.4-3.2-2-6-5.2-6zM52 28v-12h6.8c0.4 0 0.8 0.4 0.8 0.4s0.4 0.4 0.4 1.2c-0.8 10.4-6.4 10.4-8 10.4z"></path>
</svg>
