<?xml version="1.0" encoding="utf-8"?>
<!-- Generated by IcoMoon.io -->
<!DOCTYPE svg PUBLIC "-//W3C//DTD SVG 1.1//EN" "http://www.w3.org/Graphics/SVG/1.1/DTD/svg11.dtd">
<svg version="1.1" xmlns="http://www.w3.org/2000/svg" xmlns:xlink="http://www.w3.org/1999/xlink" width="64" height="64" viewBox="0 0 64 64">
<path fill="#444444" d="M60.8 24l-4.4-0.8c-0.4-0.8-0.4-1.6-0.8-2.4l2.4-3.6 2-2.8-10.4-10.4-2.8 2-3.6 2.4c-0.8-0.4-1.6-0.4-2.4-0.8l-0.8-4.4-0.8-3.2h-14.4l-0.8 3.2-0.8 4.4c-0.8 0.4-1.6 0.4-2.4 0.8l-3.6-2.4-2.8-1.6-10 10 2 2.8 2.4 3.6c-0.8 0.8-0.8 1.6-1.2 2.4l-4.4 0.8-3.2 0.8v14.4l3.2 0.8 4.4 0.8c0.4 0.8 0.4 1.6 0.8 2.4l-2.4 3.6-2 2.8 10.4 10.4 2.8-2 3.6-2.4c0.8 0.4 1.6 0.4 2.4 0.8l0.8 4.4 0.8 3.2h14.4l0.8-3.2 0.8-4.4c0.8-0.4 1.6-0.4 2.4-0.8l3.6 2.4 2.8 2 10.4-10.4-2-2.8-2.4-3.6c0.4-0.8 0.8-1.6 0.8-2.4l4.4-0.8 3.2-0.8v-14.4l-3.2-0.8zM60 36l-6.8 1.2c-0.4 2-1.2 4-2.4 6l3.6 5.6-5.6 5.6-5.6-3.6c-2 1.2-4 2-6 2.4l-1.2 6.8h-8l-1.2-6.8c-2-0.4-4-1.2-6-2.4l-5.6 3.6-5.6-5.6 3.6-5.6c-1.2-2-2-4-2.4-6l-6.8-1.2v-8l6.8-1.2c0.4-2 1.2-4 2.4-6l-4-5.6 5.6-5.6 5.6 3.6c2-1.2 4-2 6-2.4l1.6-6.8h8l1.2 6.8c2 0.4 4 1.2 6 2.4l5.6-3.6 5.6 5.6-3.6 5.6c1.2 2 2 4 2.4 6l6.8 1.2v8z"></path>
<path fill="#444444" d="M32 18c-7.6 0-14 6.4-14 14s6.4 14 14 14 14-6.4 14-14c0-7.6-6.4-14-14-14zM32 42c-5.6 0-10-4.4-10-10s4.4-10 10-10 10 4.4 10 10c0 5.6-4.4 10-10 10z"></path>
</svg>
