<?xml version="1.0" encoding="utf-8"?>
<!-- Generated by IcoMoon.io -->
<!DOCTYPE svg PUBLIC "-//W3C//DTD SVG 1.1//EN" "http://www.w3.org/Graphics/SVG/1.1/DTD/svg11.dtd">
<svg version="1.1" xmlns="http://www.w3.org/2000/svg" xmlns:xlink="http://www.w3.org/1999/xlink" width="64" height="64" viewBox="0 0 64 64">
<path fill="#444444" d="M64 36v-8l-6.8-2.4c-0.8-2.4-1.6-4.8-2.8-7.2l3.2-6.4-5.6-5.6-6.4 3.2c-2-1.2-4.4-2.4-7.2-2.8l-2.4-6.8h-8l-2.4 6.8c-2.4 0.8-4.8 1.6-6.8 2.8l-6.4-3.2-6 6 3.2 6.4c-1.2 2-2 4.4-2.8 6.8l-6.8 2.4v8l6.8 2.4c0.8 2.4 1.6 4.8 2.8 7.2l-3.2 6.4 5.6 5.6 6.4-3.2c2 1.2 4.4 2.4 7.2 2.8l2.4 6.8h8l2.4-6.8c2.4-0.8 4.8-1.6 7.2-2.8l6.4 3.2 5.6-5.6-3.2-6.4c1.2-2 2.4-4.4 2.8-7.2l6.8-2.4zM32 48c-8.8 0-16-7.2-16-16s7.2-16 16-16 16 7.2 16 16-7.2 16-16 16z"></path>
<path fill="#444444" d="M42.4 31.6c0 5.523-4.477 10-10 10s-10-4.477-10-10c0-5.523 4.477-10 10-10s10 4.477 10 10z"></path>
</svg>
