<?xml version="1.0" encoding="utf-8"?>
<!-- Generated by IcoMoon.io -->
<!DOCTYPE svg PUBLIC "-//W3C//DTD SVG 1.1//EN" "http://www.w3.org/Graphics/SVG/1.1/DTD/svg11.dtd">
<svg version="1.1" xmlns="http://www.w3.org/2000/svg" xmlns:xlink="http://www.w3.org/1999/xlink" width="64" height="64" viewBox="0 0 64 64">
<path fill="#444444" d="M48 28v-8l-4.8-1.6c-0.4-1.2-0.8-2.8-1.6-4l2.4-4.8-6-5.2-4.4 2c-1.2-0.8-2.4-1.2-4-1.6l-1.6-4.8h-8l-1.6 4.8c-1.2 0.4-2.8 0.8-4 1.6l-4.4-2-5.6 5.6 2.4 4.8c-0.8 1.2-1.2 2.4-1.6 4l-5.2 1.2v8l4.8 1.6c0.4 1.2 0.8 2.8 1.6 4l-2 4.4 5.6 5.6 4.8-2.4c1.2 0.8 2.4 1.2 4 1.6l1.2 5.2h8l1.6-4.8c1.2-0.4 2.8-0.8 4-1.6l4.8 2.4 5.6-5.6-2.4-4.8c0.8-1.2 1.2-2.4 1.6-4l4.8-1.6zM12 24c0-6.8 5.2-12 12-12s12 5.2 12 12c0 6.8-5.2 12-12 12s-12-5.2-12-12z"></path>
<path fill="#444444" d="M30 24c0 3.314-2.686 6-6 6s-6-2.686-6-6c0-3.314 2.686-6 6-6s6 2.686 6 6z"></path>
<path fill="#444444" d="M64 12v-4h-2.4c0-0.8-0.4-1.6-0.8-2l1.6-1.6-2.8-2.8-1.6 1.6c-0.8-0.4-1.2-0.8-2-0.8v-2.4h-4v2.4c-0.8 0-1.6 0.4-2 0.8l-1.6-1.6-2.8 2.8 1.6 1.6c-0.4 0.8-0.8 1.2-0.8 2h-2.4v4h2.4c0 0.8 0.4 1.6 0.8 2l-1.6 1.6 2.8 2.8 1.6-1.6c0.8 0.4 1.2 0.8 2 0.8v2.4h4v-2.4c0.8 0 1.6-0.4 2-0.8l1.6 1.6 2.8-2.8-1.6-1.6c0.4-0.8 0.8-1.2 0.8-2h2.4zM54 14c-2.4 0-4-1.6-4-4s1.6-4 4-4 4 1.6 4 4c0 2.4-1.6 4-4 4z"></path>
<path fill="#444444" d="M61.6 47.2c-0.4-1.2-0.8-2.4-1.6-3.6l1.2-2.4-2.8-2.8-2 1.6c-1.2-0.8-2.4-1.2-3.6-1.6l-0.8-2.4h-4l-0.8 2.4c-1.2 0.4-2.4 0.8-3.6 1.6l-2.4-1.2-2.8 2.8 1.2 2.4c-0.8 1.2-1.2 2.4-1.6 3.6l-2 0.4v4l2.4 0.8c0.4 1.2 0.8 2.4 1.6 3.6l-1.2 2.4 2.8 2.8 2.4-1.2c1.2 0.8 2.4 1.2 3.6 1.6l0.4 2h4l0.8-2.4c1.2-0.4 2.4-0.8 3.6-1.6l2.4 1.2 2.8-2.8-1.6-2c0.8-1.2 1.2-2.4 1.6-3.6l2.4-0.8v-4l-2.4-0.8zM50 56c-3.2 0-6-2.8-6-6s2.8-6 6-6 6 2.8 6 6-2.8 6-6 6z"></path>
</svg>
