<?xml version="1.0" encoding="utf-8"?>
<!-- Generated by IcoMoon.io -->
<!DOCTYPE svg PUBLIC "-//W3C//DTD SVG 1.1//EN" "http://www.w3.org/Graphics/SVG/1.1/DTD/svg11.dtd">
<svg version="1.1" xmlns="http://www.w3.org/2000/svg" xmlns:xlink="http://www.w3.org/1999/xlink" width="16" height="16" viewBox="0 0 16 16">
<path fill="#444" d="M10.5 0c-3.040 0-5.5 0.88-5.5 2 0 0 0 0 0 0v2c-3 0.1-5 0.94-5 2 0 0 0 0 0 0v2s0 0 0 0v2s0 0 0 0v2c0 1.090 2.46 2 5.5 2 0.020 0 0.043 0 0.067 0 0.732 0 1.45-0.055 2.153-0.16 0.698 1.305 2.094 2.158 3.69 2.158 2.017 0 3.715-1.363 4.224-3.217 0.209-0.199 0.344-0.442 0.367-0.717l0-2.064v-8c0-1.12-2.46-2-5.5-2zM5.5 5c2.5 0 4.5 0.45 4.5 1s-2 1-4.5 1-4.5-0.45-4.5-1 2-1 4.5-1zM5.5 13c-2.71 0-4.25-0.71-4.5-1v-0.8c1.199 0.512 2.595 0.809 4.060 0.809 0.155 0 0.309-0.003 0.462-0.010 0.508-0.001 1.030-0.030 1.544-0.085-0.043 0.371 0.022 0.712 0.123 1.037-0.452 0.021-0.967 0.051-1.488 0.051-0.070 0-0.141-0.001-0.211-0.002zM7.070 10.91c-0.467 0.057-1.008 0.090-1.556 0.090-0.005 0-0.010 0-0.014 0-2.709 0-4.249-0.71-4.499-1v-0.84c1.223 0.535 2.649 0.846 4.147 0.846 0.124 0 0.248-0.002 0.371-0.006 0.632-0.001 1.271-0.044 1.897-0.128-0.197 0.306-0.291 0.654-0.342 1.015zM5.5 9c-2.71 0-4.25-0.71-4.5-1v-0.9c1.223 0.535 2.649 0.846 4.147 0.846 0.124 0 0.248-0.002 0.371-0.006 0.088 0.004 0.212 0.006 0.337 0.006 1.498 0 2.923-0.311 4.214-0.872l-0.068 0.366c-0.777 0.265-1.432 0.717-1.935 1.304-0.752 0.165-1.611 0.256-2.491 0.256-0.026 0-0.052-0-0.077-0zM11.41 15c-1.883 0-3.41-1.527-3.41-3.41s1.527-3.41 3.41-3.41c1.883 0 3.41 1.527 3.41 3.41s-1.527 3.41-3.41 3.41zM15 8c-0.175 0.167-0.385 0.3-0.617 0.386-0.288-0.244-0.6-0.46-0.938-0.634 0.575-0.153 1.101-0.352 1.593-0.61l-0.038 0.858zM15 6c-0.24 0.31-1.61 0.94-4 1v-1c0.003 0 0.007 0 0.011 0 1.443 0 2.814-0.305 4.053-0.855l-0.064 0.855zM15 4c-0.25 0.33-1.79 1-4.5 1h-0.23c-1.213-0.63-2.648-1-4.169-1-0.014 0-0.029 0-0.043 0l-0.058-0v-0.9c1.223 0.535 2.649 0.846 4.147 0.846 0.124 0 0.248-0.002 0.371-0.006 0.088 0.004 0.212 0.006 0.337 0.006 1.498 0 2.923-0.311 4.214-0.872l-0.068 0.926zM10.5 3c-2.5 0-4.5-0.45-4.5-1s2-1 4.5-1 4.5 0.45 4.5 1-2 1-4.5 1z"></path>
<path fill="#444" d="M10.5 11h0.5v3h1v-5h-0.5l-1 2z"></path>
</svg>
