<?xml version="1.0" encoding="utf-8"?>
<!-- Generated by IcoMoon.io -->
<!DOCTYPE svg PUBLIC "-//W3C//DTD SVG 1.1//EN" "http://www.w3.org/Graphics/SVG/1.1/DTD/svg11.dtd">
<svg version="1.1" xmlns="http://www.w3.org/2000/svg" xmlns:xlink="http://www.w3.org/1999/xlink" width="16" height="16" viewBox="0 0 16 16">
<path fill="#444" d="M11.5 0c-2.485 0-4.5 2.015-4.5 4.5 0.004 0.261 0.029 0.513 0.074 0.758-0.479-0.176-1.025-0.261-1.591-0.261-3.043 0-5.51 2.467-5.51 5.51s2.467 5.51 5.51 5.51c3.043 0 5.51-2.467 5.51-5.51 0-0.566-0.085-1.112-0.244-1.626 0.23 0.077 0.484 0.099 0.742 0.099 2.48 0 4.49-2.010 4.49-4.49 0-2.477-2.005-4.485-4.481-4.49zM10 10.5c0 2.485-2.015 4.5-4.5 4.5s-4.5-2.015-4.5-4.5c0-2.485 2.015-4.5 4.5-4.5 2.483 0.006 4.494 2.017 4.5 4.499zM12.5 7h-2v-0.5h0.5v-3h-0.5l1-1.5h0.5v4.5h0.5v0.5z"></path>
<path fill="#444" d="M5.63 8c0.033-0.003 0.072-0.005 0.111-0.005 0.696 0 1.26 0.564 1.26 1.26 0 0.016-0 0.031-0.001 0.047 0 1.698-1.86 2.698-1.86 2.698h1.37v-0.5h0.49v1.5h-3v-1s2-1.27 2-2.33c0-0.37 0-0.67-0.42-0.67-0.69 0-0.65 1-0.65 1h-0.93s-0.23-2 1.63-2z"></path>
</svg>
