<?xml version="1.0" encoding="utf-8"?>
<!-- Generated by IcoMoon.io -->
<!DOCTYPE svg PUBLIC "-//W3C//DTD SVG 1.1//EN" "http://www.w3.org/Graphics/SVG/1.1/DTD/svg11.dtd">
<svg version="1.1" xmlns="http://www.w3.org/2000/svg" xmlns:xlink="http://www.w3.org/1999/xlink" width="64" height="64" viewBox="0 0 64 64">
<path fill="#444444" d="M64 44.4c0-6-6-11.2-12.8-13.2-5.2 6-15.6 9.6-25.6 9.6-0.4 0-1.2 0-1.6 0 0 0 0 0-0.4 0-0.4 1.2-0.4 2-0.4 3.2 0 8 8.8 14.4 20 14.4 0.8 0 1.6 0 2.4 0 1.6 2 6.8 5.6 13.6 5.6 0 0-3.2-1.6-3.2-7.2 0 0 0 0 0 0 0-2.4 8-7.2 8-12.4z"></path>
<path fill="#444444" d="M52 18.4c0-10-11.2-18.4-25.6-18.4s-26.4 8.4-26.4 18.4c0 6.8 8 12.8 12 16 0 0 0 0 0 0 0 7.2-5.6 9.6-5.6 9.6 9.2 0 14.4-4.4 16.8-7.2 0.8 0 2 0 3.2 0 14 0.4 25.6-8 25.6-18.4z"></path>
</svg>
