<?xml version="1.0" encoding="utf-8"?>
<!-- Generated by IcoMoon.io -->
<!DOCTYPE svg PUBLIC "-//W3C//DTD SVG 1.1//EN" "http://www.w3.org/Graphics/SVG/1.1/DTD/svg11.dtd">
<svg version="1.1" xmlns="http://www.w3.org/2000/svg" xmlns:xlink="http://www.w3.org/1999/xlink" width="16" height="16" viewBox="0 0 16 16">
<path fill="#444" d="M14.2 14c0.6-0.5 1.8-1.6 1.8-3.2 0-1.4-1.2-2.6-2.8-3.3 0.5-0.6 0.8-1.5 0.8-2.4 0-2.8-2.9-5.1-6.6-5.1-3.5 0-7.4 2.1-7.4 5.1 0 2.1 1.6 3.6 2.3 4.2-0.1 1.2-0.6 1.7-0.6 1.7l-1.2 1h1.5c1.2 0 2.2-0.3 3-0.7 0.3 1.9 2.5 3.4 5.3 3.4 0.1 0 0.3 0 0.5 0 0.6 0.5 1.8 1.3 3.5 1.3h1.4l-1.1-0.9c0 0-0.3-0.3-0.4-1.1zM10.3 13.7c-2.3 0-4.3-1.3-4.3-2.8 0-0.1 0-0.1 0-0.2 0.2-0.2 0.4-0.3 0.5-0.5 0.2 0 0.5 0 0.7 0 2.1 0 4-0.7 5.2-1.9 1.5 0.5 2.6 1.5 2.6 2.5s-0.9 2-1.7 2.5l-0.3 0.2v0.3c0 0.5 0.2 0.8 0.3 1.1-1-0.2-1.7-0.7-1.9-1l-0.1-0.2h-0.2c-0.3 0-0.6 0-0.8 0zM7.4 1c3.1 0 5.6 1.9 5.6 4.1s-2.6 4.1-5.8 4.1c-0.2 0-0.6 0-0.8 0h-0.3l-0.1 0.2c-0.3 0.4-1.5 1.2-3.1 1.5 0.1-0.4 0.1-1 0.1-1.8v-0.3c-1-0.8-2.1-2.2-2.1-3.6 0-2.2 3.2-4.2 6.5-4.2z"></path>
</svg>
