<?xml version="1.0" encoding="utf-8"?>
<!-- Generated by IcoMoon.io -->
<!DOCTYPE svg PUBLIC "-//W3C//DTD SVG 1.1//EN" "http://www.w3.org/Graphics/SVG/1.1/DTD/svg11.dtd">
<svg version="1.1" xmlns="http://www.w3.org/2000/svg" xmlns:xlink="http://www.w3.org/1999/xlink" width="64" height="64" viewBox="0 0 64 64">
<path fill="#444444" d="M12 44.8c0 0.4 0 0.4 0 0 0 0.4 0 0.4 0 0 0 0 0 0 0 0z"></path>
<path fill="#444444" d="M33.2 4c-17.6 0-33.2 10.4-33.2 22.4 0 8 4.4 14.8 12 18.8 0 0 0 0 0 0s0 0.4 0 0.4c-0.4 5.2-3.6 6.8-3.6 6.8l-7.2 3.6h8c10 0 17.2-4.4 20.4-7.6 1.2 0 2.4 0 3.2 0 17.2 0 31.2-10 31.2-22.4s-13.6-22-30.8-22zM32.8 44.4c-1.2 0-2.8 0-3.6 0h-0.8l-0.8 0.8c-2 2-6.4 5.6-13.2 6.8 1.2-2 2-4.4 2-8v-1.2l-1.2-0.4c-7.2-3.6-11.2-9.2-11.2-16 0-9.6 14-18.4 29.2-18.4 14.8 0 26.8 8 26.8 18.4 0 9.6-12.4 18-27.2 18z"></path>
<path fill="#444444" d="M24 28c0 2.209-1.791 4-4 4s-4-1.791-4-4c0-2.209 1.791-4 4-4s4 1.791 4 4z"></path>
<path fill="#444444" d="M36 28c0 2.209-1.791 4-4 4s-4-1.791-4-4c0-2.209 1.791-4 4-4s4 1.791 4 4z"></path>
<path fill="#444444" d="M48 28c0 2.209-1.791 4-4 4s-4-1.791-4-4c0-2.209 1.791-4 4-4s4 1.791 4 4z"></path>
</svg>
