<?xml version="1.0" encoding="utf-8"?>
<!-- Generated by IcoMoon.io -->
<!DOCTYPE svg PUBLIC "-//W3C//DTD SVG 1.1//EN" "http://www.w3.org/Graphics/SVG/1.1/DTD/svg11.dtd">
<svg version="1.1" xmlns="http://www.w3.org/2000/svg" xmlns:xlink="http://www.w3.org/1999/xlink" width="64" height="64" viewBox="0 0 64 64">
<path fill="#444444" d="M56.8 56c2.4-2 7.2-6.4 7.2-12.8 0-5.6-4.8-10.4-11.2-13.2 2-2.4 3.2-6 3.2-9.6 0-11.2-11.6-20.4-26.4-20.4-14 0-29.6 8.4-29.6 20.4 0 8.4 6.4 14.4 9.2 16.8-0.4 4.8-2.4 6.8-2.4 6.8l-4.8 4h6c4.8 0 8.8-1.2 12-2.8 1.2 7.6 10 13.6 21.2 13.6 0.4 0 1.2 0 2 0 2.4 2 7.2 5.2 14 5.2h5.6l-4.4-3.6c0 0-1.2-1.2-1.6-4.4zM41.2 54.8c-9.2 0-17.2-5.2-17.2-11.2 0-0.4 0-0.4 0-0.8 0.8-0.8 1.6-1.2 2-2 0.8 0 2 0 2.8 0 8.4 0 16-2.8 20.8-7.6 6 2 10.4 6 10.4 10s-3.6 8-6.8 10l-1.2 0.8v1.2c0 2 0.8 3.2 1.2 4.4-4-0.8-6.8-2.8-7.6-4l-0.4-0.8h-0.8c-1.2 0-2.4 0-3.2 0zM29.6 4c12.4 0 22.4 7.6 22.4 16.4s-10.4 16.4-23.2 16.4c-0.8 0-2.4 0-3.2 0h-1.2l-0.4 0.8c-1.2 1.6-6 4.8-12.4 6 0.4-1.6 0.4-4 0.4-7.2v-1.2c-4-3.2-8.4-8.8-8.4-14.4 0-8.8 12.8-16.8 26-16.8z"></path>
</svg>
