<?xml version="1.0" encoding="utf-8"?>
<!-- Generated by IcoMoon.io -->
<!DOCTYPE svg PUBLIC "-//W3C//DTD SVG 1.1//EN" "http://www.w3.org/Graphics/SVG/1.1/DTD/svg11.dtd">
<svg version="1.1" xmlns="http://www.w3.org/2000/svg" xmlns:xlink="http://www.w3.org/1999/xlink" width="16" height="16" viewBox="0 0 16 16">
<path fill="#444" d="M3 11.2c0 0.1 0 0.1 0 0 0 0.1 0 0.1 0 0 0 0 0 0 0 0z"></path>
<path fill="#444" d="M8.3 1c-4.4 0-8.3 2.6-8.3 5.6 0 2 1.1 3.7 3 4.7 0 0 0 0 0 0s0 0.1 0 0.1c-0.1 1.3-0.9 1.7-0.9 1.7l-1.8 0.9h2c2.5 0 4.3-1.1 5.1-1.9 0.3 0 0.6 0 0.8 0 4.3 0 7.8-2.5 7.8-5.6s-3.4-5.5-7.7-5.5zM8.2 11.1c-0.3 0-0.7 0-0.9 0h-0.2l-0.2 0.2c-0.5 0.5-1.6 1.4-3.3 1.7 0.3-0.5 0.5-1.1 0.5-2v-0.3l-0.3-0.1c-1.8-0.9-2.8-2.3-2.8-4 0-2.4 3.5-4.6 7.3-4.6 3.7 0 6.7 2 6.7 4.6 0 2.4-3.1 4.5-6.8 4.5z"></path>
<path fill="#444" d="M6 7c0 0.552-0.448 1-1 1s-1-0.448-1-1c0-0.552 0.448-1 1-1s1 0.448 1 1z"></path>
<path fill="#444" d="M9 7c0 0.552-0.448 1-1 1s-1-0.448-1-1c0-0.552 0.448-1 1-1s1 0.448 1 1z"></path>
<path fill="#444" d="M12 7c0 0.552-0.448 1-1 1s-1-0.448-1-1c0-0.552 0.448-1 1-1s1 0.448 1 1z"></path>
</svg>
