<?xml version="1.0" encoding="utf-8"?>
<!-- Generated by IcoMoon.io -->
<!DOCTYPE svg PUBLIC "-//W3C//DTD SVG 1.1//EN" "http://www.w3.org/Graphics/SVG/1.1/DTD/svg11.dtd">
<svg version="1.1" xmlns="http://www.w3.org/2000/svg" xmlns:xlink="http://www.w3.org/1999/xlink" width="16" height="16" viewBox="0 0 16 16">
<path fill="#444" d="M8 1c-4.4 0-8 2.5-8 5.5 0 2 2 3.8 4 4.8 0 0 0 0 0 0 0 2.1-2 2.8-2 2.8 2.8 0 4.4-1.3 5.1-2.1 0.3 0 0.6 0 0.9 0 4.4 0 8-2.5 8-5.5s-3.6-5.5-8-5.5zM5 8c-0.6 0-1-0.4-1-1s0.4-1 1-1 1 0.4 1 1c0 0.6-0.4 1-1 1zM8 8c-0.6 0-1-0.4-1-1s0.4-1 1-1 1 0.4 1 1c0 0.6-0.4 1-1 1zM11 8c-0.6 0-1-0.4-1-1s0.4-1 1-1 1 0.4 1 1c0 0.6-0.4 1-1 1z"></path>
</svg>
