<?xml version="1.0" encoding="utf-8"?>
<!-- Generated by IcoMoon.io -->
<!DOCTYPE svg PUBLIC "-//W3C//DTD SVG 1.1//EN" "http://www.w3.org/Graphics/SVG/1.1/DTD/svg11.dtd">
<svg version="1.1" xmlns="http://www.w3.org/2000/svg" xmlns:xlink="http://www.w3.org/1999/xlink" width="16" height="16" viewBox="0 0 16 16">
<path fill="#444" d="M16 11.1c0-1.5-1.5-2.8-3.2-3.3-1.3 1.5-3.9 2.4-6.4 2.4-0.1 0-0.3 0-0.4 0 0 0 0 0-0.1 0-0.1 0.3-0.1 0.5-0.1 0.8 0 2 2.2 3.6 5 3.6 0.2 0 0.4 0 0.6 0 0.4 0.5 1.7 1.4 3.4 1.4 0 0-0.8-0.4-0.8-1.8 0 0 0 0 0 0 0-0.6 2-1.8 2-3.1z"></path>
<path fill="#444" d="M13 4.6c0-2.5-2.8-4.6-6.4-4.6s-6.6 2.1-6.6 4.6c0 1.7 2 3.2 3 4 0 0 0 0 0 0 0 1.8-1.4 2.4-1.4 2.4 2.3 0 3.6-1.1 4.2-1.8 0.2 0 0.5 0 0.8 0 3.5 0.1 6.4-2 6.4-4.6z"></path>
</svg>
