<?xml version="1.0" encoding="utf-8"?>
<!-- Generated by IcoMoon.io -->
<!DOCTYPE svg PUBLIC "-//W3C//DTD SVG 1.1//EN" "http://www.w3.org/Graphics/SVG/1.1/DTD/svg11.dtd">
<svg version="1.1" xmlns="http://www.w3.org/2000/svg" xmlns:xlink="http://www.w3.org/1999/xlink" width="64" height="64" viewBox="0 0 64 64">
<path fill="#444444" d="M32 4c-17.6 0-32 10-32 22 0 8 8 15.2 16 19.2 0 0 0 0 0 0 0 8.4-8 11.2-8 11.2 11.2 0 17.6-5.2 20.4-8.4 1.2 0 2.4 0 3.6 0 17.6 0 32-10 32-22s-14.4-22-32-22zM20 32c-2.4 0-4-1.6-4-4s1.6-4 4-4 4 1.6 4 4c0 2.4-1.6 4-4 4zM32 32c-2.4 0-4-1.6-4-4s1.6-4 4-4 4 1.6 4 4c0 2.4-1.6 4-4 4zM44 32c-2.4 0-4-1.6-4-4s1.6-4 4-4 4 1.6 4 4c0 2.4-1.6 4-4 4z"></path>
</svg>
