<?xml version="1.0" encoding="utf-8"?>
<!-- Generated by IcoMoon.io -->
<!DOCTYPE svg PUBLIC "-//W3C//DTD SVG 1.1//EN" "http://www.w3.org/Graphics/SVG/1.1/DTD/svg11.dtd">
<svg version="1.1" xmlns="http://www.w3.org/2000/svg" xmlns:xlink="http://www.w3.org/1999/xlink" width="16" height="16" viewBox="0 0 16 16">
<path fill="#444" d="M12 10c-0.8 0-1.4 0.3-2 0.8l-3.2-1.8c0.1-0.3 0.2-0.7 0.2-1s-0.1-0.7-0.2-1l3.2-1.8c0.6 0.5 1.2 0.8 2 0.8 1.7 0 3-1.3 3-3s-1.3-3-3-3-3 1.3-3 3c0 0.2 0 0.3 0 0.5l-3.5 1.9c-0.4-0.2-0.9-0.4-1.5-0.4-1.6 0-3 1.3-3 3v0c0 1.6 1.4 3 3 3 0.6 0 1.1-0.2 1.5-0.4l3.5 1.9c0 0.2 0 0.3 0 0.5 0 1.7 1.3 3 3 3s3-1.3 3-3-1.3-3-3-3z"></path>
</svg>
