<?xml version="1.0" encoding="utf-8"?>
<!-- Generated by IcoMoon.io -->
<!DOCTYPE svg PUBLIC "-//W3C//DTD SVG 1.1//EN" "http://www.w3.org/Graphics/SVG/1.1/DTD/svg11.dtd">
<svg version="1.1" xmlns="http://www.w3.org/2000/svg" xmlns:xlink="http://www.w3.org/1999/xlink" width="64" height="64" viewBox="0 0 64 64">
<path fill="#444444" d="M48 40c-3.2 0-5.6 1.2-8 3.2l-12.8-7.2c0.4-1.2 0.8-2.8 0.8-4s-0.4-2.8-0.8-4l12.8-7.2c2.4 2 4.8 3.2 8 3.2 6.8 0 12-5.2 12-12s-5.2-12-12-12-12 5.2-12 12c0 0.8 0 1.2 0 2l-14 7.6c-1.6-0.8-3.6-1.6-6-1.6-6.4 0-12 5.2-12 12v0c0 6.4 5.6 12 12 12 2.4 0 4.4-0.8 6-1.6l14 7.6c0 0.8 0 1.2 0 2 0 6.8 5.2 12 12 12s12-5.2 12-12-5.2-12-12-12z"></path>
</svg>
