<?xml version="1.0" encoding="utf-8"?>
<!-- Generated by IcoMoon.io -->
<!DOCTYPE svg PUBLIC "-//W3C//DTD SVG 1.1//EN" "http://www.w3.org/Graphics/SVG/1.1/DTD/svg11.dtd">
<svg version="1.1" xmlns="http://www.w3.org/2000/svg" xmlns:xlink="http://www.w3.org/1999/xlink" width="16" height="16" viewBox="0 0 16 16">
<path fill="#444" d="M12.5 9c-1 0-1.8 0.4-2.4 1l-3.2-1.7c0.1-0.3 0.1-0.5 0.1-0.8 0-0.2 0-0.3 0-0.4l2.9-1.3c0.6 0.7 1.5 1.2 2.6 1.2 1.9 0 3.5-1.6 3.5-3.5s-1.6-3.5-3.5-3.5-3.5 1.6-3.5 3.5c0 0.2 0 0.3 0 0.4l-2.9 1.3c-0.6-0.7-1.5-1.2-2.6-1.2-1.9 0-3.5 1.6-3.5 3.5s1.6 3.5 3.5 3.5c1 0 1.8-0.4 2.4-1l3.1 1.7c0 0.3 0 0.5 0 0.8 0 1.9 1.6 3.5 3.5 3.5s3.5-1.6 3.5-3.5-1.6-3.5-3.5-3.5zM12.5 1c1.4 0 2.5 1.1 2.5 2.5s-1.1 2.5-2.5 2.5-2.5-1.1-2.5-2.5c0-1.4 1.1-2.5 2.5-2.5zM3.5 10c-1.4 0-2.5-1.1-2.5-2.5s1.1-2.5 2.5-2.5 2.5 1.1 2.5 2.5c0 1.4-1.1 2.5-2.5 2.5zM12.5 15c-1.4 0-2.5-1.1-2.5-2.5s1.1-2.5 2.5-2.5 2.5 1.1 2.5 2.5c0 1.4-1.1 2.5-2.5 2.5z"></path>
</svg>
