<?xml version="1.0" encoding="utf-8"?>
<!-- Generated by IcoMoon.io -->
<!DOCTYPE svg PUBLIC "-//W3C//DTD SVG 1.1//EN" "http://www.w3.org/Graphics/SVG/1.1/DTD/svg11.dtd">
<svg version="1.1" xmlns="http://www.w3.org/2000/svg" xmlns:xlink="http://www.w3.org/1999/xlink" width="64" height="64" viewBox="0 0 64 64">
<path fill="#444444" d="M50 36c-4 0-7.2 1.6-9.6 4l-12.8-6.8c0.4-1.2 0.4-2 0.4-3.2 0-0.8 0-1.2 0-1.6l11.6-5.2c2.4 2.8 6 4.8 10.4 4.8 7.6 0 14-6.4 14-14s-6.4-14-14-14-14 6.4-14 14c0 0.8 0 1.2 0 1.6l-11.6 5.2c-2.4-2.8-6-4.8-10.4-4.8-7.6 0-14 6.4-14 14s6.4 14 14 14c4 0 7.2-1.6 9.6-4l12.4 6.8c0 1.2 0 2 0 3.2 0 7.6 6.4 14 14 14s14-6.4 14-14-6.4-14-14-14zM50 4c5.6 0 10 4.4 10 10s-4.4 10-10 10-10-4.4-10-10c0-5.6 4.4-10 10-10zM14 40c-5.6 0-10-4.4-10-10s4.4-10 10-10 10 4.4 10 10c0 5.6-4.4 10-10 10zM50 60c-5.6 0-10-4.4-10-10s4.4-10 10-10 10 4.4 10 10c0 5.6-4.4 10-10 10z"></path>
</svg>
