<?xml version="1.0" encoding="utf-8"?>
<!-- Generated by IcoMoon.io -->
<!DOCTYPE svg PUBLIC "-//W3C//DTD SVG 1.1//EN" "http://www.w3.org/Graphics/SVG/1.1/DTD/svg11.dtd">
<svg version="1.1" xmlns="http://www.w3.org/2000/svg" xmlns:xlink="http://www.w3.org/1999/xlink" width="64" height="64" viewBox="0 0 64 64">
<path fill="#444444" d="M28 0h4v4h-4v-4z"></path>
<path fill="#444444" d="M28 56h4v4h-4v-4z"></path>
<path fill="#444444" d="M56 28h4v4h-4v-4z"></path>
<path fill="#444444" d="M0 28h4v4h-4v-4z"></path>
<path fill="#444444" d="M49.517 7.372l2.828 2.828-2.828 2.828-2.828-2.828 2.828-2.828z"></path>
<path fill="#444444" d="M10.483 46.97l2.828 2.828-2.828 2.828-2.828-2.828 2.828-2.828z"></path>
<path fill="#444444" d="M52.909 49.799l-2.828 2.828-2.828-2.828 2.828-2.828 2.828 2.828z"></path>
<path fill="#444444" d="M12.748 10.201l-2.828 2.828-2.828-2.828 2.828-2.828 2.828 2.828z"></path>
<path fill="#444444" d="M16.543 2.96l3.696-1.531 1.531 3.696-3.696 1.531-1.531-3.696z"></path>
<path fill="#444444" d="M38.232 54.875l3.696-1.531 1.531 3.696-3.696 1.531-1.531-3.696z"></path>
<path fill="#444444" d="M57.080 16.762l1.531 3.696-3.696 1.531-1.531-3.696 3.696-1.531z"></path>
<path fill="#444444" d="M5.085 38.014l1.531 3.696-3.696 1.531-1.531-3.696 3.696-1.531z"></path>
<path fill="#444444" d="M39.762 1.43l3.696 1.531-1.531 3.696-3.696-1.531 1.531-3.696z"></path>
<path fill="#444444" d="M18.073 53.346l3.696 1.531-1.531 3.696-3.696-1.531 1.531-3.696z"></path>
<path fill="#444444" d="M58.351 39.722l-1.531 3.696-3.696-1.531 1.531-3.696 3.696 1.531z"></path>
<path fill="#444444" d="M6.873 18.113l-1.531 3.696-3.696-1.531 1.531-3.696 3.696 1.531z"></path>
<path fill="#444444" d="M46.8 16l-14 14-2.8-2.8 14-14c-4-3.2-8.8-5.2-14-5.2-12 0-22 10-22 22s10 22 22 22 22-10 22-22c0-5.2-2-10-5.2-14z"></path>
</svg>
