<?xml version="1.0" encoding="utf-8"?>
<!-- Generated by IcoMoon.io -->
<!DOCTYPE svg PUBLIC "-//W3C//DTD SVG 1.1//EN" "http://www.w3.org/Graphics/SVG/1.1/DTD/svg11.dtd">
<svg version="1.1" xmlns="http://www.w3.org/2000/svg" xmlns:xlink="http://www.w3.org/1999/xlink" width="64" height="64" viewBox="0 0 64 64">
<path fill="#444444" d="M32 6c14.4 0 26 11.6 26 26s-11.6 26-26 26-26-11.6-26-26 11.6-26 26-26zM32 0c-17.6 0-32 14.4-32 32s14.4 32 32 32 32-14.4 32-32-14.4-32-32-32v0z"></path>
<path fill="#444444" d="M39.6 41.2c-2 1.6-4.8 2.8-7.6 2.8-6.8 0-12-5.2-12-12s5.2-12 12-12c3.2 0 6.4 1.2 8.4 3.6l4.4-4.4c-3.2-3.2-8-5.2-12.8-5.2-10 0-18 8-18 18s8 18 18 18c4.4 0 8-1.6 11.2-4l-3.6-4.8z"></path>
</svg>
