<?xml version="1.0" encoding="utf-8"?>
<!-- Generated by IcoMoon.io -->
<!DOCTYPE svg PUBLIC "-//W3C//DTD SVG 1.1//EN" "http://www.w3.org/Graphics/SVG/1.1/DTD/svg11.dtd">
<svg version="1.1" xmlns="http://www.w3.org/2000/svg" xmlns:xlink="http://www.w3.org/1999/xlink" width="16" height="16" viewBox="0 0 16 16">
<path fill="#444" d="M7.5 0h1v4l-0.5 2-0.5-2v-4z"></path>
<path fill="#444" d="M8.5 16h-1v-4l0.5-2 0.5 2v4z"></path>
<path fill="#444" d="M16 7.5v1h-4l-2-0.5 2-0.5h4z"></path>
<path fill="#444" d="M0 8.5v-1h4l2 0.5-2 0.5h-4z"></path>
<path fill="#444" d="M8 2.5c3.038 0 5.5 2.462 5.5 5.5s-2.462 5.5-5.5 5.5c-3.038 0-5.5-2.462-5.5-5.5 0.006-3.035 2.465-5.494 5.499-5.5zM8 1c-3.866 0-7 3.134-7 7s3.134 7 7 7c3.866 0 7-3.134 7-7s-3.134-7-7-7v0z"></path>
</svg>
