<?xml version="1.0" encoding="utf-8"?>
<!-- Generated by IcoMoon.io -->
<!DOCTYPE svg PUBLIC "-//W3C//DTD SVG 1.1//EN" "http://www.w3.org/Graphics/SVG/1.1/DTD/svg11.dtd">
<svg version="1.1" xmlns="http://www.w3.org/2000/svg" xmlns:xlink="http://www.w3.org/1999/xlink" width="16" height="16" viewBox="0 0 16 16">
<path fill="#444" d="M10.9 8.6c0 0 0 0 0 0 0.6-0.1 1.2-0.4 1.6-0.9l3.1-3.1c0.4-0.4 0.4-1 0-1.4l-0.1-0.2-3 3c-0.2 0.2-0.6 0.2-0.9 0s-0.2-0.6 0-0.9l2.6-2.6c0.2-0.2 0.2-0.6 0-0.9-0.2-0.2-0.6-0.2-0.9 0l-2.6 2.6c-0.2 0.2-0.6 0.2-0.9 0-0.2-0.2-0.2-0.6 0-0.9l3-3-0.1-0.1c-0.4-0.4-1-0.4-1.4 0l-3.1 3.3c-0.4 0.4-0.7 1-0.8 1.6l-4.9-4.8c-0.4-0.4-1-0.3-1.3 0l-0.2 0.2c-1.4 1.4-0.9 4.2 1.5 6.6l0.8 0.8c0.4 0.4 0.9 0.7 1.5 0.8-0.5 0.4-0.8 0.8-0.8 0.8l-3.4 3.4c-0.7 0.7-0.7 1.9 0 2.6s1.9 0.7 2.6 0l3.3-3.5c0.2-0.2 0.7-0.8 1.3-1.5 0.3 0.4 0.5 0.6 0.5 0.6l4.3 4.3c0.7 0.7 1.9 0.7 2.6 0s0.7-1.9 0-2.6l-4.3-4.2z"></path>
</svg>
