<?xml version="1.0" encoding="utf-8"?>
<!-- Generated by IcoMoon.io -->
<!DOCTYPE svg PUBLIC "-//W3C//DTD SVG 1.1//EN" "http://www.w3.org/Graphics/SVG/1.1/DTD/svg11.dtd">
<svg version="1.1" xmlns="http://www.w3.org/2000/svg" xmlns:xlink="http://www.w3.org/1999/xlink" width="64" height="64" viewBox="0 0 64 64">
<path fill="#444444" d="M43.6 34.4c0 0 0 0 0 0 2.4-0.4 4.8-1.6 6.4-3.6l12.4-12.4c1.6-1.6 1.6-4 0-5.6l-0.4-0.8-12 12c-0.8 0.8-2.4 0.8-3.6 0s-0.8-2.4 0-3.6l10.4-10.4c0.8-0.8 0.8-2.4 0-3.6-0.8-0.8-2.4-0.8-3.6 0l-10.4 10.4c-0.8 0.8-2.4 0.8-3.6 0-0.8-0.8-0.8-2.4 0-3.6l12-12-0.4-0.4c-1.6-1.6-4-1.6-5.6 0l-12.4 13.2c-1.6 1.6-2.8 4-3.2 6.4l-19.6-19.2c-1.6-1.6-4-1.2-5.2 0l-0.8 0.8c-5.6 5.6-3.6 16.8 6 26.4l3.2 3.2c1.6 1.6 3.6 2.8 6 3.2-2 1.6-3.2 3.2-3.2 3.2l-13.6 13.6c-2.8 2.8-2.8 7.6 0 10.4s7.6 2.8 10.4 0l13.2-14c0.8-0.8 2.8-3.2 5.2-6 1.2 1.6 2 2.4 2 2.4l17.2 17.2c2.8 2.8 7.6 2.8 10.4 0s2.8-7.6 0-10.4l-17.2-16.8z"></path>
</svg>
