<?xml version="1.0" encoding="utf-8"?>
<!-- Generated by IcoMoon.io -->
<!DOCTYPE svg PUBLIC "-//W3C//DTD SVG 1.1//EN" "http://www.w3.org/Graphics/SVG/1.1/DTD/svg11.dtd">
<svg version="1.1" xmlns="http://www.w3.org/2000/svg" xmlns:xlink="http://www.w3.org/1999/xlink" width="64" height="64" viewBox="0 0 64 64">
<path fill="#444444" d="M60 28h-4c-0.8-12.8-11.2-22.8-24-24v-4h-4v4c-12.8 1.2-22.8 11.2-24 24h-4v4h4c0.8 12.8 11.2 22.8 24 24v4h4v-4c12.8-0.8 22.8-11.2 24-24h4v-4zM32 49.6v-9.6h-4v9.6c-9.6-0.8-16.8-8-17.6-17.6h9.6v-4h-9.6c0.8-9.6 8-16.8 17.6-17.6v9.6h4v-9.6c9.6 0.8 16.8 8.4 17.6 17.6h-9.6v4h9.6c-0.8 9.6-8 16.8-17.6 17.6z"></path>
</svg>
