<?xml version="1.0" encoding="utf-8"?>
<!-- Generated by IcoMoon.io -->
<!DOCTYPE svg PUBLIC "-//W3C//DTD SVG 1.1//EN" "http://www.w3.org/Graphics/SVG/1.1/DTD/svg11.dtd">
<svg version="1.1" xmlns="http://www.w3.org/2000/svg" xmlns:xlink="http://www.w3.org/1999/xlink" width="64" height="64" viewBox="0 0 64 64">
<path fill="#444444" d="M16.4 44c5.6 0 7.6-4 7.6-4l-3.2-2c0 0-1.2 2-4 2s-4.8-3.6-4.8-8.8c0-4.8 2.4-7.2 4.8-7.2 2 0 3.6 1.6 3.6 1.6l3.2-2.4c0 0-2.8-3.2-6.8-3.2-4.4 0-8.8 3.6-8.8 11.2s3.6 12.8 8.4 12.8zM34.8 39.6c-1.2 0.4-2.8 0-4-1.6l-3.2 2c1.6 2.4 4 4 6.4 4 0.4 0 1.2 0 1.6-0.4 2.8-0.8 4.4-3.2 4.4-6.4 0-4.8-3.2-6.4-5.2-7.2-2-1.2-2.8-1.6-2.8-3.2s0.4-2.8 2.4-2.8c1.2 0 2.4 1.6 2.4 1.6l3.2-2.4c-0.8-1.2-2.8-3.2-5.6-3.2-3.6 0-6.4 2.4-6.4 6.4 0 4.4 2.8 6 4.8 7.2 2.4 0.8 3.2 1.6 3.2 3.6 0 1.2 0 2.4-1.2 2.4zM50.8 39.6c-1.2 0.4-2.8 0-4-1.6l-3.2 2c1.6 2.4 4 4 6.4 4 0.4 0 1.2 0 1.6-0.4 2.8-0.8 4.4-3.2 4.4-6.4 0-4.8-3.2-6.4-5.2-7.2-2-1.2-2.8-1.6-2.8-3.2s0.4-2.8 2.4-2.8c1.2 0 2.4 1.6 2.4 1.6l3.2-2.4c-0.8-1.2-2.8-3.2-5.6-3.2-3.6 0-6.4 2.4-6.4 6.4 0 4.4 2.8 6 4.8 7.2 2.4 0.8 3.2 1.6 3.2 3.6 0 1.2 0 2.4-1.2 2.4zM0 0v64h64v-64h-64zM60 60h-56v-56h56v56z"></path>
</svg>
