<?xml version="1.0" encoding="utf-8"?>
<!-- Generated by IcoMoon.io -->
<!DOCTYPE svg PUBLIC "-//W3C//DTD SVG 1.1//EN" "http://www.w3.org/Graphics/SVG/1.1/DTD/svg11.dtd">
<svg version="1.1" xmlns="http://www.w3.org/2000/svg" xmlns:xlink="http://www.w3.org/1999/xlink" width="16" height="16" viewBox="0 0 16 16">
<path fill="#444" d="M0 0v16h16v-16h-16zM4.19 12c-2.030 0-3.19-1.46-3.19-4s1.16-4 3.19-4c0.009-0 0.019-0 0.029-0 0.539 0 1.052 0.114 1.515 0.32l-0.424 0.901c-0.319-0.139-0.69-0.22-1.080-0.22-0.014 0-0.028 0-0.042 0-1.808-0-2.188 1.63-2.188 3s0.38 3 2.19 3c0.497-0.013 0.96-0.145 1.366-0.368l0.444 0.898c-0.524 0.285-1.146 0.458-1.806 0.47zM9 7h-1v3.5c0.147 0.309 0.457 0.519 0.815 0.519 0.065 0 0.129-0.007 0.19-0.020l-0.006 1.001c-0.065 0.008-0.141 0.013-0.217 0.013-0.875 0-1.606-0.618-1.781-1.441l-0.002-3.572h-0.51v-1h0.51v-1h1v1h1v1zM11 9v3h-1v-6h1v0.92c0.453-0.564 1.142-0.921 1.915-0.921 0.030 0 0.060 0.001 0.090 0.002l-0.004 1c-0.037-0.003-0.080-0.004-0.124-0.004-1.038 0-1.88 0.842-1.88 1.88 0 0.044 0.001 0.087 0.004 0.13zM15 12h-1v-9h1v9z"></path>
</svg>
