<?xml version="1.0" encoding="utf-8"?>
<!-- Generated by IcoMoon.io -->
<!DOCTYPE svg PUBLIC "-//W3C//DTD SVG 1.1//EN" "http://www.w3.org/Graphics/SVG/1.1/DTD/svg11.dtd">
<svg version="1.1" xmlns="http://www.w3.org/2000/svg" xmlns:xlink="http://www.w3.org/1999/xlink" width="64" height="64" viewBox="0 0 64 64">
<path fill="#444444" d="M44 26.4v0-15.2l-16-7.2-16 7.2v16.8l-12 5.2v17.6l16 7.2 14-6 14 6.4 16-7.2v-18l-16-6.8zM28 8.4l11.2 4.8-10.8 4.4-10.4-4.8 10-4.4zM28 20v11.6l-12-5.2v-12l12 5.6zM16 54l-12-5.2v-12l12 5.6v11.6zM16 40l-10.4-4.8 10.4-4.4 11.2 4.8-11.2 4.4zM44 54l-12-5.2v-12l12 5.6v11.6zM44 40l-10.4-4.8 10.4-4.4 11.2 4.8-11.2 4.4z"></path>
</svg>
