<?xml version="1.0" encoding="utf-8"?>
<!-- Generated by IcoMoon.io -->
<!DOCTYPE svg PUBLIC "-//W3C//DTD SVG 1.1//EN" "http://www.w3.org/Graphics/SVG/1.1/DTD/svg11.dtd">
<svg version="1.1" xmlns="http://www.w3.org/2000/svg" xmlns:xlink="http://www.w3.org/1999/xlink" width="64" height="64" viewBox="0 0 64 64">
<path fill="#444444" d="M8.4 12.4c0.8 5.2 1.6 6.4 1.6 11.6 0 3.2-6 6-6 6v4c0 0 6 2.8 6 6 0 5.2-0.8 6.4-1.6 11.6-1.2 8.4 3.2 12.4 7.2 12.4s8.4 0 8.4 0v-8c0 0-7.2 0.8-7.2-4 0-3.6 0.8-3.6 1.6-11.6 0.4-3.6-2-6.4-4.4-8.4 2.4-2 4.8-4.4 4.4-8-1.2-8-1.6-8-1.6-11.6 0-4.8 7.2-4.4 7.2-4.4v-8c0 0-4 0-8.4 0s-8.4 4-7.2 12.4z"></path>
<path fill="#444444" d="M55.6 12.4c-0.8 5.2-1.6 6.4-1.6 11.6 0 3.2 6 6 6 6v4c0 0-6 2.8-6 6 0 5.2 0.8 6.4 1.6 11.6 1.2 8.4-3.2 12.4-7.2 12.4s-8.4 0-8.4 0v-8c0 0 7.2 0.8 7.2-4 0-3.6-0.8-3.6-1.6-11.6-0.4-3.6 2-6.4 4.4-8.4-2.4-2-4.8-4.4-4.4-8 0.8-8 1.6-8 1.6-11.6 0-4.8-7.2-4.4-7.2-4.4v-8c0 0 4 0 8.4 0s8.4 4 7.2 12.4z"></path>
</svg>
