<?xml version="1.0" encoding="utf-8"?>
<!-- Generated by IcoMoon.io -->
<!DOCTYPE svg PUBLIC "-//W3C//DTD SVG 1.1//EN" "http://www.w3.org/Graphics/SVG/1.1/DTD/svg11.dtd">
<svg version="1.1" xmlns="http://www.w3.org/2000/svg" xmlns:xlink="http://www.w3.org/1999/xlink" width="64" height="64" viewBox="0 0 64 64">
<path fill="#444444" d="M52 3.2c0-2-1.6-3.2-3.2-3.2h-0.8c-6.8 0-12 7.6-12 18.8v3.6c0 4 2 7.6 5.6 9.6-1.2 4.8-1.6 10-1.6 10v16c0 3.2 2.8 6 6 6s6-2.8 6-6v-16c0-1.6-0.4-5.6-1.2-9.2 0.8-0.8 1.2-1.6 1.2-2.8v-26.8z"></path>
<path fill="#444444" d="M28.8 0h-0.8v14c0 1.2-0.8 2-2 2s-2-0.8-2-2v-12c0-1.2-0.8-2-2-2s-2 0.8-2 2v12c0 1.2-0.8 2-2 2s-2-0.8-2-2v-14h-0.8c-1.6 0-3.2 1.6-3.2 3.2v14.8c0 4 2.4 7.6 6 9.2-1.6 6.4-2 14.8-2 14.8v16c0 3.2 2.8 6 6 6s6-2.8 6-6v-16c0-2-0.4-9.2-1.6-14.8 3.2-1.6 5.6-5.2 5.6-9.2v-14.8c0-1.6-1.6-3.2-3.2-3.2z"></path>
</svg>
