<?xml version="1.0" encoding="utf-8"?>
<!-- Generated by IcoMoon.io -->
<!DOCTYPE svg PUBLIC "-//W3C//DTD SVG 1.1//EN" "http://www.w3.org/Graphics/SVG/1.1/DTD/svg11.dtd">
<svg version="1.1" xmlns="http://www.w3.org/2000/svg" xmlns:xlink="http://www.w3.org/1999/xlink" width="64" height="64" viewBox="0 0 64 64">
<path fill="#444444" d="M64 40.4c0-17.6-14.4-32.4-32-32.4s-32 14.8-32 32.4c0 5.6 1.2 11.6 3.6 15.6h19.6c2 2.4 5.2 4 8.8 4s6.8-1.6 8.8-4h19.6c2.4-4 3.6-10 3.6-15.6zM56 28v4l-16.4 14c0 0.4 0.4 1.2 0.4 2 0 4.4-3.6 8-8 8s-8-3.6-8-8 3.6-8 8-8c1.2 0 2.4 0.4 3.2 0.8l16.8-12.8h4zM40 16h4v4h-4v-4zM20 16h4v4h-4v-4zM8 48h-4v-4h4v4zM12 32h-4v-4h4v4zM60 48h-4v-4h4v4z"></path>
<path fill="#444444" d="M36 48c0 2.209-1.791 4-4 4s-4-1.791-4-4c0-2.209 1.791-4 4-4s4 1.791 4 4z"></path>
</svg>
