<?xml version="1.0" encoding="utf-8"?>
<!-- Generated by IcoMoon.io -->
<!DOCTYPE svg PUBLIC "-//W3C//DTD SVG 1.1//EN" "http://www.w3.org/Graphics/SVG/1.1/DTD/svg11.dtd">
<svg version="1.1" xmlns="http://www.w3.org/2000/svg" xmlns:xlink="http://www.w3.org/1999/xlink" width="16" height="16" viewBox="0 0 16 16">
<path fill="#444" d="M16 10.1c0-4.4-3.6-8.1-8-8.1s-8 3.7-8 8.1c0 1.4 0.3 2.9 0.9 3.9h4.9c0.5 0.6 1.3 1 2.2 1s1.7-0.4 2.2-1h4.9c0.6-1 0.9-2.5 0.9-3.9zM14 7v1l-4.1 3.5c0 0.1 0.1 0.3 0.1 0.5 0 1.1-0.9 2-2 2s-2-0.9-2-2 0.9-2 2-2c0.3 0 0.6 0.1 0.8 0.2l4.2-3.2h1zM10 4h1v1h-1v-1zM5 4h1v1h-1v-1zM2 12h-1v-1h1v1zM3 8h-1v-1h1v1zM15 12h-1v-1h1v1z"></path>
<path fill="#444" d="M9 12c0 0.552-0.448 1-1 1s-1-0.448-1-1c0-0.552 0.448-1 1-1s1 0.448 1 1z"></path>
</svg>
