<?xml version="1.0" encoding="utf-8"?>
<!-- Generated by IcoMoon.io -->
<!DOCTYPE svg PUBLIC "-//W3C//DTD SVG 1.1//EN" "http://www.w3.org/Graphics/SVG/1.1/DTD/svg11.dtd">
<svg version="1.1" xmlns="http://www.w3.org/2000/svg" xmlns:xlink="http://www.w3.org/1999/xlink" width="64" height="64" viewBox="0 0 64 64">
<path fill="#444444" d="M56 10c0 3.314-10.745 6-24 6s-24-2.686-24-6c0-3.314 10.745-6 24-6s24 2.686 24 6z"></path>
<path fill="#444444" d="M32 20c-13.2 0-24-2.8-24-6v12c0 3.2 10.8 6 24 6s24-2.8 24-6v-12c0 3.2-10.8 6-24 6z"></path>
<path fill="#444444" d="M32 36c-13.2 0-24-2.8-24-6v12c0 3.2 10.8 6 24 6s24-2.8 24-6v-12c0 3.2-10.8 6-24 6z"></path>
<path fill="#444444" d="M32 52c-13.2 0-24-2.8-24-6v12c0 3.2 10.8 6 24 6s24-2.8 24-6v-12c0 3.2-10.8 6-24 6z"></path>
</svg>
