<?xml version="1.0" encoding="utf-8"?>
<!-- Generated by IcoMoon.io -->
<!DOCTYPE svg PUBLIC "-//W3C//DTD SVG 1.1//EN" "http://www.w3.org/Graphics/SVG/1.1/DTD/svg11.dtd">
<svg version="1.1" xmlns="http://www.w3.org/2000/svg" xmlns:xlink="http://www.w3.org/1999/xlink" width="16" height="16" viewBox="0 0 16 16">
<path fill="#444" d="M14 3h1v9h-1v-9z"></path>
<path fill="#444" d="M3 12h-2v-9h2c2.23 0.051 4.019 1.871 4.019 4.109 0 0.138-0.007 0.274-0.020 0.408 0.013 0.1 0.020 0.236 0.020 0.374 0 2.238-1.788 4.058-4.014 4.109zM2 11h1c0.31 0 3-0.12 3-3.5s-2.88-3.5-3-3.5h-1v7z"></path>
<path fill="#444" d="M13 9v-0.5c-0.017-0.77-0.31-1.468-0.783-2.003-0.419-0.412-0.999-0.668-1.638-0.668-0.031 0-0.063 0.001-0.094 0.002-0.013-0.001-0.034-0.001-0.054-0.001-0.594 0-1.132 0.241-1.521 0.631-0.566 0.685-0.91 1.572-0.91 2.54 0 0.003-0 0.006-0 0.009 0 0.881 0.322 1.686 0.854 2.306 0.43 0.429 1.030 0.697 1.692 0.697 0.030 0 0.059-0.001 0.089-0.002 0.861-0.026 1.642-0.372 2.228-0.922l-0.712-0.708c-0.401 0.368-0.931 0.603-1.515 0.63-0.026 0.001-0.051 0.002-0.076 0.002-0.385 0-0.734-0.153-0.99-0.402-0.355-0.435-0.57-0.997-0.57-1.61l4-0zM10.5 6.8c0.020-0.001 0.043-0.002 0.066-0.002 0.362 0 0.691 0.141 0.935 0.372 0.209 0.224 0.361 0.505 0.427 0.818l-2.778 0.011c0.11-0.661 0.661-1.165 1.337-1.2z"></path>
</svg>
