<?xml version="1.0" encoding="utf-8"?>
<!-- Generated by IcoMoon.io -->
<!DOCTYPE svg PUBLIC "-//W3C//DTD SVG 1.1//EN" "http://www.w3.org/Graphics/SVG/1.1/DTD/svg11.dtd">
<svg version="1.1" xmlns="http://www.w3.org/2000/svg" xmlns:xlink="http://www.w3.org/1999/xlink" width="16" height="16" viewBox="0 0 16 16">
<path fill="#444" d="M0 0v16h16v-16h-16zM3 12h-2v-9h2c2.23 0.051 4.019 1.871 4.019 4.109 0 0.138-0.007 0.274-0.020 0.408 0.013 0.1 0.020 0.236 0.020 0.374 0 2.238-1.788 4.058-4.014 4.109zM13 9h-4c-0 0.004-0 0.008-0 0.012 0 0.607 0.211 1.164 0.564 1.603 0.252 0.244 0.601 0.397 0.986 0.397 0.025 0 0.049-0.001 0.074-0.002 0.586-0.027 1.115-0.261 1.518-0.631l0.708 0.712c-0.584 0.548-1.364 0.893-2.225 0.92-0.030 0.001-0.060 0.002-0.090 0.002-0.662 0-1.261-0.268-1.696-0.702-0.522-0.613-0.84-1.414-0.84-2.289 0-0.007 0-0.014 0-0.022-0-0.005-0-0.012-0-0.019 0-0.968 0.344-1.855 0.915-2.547 0.384-0.383 0.922-0.624 1.516-0.624 0.021 0 0.041 0 0.062 0.001 0.024-0.001 0.055-0.002 0.086-0.002 0.639 0 1.219 0.256 1.641 0.672 0.47 0.532 0.762 1.23 0.78 1.996l0 0.524zM15 12h-1v-9h1v9z"></path>
<path fill="#444" d="M3 4h-1v7h1c0.31 0 3-0.12 3-3.5s-2.88-3.5-3-3.5z"></path>
<path fill="#444" d="M10.49 6.8c-0.679 0.035-1.23 0.539-1.339 1.192l2.779 0.008c-0.069-0.324-0.22-0.606-0.431-0.831-0.242-0.229-0.571-0.371-0.934-0.371-0.027 0-0.053 0.001-0.079 0.002z"></path>
</svg>
