<?xml version="1.0" encoding="utf-8"?>
<!-- Generated by IcoMoon.io -->
<!DOCTYPE svg PUBLIC "-//W3C//DTD SVG 1.1//EN" "http://www.w3.org/Graphics/SVG/1.1/DTD/svg11.dtd">
<svg version="1.1" xmlns="http://www.w3.org/2000/svg" xmlns:xlink="http://www.w3.org/1999/xlink" width="64" height="64" viewBox="0 0 64 64">
<path fill="#444444" d="M46 32.8c-1.2-0.4-2.4-0.8-3.2-0.8h-10.8v-4h12c0-2.4-1.6-4-4-4h-16c0 2.4 1.6 4 4 4v4c-2 0-4-0.8-4.8-2.4l-4.4-7.2c-1.2-1.6-2.8-2.4-4.4-2.4h-2.4v-2.8c0-1.2-0.4-2-0.8-3.2l-1.2-2.8c-1.2-2-3.6-3.2-6-3.2h-4l20 28c1.6 2.4 4.4 4 7.2 4h4.8v4h-4v8h-2.4c-3.6 0-7.2 1.6-9.6 4v0h-4v4h44v-4h-4c-2.4-2.4-6-4-9.6-4h-2.4v-8h-4v-4h6.4c0.8 0 2 0.4 2.8 0.8l6.8 3.6c3.6 2 8 2 11.6 0h0.4l-18-11.6z"></path>
</svg>
