<?xml version="1.0" encoding="utf-8"?>
<!-- Generated by IcoMoon.io -->
<!DOCTYPE svg PUBLIC "-//W3C//DTD SVG 1.1//EN" "http://www.w3.org/Graphics/SVG/1.1/DTD/svg11.dtd">
<svg version="1.1" xmlns="http://www.w3.org/2000/svg" xmlns:xlink="http://www.w3.org/1999/xlink" width="16" height="16" viewBox="0 0 16 16">
<path fill="#444" d="M11.5 8.2c-0.3-0.1-0.6-0.2-0.8-0.2h-2.7v-1h3c0-0.6-0.4-1-1-1h-4c0 0.6 0.4 1 1 1v1c-0.5 0-1-0.2-1.2-0.6l-1.1-1.8c-0.3-0.4-0.7-0.6-1.1-0.6h-0.6v-0.7c0-0.3-0.1-0.5-0.2-0.8l-0.3-0.7c-0.3-0.5-0.9-0.8-1.5-0.8h-1l5 7c0.4 0.6 1.1 1 1.8 1h1.2v1h-1v2h-0.6c-0.9 0-1.8 0.4-2.4 1v0h-1v1h11v-1h-1c-0.6-0.6-1.5-1-2.4-1h-0.6v-2h-1v-1h1.6c0.2 0 0.5 0.1 0.7 0.2l1.7 0.9c0.9 0.5 2 0.5 2.9 0h0.1l-4.5-2.9z"></path>
</svg>
