<?xml version="1.0" encoding="utf-8"?>
<!-- Generated by IcoMoon.io -->
<!DOCTYPE svg PUBLIC "-//W3C//DTD SVG 1.1//EN" "http://www.w3.org/Graphics/SVG/1.1/DTD/svg11.dtd">
<svg version="1.1" xmlns="http://www.w3.org/2000/svg" xmlns:xlink="http://www.w3.org/1999/xlink" width="16" height="16" viewBox="0 0 16 16">
<path fill="#444" d="M12.61 8.41c-0.53-0.079-1.008-0.223-1.454-0.424 2.104-1.876 4.424-3.536 4.454-3.556l0.1-0.070 0.060-0.11c0.177-0.367 0.281-0.797 0.281-1.252 0-0.901-0.407-1.707-1.046-2.244-0.523-0.482-1.219-0.776-1.983-0.776-0.538 0-1.043 0.146-1.476 0.4l-0.126 0.133c-1.578 2.181-3.182 4.099-4.908 5.899-1.836 1.638-3.87 3.195-6.018 4.592l-0.394 0.248v0.23c-0.077 0.314-0.122 0.675-0.122 1.046 0 0.97 0.304 1.87 0.822 2.609 0.507 0.53 1.237 0.87 2.045 0.87 0.055 0 0.109-0.002 0.162-0.005 0.026 0.002 0.065 0.003 0.104 0.003 0.701 0 1.317-0.36 1.674-0.905 0.245-0.308 2.065-2.608 4.005-4.708 0.268 0.464 0.476 1.003 0.594 1.575 0.032 0.249 0.046 0.496 0.046 0.747 0 0.823-0.158 1.61-0.445 2.331l1.685-2.043 1.33 1c-0.041-1.174-0.243-2.286-0.584-3.336-0.227-0.416-0.542-0.845-0.915-1.214 0.406 0.346 0.871 0.643 1.372 0.874 0.94 0.338 1.989 0.572 3.076 0.672l-0.949-1.266 2-1.73c-0.83 0.273-1.785 0.431-2.777 0.431-0.216 0-0.43-0.007-0.642-0.022zM12.16 1.18c0.246-0.123 0.536-0.194 0.842-0.194 0.506 0 0.966 0.196 1.309 0.516 0.441 0.356 0.721 0.897 0.721 1.504 0 0.242-0.045 0.474-0.126 0.688-0.486 0.307-2.346 1.717-4.146 3.307-0.055-0.521-0.302-0.975-0.668-1.298-0.28-0.239-0.643-0.384-1.039-0.384-0.068 0-0.135 0.004-0.201 0.012 1.568-1.771 2.978-3.691 3.308-4.151zM2.7 11.81c0.073-0.051 0.164-0.082 0.262-0.082 0.014 0 0.027 0.001 0.040 0.002l0.068-0c0.179 0.052 0.334 0.142 0.461 0.261l-0.871 0.719c-0.081-0.165-0.128-0.358-0.128-0.563 0-0.052 0.003-0.103 0.009-0.153 0.027-0.077 0.084-0.144 0.158-0.183zM4 14.5c-0.175 0.306-0.499 0.508-0.871 0.508-0.046 0-0.090-0.003-0.134-0.009-0.046 0.006-0.106 0.008-0.167 0.008-0.515 0-0.981-0.209-1.318-0.548-0.365-0.54-0.583-1.206-0.583-1.922 0-0.251 0.027-0.495 0.077-0.73l0.706-0.457c-0.094 0.14-0.164 0.304-0.199 0.481-0.007 0.076-0.010 0.154-0.010 0.234 0 0.642 0.202 1.237 0.545 1.724l0.354 0.44 1.7-1.4c0.066 0.209 0.104 0.45 0.104 0.7 0 0.351-0.075 0.685-0.21 0.985zM4.86 12.050c-0.345-0.6-0.889-1.053-1.54-1.274-0.071-0.012-0.13-0.016-0.19-0.016s-0.119 0.004-0.177 0.010c-0.046-0.007-0.106-0.011-0.168-0.011s-0.122 0.004-0.182 0.011c1.489-1.018 2.766-2.003 3.988-3.052 0.398 0.071 0.812 0.25 1.131 0.533 0.297 0.313 0.48 0.739 0.48 1.209 0 0.032-0.001 0.063-0.002 0.094-1.14 1.226-2.25 2.536-3 3.506-0.054-0.379-0.177-0.719-0.357-1.023z"></path>
</svg>
