<?xml version="1.0" encoding="utf-8"?>
<!-- Generated by IcoMoon.io -->
<!DOCTYPE svg PUBLIC "-//W3C//DTD SVG 1.1//EN" "http://www.w3.org/Graphics/SVG/1.1/DTD/svg11.dtd">
<svg version="1.1" xmlns="http://www.w3.org/2000/svg" xmlns:xlink="http://www.w3.org/1999/xlink" width="16" height="16" viewBox="0 0 16 16">
<path fill="#444" d="M14 10.58c0.024-0.048 0.038-0.105 0.038-0.165s-0.014-0.117-0.039-0.167l-0.479-0.698c-0.009-0.013-0.014-0.028-0.014-0.045s0.005-0.032 0.014-0.045l0.48-0.7c0.024-0.048 0.038-0.105 0.038-0.165s-0.014-0.117-0.039-0.167c-0.040-0.11-0.127-0.196-0.236-0.237l-0.823-0.301c-0.031-0.011-0.054-0.037-0.060-0.069l-0-0.841c-0.007-0.125-0.072-0.233-0.169-0.299-0.066-0.045-0.145-0.071-0.231-0.071-0.004 0-0.007 0-0.011 0l-0.159-0-0.85 0.22c-0.010 0.004-0.022 0.007-0.035 0.007s-0.025-0.003-0.036-0.007l-0.549-0.65c-0.079-0.085-0.191-0.137-0.315-0.137s-0.236 0.053-0.315 0.137l-0.55 0.65c-0.010 0.004-0.022 0.007-0.035 0.007s-0.025-0.003-0.036-0.007l0.001 0-0.9-0.23h-0.1c-0.002-0-0.005-0-0.008-0-0.087 0-0.167 0.026-0.234 0.071-0.096 0.066-0.161 0.174-0.168 0.298l-0 0.841c-0.006 0.033-0.029 0.059-0.059 0.070l-0.821 0.3c-0.134 0.023-0.245 0.11-0.299 0.228-0.025 0.051-0.039 0.107-0.039 0.167s0.014 0.117 0.039 0.167l0.479 0.698c0.009 0.013 0.014 0.028 0.014 0.045s-0.005 0.032-0.014 0.045l-0.48 0.7c-0.024 0.048-0.038 0.105-0.038 0.165s0.014 0.117 0.039 0.167c0.040 0.11 0.127 0.196 0.236 0.237l0.823 0.301c0.031 0.011 0.054 0.037 0.060 0.069l0 0.841c0.007 0.125 0.072 0.233 0.169 0.299 0.067 0.045 0.147 0.071 0.234 0.071 0.003 0 0.005-0 0.008-0h0.16l0.31-0.070v3.69l1.53-2 1.47 2v-3.69l0.31 0.080h0.11c0.002 0 0.005 0 0.008 0 0.087 0 0.167-0.026 0.234-0.071 0.096-0.066 0.161-0.174 0.168-0.298l0-0.841c0.006-0.033 0.029-0.059 0.059-0.070l0.821-0.3c0.13-0.026 0.236-0.112 0.289-0.227z"></path>
<path fill="#444" d="M0 1v12h8l-0.11-0.050c-0.282-0.195-0.469-0.508-0.49-0.867l-0-0.083h-6.4v-10h14v10h-1.43v0.080c-0.021 0.361-0.208 0.675-0.486 0.868l-0.084 0.052h3v-12h-16z"></path>
<path fill="#444" d="M7.43 6.91c0.007-0.377 0.198-0.708 0.486-0.908 0.016-0.005 0.030-0.006 0.044-0.006s0.028 0.001 0.041 0.004l-5.001-0v1h4.43v-0.090z"></path>
<path fill="#444" d="M6.42 8h-3.42v1h3.36c-0.074-0.136-0.117-0.298-0.117-0.47 0-0.13 0.025-0.253 0.070-0.367 0.014-0.063 0.054-0.122 0.107-0.163z"></path>
<path fill="#444" d="M3 4h10v1h-10v-1z"></path>
</svg>
