<?xml version="1.0" encoding="utf-8"?>
<!-- Generated by IcoMoon.io -->
<!DOCTYPE svg PUBLIC "-//W3C//DTD SVG 1.1//EN" "http://www.w3.org/Graphics/SVG/1.1/DTD/svg11.dtd">
<svg version="1.1" xmlns="http://www.w3.org/2000/svg" xmlns:xlink="http://www.w3.org/1999/xlink" width="64" height="64" viewBox="0 0 64 64">
<path fill="#444444" d="M32 0c-17.6 0-32 14.4-32 32s14.4 32 32 32 32-14.4 32-32-14.4-32-32-32zM60 32c0 4.4-0.8 8.4-2.8 12l-10.8-4.8c0.8-2.4 1.6-4.8 1.6-7.2 0-8.8-7.2-16-16-16-2 0-3.6 0.4-5.6 1.2l-4.8-11.2c2.4-0.8 4.8-1.6 7.2-2l1.2 12h2v-12c15.6 0 28 12.4 28 28zM32 20c6.8 0 12 5.2 12 12s-5.2 12-12 12-12-5.2-12-12 5.2-12 12-12zM4 32c0-4.4 0.8-8.4 2.8-12l10.8 4.8c-0.8 2.4-1.6 4.8-1.6 7.2 0 8.8 7.2 16 16 16 2 0 3.6-0.4 5.6-1.2l4.8 11.2c-2.4 0.8-4.8 1.6-7.2 2l-1.2-12h-2v12c-15.6 0-28-12.4-28-28z"></path>
<path fill="#444444" d="M40 32c0 4.418-3.582 8-8 8s-8-3.582-8-8c0-4.418 3.582-8 8-8s8 3.582 8 8z"></path>
</svg>
