<?xml version="1.0" encoding="utf-8"?>
<!-- Generated by IcoMoon.io -->
<!DOCTYPE svg PUBLIC "-//W3C//DTD SVG 1.1//EN" "http://www.w3.org/Graphics/SVG/1.1/DTD/svg11.dtd">
<svg version="1.1" xmlns="http://www.w3.org/2000/svg" xmlns:xlink="http://www.w3.org/1999/xlink" width="16" height="16" viewBox="0 0 16 16">
<path fill="#444" d="M8 0c-4.4 0-8 3.6-8 8s3.6 8 8 8 8-3.6 8-8-3.6-8-8-8zM15 8c0 1.1-0.2 2.1-0.7 3l-2.7-1.2c0.2-0.6 0.4-1.2 0.4-1.8 0-2.2-1.8-4-4-4-0.5 0-0.9 0.1-1.4 0.3l-1.2-2.8c0.6-0.2 1.2-0.4 1.8-0.5l0.3 3h0.5v-3c3.9 0 7 3.1 7 7zM8 5c1.7 0 3 1.3 3 3s-1.3 3-3 3-3-1.3-3-3 1.3-3 3-3zM1 8c0-1.1 0.2-2.1 0.7-3l2.7 1.2c-0.2 0.6-0.4 1.2-0.4 1.8 0 2.2 1.8 4 4 4 0.5 0 0.9-0.1 1.4-0.3l1.2 2.8c-0.6 0.2-1.2 0.4-1.8 0.5l-0.3-3h-0.5v3c-3.9 0-7-3.1-7-7z"></path>
<path fill="#444" d="M10 8c0 1.105-0.895 2-2 2s-2-0.895-2-2c0-1.105 0.895-2 2-2s2 0.895 2 2z"></path>
</svg>
