<?xml version="1.0" encoding="utf-8"?>
<!-- Generated by IcoMoon.io -->
<!DOCTYPE svg PUBLIC "-//W3C//DTD SVG 1.1//EN" "http://www.w3.org/Graphics/SVG/1.1/DTD/svg11.dtd">
<svg version="1.1" xmlns="http://www.w3.org/2000/svg" xmlns:xlink="http://www.w3.org/1999/xlink" width="16" height="16" viewBox="0 0 16 16">
<path fill="#444" d="M16 12l-1.4-6.7c-0.2-0.7-0.9-1.3-1.7-1.3h-1.9v-1.2c0-1-0.8-1.8-1.8-1.8h-2.4c-1 0-1.8 0.8-1.8 1.8v1.2h-1.9c-0.8 0-1.5 0.6-1.7 1.3l-1.4 6.7c-0.2 1 0.6 2 1.7 2h12.5c1.2 0 2-1 1.8-2zM6 2.8c0-0.4 0.4-0.8 0.8-0.8h2.4c0.4 0 0.8 0.4 0.8 0.8v1.2h-4v-1.2zM11 10h-2v2h-2v-2h-2v-2h2v-2h2v2h2v2z"></path>
</svg>
