<?xml version="1.0" encoding="utf-8"?>
<!-- Generated by IcoMoon.io -->
<!DOCTYPE svg PUBLIC "-//W3C//DTD SVG 1.1//EN" "http://www.w3.org/Graphics/SVG/1.1/DTD/svg11.dtd">
<svg version="1.1" xmlns="http://www.w3.org/2000/svg" xmlns:xlink="http://www.w3.org/1999/xlink" width="64" height="64" viewBox="0 0 64 64">
<path fill="#444444" d="M64 48l-5.6-26.8c-0.8-2.8-3.6-5.2-6.8-5.2h-7.6v-4.8c0-4-3.2-7.2-7.2-7.2h-9.6c-4 0-7.2 3.2-7.2 7.2v4.8h-7.6c-3.2 0-6 2.4-6.8 5.2l-5.6 26.8c-0.8 4 2.4 8 6.8 8h50c4.8 0 8-4 7.2-8zM24 11.2c0-1.6 1.6-3.2 3.2-3.2h9.6c1.6 0 3.2 1.6 3.2 3.2v4.8h-16v-4.8zM44 40h-8v8h-8v-8h-8v-8h8v-8h8v8h8v8z"></path>
</svg>
