<?xml version="1.0" encoding="utf-8"?>
<!-- Generated by IcoMoon.io -->
<!DOCTYPE svg PUBLIC "-//W3C//DTD SVG 1.1//EN" "http://www.w3.org/Graphics/SVG/1.1/DTD/svg11.dtd">
<svg version="1.1" xmlns="http://www.w3.org/2000/svg" xmlns:xlink="http://www.w3.org/1999/xlink" width="64" height="64" viewBox="0 0 64 64">
<path fill="#444444" d="M56 45.2c-4-7.6-8-6.4-12.4-6.8 0.4 1.2 0.4 2.4 0.4 4 6.4 1.6 8 9.2 8 13.6v4h-8v-4h4c0 0 0-10-6-10s-6 9.6-6 10h4v4h-8v-4c0-4.4 1.6-12.4 8-13.6 0-2.4-0.4-4.4-0.8-5.2-0.8-0.4-1.6-1.2-1.6-2.4 0-2.4 3.2-1.6 5.6-6 0 0 3.6-9.2 2.4-17.2h-4c0-0.8 0.4-1.2 0.4-2s0-1.2-0.4-2h3.2c-1.2-4-5.2-7.6-12.8-7.6 0 0 0 0 0 0s0 0 0 0 0 0 0 0c-7.6 0-11.6 3.6-13.2 8h3.2c0 0.8-0.4 1.2-0.4 2s0 1.2 0.4 2h-4c-0.8 8 2.4 17.2 2.4 17.2 2.4 4 5.6 3.2 5.6 6 0 2-2 2.8-4.4 3.2-0.8 0.8-1.6 2.4-1.6 5.6 0 1.6 0 3.2 0 4.8 2.4 0.8 4 3.2 4 5.6 0 2.8-2.8 5.6-6 5.6s-6-2.8-6-6c0-2.8 1.6-4.8 4-5.6 0-1.2 0-2.8 0-4.8s0.4-3.6 0.8-5.2c-2.8 0.4-6 1.6-8.8 6.8-2.4 4.4-3.6 18.8-3.6 18.8h54.8c0.4 0-0.8-14.4-3.2-18.8zM26 10c0-3.2 2.8-6 6-6s6 2.8 6 6-2.8 6-6 6-6-2.8-6-6z"></path>
<path fill="#444444" d="M20 54c0 1.105-0.895 2-2 2s-2-0.895-2-2c0-1.105 0.895-2 2-2s2 0.895 2 2z"></path>
</svg>
