<?xml version="1.0" encoding="utf-8"?>
<!-- Generated by IcoMoon.io -->
<!DOCTYPE svg PUBLIC "-//W3C//DTD SVG 1.1//EN" "http://www.w3.org/Graphics/SVG/1.1/DTD/svg11.dtd">
<svg version="1.1" xmlns="http://www.w3.org/2000/svg" xmlns:xlink="http://www.w3.org/1999/xlink" width="64" height="64" viewBox="0 0 64 64">
<path fill="#444444" d="M32.8 27.2c-0.4 0-0.4-0.4-0.8-0.4v-12.4c4.8 0.4 8.8 2.4 8.8 2.4l3.6-7.2c-0.4 0-6-3.2-12.4-3.2v-6.4h-4v6.4c-3.2 0.8-5.6 2-8 3.6-2.4 2.4-4 5.6-4 9.2 0 2.8 0.8 9.2 12 14.4v15.6c-3.6-0.8-8-2.8-9.6-3.6l-4 6.8c0.8 0.4 7.2 4 13.6 4.8v6.8h4v-6.8c0 0 0 0 0 0 9.2-1.2 14.4-8.4 14.4-15.2 0-6-4-10.8-13.6-14.8zM28 24.8c-3.2-2-4-4-4-5.2 0-1.6 0.4-2.8 1.6-3.6 0.8-0.4 1.6-0.8 2.4-1.2v10zM32 49.2v-13.6c4.4 2 6.4 4.4 6.4 6.4 0 2.4-1.2 6.4-6.4 7.2z"></path>
</svg>
