<?xml version="1.0" encoding="utf-8"?>
<!-- Generated by IcoMoon.io -->
<!DOCTYPE svg PUBLIC "-//W3C//DTD SVG 1.1//EN" "http://www.w3.org/Graphics/SVG/1.1/DTD/svg11.dtd">
<svg version="1.1" xmlns="http://www.w3.org/2000/svg" xmlns:xlink="http://www.w3.org/1999/xlink" width="64" height="64" viewBox="0 0 64 64">
<path fill="#444444" d="M64 16c0 0 0-4-4-8s-7.6-4-7.6-4l-4.4 4.4v-8.4h-48v64h48v-32l16-16zM25.2 45.6l-2.4-2.4 1.2-4.4 6 6-4.8 0.8zM28.8 38l-2.4-2.4 20.8-20.8c0.8 0.4 1.6 1.2 2.4 2zM56.4 10l-3.6 4c-0.8-0.8-1.6-1.2-2.4-2l3.6-3.6c0.4 0.4 1.2 0.8 2.4 1.6zM44 60h-40v-56h40v8.4l-23.6 23.6-4.4 16.4 16.4-4.4 11.6-12v24z"></path>
</svg>
