<?xml version="1.0" encoding="utf-8"?>
<!-- Generated by IcoMoon.io -->
<!DOCTYPE svg PUBLIC "-//W3C//DTD SVG 1.1//EN" "http://www.w3.org/Graphics/SVG/1.1/DTD/svg11.dtd">
<svg version="1.1" xmlns="http://www.w3.org/2000/svg" xmlns:xlink="http://www.w3.org/1999/xlink" width="64" height="64" viewBox="0 0 64 64">
<path fill="#444444" d="M18.8 64v0c-6.8 0-12.4-3.2-16-8.4-4.4-6.8-3.6-16 1.6-23.2 3.6-5.2 8.4-8.4 14.4-9.6 4.8-1.2 8.8-4.4 10-8.8 0.8-3.2 2.8-6 5.2-8 3.6-4 8.8-6 14-6 4.4 0 8.8 1.6 11.6 4.8 6 6.4 6 16.8-0.4 24-2 2.4-4.8 4.4-8 5.6-4.8 2-8.8 6.4-10.4 12-1.2 4-3.2 7.6-6 10.4-4.4 4.8-10.4 7.2-16 7.2zM48 4c-4 0-8 1.6-11.2 4.8-2 2-3.2 4-4 6.4-2 6-7.2 10-13.2 11.6-4.8 0.8-8.8 3.6-12 8-4.4 6-4.8 13.2-1.2 18.8 2.4 4 7.2 6.4 12.4 6.4v0c4.8 0 9.6-2 13.2-5.6 2.4-2.4 4.4-5.6 5.2-8.8 1.6-6.8 6.4-12 12.8-14.4 2.4-0.8 4.8-2.8 6.4-4.8 4.8-5.6 5.2-14 0.4-18.8-2.4-2.4-5.6-3.6-8.8-3.6z"></path>
</svg>
