<?xml version="1.0" encoding="utf-8"?>
<!-- Generated by IcoMoon.io -->
<!DOCTYPE svg PUBLIC "-//W3C//DTD SVG 1.1//EN" "http://www.w3.org/Graphics/SVG/1.1/DTD/svg11.dtd">
<svg version="1.1" xmlns="http://www.w3.org/2000/svg" xmlns:xlink="http://www.w3.org/1999/xlink" width="64" height="64" viewBox="0 0 64 64">
<path fill="#444444" d="M56 14.8v-2.8h-6l-18-12-18.4 12h-5.6v2.8l-8 5.2v44h64v-43.6l-8-5.6zM32 4.8l10.8 7.2h-22l11.2-7.2zM12 16h40v14.8l-14 6.8-6-5.2-6 5.6-14-6.8v-15.2zM4 22l4-2.8v9.6l-4-1.6v-5.2zM4 31.6l18.4 9.2-18.4 16v-25.2zM7.6 60l24.4-21.2 24.4 21.2h-48.8zM60 56.8l-18.8-16.4 18.8-9.2v25.6zM60 26.8l-4 2v-9.2l4 2.8v4.4z"></path>
</svg>
