<?xml version="1.0" encoding="utf-8"?>
<!-- Generated by IcoMoon.io -->
<!DOCTYPE svg PUBLIC "-//W3C//DTD SVG 1.1//EN" "http://www.w3.org/Graphics/SVG/1.1/DTD/svg11.dtd">
<svg version="1.1" xmlns="http://www.w3.org/2000/svg" xmlns:xlink="http://www.w3.org/1999/xlink" width="64" height="64" viewBox="0 0 64 64">
<path fill="#444444" d="M32.4 56l25.6-28.8c2.4-2.8 2.4-7.2-0.4-10l-10.8-10.8c-1.2-1.6-3.2-2.4-5.2-2.4h-7.2c-2 0-4 0.8-5.6 2.4l-26.8 30.4c-2.4 2.8-2.4 7.6 0.4 10l10.8 10.8c1.2 1.6 3.2 2.4 5.2 2.4h45.6v-4h-31.6zM27.2 55.6c0 0 0-0.4 0 0l-10.8-10.8c-1.6-1.6-1.6-3.6 0-5.2l13.6-15.6h-4l-12 13.2c-2.4 2.8-2.4 6.8 0.4 9.6l9.2 9.2h-5.2c-0.8 0-1.6-0.4-2.4-0.8l-11.2-11.2c-1.2-1.2-1.2-3.2 0-4.4l14-15.6h7.2l14-16h4l-14 16 12.4 14.8-14 16c-0.4 0.4-0.8 0.4-1.2 0.8z"></path>
</svg>
