<?xml version="1.0" encoding="utf-8"?>
<!-- Generated by IcoMoon.io -->
<!DOCTYPE svg PUBLIC "-//W3C//DTD SVG 1.1//EN" "http://www.w3.org/Graphics/SVG/1.1/DTD/svg11.dtd">
<svg version="1.1" xmlns="http://www.w3.org/2000/svg" xmlns:xlink="http://www.w3.org/1999/xlink" width="16" height="16" viewBox="0 0 16 16">
<path fill="#444" d="M8 12c-0.726-0.029-1.409-0.177-2.043-0.425l0.403-0.915c0.435 0.202 0.945 0.319 1.482 0.319 0.326 0 0.643-0.043 0.943-0.125 0.121-0.109 0.215-0.285 0.215-0.484 0-0 0-0 0-0 0.070-0.43-0.22-0.62-1.17-1-0.83-0.29-2.040-0.76-1.83-2.080 0.072-0.594 0.46-1.082 0.989-1.296 0.223-0.053 0.466-0.081 0.715-0.081 0.724 0 1.393 0.235 1.934 0.633l-0.569 0.754c-0.366-0.248-0.817-0.396-1.302-0.396-0.123 0-0.243 0.009-0.361 0.028-0.215 0.084-0.377 0.296-0.387 0.547-0.080 0.401 0.14 0.581 1.15 1.001 0.85 0.33 2 0.77 1.8 2.080-0.067 0.511-0.364 0.94-0.782 1.186-0.323 0.163-0.696 0.256-1.090 0.256-0.034 0-0.069-0.001-0.103-0.002z"></path>
<path fill="#444" d="M13.71 12c-0.027 0.001-0.058 0.001-0.089 0.001-0.583 0-1.124-0.18-1.57-0.488-0.646-0.548-1.059-1.37-1.059-2.289 0-0.079 0.003-0.157 0.009-0.235-0.011-0.079-0.016-0.183-0.016-0.288 0-0.899 0.413-1.701 1.060-2.228 0.5-0.282 1.091-0.446 1.72-0.446 0.443 0 0.868 0.081 1.259 0.23l-0.374 0.922c-0.276-0.111-0.595-0.176-0.93-0.176-0.388 0-0.756 0.087-1.086 0.242-0.395 0.361-0.652 0.893-0.652 1.485 0 0.095 0.007 0.188 0.019 0.279-0.010 0.063-0.016 0.148-0.016 0.234 0 0.599 0.255 1.138 0.663 1.514 0.346 0.177 0.754 0.28 1.185 0.28 0.292 0 0.573-0.047 0.835-0.134l0.331 0.905c-0.383 0.121-0.823 0.19-1.279 0.19-0.004 0-0.008 0-0.012-0z"></path>
<path fill="#444" d="M5 4v-1h-4v9h4v-1h-3v-3h3v-1h-3v-3h3z"></path>
</svg>
