<?xml version="1.0" encoding="utf-8"?>
<!-- Generated by IcoMoon.io -->
<!DOCTYPE svg PUBLIC "-//W3C//DTD SVG 1.1//EN" "http://www.w3.org/Graphics/SVG/1.1/DTD/svg11.dtd">
<svg version="1.1" xmlns="http://www.w3.org/2000/svg" xmlns:xlink="http://www.w3.org/1999/xlink" width="16" height="16" viewBox="0 0 16 16">
<path fill="#444" d="M10.89 3c1.166 0.009 2.244 0.383 3.127 1.011l-0.017-2.321c-0.918-0.433-1.994-0.686-3.129-0.686-3.606 0-6.616 2.551-7.323 5.947l-1.548 0.049v1h1.41c0 0.17 0 0.33 0 0.5-0.005 0.075-0.008 0.162-0.008 0.25s0.003 0.175 0.008 0.262l-1.411-0.012v1h1.54c0.882 3.353 3.805 5.818 7.331 5.999 1.149-0.002 2.218-0.256 3.175-0.708l-0.045-2.291c-0.866 0.617-1.944 0.991-3.108 1-2.461-0.128-4.512-1.744-5.28-3.959l6.388-0.041v-1h-6.59c-0.006-0.075-0.009-0.162-0.009-0.25s0.003-0.175 0.010-0.261c-0.001-0.159-0.001-0.319-0.001-0.489h6.59v-1h-6.4c0.678-2.325 2.788-3.996 5.29-4z"></path>
</svg>
