<?xml version="1.0" encoding="utf-8"?>
<!-- Generated by IcoMoon.io -->
<!DOCTYPE svg PUBLIC "-//W3C//DTD SVG 1.1//EN" "http://www.w3.org/Graphics/SVG/1.1/DTD/svg11.dtd">
<svg version="1.1" xmlns="http://www.w3.org/2000/svg" xmlns:xlink="http://www.w3.org/1999/xlink" width="64" height="64" viewBox="0 0 64 64">
<path fill="#444444" d="M56 24h-6.8c-0.8 0-1.6-0.4-2.4-0.8l-5.2-5.2c-0.8-1.2-2.4-2-4.4-2h-1.2c4.4 0 8-3.6 8-8s-3.6-8-8-8-8 3.6-8 8c0 2.8 1.6 5.6 4 6.8l-0.8 1.2h-8c-4.4 0-9.2 2-12 6l-2.4 3.2c-1.6 1.6-0.8 4 0.8 5.2 1.6 0.8 3.6 0.4 4.8-1.2l2-2.8c1.2-1.6 2.8-2.4 4.8-2.4h3.2l-2.8 6.4c-1.2 2.4-1.6 4.8-1.6 7.6v8c0 1.2-0.8 2-2 2h-10c-2.4 0-4 1.6-4 4s1.6 4 4 4h14c3.2 0 6-2.8 6-6v-10l15.2 18c2.4 3.6 6.8 6 11.2 6h3.6l-21.6-26.8c-1.2-1.6-0.8-3.2 0-5.2l2.4-6 2.8 3.2c1.6 1.6 4 2.8 6.4 2.8h8c2.4 0 4-1.6 4-4s-1.6-4-4-4z"></path>
</svg>
