<?xml version="1.0" encoding="utf-8"?>
<!-- Generated by IcoMoon.io -->
<!DOCTYPE svg PUBLIC "-//W3C//DTD SVG 1.1//EN" "http://www.w3.org/Graphics/SVG/1.1/DTD/svg11.dtd">
<svg version="1.1" xmlns="http://www.w3.org/2000/svg" xmlns:xlink="http://www.w3.org/1999/xlink" width="16" height="16" viewBox="0 0 16 16">
<path fill="#444" d="M14 6h-1.7c-0.2 0-0.4-0.1-0.6-0.2l-1.3-1.3c-0.2-0.3-0.6-0.5-1.1-0.5h-0.3c1.1 0 2-0.9 2-2s-0.9-2-2-2-2 0.9-2 2c0 0.7 0.4 1.4 1 1.7l-0.2 0.3h-2c-1.1 0-2.3 0.5-3 1.5l-0.6 0.8c-0.4 0.4-0.2 1 0.2 1.3 0.4 0.2 0.9 0.1 1.2-0.3l0.5-0.7c0.3-0.4 0.7-0.6 1.2-0.6h0.8l-0.7 1.6c-0.3 0.6-0.4 1.2-0.4 1.9v2c0 0.3-0.2 0.5-0.5 0.5h-2.5c-0.6 0-1 0.4-1 1s0.4 1 1 1h3.5c0.8 0 1.5-0.7 1.5-1.5v-2.5l3.8 4.5c0.6 0.9 1.7 1.5 2.8 1.5h0.9l-5.4-6.7c-0.3-0.4-0.2-0.8 0-1.3l0.6-1.5 0.7 0.8c0.4 0.4 1 0.7 1.6 0.7h2c0.6 0 1-0.4 1-1s-0.4-1-1-1z"></path>
</svg>
