<?xml version="1.0" encoding="utf-8"?>
<!-- Generated by IcoMoon.io -->
<!DOCTYPE svg PUBLIC "-//W3C//DTD SVG 1.1//EN" "http://www.w3.org/Graphics/SVG/1.1/DTD/svg11.dtd">
<svg version="1.1" xmlns="http://www.w3.org/2000/svg" xmlns:xlink="http://www.w3.org/1999/xlink" width="64" height="64" viewBox="0 0 64 64">
<path fill="#444444" d="M40 0c4.4 0 8 3.6 8 8 0 3.6-2.4 6.8-6 7.6 0 0 0 0.4 0 0.4 1.6 0 2.8 0.8 4 2l5.2 5.2c0.4 0.4 1.2 0.8 2 0.8h6.8v-24h-20z"></path>
<path fill="#444444" d="M47.2 58l-15.2-18v10c0 3.2-2.8 6-6 6h-14c-2.4 0-4-1.6-4-4s1.6-4 4-4h10c1.2 0 2-0.8 2-2v-8c0-2.8 0.4-5.2 1.6-8l2.8-6h-3.2c-2 0-3.6 0.8-4.8 2.4l-2 2.8c-0.8 1.6-2.8 2-4.8 1.2-1.6-1.2-2.4-3.6-0.8-5.2l2.4-3.2c2.8-4 7.6-6 12.4-6h8l0.4-1.2c-2.4-1.2-4-4-4-6.8 0-4.4 3.6-8 8-8h-28v19.6l-2.4 3.2c-1.2 1.6-2 3.6-1.6 6 0.4 2 1.6 4 3.6 5.2 0 0 0 0 0 0v10c-4.4 0-8 3.6-8 8s3.6 8 8 8v4h46.4c-4.4 0-8.4-2.4-10.8-6z"></path>
<path fill="#444444" d="M45.6 29.2l-2.8-3.2-2.4 6c-0.8 2-1.2 3.6 0 5.2l19.6 24.4v-29.6h-8.4c-2.4 0-4.4-0.8-6-2.8z"></path>
</svg>
