<?xml version="1.0" encoding="utf-8"?>
<!-- Generated by IcoMoon.io -->
<!DOCTYPE svg PUBLIC "-//W3C//DTD SVG 1.1//EN" "http://www.w3.org/Graphics/SVG/1.1/DTD/svg11.dtd">
<svg version="1.1" xmlns="http://www.w3.org/2000/svg" xmlns:xlink="http://www.w3.org/1999/xlink" width="64" height="64" viewBox="0 0 64 64">
<path fill="#444444" d="M51.6 20.8l-3.2 3.2c6.8 3.6 10 9.2 11.2 12-2.8 3.6-11.2 12.4-28 12.4-2.8 0-4.8-0.4-7.2-0.8l-3.2 3.2c3.2 1.2 6.8 1.6 10.4 1.6 22.8 0 32.4-16 32.4-16s-2.4-9.6-12.4-15.6z"></path>
<path fill="#444444" d="M48 28.4c0-1.2 0-2.4-0.4-3.2l-19.2 18.8c1.2 0 2.4 0.4 3.6 0.4 8.8 0 16-7.2 16-16z"></path>
<path fill="#444444" d="M61.2 0l-17.6 17.6c-3.2-0.8-7.2-1.6-11.6-1.6-26.8 0-32 20.4-32 20.4s4 7.2 13.2 12l-13.2 12.8v2.8h2.8l61.2-61.2v-2.8h-2.8zM16 45.2c-6.4-2.8-10-7.2-11.6-9.2 1.2-2.8 4.4-8.8 12.4-12.8-0.4 1.6-0.8 3.2-0.8 5.2 0 4.4 2 8.8 5.2 11.6l-5.2 5.2zM24.8 31.6l-4 0.8c0 0-1.2-2-1.2-4.8 0-3.2 1.6-6 1.6-6 2-1.2 5.2-1.2 5.2-1.2s-2 3.6-2 6.8c-0.4 2.8 0.4 4.4 0.4 4.4z"></path>
</svg>
