<?xml version="1.0" encoding="utf-8"?>
<!-- Generated by IcoMoon.io -->
<!DOCTYPE svg PUBLIC "-//W3C//DTD SVG 1.1//EN" "http://www.w3.org/Graphics/SVG/1.1/DTD/svg11.dtd">
<svg version="1.1" xmlns="http://www.w3.org/2000/svg" xmlns:xlink="http://www.w3.org/1999/xlink" width="16" height="16" viewBox="0 0 16 16">
<path fill="#444" d="M12.9 5.2l-0.8 0.8c1.7 0.9 2.5 2.3 2.8 3-0.7 0.9-2.8 3.1-7 3.1-0.7 0-1.2-0.1-1.8-0.2l-0.8 0.8c0.8 0.3 1.7 0.4 2.6 0.4 5.7 0 8.1-4 8.1-4s-0.6-2.4-3.1-3.9z"></path>
<path fill="#444" d="M12 7.1c0-0.3 0-0.6-0.1-0.8l-4.8 4.7c0.3 0 0.6 0.1 0.9 0.1 2.2 0 4-1.8 4-4z"></path>
<path fill="#444" d="M15.3 0l-4.4 4.4c-0.8-0.2-1.8-0.4-2.9-0.4-6.7 0-8 5.1-8 5.1s1 1.8 3.3 3l-3.3 3.2v0.7h0.7l15.3-15.3v-0.7h-0.7zM4 11.3c-1.6-0.7-2.5-1.8-2.9-2.3 0.3-0.7 1.1-2.2 3.1-3.2-0.1 0.4-0.2 0.8-0.2 1.3 0 1.1 0.5 2.2 1.3 2.9l-1.3 1.3zM6.2 7.9l-1 0.2c0 0-0.3-0.5-0.3-1.2 0-0.8 0.4-1.5 0.4-1.5 0.5-0.3 1.3-0.3 1.3-0.3s-0.5 0.9-0.5 1.7c-0.1 0.7 0.1 1.1 0.1 1.1z"></path>
</svg>
