<?xml version="1.0" encoding="utf-8"?>
<!-- Generated by IcoMoon.io -->
<!DOCTYPE svg PUBLIC "-//W3C//DTD SVG 1.1//EN" "http://www.w3.org/Graphics/SVG/1.1/DTD/svg11.dtd">
<svg version="1.1" xmlns="http://www.w3.org/2000/svg" xmlns:xlink="http://www.w3.org/1999/xlink" width="16" height="16" viewBox="0 0 16 16">
<path fill="#444" d="M8 3.9c-6.7 0-8 5.1-8 5.1s2.2 4.1 7.9 4.1 8.1-4 8.1-4-1.3-5.2-8-5.2zM5.3 5.4c0.5-0.3 1.3-0.3 1.3-0.3s-0.5 0.9-0.5 1.6c0 0.7 0.2 1.1 0.2 1.1l-1.1 0.2c0 0-0.3-0.5-0.3-1.2 0-0.8 0.4-1.4 0.4-1.4zM7.9 12.1c-4.1 0-6.2-2.3-6.8-3.2 0.3-0.7 1.1-2.2 3.1-3.2-0.1 0.4-0.2 0.8-0.2 1.3 0 2.2 1.8 4 4 4s4-1.8 4-4c0-0.5-0.1-0.9-0.2-1.3 2 0.9 2.8 2.5 3.1 3.2-0.7 0.9-2.8 3.2-7 3.2z"></path>
</svg>
