<?xml version="1.0" encoding="utf-8"?>
<!-- Generated by IcoMoon.io -->
<!DOCTYPE svg PUBLIC "-//W3C//DTD SVG 1.1//EN" "http://www.w3.org/Graphics/SVG/1.1/DTD/svg11.dtd">
<svg version="1.1" xmlns="http://www.w3.org/2000/svg" xmlns:xlink="http://www.w3.org/1999/xlink" width="64" height="64" viewBox="0 0 64 64">
<path fill="#444444" d="M32 15.6c-26.8 0-32 20.4-32 20.4s8.8 16.4 31.6 16.4 32.4-16 32.4-16-5.2-20.8-32-20.8zM21.2 21.6c2-1.2 5.2-1.2 5.2-1.2s-2 3.6-2 6.4c0 2.8 0.8 4.4 0.8 4.4l-4.4 0.8c0 0-1.2-2-1.2-4.8 0-3.2 1.6-5.6 1.6-5.6zM31.6 48.4c-16.4 0-24.8-9.2-27.2-12.8 1.2-2.8 4.4-8.8 12.4-12.8-0.4 1.6-0.8 3.2-0.8 5.2 0 8.8 7.2 16 16 16s16-7.2 16-16c0-2-0.4-3.6-0.8-5.2 8 3.6 11.2 10 12.4 12.8-2.8 3.6-11.2 12.8-28 12.8z"></path>
</svg>
