<?xml version="1.0" encoding="utf-8"?>
<!-- Generated by IcoMoon.io -->
<!DOCTYPE svg PUBLIC "-//W3C//DTD SVG 1.1//EN" "http://www.w3.org/Graphics/SVG/1.1/DTD/svg11.dtd">
<svg version="1.1" xmlns="http://www.w3.org/2000/svg" xmlns:xlink="http://www.w3.org/1999/xlink" width="16" height="16" viewBox="0 0 16 16">
<path fill="#444" d="M15 1c-1.8-1.8-3.7-0.7-4.6 0.1-0.4 0.4-0.7 0.9-0.7 1.5v0c0 1.1-1.1 1.8-2.1 1.5l-0.1-0.1-0.7 0.8 0.7 0.7-6 6-0.8 2.3-0.7 0.7 1.5 1.5 0.8-0.8 2.3-0.8 6-6 0.7 0.7 0.7-0.6-0.1-0.2c-0.3-1 0.4-2.1 1.5-2.1v0c0.6 0 1.1-0.2 1.4-0.6 0.9-0.9 2-2.8 0.2-4.6zM3.9 13.6l-2 0.7-0.2 0.1 0.1-0.2 0.7-2 5.8-5.8 1.5 1.5-5.9 5.7z"></path>
</svg>
