<?xml version="1.0" encoding="utf-8"?>
<!-- Generated by IcoMoon.io -->
<!DOCTYPE svg PUBLIC "-//W3C//DTD SVG 1.1//EN" "http://www.w3.org/Graphics/SVG/1.1/DTD/svg11.dtd">
<svg version="1.1" xmlns="http://www.w3.org/2000/svg" xmlns:xlink="http://www.w3.org/1999/xlink" width="64" height="64" viewBox="0 0 64 64">
<path fill="#444444" d="M60 4c-7.2-7.2-14.8-2.8-18.4 0.4-1.6 1.6-2.8 3.6-2.8 6v0c0 4.4-4.4 7.2-8.4 6l-0.4-0.4-2.8 3.2 2.8 2.8-24 24-3.2 9.2-2.8 2.8 6 6 3.2-3.2 9.2-3.2 24-24 2.8 2.8 2.8-2.4-0.4-0.8c-1.2-4 1.6-8.4 6-8.4v0c2.4 0 4.4-0.8 5.6-2.4 3.6-3.6 8-11.2 0.8-18.4zM15.6 54.4l-8 2.8-0.8 0.4 0.4-0.8 2.8-8 23.2-23.2 6 6-23.6 22.8z"></path>
</svg>
