<?xml version="1.0" encoding="utf-8"?>
<!-- Generated by IcoMoon.io -->
<!DOCTYPE svg PUBLIC "-//W3C//DTD SVG 1.1//EN" "http://www.w3.org/Graphics/SVG/1.1/DTD/svg11.dtd">
<svg version="1.1" xmlns="http://www.w3.org/2000/svg" xmlns:xlink="http://www.w3.org/1999/xlink" width="64" height="64" viewBox="0 0 64 64">
<path fill="#444444" d="M17.6 5.2c-2.4 1.2-3.2 4.4-1.6 6 2-3.6 5.2-2.4 10 1.6 3.2 2.8 7.6 0.4 7.6 0.4s0.8 4.8 6.8 5.6c6.8 0.8 9.2-3.2 9.2-3.2s1.6 4 7.6 1.6c4.4-1.6 2.8-4.4 2.8-4.4s4 0 4-2.8c0-3.6-4.4-3.2-4.4-3.2s0.8-4-3.6-4.4c-4-0.4-5.2 2-5.2 2s-1.2-4.4-7.2-4.4c-5.6 0-7.6 5.2-7.6 5.2s-1.6-2.4-6.4-2.4c-3.6 0-5.2 2.8-5.2 2.8s-4.4-2-6.8-0.4z"></path>
<path fill="#444444" d="M48 48.4v-8.4l-16 8.4v-8.4h-9.6l-2.4-28h-8l-2.4 28h-9.6v24h64v-24l-16 8.4zM24 56h-16v-8h16v8z"></path>
</svg>
