<?xml version="1.0" encoding="utf-8"?>
<!-- Generated by IcoMoon.io -->
<!DOCTYPE svg PUBLIC "-//W3C//DTD SVG 1.1//EN" "http://www.w3.org/Graphics/SVG/1.1/DTD/svg11.dtd">
<svg version="1.1" xmlns="http://www.w3.org/2000/svg" xmlns:xlink="http://www.w3.org/1999/xlink" width="64" height="64" viewBox="0 0 64 64">
<path fill="#444444" d="M40 8c0 4.418-3.582 8-8 8s-8-3.582-8-8c0-4.418 3.582-8 8-8s8 3.582 8 8z"></path>
<path fill="#444444" d="M40 32v-6l7.2 7.2c1.2 1.2 2.8 1.2 4 0s1.2-3.2 0-4l-10.4-10.4c-1.6-2-4-2.8-6.8-2.8h-4c-2.8 0-5.2 0.8-6.8 2.8l-10.4 10.4c-1.2 1.2-1.2 3.2 0 4 1.2 1.2 2.8 1.2 4 0l7.2-7.2v6l-16 20h16v12h16v-12h16l-16-20z"></path>
</svg>
