<?xml version="1.0" encoding="utf-8"?>
<!-- Generated by IcoMoon.io -->
<!DOCTYPE svg PUBLIC "-//W3C//DTD SVG 1.1//EN" "http://www.w3.org/Graphics/SVG/1.1/DTD/svg11.dtd">
<svg version="1.1" xmlns="http://www.w3.org/2000/svg" xmlns:xlink="http://www.w3.org/1999/xlink" width="16" height="16" viewBox="0 0 16 16">
<path fill="#444" d="M10 2c0 1.105-0.895 2-2 2s-2-0.895-2-2c0-1.105 0.895-2 2-2s2 0.895 2 2z"></path>
<path fill="#444" d="M10 8v-1.5l1.8 1.8c0.3 0.3 0.7 0.3 1 0s0.3-0.8 0-1l-2.6-2.6c-0.4-0.5-1-0.7-1.7-0.7h-1c-0.7 0-1.3 0.2-1.7 0.7l-2.6 2.6c-0.3 0.3-0.3 0.8 0 1 0.3 0.3 0.7 0.3 1 0l1.8-1.8v1.5l-4 5h4v3h4v-3h4l-4-5z"></path>
</svg>
