<?xml version="1.0" encoding="utf-8"?>
<!-- Generated by IcoMoon.io -->
<!DOCTYPE svg PUBLIC "-//W3C//DTD SVG 1.1//EN" "http://www.w3.org/Graphics/SVG/1.1/DTD/svg11.dtd">
<svg version="1.1" xmlns="http://www.w3.org/2000/svg" xmlns:xlink="http://www.w3.org/1999/xlink" width="16" height="16" viewBox="0 0 16 16">
<path fill="#444" d="M10 0h-8v16h12v-12l-4-4zM9 5h4v10h-10v-14h6v4zM10 4v-3l3 3h-3z"></path>
<path fill="#444" d="M4 11.5v2.5h8v-1.7c0 0 0.1-1.3-1.3-1.5-1.3-0.2-1.5 0.4-2.5 0.5-0.8 0-0.6-1.3-2.2-1.3-1.2 0-2 1.5-2 1.5z"></path>
<path fill="#444" d="M12 8.5c0 0.828-0.672 1.5-1.5 1.5s-1.5-0.672-1.5-1.5c0-0.828 0.672-1.5 1.5-1.5s1.5 0.672 1.5 1.5z"></path>
</svg>
