<?xml version="1.0" encoding="utf-8"?>
<!-- Generated by IcoMoon.io -->
<!DOCTYPE svg PUBLIC "-//W3C//DTD SVG 1.1//EN" "http://www.w3.org/Graphics/SVG/1.1/DTD/svg11.dtd">
<svg version="1.1" xmlns="http://www.w3.org/2000/svg" xmlns:xlink="http://www.w3.org/1999/xlink" width="16" height="16" viewBox="0 0 16 16">
<path fill="#444" d="M10 0h-8v16h12v-12l-4-4zM9 15h-4v-2.8l0.7-2.2h2.4l0.9 2.2v2.8zM13 15h-3v-3l-1-3h-2v-1h-2v1l-1 3v3h-1v-14h4v1h2v1h-2v1h2v1h4v10zM10 4v-3l3 3h-3z"></path>
<path fill="#444" d="M5 6h2v1h-2v-1z"></path>
<path fill="#444" d="M5 2h2v1h-2v-1z"></path>
<path fill="#444" d="M5 4h2v1h-2v-1z"></path>
<path fill="#444" d="M7 5h2v1h-2v-1z"></path>
<path fill="#444" d="M7 7h2v1h-2v-1z"></path>
<path fill="#444" d="M6 12h2v2h-2v-2z"></path>
</svg>
