<?xml version="1.0" encoding="utf-8"?>
<!-- Generated by IcoMoon.io -->
<!DOCTYPE svg PUBLIC "-//W3C//DTD SVG 1.1//EN" "http://www.w3.org/Graphics/SVG/1.1/DTD/svg11.dtd">
<svg version="1.1" xmlns="http://www.w3.org/2000/svg" xmlns:xlink="http://www.w3.org/1999/xlink" width="16" height="16" viewBox="0 0 16 16">
<path fill="#444" d="M11.4 10.5c0 1.2-0.4 2.2-1 3l0.4 0.5c0.7-0.9 1.2-2.1 1.2-3.5s-0.5-2.6-1.2-3.5l-0.4 0.5c0.6 0.8 1 1.9 1 3z"></path>
<path fill="#444" d="M9.9 8l-0.4 0.5c0.4 0.5 0.7 1.2 0.7 2s-0.3 1.5-0.7 2l0.4 0.5c0.5-0.6 0.8-1.5 0.8-2.5s-0.3-1.8-0.8-2.5z"></path>
<path fill="#444" d="M9.1 9l-0.4 0.5c0.2 0.3 0.3 0.6 0.3 1s-0.1 0.7-0.3 1l0.4 0.5c0.3-0.4 0.5-0.9 0.5-1.5s-0.2-1.1-0.5-1.5z"></path>
<path fill="#444" d="M10 0h-8v16h12v-12l-4-4zM9 5h4v10h-10v-14h6v4zM10 4v-3l3 3h-3z"></path>
<path fill="#444" d="M6 9h-2v3h2l2 2v-7z"></path>
</svg>
