<?xml version="1.0" encoding="utf-8"?>
<!-- Generated by IcoMoon.io -->
<!DOCTYPE svg PUBLIC "-//W3C//DTD SVG 1.1//EN" "http://www.w3.org/Graphics/SVG/1.1/DTD/svg11.dtd">
<svg version="1.1" xmlns="http://www.w3.org/2000/svg" xmlns:xlink="http://www.w3.org/1999/xlink" width="64" height="64" viewBox="0 0 64 64">
<path fill="#444444" d="M40 0h-32v64h48v-48l-16-16zM36 60h-16v-11.2l2.8-8.8h9.6l3.6 8.8v11.2zM52 60h-12v-12l-4-12h-8v-4h-8v4l-4 12v12h-4v-56h16v4h8v4h-8v4h8v4h16v40zM40 16v-12l12 12h-12z"></path>
<path fill="#444444" d="M20 24h8v4h-8v-4z"></path>
<path fill="#444444" d="M20 8h8v4h-8v-4z"></path>
<path fill="#444444" d="M20 16h8v4h-8v-4z"></path>
<path fill="#444444" d="M28 20h8v4h-8v-4z"></path>
<path fill="#444444" d="M28 28h8v4h-8v-4z"></path>
<path fill="#444444" d="M24 48h8v8h-8v-8z"></path>
</svg>
