<?xml version="1.0" encoding="utf-8"?>
<!-- Generated by IcoMoon.io -->
<!DOCTYPE svg PUBLIC "-//W3C//DTD SVG 1.1//EN" "http://www.w3.org/Graphics/SVG/1.1/DTD/svg11.dtd">
<svg version="1.1" xmlns="http://www.w3.org/2000/svg" xmlns:xlink="http://www.w3.org/1999/xlink" width="16" height="16" viewBox="0 0 16 16">
<path fill="#444" d="M10 0h-8v16h12v-12l-4-4zM13 15h-10v-14h6v4h4v10zM10 4v-3l3 3h-3z"></path>
<path fill="#444" d="M4.7 7.7l-0.7-0.7v3h3l-1.2-1.2c0.4-0.8 1.3-1.3 2.2-1.3 1.4 0 2.5 1.1 2.5 2.5h1.5c0-2.2-1.8-4-4-4-1.3 0-2.5 0.7-3.3 1.7z"></path>
<path fill="#444" d="M9.8 11.8c-0.5 0.5-1.1 0.8-1.8 0.7-1 0-1.9-0.6-2.3-1.5h-1.6c0.4 1.7 2 3 3.8 3 1.1 0 2.1-0.5 2.8-1.2l1.3 1.2v-3h-3l0.8 0.8z"></path>
</svg>
