<?xml version="1.0" encoding="utf-8"?>
<!-- Generated by IcoMoon.io -->
<!DOCTYPE svg PUBLIC "-//W3C//DTD SVG 1.1//EN" "http://www.w3.org/Graphics/SVG/1.1/DTD/svg11.dtd">
<svg version="1.1" xmlns="http://www.w3.org/2000/svg" xmlns:xlink="http://www.w3.org/1999/xlink" width="64" height="64" viewBox="0 0 64 64">
<path fill="#444444" d="M40 0h-32v64h48v-48l-16-16zM36 20h16v40h-40v-56h24v16zM40 16v-12l12 12h-12z"></path>
<path fill="#444444" d="M16 46v10h32v-6.8c0 0 0.4-5.2-5.2-6-5.2-0.8-6 1.6-10 2-3.2 0-2.4-5.2-8.8-5.2-4.8 0-8 6-8 6z"></path>
<path fill="#444444" d="M48 34c0 3.314-2.686 6-6 6s-6-2.686-6-6c0-3.314 2.686-6 6-6s6 2.686 6 6z"></path>
</svg>
