<?xml version="1.0" encoding="utf-8"?>
<!-- Generated by IcoMoon.io -->
<!DOCTYPE svg PUBLIC "-//W3C//DTD SVG 1.1//EN" "http://www.w3.org/Graphics/SVG/1.1/DTD/svg11.dtd">
<svg version="1.1" xmlns="http://www.w3.org/2000/svg" xmlns:xlink="http://www.w3.org/1999/xlink" width="64" height="64" viewBox="0 0 64 64">
<path fill="#444444" d="M40 0h-32v64h48v-48l-16-16zM52 60h-40v-56h24v16h16v40zM40 16v-12l12 12h-12z"></path>
<path fill="#444444" d="M18.8 30.8l-2.8-2.8v12h12l-4.8-4.8c1.6-3.2 5.2-5.2 8.8-5.2 5.6 0 10 4.4 10 10h6c0-8.8-7.2-16-16-16-5.2 0-10 2.8-13.2 6.8z"></path>
<path fill="#444444" d="M39.2 47.2c-2 2-4.4 3.2-7.2 2.8-4 0-7.6-2.4-9.2-6h-6.4c1.6 6.8 8 12 15.2 12 4.4 0 8.4-2 11.2-4.8l5.2 4.8v-12h-12l3.2 3.2z"></path>
</svg>
