<?xml version="1.0" encoding="utf-8"?>
<!-- Generated by IcoMoon.io -->
<!DOCTYPE svg PUBLIC "-//W3C//DTD SVG 1.1//EN" "http://www.w3.org/Graphics/SVG/1.1/DTD/svg11.dtd">
<svg version="1.1" xmlns="http://www.w3.org/2000/svg" xmlns:xlink="http://www.w3.org/1999/xlink" width="16" height="16" viewBox="0 0 16 16">
<path fill="#444" d="M12 13.47v1.53h-10v-14h6v4h4v0.56c0.386 0.229 0.716 0.504 0.996 0.825l0.004-2.385-4-4h-8v16h12v-1.53zM9 1l3 3h-3v-3z"></path>
<path fill="#444" d="M14.78 12.72l-1.92-1.92c-0.089-0.085-0.201-0.148-0.325-0.179 0.292-0.458 0.468-1.018 0.468-1.618 0-1.657-1.343-3-3-3s-3 1.343-3 3c0 1.657 1.343 3 3 3 0.6 0 1.16-0.176 1.629-0.48 0.020 0.136 0.083 0.248 0.169 0.337l1.92 1.92c0.134 0.125 0.313 0.201 0.511 0.201 0.414 0 0.75-0.336 0.75-0.75 0-0.198-0.077-0.378-0.202-0.512zM10 11c-1.105 0-2-0.895-2-2s0.895-2 2-2c1.105 0 2 0.895 2 2s-0.895 2-2 2z"></path>
</svg>
