<?xml version="1.0" encoding="utf-8"?>
<!-- Generated by IcoMoon.io -->
<!DOCTYPE svg PUBLIC "-//W3C//DTD SVG 1.1//EN" "http://www.w3.org/Graphics/SVG/1.1/DTD/svg11.dtd">
<svg version="1.1" xmlns="http://www.w3.org/2000/svg" xmlns:xlink="http://www.w3.org/1999/xlink" width="64" height="64" viewBox="0 0 64 64">
<path fill="#444444" d="M45.6 42c0 4.8-1.6 8.8-4 12l1.6 2c2.8-3.6 4.8-8.4 4.8-14s-2-10.4-4.8-14l-1.6 2c2.4 3.2 4 7.6 4 12z"></path>
<path fill="#444444" d="M39.6 32l-1.6 2c1.6 2 2.8 4.8 2.8 8s-1.2 6-2.8 8l1.6 2c2-2.4 3.2-6 3.2-10s-1.2-7.2-3.2-10z"></path>
<path fill="#444444" d="M36.4 36l-1.6 2c0.8 1.2 1.2 2.4 1.2 4s-0.4 2.8-1.2 4l1.6 2c1.2-1.6 2-3.6 2-6s-0.8-4.4-2-6z"></path>
<path fill="#444444" d="M40 0h-32v64h48v-48l-16-16zM36 20h16v40h-40v-56h24v16zM40 16v-12l12 12h-12z"></path>
<path fill="#444444" d="M24 36h-8v12h8l8 8v-28z"></path>
</svg>
