<?xml version="1.0" encoding="utf-8"?>
<!-- Generated by IcoMoon.io -->
<!DOCTYPE svg PUBLIC "-//W3C//DTD SVG 1.1//EN" "http://www.w3.org/Graphics/SVG/1.1/DTD/svg11.dtd">
<svg version="1.1" xmlns="http://www.w3.org/2000/svg" xmlns:xlink="http://www.w3.org/1999/xlink" width="64" height="64" viewBox="0 0 64 64">
<path fill="#444444" d="M40 0h-32v64h48v-48l-16-16zM36 20h16v40h-40v-56h24v16zM40 16v-12l12 12h-12z"></path>
<path fill="#444444" d="M16 28v24h32v-24h-32zM24 48h-4v-4h4v4zM24 40h-4v-4h4v4zM36 48h-8v-4h8v4zM36 40h-8v-4h8v4zM44 48h-4v-4h4v4zM44 40h-4v-4h4v4z"></path>
</svg>
