<?xml version="1.0" encoding="utf-8"?>
<!-- Generated by IcoMoon.io -->
<!DOCTYPE svg PUBLIC "-//W3C//DTD SVG 1.1//EN" "http://www.w3.org/Graphics/SVG/1.1/DTD/svg11.dtd">
<svg version="1.1" xmlns="http://www.w3.org/2000/svg" xmlns:xlink="http://www.w3.org/1999/xlink" width="16" height="16" viewBox="0 0 16 16">
<path fill="#444" d="M10 0h-8v16h12v-12l-4-4zM9 5h4v10h-10v-14h6v4zM10 4v-3l3 3h-3z"></path>
<path fill="#444" d="M4 7v6h8v-6h-8zM6 12h-1v-1h1v1zM6 10h-1v-1h1v1zM9 12h-2v-1h2v1zM9 10h-2v-1h2v1zM11 12h-1v-1h1v1zM11 10h-1v-1h1v1z"></path>
</svg>
