<?xml version="1.0" encoding="utf-8"?>
<!-- Generated by IcoMoon.io -->
<!DOCTYPE svg PUBLIC "-//W3C//DTD SVG 1.1//EN" "http://www.w3.org/Graphics/SVG/1.1/DTD/svg11.dtd">
<svg version="1.1" xmlns="http://www.w3.org/2000/svg" xmlns:xlink="http://www.w3.org/1999/xlink" width="64" height="64" viewBox="0 0 64 64">
<path fill="#444444" d="M28.4 6.8l-4.8 4.4-9.2-9.6c-2.4-2-6.4-2-8.8 0-0.8 1.2-1.6 2.8-1.6 4.4s0.8 3.2 1.6 4.4l9.6 9.6-15.2 14.8 25.6 25.6 28-28.4-25.2-25.2zM8.4 7.6c0-0.4-0.4-1.2-0.4-1.6s0.4-1.2 0.4-1.6c0.8-0.4 2.4-0.4 3.2 0l9.6 9.6-3.2 2.8-9.6-9.2zM8.4 32l15.2-15.2 4.8 4.8c0.4 0.4 0.8 0.4 1.6 0.4s1.2 0 1.6-0.4c0.4-0.8 0.4-2-0.4-2.8l-4.8-4.8 1.6-1.6 20 19.6h-39.6z"></path>
<path fill="#444444" d="M54 36c0 0-6 18.8-6 22s2.8 6 6 6 6-2.8 6-6-6-22-6-22z"></path>
</svg>
