<?xml version="1.0" encoding="utf-8"?>
<!-- Generated by IcoMoon.io -->
<!DOCTYPE svg PUBLIC "-//W3C//DTD SVG 1.1//EN" "http://www.w3.org/Graphics/SVG/1.1/DTD/svg11.dtd">
<svg version="1.1" xmlns="http://www.w3.org/2000/svg" xmlns:xlink="http://www.w3.org/1999/xlink" width="16" height="16" viewBox="0 0 16 16">
<path fill="#444" d="M13 14.5c0.468-2.207 0.985-4.050 1.604-5.846 0.411 1.796 0.928 3.638 1.337 5.521 0.059 1.153-0.612 1.825-1.441 1.825s-1.5-0.672-1.5-1.5z"></path>
<path fill="#444" d="M8 1l-1.44 1.44-2-2c-0.276-0.262-0.649-0.423-1.060-0.423s-0.784 0.161-1.061 0.423c-0.27 0.271-0.438 0.645-0.438 1.059s0.168 0.789 0.439 1.060l2 2-4.44 4.44 7 7 8-8zM8 2.41l5.59 5.59h-11.18l2.75-2.75c0.071 0.042 0.156 0.067 0.247 0.067 0.271 0 0.49-0.219 0.49-0.49 0-0.091-0.025-0.176-0.068-0.249l0.721-0.718 1.54 1.53c0.091 0.091 0.216 0.147 0.355 0.147 0.277 0 0.502-0.225 0.502-0.502 0-0.139-0.056-0.264-0.147-0.355l-1.53-1.53zM3.15 1.85c-0.091-0.091-0.148-0.216-0.148-0.355s0.057-0.264 0.148-0.355c0.092-0.089 0.217-0.144 0.355-0.144s0.263 0.055 0.355 0.144l2 2-0.71 0.71z"></path>
</svg>
