<?xml version="1.0" encoding="utf-8"?>
<!-- Generated by IcoMoon.io -->
<!DOCTYPE svg PUBLIC "-//W3C//DTD SVG 1.1//EN" "http://www.w3.org/Graphics/SVG/1.1/DTD/svg11.dtd">
<svg version="1.1" xmlns="http://www.w3.org/2000/svg" xmlns:xlink="http://www.w3.org/1999/xlink" width="16" height="16" viewBox="0 0 16 16">
<path fill="#444" d="M0 0v16h1v-1h1v1h12v-1h1v1h1v-16h-16zM2 14h-1v-1h1v1zM2 12h-1v-1h1v1zM2 10h-1v-1h1v1zM2 8h-1v-1h1v1zM2 6h-1v-1h1v1zM2 4h-1v-1h1v1zM2 2h-1v-1h1v1zM13 15h-10v-6h10v6zM13 7h-10v-6h10v6zM15 14h-1v-1h1v1zM15 12h-1v-1h1v1zM15 10h-1v-1h1v1zM15 8h-1v-1h1v1zM15 6h-1v-1h1v1zM15 4h-1v-1h1v1zM15 2h-1v-1h1v1z"></path>
</svg>
