<?xml version="1.0" encoding="utf-8"?>
<!-- Generated by IcoMoon.io -->
<!DOCTYPE svg PUBLIC "-//W3C//DTD SVG 1.1//EN" "http://www.w3.org/Graphics/SVG/1.1/DTD/svg11.dtd">
<svg version="1.1" xmlns="http://www.w3.org/2000/svg" xmlns:xlink="http://www.w3.org/1999/xlink" width="64" height="64" viewBox="0 0 64 64">
<path fill="#444444" d="M0 0v64h4v-4h4v4h48v-4h4v4h4v-64h-64zM8 56h-4v-4h4v4zM8 48h-4v-4h4v4zM8 40h-4v-4h4v4zM8 32h-4v-4h4v4zM8 24h-4v-4h4v4zM8 16h-4v-4h4v4zM8 8h-4v-4h4v4zM52 60h-40v-24h40v24zM52 28h-40v-24h40v24zM60 56h-4v-4h4v4zM60 48h-4v-4h4v4zM60 40h-4v-4h4v4zM60 32h-4v-4h4v4zM60 24h-4v-4h4v4zM60 16h-4v-4h4v4zM60 8h-4v-4h4v4z"></path>
</svg>
