<?xml version="1.0" encoding="utf-8"?>
<!-- Generated by IcoMoon.io -->
<!DOCTYPE svg PUBLIC "-//W3C//DTD SVG 1.1//EN" "http://www.w3.org/Graphics/SVG/1.1/DTD/svg11.dtd">
<svg version="1.1" xmlns="http://www.w3.org/2000/svg" xmlns:xlink="http://www.w3.org/1999/xlink" width="64" height="64" viewBox="0 0 64 64">
<path fill="#444444" d="M19.6 63.2c0 0-15.6-1.6-15.6-22.8 0-16.4 12.4-26 12.4-26s5.2 5.6 9.2 7.6c4 2.4 5.6-22 5.6-22s28.8 15.6 28.8 39.2c0 24.4-16 23.6-16 23.6s7.2-9.6 7.2-20.8c0-12-15.6-26.8-15.6-26.8s-2 17.6-8.4 20c-6.4-3.6-10-9.2-10-9.2s-14.8 23.2 2.4 37.2z"></path>
<path fill="#444444" d="M32.8 64.4c-8-0.4-14.8-5.6-14.8-12.8s2.8-10.4 2.8-10.4 2 4 4.4 6 7.2 3.2 9.6 0.4c2.4-2.4 3.2-9.2 3.2-9.2s5.6 4.4 4.8 12c-0.4 8-3.6 14-10 14z"></path>
</svg>
