<?xml version="1.0" encoding="utf-8"?>
<!-- Generated by IcoMoon.io -->
<!DOCTYPE svg PUBLIC "-//W3C//DTD SVG 1.1//EN" "http://www.w3.org/Graphics/SVG/1.1/DTD/svg11.dtd">
<svg version="1.1" xmlns="http://www.w3.org/2000/svg" xmlns:xlink="http://www.w3.org/1999/xlink" width="16" height="16" viewBox="0 0 16 16">
<path fill="#444" d="M4.9 15.8c0 0-3.9-0.4-3.9-5.7 0-4.1 3.1-6.5 3.1-6.5s1.3 1.4 2.3 1.9c1 0.6 1.4-5.5 1.4-5.5s7.2 3.9 7.2 9.8c0 6.1-4 5.9-4 5.9s1.8-2.4 1.8-5.2c0-3-3.9-6.7-3.9-6.7s-0.5 4.4-2.1 5c-1.6-0.9-2.5-2.3-2.5-2.3s-3.7 5.8 0.6 9.3z"></path>
<path fill="#444" d="M8.2 16.1c-2-0.1-3.7-1.4-3.7-3.2s0.7-2.6 0.7-2.6 0.5 1 1.1 1.5 1.8 0.8 2.4 0.1c0.6-0.6 0.8-2.3 0.8-2.3s1.4 1.1 1.2 3c-0.1 2-0.9 3.5-2.5 3.5z"></path>
</svg>
