<?xml version="1.0" encoding="utf-8"?>
<!-- Generated by IcoMoon.io -->
<!DOCTYPE svg PUBLIC "-//W3C//DTD SVG 1.1//EN" "http://www.w3.org/Graphics/SVG/1.1/DTD/svg11.dtd">
<svg version="1.1" xmlns="http://www.w3.org/2000/svg" xmlns:xlink="http://www.w3.org/1999/xlink" width="64" height="64" viewBox="0 0 64 64">
<path fill="#444444" d="M16 8c0-4.4-3.6-8-8-8s-8 3.6-8 8c0 2.8 1.6 5.6 4 6.8v49.2h8v-49.2c2.4-1.2 4-4 4-6.8z"></path>
<path fill="#444444" d="M30.4 8c4.8 0 6.4 0.8 8.4 1.6 2 1.2 4.4 2.4 9.2 2.4s8.8-0.8 12-2v25.2c-0.8 1.2-3.6 4.8-12 4.8-3.6 0-5.2-0.8-7.6-1.6-2.8-1.2-6-2.4-12.4-2.4-3.2 0-6 0.8-8 2v-21.2c0.8-2 4-8.8 10.4-8.8zM64 4c0 0-6.4 4-16 4-8.4 0-7.2-4-17.6-4s-14.4 12-14.4 12v32c0 0 2.8-8 12-8 10.8 0 11.2 4 20 4 13.2 0 16-8 16-8v-32z"></path>
</svg>
