<?xml version="1.0" encoding="utf-8"?>
<!-- Generated by IcoMoon.io -->
<!DOCTYPE svg PUBLIC "-//W3C//DTD SVG 1.1//EN" "http://www.w3.org/Graphics/SVG/1.1/DTD/svg11.dtd">
<svg version="1.1" xmlns="http://www.w3.org/2000/svg" xmlns:xlink="http://www.w3.org/1999/xlink" width="16" height="16" viewBox="0 0 16 16">
<path fill="#444" d="M4 2c0-1.1-0.9-2-2-2s-2 0.9-2 2c0 0.7 0.4 1.4 1 1.7v12.3h2v-12.3c0.6-0.3 1-1 1-1.7z"></path>
<path fill="#444" d="M4 4c0 0 1-3 3.6-3 2.7 0 2.3 1 4.4 1 2.4 0 4-1 4-1v8c0 0-0.7 2-4 2-2.2 0-2.3-1-5-1-2.3 0-3 2-3 2v-8z"></path>
</svg>
