<?xml version="1.0" encoding="utf-8"?>
<!-- Generated by IcoMoon.io -->
<!DOCTYPE svg PUBLIC "-//W3C//DTD SVG 1.1//EN" "http://www.w3.org/Graphics/SVG/1.1/DTD/svg11.dtd">
<svg version="1.1" xmlns="http://www.w3.org/2000/svg" xmlns:xlink="http://www.w3.org/1999/xlink" width="64" height="64" viewBox="0 0 64 64">
<path fill="#444444" d="M8 0c-4.4 0-8 3.6-8 8 0 2.8 1.6 5.6 4 6.8v49.2h8v-49.2c2.4-1.2 4-4 4-6.8 0-4.4-3.6-8-8-8z"></path>
<path fill="#444444" d="M48 8c-8.4 0-7.2-4-17.6-4s-14.4 12-14.4 12v32c0 0 2.8-8 12-8 10.8 0 11.2 4 20 4 13.2 0 16-8 16-8v-32c0 0-6.4 4-16 4zM60 18c-0.8 0.8-3.2 1.6-8 2.4v-8.8c3.2-0.4 6-0.8 8-1.6v8zM20 31.6v-10.4c1.6-2.4 4.4-4.4 8-4.4v-8.4c0.8-0.4 1.6-0.4 2.4-0.4 4.8 0 6.4 0.8 8.4 1.6 0.4 0.4 0.8 0.8 1.2 0.8v8.8c2 0.8 4.4 1.6 8 1.6 1.6 0 2.8 0 4-0.4v10.4c-1.2 0-2.4 0.4-4 0.4-4.4 0-6-0.8-8-2v9.2c-2.8-1.2-6-2.4-12-2.4v-8.8c-3.6 0.8-6 2.4-8 4.4zM52 39.6v-8.8c4.4-0.8 6.8-2.4 8-3.2v7.2c-0.8 1.2-2.8 4-8 4.8z"></path>
<path fill="#444444" d="M40 28.8v-9.6c0 0-4.8-2.4-12-2.4v10.4c6.8-1.6 12 1.6 12 1.6z"></path>
</svg>
