<?xml version="1.0" encoding="utf-8"?>
<!-- Generated by IcoMoon.io -->
<!DOCTYPE svg PUBLIC "-//W3C//DTD SVG 1.1//EN" "http://www.w3.org/Graphics/SVG/1.1/DTD/svg11.dtd">
<svg version="1.1" xmlns="http://www.w3.org/2000/svg" xmlns:xlink="http://www.w3.org/1999/xlink" width="16" height="16" viewBox="0 0 16 16">
<path fill="#444" d="M13.64 7c-0.71-0.2-1.89-0.43-3.23-0.67l-3.82-4.24c-0.209-0.23-0.462-0.416-0.746-0.544l-1.194-0.546c-0.090 0-0.15 0-0.1 0.11s1.45 2.89 2.29 4.59c-1.84-0.29-3.5-0.53-4.23-0.63-0.258-0.047-0.474-0.198-0.608-0.406l-0.722-1.074c-0.115-0.168-0.28-0.294-0.474-0.358l-0.806-0.232 0.61 3.26c0.067 0.34 0.318 0.609 0.644 0.699 1.326 0.381 4.816 1.341 7.526 1.921 6 1.28 6.8 1.28 7.12 0.91s-0.67-2.38-2.26-2.79z"></path>
<path fill="#444" d="M0 13h16v1h-16v-1z"></path>
</svg>
