<?xml version="1.0" encoding="utf-8"?>
<!-- Generated by IcoMoon.io -->
<!DOCTYPE svg PUBLIC "-//W3C//DTD SVG 1.1//EN" "http://www.w3.org/Graphics/SVG/1.1/DTD/svg11.dtd">
<svg version="1.1" xmlns="http://www.w3.org/2000/svg" xmlns:xlink="http://www.w3.org/1999/xlink" width="16" height="16" viewBox="0 0 16 16">
<path fill="#444" d="M12.57 2.26c-0.65 0.29-1.66 0.85-2.8 1.5l-5.46-0.76c-0.093-0.014-0.2-0.022-0.309-0.022-0.211 0-0.414 0.030-0.607 0.086l-1.185 0.336c-0.1 0-0.1 0.1 0 0.14l4.56 2c-1.54 0.92-2.91 1.76-3.51 2.14-0.13 0.082-0.288 0.13-0.458 0.13-0.094 0-0.184-0.015-0.268-0.042l-1.194-0.378c-0.086-0.031-0.186-0.049-0.29-0.049s-0.204 0.018-0.296 0.051l-0.754 0.308 2.52 2.1c0.152 0.127 0.349 0.205 0.565 0.205 0.129 0 0.251-0.028 0.361-0.077 1.204-0.538 4.374-1.998 6.734-3.228 5.24-2.78 5.82-3.26 5.82-3.7 0-0.69-2-1.4-3.43-0.74z"></path>
<path fill="#444" d="M0 13h16v1h-16v-1z"></path>
</svg>
