<?xml version="1.0" encoding="utf-8"?>
<!-- Generated by IcoMoon.io -->
<!DOCTYPE svg PUBLIC "-//W3C//DTD SVG 1.1//EN" "http://www.w3.org/Graphics/SVG/1.1/DTD/svg11.dtd">
<svg version="1.1" xmlns="http://www.w3.org/2000/svg" xmlns:xlink="http://www.w3.org/1999/xlink" width="16" height="16" viewBox="0 0 16 16">
<path fill="#444" d="M1 1l5 6 4.94-6h-9.94z"></path>
<path fill="#444" d="M5.94 10l-4.94 6h10zM3.12 15l2.83-3.44 3 3.44h-5.83z"></path>
<path fill="#444" d="M10 8h1v1h-1v-1z"></path>
<path fill="#444" d="M12 8h1v1h-1v-1z"></path>
<path fill="#444" d="M8 8h1v1h-1v-1z"></path>
<path fill="#444" d="M6 8h1v1h-1v-1z"></path>
<path fill="#444" d="M4 8h1v1h-1v-1z"></path>
<path fill="#444" d="M2 8h1v1h-1v-1z"></path>
<path fill="#444" d="M0 8h1v1h-1v-1z"></path>
<path fill="#444" d="M15 8.47v0c-0.059 1.485-0.782 2.789-1.879 3.632l-1.121-1.102v3h3l-1.18-1.18c1.293-1.031 2.128-2.588 2.18-4.342l0-0.008c-0.092-2.083-1.223-3.883-2.884-4.905l-0.596 0.805c1.423 0.857 2.383 2.357 2.479 4.087z"></path>
</svg>
