<?xml version="1.0" encoding="utf-8"?>
<!-- Generated by IcoMoon.io -->
<!DOCTYPE svg PUBLIC "-//W3C//DTD SVG 1.1//EN" "http://www.w3.org/Graphics/SVG/1.1/DTD/svg11.dtd">
<svg version="1.1" xmlns="http://www.w3.org/2000/svg" xmlns:xlink="http://www.w3.org/1999/xlink" width="64" height="64" viewBox="0 0 64 64">
<path fill="#444444" d="M0 60l24-20-24-19.6z"></path>
<path fill="#444444" d="M36 40.4l24 19.6v-40l-24 20.4zM56 51.6l-13.6-11.2 13.6-12v23.2z"></path>
<path fill="#444444" d="M28 20h4v4h-4v-4z"></path>
<path fill="#444444" d="M28 12h4v4h-4v-4z"></path>
<path fill="#444444" d="M28 28h4v4h-4v-4z"></path>
<path fill="#444444" d="M28 36h4v4h-4v-4z"></path>
<path fill="#444444" d="M28 44h4v4h-4v-4z"></path>
<path fill="#444444" d="M28 52h4v4h-4v-4z"></path>
<path fill="#444444" d="M28 60h4v4h-4v-4z"></path>
<path fill="#444444" d="M30 4v0c5.2 0 10.4 2.8 14.4 7.6l-4.4 4.4h12v-12l-4.8 4.8c-4.8-5.6-10.8-8.8-17.2-8.8 0 0 0 0 0 0-7.6 0-14.4 4-19.6 11.6l3.2 2.4c4.4-6.4 10-10 16.4-10z"></path>
</svg>
