<?xml version="1.0" encoding="utf-8"?>
<!-- Generated by IcoMoon.io -->
<!DOCTYPE svg PUBLIC "-//W3C//DTD SVG 1.1//EN" "http://www.w3.org/Graphics/SVG/1.1/DTD/svg11.dtd">
<svg version="1.1" xmlns="http://www.w3.org/2000/svg" xmlns:xlink="http://www.w3.org/1999/xlink" width="64" height="64" viewBox="0 0 64 64">
<path fill="#444444" d="M4 0l20 24 19.6-24z"></path>
<path fill="#444444" d="M23.6 36l-19.6 24h40l-20.4-24zM12.4 56l11.2-13.6 12 13.6h-23.2z"></path>
<path fill="#444444" d="M40 28h4v4h-4v-4z"></path>
<path fill="#444444" d="M48 28h4v4h-4v-4z"></path>
<path fill="#444444" d="M32 28h4v4h-4v-4z"></path>
<path fill="#444444" d="M24 28h4v4h-4v-4z"></path>
<path fill="#444444" d="M16 28h4v4h-4v-4z"></path>
<path fill="#444444" d="M8 28h4v4h-4v-4z"></path>
<path fill="#444444" d="M0 28h4v4h-4v-4z"></path>
<path fill="#444444" d="M60 30v0c0 5.2-2.8 10.4-7.6 14.4l-4.4-4.4v12h12l-4.8-4.8c5.6-4.8 8.8-10.8 8.8-17.2 0 0 0 0 0 0 0-7.6-4-14.4-11.6-19.6l-2.4 3.2c6.4 4.4 10 10 10 16.4z"></path>
</svg>
