<?xml version="1.0" encoding="utf-8"?>
<!-- Generated by IcoMoon.io -->
<!DOCTYPE svg PUBLIC "-//W3C//DTD SVG 1.1//EN" "http://www.w3.org/Graphics/SVG/1.1/DTD/svg11.dtd">
<svg version="1.1" xmlns="http://www.w3.org/2000/svg" xmlns:xlink="http://www.w3.org/1999/xlink" width="64" height="64" viewBox="0 0 64 64">
<path fill="#444444" d="M44.8 8h-25.6c-10.4 0-19.2 8.8-19.2 19.2v24c0 4.8 4 8.8 8.8 8.8h0.8c3.6 0 7.2-2.4 8.4-6s4.4-6 8.4-6h11.2c3.6 0 7.2 2.4 8.4 6s4.4 6 8.4 6h0.8c4.8 0 8.8-4 8.8-8.8v-24c0-10.4-8.8-19.2-19.2-19.2zM28 36h-8v8h-8v-8h-8v-8h8v-8h8v8h8v8zM42 40c-3.2 0-6-2.8-6-6s2.8-6 6-6c3.2 0 6 2.8 6 6s-2.8 6-6 6zM54 32c-3.2 0-6-2.8-6-6s2.8-6 6-6c3.2 0 6 2.8 6 6s-2.8 6-6 6z"></path>
</svg>
