<?xml version="1.0" encoding="utf-8"?>
<!-- Generated by IcoMoon.io -->
<!DOCTYPE svg PUBLIC "-//W3C//DTD SVG 1.1//EN" "http://www.w3.org/Graphics/SVG/1.1/DTD/svg11.dtd">
<svg version="1.1" xmlns="http://www.w3.org/2000/svg" xmlns:xlink="http://www.w3.org/1999/xlink" width="16" height="16" viewBox="0 0 16 16">
<path fill="#444" d="M6.4 4.1v0c-0.4-0.4-0.4-0.9-0.1-1.2l2.6-2.6c0.3-0.3 0.8-0.3 1.2 0l0.1 0.1c0.3 0.3 0.3 0.8 0 1.2l-2.6 2.5c-0.3 0.3-0.9 0.3-1.2 0z"></path>
<path fill="#444" d="M12 9.7v0c-0.4-0.4-0.4-0.9-0.1-1.3l2.6-2.6c0.3-0.3 0.8-0.3 1.2 0l0.1 0.1c0.3 0.3 0.3 0.8 0 1.2l-2.6 2.6c-0.4 0.3-0.9 0.3-1.2 0z"></path>
<path fill="#444" d="M10 7.7l-1.7-1.7c-0.4-0.4-0.4-1 0-1.4l2.3-2.3c0.4-0.4 1-0.4 1.4 0l1.7 1.7c0.4 0.4 0.4 1 0 1.4l-2.3 2.3c-0.4 0.4-1 0.4-1.4 0z"></path>
<path fill="#444" d="M4 14.2c0.6-0.6 4-5.6 4.5-5.3 0.4 0.2 1-0.5 1-0.5l-1.9-1.9c0 0-0.7 0.6-0.5 1 0.3 0.5-4.7 3.9-5.3 4.5 0 0-2.8 2.2-1.4 3.6s3.6-1.4 3.6-1.4z"></path>
</svg>
