<?xml version="1.0" encoding="utf-8"?>
<!-- Generated by IcoMoon.io -->
<!DOCTYPE svg PUBLIC "-//W3C//DTD SVG 1.1//EN" "http://www.w3.org/Graphics/SVG/1.1/DTD/svg11.dtd">
<svg version="1.1" xmlns="http://www.w3.org/2000/svg" xmlns:xlink="http://www.w3.org/1999/xlink" width="64" height="64" viewBox="0 0 64 64">
<path fill="#444444" d="M25.6 16.4v0c-1.6-1.6-1.6-3.6-0.4-4.8l10.4-10.4c1.2-1.2 3.2-1.2 4.8 0l0.4 0.4c1.2 1.2 1.2 3.2 0 4.8l-10.4 10c-1.2 1.2-3.6 1.2-4.8 0z"></path>
<path fill="#444444" d="M48 38.8v0c-1.6-1.6-1.6-3.6-0.4-5.2l10.4-10.4c1.2-1.2 3.2-1.2 4.8 0l0.4 0.4c1.2 1.2 1.2 3.2 0 4.8l-10.4 10.4c-1.6 1.2-3.6 1.2-4.8 0z"></path>
<path fill="#444444" d="M40 30.8l-6.8-6.8c-1.6-1.6-1.6-4 0-5.6l9.2-9.2c1.6-1.6 4-1.6 5.6 0l6.8 6.8c1.6 1.6 1.6 4 0 5.6l-9.2 9.2c-1.6 1.6-4 1.6-5.6 0z"></path>
<path fill="#444444" d="M16 56.8c2.4-2.4 16-22.4 18-21.2 1.6 0.8 4-2 4-2l-7.6-7.6c0 0-2.8 2.4-2 4 1.2 2-18.8 15.6-21.2 18 0 0-11.2 8.8-5.6 14.4s14.4-5.6 14.4-5.6z"></path>
</svg>
