<?xml version="1.0" encoding="utf-8"?>
<!-- Generated by IcoMoon.io -->
<!DOCTYPE svg PUBLIC "-//W3C//DTD SVG 1.1//EN" "http://www.w3.org/Graphics/SVG/1.1/DTD/svg11.dtd">
<svg version="1.1" xmlns="http://www.w3.org/2000/svg" xmlns:xlink="http://www.w3.org/1999/xlink" width="64" height="64" viewBox="0 0 64 64">
<path fill="#444444" d="M40.4 20c8-1.2 15.6-4.4 8.8-14.4-2.8-4-5.6-5.6-8-5.6-4 0-6.8 4.4-9.2 8.8-2.4-4.4-5.2-8.8-9.2-8.8-2.4 0-5.2 1.6-8 5.6-7.2 10 0.8 13.2 8.8 14.4h-23.6v12h64v-12h-23.6zM41.2 4c0.4 0 2 0.4 4.8 4 2 2.8 2.4 4.4 2 5.2-0.8 1.2-5.2 2.8-13.2 3.2 0-0.8-0.4-1.6-0.8-2.4 2.4-5.6 5.2-10 7.2-10zM16 13.2c-0.4-0.8 0-2.4 2-5.2 2.8-3.6 4.4-4 4.8-4 2 0 4.8 4.4 7.2 10-0.4 0.8-0.8 1.6-0.8 2.4-8-0.4-12.4-2-13.2-3.2zM28 28v-8h8v8h-8z"></path>
<path fill="#444444" d="M36 60h-8v-24h-24v28h56v-28h-24z"></path>
</svg>
