<?xml version="1.0" encoding="utf-8"?>
<!-- Generated by IcoMoon.io -->
<!DOCTYPE svg PUBLIC "-//W3C//DTD SVG 1.1//EN" "http://www.w3.org/Graphics/SVG/1.1/DTD/svg11.dtd">
<svg version="1.1" xmlns="http://www.w3.org/2000/svg" xmlns:xlink="http://www.w3.org/1999/xlink" width="16" height="16" viewBox="0 0 16 16">
<path fill="#444" d="M10.1 5c2-0.3 3.9-1.1 2.2-3.6-0.7-1-1.4-1.4-2-1.4-1 0-1.7 1.1-2.3 2.2-0.6-1.1-1.3-2.2-2.3-2.2-0.6 0-1.3 0.4-2 1.4-1.8 2.5 0.2 3.3 2.2 3.6h-5.9v3h16v-3h-5.9zM10.3 1c0.1 0 0.5 0.1 1.2 1 0.5 0.7 0.6 1.1 0.5 1.3-0.2 0.3-1.3 0.7-3.3 0.8 0-0.2-0.1-0.4-0.2-0.6 0.6-1.4 1.3-2.5 1.8-2.5zM4 3.3c-0.1-0.2 0-0.6 0.5-1.3 0.7-0.9 1.1-1 1.2-1 0.5 0 1.2 1.1 1.8 2.5-0.1 0.2-0.2 0.4-0.2 0.6-2-0.1-3.1-0.5-3.3-0.8zM7 7v-2h2v2h-2z"></path>
<path fill="#444" d="M9 15h-2v-6h-6v7h14v-7h-6z"></path>
</svg>
