<?xml version="1.0" encoding="utf-8"?>
<!-- Generated by IcoMoon.io -->
<!DOCTYPE svg PUBLIC "-//W3C//DTD SVG 1.1//EN" "http://www.w3.org/Graphics/SVG/1.1/DTD/svg11.dtd">
<svg version="1.1" xmlns="http://www.w3.org/2000/svg" xmlns:xlink="http://www.w3.org/1999/xlink" width="64" height="64" viewBox="0 0 64 64">
<path fill="#444444" d="M62 28h-2c-0.4 0-0.4 0-0.8 0-1.6-4.8-6-8-11.2-8s-9.6 3.6-11.2 8.4c-1.2-1.6-2.8-2.4-4.8-2.4s-3.6 0.8-4.8 2.4c-1.6-4.8-6-8.4-11.2-8.4s-9.6 3.6-11.2 8c-0.4 0-0.4 0-0.8 0h-2c-1.2 0-2 0.8-2 2s0.8 2 2 2h2c0 6.8 5.2 12 12 12 6 0 10.8-4.4 12-10 0 0 0 0 0 0 1.2 0 2-0.8 2-2s0.8-2 2-2 2 0.8 2 2c0 1.2 0.8 2 2 2 0 0 0 0 0 0 0.8 5.6 6 10 12 10 6.8 0 12-5.2 12-12h2c1.2 0 2-0.8 2-2s-0.8-2-2-2zM16 40c-4.4 0-8-3.6-8-8s3.6-8 8-8 8 3.6 8 8-3.6 8-8 8zM48 40c-4.4 0-8-3.6-8-8s3.6-8 8-8 8 3.6 8 8-3.6 8-8 8z"></path>
</svg>
