<?xml version="1.0" encoding="utf-8"?>
<!-- Generated by IcoMoon.io -->
<!DOCTYPE svg PUBLIC "-//W3C//DTD SVG 1.1//EN" "http://www.w3.org/Graphics/SVG/1.1/DTD/svg11.dtd">
<svg version="1.1" xmlns="http://www.w3.org/2000/svg" xmlns:xlink="http://www.w3.org/1999/xlink" width="64" height="64" viewBox="0 0 64 64">
<path fill="#444444" d="M32 0c-17.6 0-32 14.4-32 32s14.4 32 32 32 32-14.4 32-32-14.4-32-32-32zM52.8 21.2c1.6 0 2.8 1.2 4.4 1.2-1.2 1.6-6.4 1.6-8-0.4 1.2-0.4 2-0.8 3.6-0.8zM4 32c0-1.6 0-3.2 0.4-5.2 0.4 0 0.8 0.4 1.2 0.4 0 0 0.4 0.4 0.4 0.8 0 1.2 1.2 2 2 2 3.2 0.4 4.4 3.2 7.2 4 0.8 0.4 0.4 1.2 0 2-2.4 3.2-0.4 5.6 1.6 7.6 2 1.6 2 3.2 2.4 5.6 0 2.8 0.4 6 1.6 8.8-10-4.8-16.8-14.4-16.8-26zM32 60c-2.8 0-6-0.4-8.4-1.2-0.4-0.8-0.4-1.6 0-2.4 1.6-3.2 3.2-6 5.2-8.8 0.8-0.8 1.6-1.6 1.6-2.8 0-0.8 0.4-2 0.8-2.8 1.2-2 0.8-3.2-0.8-3.6-3.2-0.8-4.8-3.6-7.2-4.8s-4.8-2-6.8-0.8c-0.8 0.4-2 0.8-2-0.4 0-1.6-2-2.8-1.6-4.4-0.4 0-0.8 0-1.2 0.4s-0.8 0.8-1.6 0.4c-0.8-0.8-0.4-1.6-0.4-2.4 0.4-0.8 0.8-1.2 1.6-1.6 1.6-0.4 3.2-0.4 4 1.6 1.2-3.6 3.6-5.6 6-7.2 0 0 3.2-2.8 3.6-2.8s0.8 0.8 1.6 1.2c0.8 0 1.2 0 1.2-0.8 0.4-2-0.8-4.4-2.4-4.8 0-0.4 0.4-0.4 0.4-0.4 1.2-0.4 2.8-1.2 2.4-2.4 0-1.6-1.6-2.4-3.2-2.4-0.8 0-1.6 0-2.4 0.4-1.6 0.8-3.6 1.6-6 1.6 4.4-3.2 10-4.8 15.6-4.8 1.2 0 2 0 3.2 0-2.4 0.4-4.8 1.2-6.4 2 2.4 0.4 2.8 1.6 2 3.6-0.4 0.8 0 1.6 0.8 2s1.6 0.4 2-0.4c0.8-1.2 2.4-1.6 3.6-2 1.6-0.4 2.8-1.2 4-2.8 0-0.4 0.4-0.4 0.8-0.8 2.4 0.8 4.8 2.4 7.2 4-0.4 0-0.4 0.4-0.8 0.4-0.8 0.8-2 1.2-0.8 2.8 0.4 0.8 0 1.2-0.4 1.6-0.8 0.4-1.2 0-1.6-0.4s-0.4-1.2-1.6-1.2c-0.4 0.8-1.6 1.2-1.6 2.4 2 0 1.6 1.6 2 2.8-2.4 0.4-3.2 1.6-2 3.6 0.4 0.8-0.4 1.2-0.8 1.6-1.6 2.4-3.2 4-3.2 6.8s2 5.6 5.2 5.2c3.6-0.4 3.6-0.4 4.8 2.8 0 0.4 0.4 0.8 0.4 1.2 0.4 0.8 0.8 1.6 0.4 2.4-1.2 3.2 0.4 5.6 1.6 8 0.4 0.8 0.8 1.2 1.2 1.6-5.2 5.6-12 8.8-20 8.8z"></path>
</svg>
