<?xml version="1.0" encoding="utf-8"?>
<!-- Generated by IcoMoon.io -->
<!DOCTYPE svg PUBLIC "-//W3C//DTD SVG 1.1//EN" "http://www.w3.org/Graphics/SVG/1.1/DTD/svg11.dtd">
<svg version="1.1" xmlns="http://www.w3.org/2000/svg" xmlns:xlink="http://www.w3.org/1999/xlink" width="64" height="64" viewBox="0 0 64 64">
<path fill="#444444" d="M28 8c0 4.418-3.582 8-8 8s-8-3.582-8-8c0-4.418 3.582-8 8-8s8 3.582 8 8z"></path>
<path fill="#444444" d="M39.2 7.2c-0.8-2-6.8-0.4-8 2-0.8 1.2-0.8 4.8-4.8 7.6-3.2 2-6.4 2-6.4 2-1.2 2.4-0.4 4.4 0.8 6.4 2 3.6 2.4 7.2 2.8 11.2 0.4 5.2-2 9.6-9.2 12.8-3.2 1.2-5.2 3.6-4 7.6 0 0 8-1.2 12.4-4.8 6-4.8 7.2-9.2 7.2-9.2s0.4 2.8 0 7.6c-0.4 4-0.8 6-1.6 8.8s1.2 4.8 3.6 4.8 4-1.6 4-4l1.2-7.6c1.2-8.4 0-17.2-3.2-25.2 0-0.4-0.4-0.4-0.4-0.8-2.4-6.4 0.8-10.4 2.4-12 1.2-1.6 4.8-4.8 3.2-7.2z"></path>
<path fill="#444444" d="M48 0v40h4v-24l12-8z"></path>
<path fill="#444444" d="M64 40c0 2.209-1.791 4-4 4s-4-1.791-4-4c0-2.209 1.791-4 4-4s4 1.791 4 4z"></path>
<path fill="#444444" d="M4 33.6l14.8-14.8-2.8-1.2-15.2 14.4c0 0-1.6 2.8 0.4 6.8s6.4 1.2 6.4 1.2c1.6-0.8 0.8-1.6 0-2.4s-3.6-4-3.6-4z"></path>
</svg>
