<?xml version="1.0" encoding="utf-8"?>
<!-- Generated by IcoMoon.io -->
<!DOCTYPE svg PUBLIC "-//W3C//DTD SVG 1.1//EN" "http://www.w3.org/Graphics/SVG/1.1/DTD/svg11.dtd">
<svg version="1.1" xmlns="http://www.w3.org/2000/svg" xmlns:xlink="http://www.w3.org/1999/xlink" width="16" height="16" viewBox="0 0 16 16">
<path fill="#444" d="M7 2c0 1.105-0.895 2-2 2s-2-0.895-2-2c0-1.105 0.895-2 2-2s2 0.895 2 2z"></path>
<path fill="#444" d="M9.8 1.8c-0.2-0.5-1.7-0.1-2 0.5-0.2 0.3-0.2 1.2-1.2 1.9-0.8 0.5-1.6 0.5-1.6 0.5-0.3 0.6-0.1 1.1 0.2 1.6 0.5 0.9 0.6 1.8 0.7 2.8 0.1 1.3-0.5 2.4-2.3 3.2-0.8 0.3-1.3 0.9-1 1.9 0 0 2-0.3 3.1-1.2 1.5-1.2 1.8-2.3 1.8-2.3s0.1 0.7 0 1.9c-0.1 1-0.2 1.5-0.4 2.2s0.3 1.2 0.9 1.2 1-0.4 1-1l0.3-1.9c0.3-2.1 0-4.3-0.8-6.3 0-0.1-0.1-0.1-0.1-0.2-0.6-1.6 0.2-2.6 0.6-3 0.3-0.4 1.2-1.2 0.8-1.8z"></path>
<path fill="#444" d="M12 0v10h1v-6l3-2z"></path>
<path fill="#444" d="M16 10c0 0.552-0.448 1-1 1s-1-0.448-1-1c0-0.552 0.448-1 1-1s1 0.448 1 1z"></path>
<path fill="#444" d="M1 8.4l3.7-3.7-0.7-0.3-3.8 3.6c0 0-0.4 0.7 0.1 1.7s1.6 0.3 1.6 0.3c0.4-0.2 0.2-0.4 0-0.6s-0.9-1-0.9-1z"></path>
</svg>
