<?xml version="1.0" encoding="utf-8"?>
<!-- Generated by IcoMoon.io -->
<!DOCTYPE svg PUBLIC "-//W3C//DTD SVG 1.1//EN" "http://www.w3.org/Graphics/SVG/1.1/DTD/svg11.dtd">
<svg version="1.1" xmlns="http://www.w3.org/2000/svg" xmlns:xlink="http://www.w3.org/1999/xlink" width="16" height="16" viewBox="0 0 16 16">
<path fill="#444" d="M16 3.9h-2.8v-2.6h-0.6v2.6h-2.7v0.8h2.7v2.6h0.6v-2.6h2.8z"></path>
<path fill="#444" d="M6.9 9c-0.4-0.2-1.1-0.9-1.1-1.3s0.1-0.7 0.8-1.2c0.7-0.5 1.2-1.2 1.2-2.1 0-1.1-0.5-2.1-1.3-2.4h1.3l0.9-0.7c0 0-3.1 0-4.2 0-1.9 0-3.6 1.4-3.6 3.1s1.3 3 3.2 3c0.1 0 0.3 0 0.4 0-0.2 0.2-0.2 0.4-0.2 0.7 0 0.5 0.3 0.8 0.6 1.2-0.2 0-0.5 0-0.7 0-2.3 0-4.1 1.5-4.1 3s2 2.5 4.3 2.5c2.6 0 4.1-1.5 4.1-3-0.1-1.3-0.5-2-1.6-2.8zM4.7 6.9c-1.1 0-2.1-1.2-2.3-2.6s0.5-2.5 1.6-2.5c1.1 0 2.1 1.2 2.3 2.6s-0.5 2.6-1.6 2.5zM4.3 14.1c-1.6 0-2.8-1-2.8-2.2s1.4-2.2 3-2.2c0.4 0 0.7 0.1 1 0.2 0.9 0.6 1.5 0.9 1.7 1.6 0 0.1 0.1 0.3 0.1 0.4 0 1.2-0.8 2.2-3 2.2z"></path>
</svg>
