<?xml version="1.0" encoding="utf-8"?>
<!-- Generated by IcoMoon.io -->
<!DOCTYPE svg PUBLIC "-//W3C//DTD SVG 1.1//EN" "http://www.w3.org/Graphics/SVG/1.1/DTD/svg11.dtd">
<svg version="1.1" xmlns="http://www.w3.org/2000/svg" xmlns:xlink="http://www.w3.org/1999/xlink" width="64" height="64" viewBox="0 0 64 64">
<path fill="#444444" d="M64 15.6h-11.2v-10.4h-2.4v10.4h-10.8v3.2h10.8v10.4h2.4v-10.4h11.2z"></path>
<path fill="#444444" d="M27.6 36c-1.6-0.8-4.4-3.6-4.4-5.2s0.4-2.8 3.2-4.8c2.8-2 4.8-4.8 4.8-8.4 0-4.4-2-8.4-5.2-9.6h5.2l3.6-2.8c0 0-12.4 0-16.8 0-7.6 0-14.4 5.6-14.4 12.4s5.2 12 12.8 12c0.4 0 1.2 0 1.6 0-0.8 0.8-0.8 1.6-0.8 2.8 0 2 1.2 3.2 2.4 4.8-0.8 0-2 0-2.8 0-9.2 0-16.4 6-16.4 12s8 10 17.2 10c10.4 0 16.4-6 16.4-12-0.4-5.2-2-8-6.4-11.2zM18.8 27.6c-4.4 0-8.4-4.8-9.2-10.4s2-10 6.4-10c4.4 0 8.4 4.8 9.2 10.4s-2 10.4-6.4 10zM17.2 56.4c-6.4 0-11.2-4-11.2-8.8s5.6-8.8 12-8.8c1.6 0 2.8 0.4 4 0.8 3.6 2.4 6 3.6 6.8 6.4 0 0.4 0.4 1.2 0.4 1.6 0 4.8-3.2 8.8-12 8.8z"></path>
</svg>
