<?xml version="1.0" encoding="utf-8"?>
<!-- Generated by IcoMoon.io -->
<!DOCTYPE svg PUBLIC "-//W3C//DTD SVG 1.1//EN" "http://www.w3.org/Graphics/SVG/1.1/DTD/svg11.dtd">
<svg version="1.1" xmlns="http://www.w3.org/2000/svg" xmlns:xlink="http://www.w3.org/1999/xlink" width="16" height="16" viewBox="0 0 16 16">
<path fill="#444" d="M5 3.4c-0.8 0-1.3 0.8-1.2 1.8 0.1 1.1 0.9 1.9 1.7 2 0.8 0 1.3-0.8 1.2-1.9-0.1-1-0.9-1.9-1.7-1.9z"></path>
<path fill="#444" d="M5.4 9.3c-1.2 0-2.3 0.7-2.3 1.6s0.9 1.7 2.1 1.7c1.7 0 2.3-0.7 2.3-1.6 0-0.1 0-0.2 0-0.3-0.1-0.5-0.6-0.8-1.3-1.2-0.2-0.2-0.5-0.2-0.8-0.2z"></path>
<path fill="#444" d="M0 0v16h16v-16h-16zM7.9 5.3c0 0.7-0.4 1.2-0.9 1.6s-0.6 0.6-0.6 0.9c0 0.3 0.5 0.8 0.8 1 0.8 0.6 1.1 1.1 1.1 2 0 1.1-1.1 2.3-3.1 2.3-1.7 0-3.2-0.7-3.2-1.8 0-1.2 1.3-2.3 3.1-2.3 0.2 0 0.4 0 0.5 0-0.2-0.3-0.4-0.6-0.4-0.9 0-0.2 0.1-0.4 0.2-0.6-0.1 0-0.2 0-0.3 0-1.4 0-2.4-1-2.4-2.3 0-1.2 1.3-2.3 2.7-2.3 0.8 0 3.1 0 3.1 0l-0.7 0.6h-1c0.7 0.2 1.1 1 1.1 1.8zM14 5.5h-2.1v2h-0.5v-2h-2v-0.5h2v-2h0.5v2h2.1v0.5z"></path>
</svg>
