<?xml version="1.0" encoding="utf-8"?>
<!-- Generated by IcoMoon.io -->
<!DOCTYPE svg PUBLIC "-//W3C//DTD SVG 1.1//EN" "http://www.w3.org/Graphics/SVG/1.1/DTD/svg11.dtd">
<svg version="1.1" xmlns="http://www.w3.org/2000/svg" xmlns:xlink="http://www.w3.org/1999/xlink" width="64" height="64" viewBox="0 0 64 64">
<path fill="#444444" d="M20 13.6c-3.2 0-5.2 3.2-4.8 7.2 0.4 4.4 3.6 7.6 6.8 8 3.2 0 5.2-3.2 4.8-7.6-0.4-4-3.6-7.6-6.8-7.6z"></path>
<path fill="#444444" d="M21.6 37.2c-4.8 0-9.2 2.8-9.2 6.4s3.6 6.8 8.4 6.8c6.8 0 9.2-2.8 9.2-6.4 0-0.4 0-0.8 0-1.2-0.4-2-2.4-3.2-5.2-4.8-0.8-0.8-2-0.8-3.2-0.8z"></path>
<path fill="#444444" d="M0 0v64h64v-64h-64zM31.6 21.2c0 2.8-1.6 4.8-3.6 6.4s-2.4 2.4-2.4 3.6c0 1.2 2 3.2 3.2 4 3.2 2.4 4.4 4.4 4.4 8 0 4.4-4.4 9.2-12.4 9.2-6.8 0-12.8-2.8-12.8-7.2 0-4.8 5.2-9.2 12.4-9.2 0.8 0 1.6 0 2 0-0.8-1.2-1.6-2.4-1.6-3.6 0-0.8 0.4-1.6 0.8-2.4-0.4 0-0.8 0-1.2 0-5.6 0-9.6-4-9.6-9.2 0-4.8 5.2-9.2 10.8-9.2 3.2 0 12.4 0 12.4 0l-2.8 2.4h-4c2.8 0.8 4.4 4 4.4 7.2zM56 22h-8.4v8h-2v-8h-8v-2h8v-8h2v8h8.4v2z"></path>
</svg>
