<?xml version="1.0" encoding="utf-8"?>
<!-- Generated by IcoMoon.io -->
<!DOCTYPE svg PUBLIC "-//W3C//DTD SVG 1.1//EN" "http://www.w3.org/Graphics/SVG/1.1/DTD/svg11.dtd">
<svg version="1.1" xmlns="http://www.w3.org/2000/svg" xmlns:xlink="http://www.w3.org/1999/xlink" width="16" height="16" viewBox="0 0 16 16">
<path fill="#444" d="M14 2v-1h-13v13h1v1h13v-13h-1zM5 13h-3v-3h3v3zM5 9h-3v-3h3v3zM5 5h-3v-3h3v3zM9 13h-3v-3h3v3zM9 9h-3v-3h3v3zM9 5h-3v-3h3v3zM13 13h-3v-3h3v3zM13 9h-3v-3h3v3zM13 5h-3v-3h3v3z"></path>
</svg>
