<?xml version="1.0" encoding="utf-8"?>
<!-- Generated by IcoMoon.io -->
<!DOCTYPE svg PUBLIC "-//W3C//DTD SVG 1.1//EN" "http://www.w3.org/Graphics/SVG/1.1/DTD/svg11.dtd">
<svg version="1.1" xmlns="http://www.w3.org/2000/svg" xmlns:xlink="http://www.w3.org/1999/xlink" width="16" height="16" viewBox="0 0 16 16">
<path fill="#444" d="M0 0v16h16v-16h-16zM5 15h-4v-4h4v4zM5 10h-4v-4h4v4zM5 5h-4v-4h4v4zM10 15h-4v-4h4v4zM10 10h-4v-4h4v4zM10 5h-4v-4h4v4zM15 15h-4v-4h4v4zM15 10h-4v-4h4v4zM15 5h-4v-4h4v4z"></path>
</svg>
