<?xml version="1.0" encoding="utf-8"?>
<!-- Generated by IcoMoon.io -->
<!DOCTYPE svg PUBLIC "-//W3C//DTD SVG 1.1//EN" "http://www.w3.org/Graphics/SVG/1.1/DTD/svg11.dtd">
<svg version="1.1" xmlns="http://www.w3.org/2000/svg" xmlns:xlink="http://www.w3.org/1999/xlink" width="64" height="64" viewBox="0 0 64 64">
<path fill="#444444" d="M56 8v-4h-52v52h4v4h52v-52h-4zM20 52h-12v-12h12v12zM20 36h-12v-12h12v12zM20 20h-12v-12h12v12zM36 52h-12v-12h12v12zM36 36h-12v-12h12v12zM36 20h-12v-12h12v12zM52 52h-12v-12h12v12zM52 36h-12v-12h12v12zM52 20h-12v-12h12v12z"></path>
</svg>
