<?xml version="1.0" encoding="utf-8"?>
<!-- Generated by IcoMoon.io -->
<!DOCTYPE svg PUBLIC "-//W3C//DTD SVG 1.1//EN" "http://www.w3.org/Graphics/SVG/1.1/DTD/svg11.dtd">
<svg version="1.1" xmlns="http://www.w3.org/2000/svg" xmlns:xlink="http://www.w3.org/1999/xlink" width="64" height="64" viewBox="0 0 64 64">
<path fill="#444444" d="M0 0v64h64v-64h-64zM20 60h-16v-16h16v16zM20 40h-16v-16h16v16zM20 20h-16v-16h16v16zM40 60h-16v-16h16v16zM40 40h-16v-16h16v16zM40 20h-16v-16h16v16zM60 60h-16v-16h16v16zM60 40h-16v-16h16v16zM60 20h-16v-16h16v16z"></path>
</svg>
