<?xml version="1.0" encoding="utf-8"?>
<!-- Generated by IcoMoon.io -->
<!DOCTYPE svg PUBLIC "-//W3C//DTD SVG 1.1//EN" "http://www.w3.org/Graphics/SVG/1.1/DTD/svg11.dtd">
<svg version="1.1" xmlns="http://www.w3.org/2000/svg" xmlns:xlink="http://www.w3.org/1999/xlink" width="16" height="16" viewBox="0 0 16 16">
<path fill="#444" d="M0 4h4v-4h-4v4zM1 1h2v2h-2v-2z"></path>
<path fill="#444" d="M0 10h4v-4h-4v4zM1 7h2v2h-2v-2z"></path>
<path fill="#444" d="M0 16h4v-4h-4v4zM1 13h2v2h-2v-2z"></path>
<path fill="#444" d="M6 4h4v-4h-4v4zM7 1h2v2h-2v-2z"></path>
<path fill="#444" d="M6 10h4v-4h-4v4zM7 7h2v2h-2v-2z"></path>
<path fill="#444" d="M6 16h4v-4h-4v4zM7 13h2v2h-2v-2z"></path>
<path fill="#444" d="M12 0v4h4v-4h-4zM15 3h-2v-2h2v2z"></path>
<path fill="#444" d="M12 10h4v-4h-4v4zM13 7h2v2h-2v-2z"></path>
<path fill="#444" d="M12 16h4v-4h-4v4zM13 13h2v2h-2v-2z"></path>
</svg>
