<?xml version="1.0" encoding="utf-8"?>
<!-- Generated by IcoMoon.io -->
<!DOCTYPE svg PUBLIC "-//W3C//DTD SVG 1.1//EN" "http://www.w3.org/Graphics/SVG/1.1/DTD/svg11.dtd">
<svg version="1.1" xmlns="http://www.w3.org/2000/svg" xmlns:xlink="http://www.w3.org/1999/xlink" width="64" height="64" viewBox="0 0 64 64">
<path fill="#444444" d="M0 16h16v-16h-16v16zM4 4h8v8h-8v-8z"></path>
<path fill="#444444" d="M0 40h16v-16h-16v16zM4 28h8v8h-8v-8z"></path>
<path fill="#444444" d="M0 64h16v-16h-16v16zM4 52h8v8h-8v-8z"></path>
<path fill="#444444" d="M24 16h16v-16h-16v16zM28 4h8v8h-8v-8z"></path>
<path fill="#444444" d="M24 40h16v-16h-16v16zM28 28h8v8h-8v-8z"></path>
<path fill="#444444" d="M24 64h16v-16h-16v16zM28 52h8v8h-8v-8z"></path>
<path fill="#444444" d="M48 0v16h16v-16h-16zM60 12h-8v-8h8v8z"></path>
<path fill="#444444" d="M48 40h16v-16h-16v16zM52 28h8v8h-8v-8z"></path>
<path fill="#444444" d="M48 64h16v-16h-16v16zM52 52h8v8h-8v-8z"></path>
</svg>
