<?xml version="1.0" encoding="utf-8"?>
<!-- Generated by IcoMoon.io -->
<!DOCTYPE svg PUBLIC "-//W3C//DTD SVG 1.1//EN" "http://www.w3.org/Graphics/SVG/1.1/DTD/svg11.dtd">
<svg version="1.1" xmlns="http://www.w3.org/2000/svg" xmlns:xlink="http://www.w3.org/1999/xlink" width="16" height="16" viewBox="0 0 16 16">
<path fill="#444" d="M5 16v-5.3c-0.6-0.3-1-1-1-1.7v-4c0-0.7 0.4-1.3 1-1.7 0-0.1 0-0.2 0-0.3 0-1.1-0.9-2-2-2s-2 0.9-2 2c0 1.1 0.9 2 2 2h-2c-0.5 0-1 0.5-1 1v4c0 0.5 0.5 1 1 1v5h4z"></path>
<path fill="#444" d="M15 5h-2c1.1 0 2-0.9 2-2s-0.9-2-2-2-2 0.9-2 2c0 0.1 0 0.2 0 0.3 0.6 0.4 1 1 1 1.7v4c0 0.7-0.4 1.4-1 1.7v5.3h4v-5c0.5 0 1-0.5 1-1v-4c0-0.5-0.5-1-1-1z"></path>
<path fill="#444" d="M10 2c0 1.105-0.895 2-2 2s-2-0.895-2-2c0-1.105 0.895-2 2-2s2 0.895 2 2z"></path>
<path fill="#444" d="M10 4h-4c-0.5 0-1 0.5-1 1v4c0 0.5 0.5 1 1 1v6h4v-6c0.5 0 1-0.5 1-1v-4c0-0.5-0.5-1-1-1z"></path>
</svg>
