<?xml version="1.0" encoding="utf-8"?>
<!-- Generated by IcoMoon.io -->
<!DOCTYPE svg PUBLIC "-//W3C//DTD SVG 1.1//EN" "http://www.w3.org/Graphics/SVG/1.1/DTD/svg11.dtd">
<svg version="1.1" xmlns="http://www.w3.org/2000/svg" xmlns:xlink="http://www.w3.org/1999/xlink" width="64" height="64" viewBox="0 0 64 64">
<path fill="#444444" d="M20 64v-21.2c-2.4-1.2-4-4-4-6.8v-16c0-2.8 1.6-5.2 4-6.8 0-0.4 0-0.8 0-1.2 0-4.4-3.6-8-8-8s-8 3.6-8 8c0 4.4 3.6 8 8 8h-8c-2 0-4 2-4 4v16c0 2 2 4 4 4v20h16z"></path>
<path fill="#444444" d="M60 20h-8c4.4 0 8-3.6 8-8s-3.6-8-8-8-8 3.6-8 8c0 0.4 0 0.8 0 1.2 2.4 1.6 4 4 4 6.8v16c0 2.8-1.6 5.6-4 6.8v21.2h16v-20c2 0 4-2 4-4v-16c0-2-2-4-4-4z"></path>
<path fill="#444444" d="M40 8c0 4.418-3.582 8-8 8s-8-3.582-8-8c0-4.418 3.582-8 8-8s8 3.582 8 8z"></path>
<path fill="#444444" d="M40 16h-16c-2 0-4 2-4 4v16c0 2 2 4 4 4v24h16v-24c2 0 4-2 4-4v-16c0-2-2-4-4-4z"></path>
</svg>
