<?xml version="1.0" encoding="utf-8"?>
<!-- Generated by IcoMoon.io -->
<!DOCTYPE svg PUBLIC "-//W3C//DTD SVG 1.1//EN" "http://www.w3.org/Graphics/SVG/1.1/DTD/svg11.dtd">
<svg version="1.1" xmlns="http://www.w3.org/2000/svg" xmlns:xlink="http://www.w3.org/1999/xlink" width="64" height="64" viewBox="0 0 64 64">
<path fill="#444444" d="M38 8c0 4.418-3.582 8-8 8s-8-3.582-8-8c0-4.418 3.582-8 8-8s8 3.582 8 8z"></path>
<path fill="#444444" d="M55.2 4.8c-1.2-1.2-2.8-1.2-4 0l-9.2 9.6c-1.2 1.2-2.4 1.6-3.6 1.6h-16.8c-1.2 0-2.4-0.4-3.2-1.6l-9.6-9.2c-0.8-1.2-2.8-1.2-4-0.4-1.2 1.2-1.2 3.2 0 4l13.2 13.2c0 0.4 2 2.4 2 6v36h8v-24h4v24h8v-36c0-3.6 2-5.6 2-5.6l13.2-13.2c1.2-1.2 1.2-3.2 0-4.4z"></path>
</svg>
