<?xml version="1.0" encoding="utf-8"?>
<!-- Generated by IcoMoon.io -->
<!DOCTYPE svg PUBLIC "-//W3C//DTD SVG 1.1//EN" "http://www.w3.org/Graphics/SVG/1.1/DTD/svg11.dtd">
<svg version="1.1" xmlns="http://www.w3.org/2000/svg" xmlns:xlink="http://www.w3.org/1999/xlink" width="16" height="16" viewBox="0 0 16 16">
<path fill="#444" d="M13.5 2.4c-0.4-0.4-1-0.5-1.5-0.3 0-0.3-0.1-0.6-0.4-0.9-0.2-0.2-0.6-0.4-1.1-0.4-0.3 0-0.5 0.1-0.7 0.1 0-0.2-0.1-0.3-0.2-0.5-0.5-0.6-1.5-0.6-2 0-0.2 0.2-0.4 0.4-0.4 0.6-0.2 0-0.4-0.1-0.6-0.1-0.5 0-0.8 0.2-1.1 0.5-0.5 0.5-0.5 1.3-0.5 1.3v3.8c-0.3-0.3-0.8-0.8-1.5-0.8-0.2 0-0.5 0.1-0.7 0.2-0.4 0.2-0.6 0.5-0.7 0.9-0.3 1 0.6 2.4 0.6 2.5 0.1 0.1 1.2 2.7 2.2 3.8 1 1.2 2.1 1.9 4.9 1.9 2.9 0 4.2-1.6 4.2-5.1v-5.5c0-0.1 0.1-1.3-0.5-2zM8 2c0-0.3-0.1-1 0.5-1 0.5 0 0.5 0.5 0.5 1v4c0 0.3 0.2 0.5 0.5 0.5s0.5-0.2 0.5-0.5v-3.8c0 0 0-0.4 0.5-0.4 0.6 0 0.5 0.9 0.5 0.9v3.3c0 0.3 0.2 0.5 0.5 0.5s0.5-0.2 0.5-0.5v-2.4c0-0.1 0-0.6 0.5-0.6s0.5 1 0.5 1v5.9c0 3.4-1.3 4.1-3.2 4.1-2.4 0-3.3-0.5-4.1-1.6-0.9-1-2.1-3.6-2.1-3.7-0.3-0.3-0.7-1.2-0.6-1.6 0-0.1 0.1-0.2 0.2-0.3 0.1 0 0.2-0.1 0.2-0.1 0.4 0 0.8 0.5 0.9 0.7l0.6 0.9c0.1 0.2 0.4 0.3 0.6 0.2 0.4 0 0.5-0.2 0.5-0.4v-5.2c0-0.4 0-1 0.5-1 0.4 0 0.5 0.3 0.5 0.8v3.3c0 0.3 0.2 0.5 0.5 0.5s0.5-0.2 0.5-0.5z"></path>
</svg>
