<?xml version="1.0" encoding="utf-8"?>
<!-- Generated by IcoMoon.io -->
<!DOCTYPE svg PUBLIC "-//W3C//DTD SVG 1.1//EN" "http://www.w3.org/Graphics/SVG/1.1/DTD/svg11.dtd">
<svg version="1.1" xmlns="http://www.w3.org/2000/svg" xmlns:xlink="http://www.w3.org/1999/xlink" width="64" height="64" viewBox="0 0 64 64">
<path fill="#444444" d="M54 9.6c-1.6-1.6-4-2-6-1.2 0-1.2-0.4-2.4-1.6-3.6-0.8-0.8-2.4-1.6-4.4-1.6-1.2 0-2 0.4-2.8 0.4 0-0.8-0.4-1.2-0.8-2-2-2.4-6-2.4-8 0-0.8 0.8-1.6 1.6-1.6 2.4-0.8 0-1.6-0.4-2.4-0.4-2 0-3.2 0.8-4.4 2-2 2-2 5.2-2 5.2v15.2c-1.2-1.2-3.2-3.2-6-3.2-0.8 0-2 0.4-2.8 0.8-1.6 0.8-2.4 2-2.8 3.6-1.2 4 2.4 9.6 2.4 10 0.4 0.4 4.8 10.8 8.8 15.2 4 4.8 8.4 7.6 19.6 7.6 11.6 0 16.8-6.4 16.8-20.4v-22c0-0.4 0.4-5.2-2-8zM32 8c0-1.2-0.4-4 2-4 2 0 2 2 2 4v16c0 1.2 0.8 2 2 2s2-0.8 2-2v-15.2c0 0 0-1.6 2-1.6 2.4 0 2 3.6 2 3.6v13.2c0 1.2 0.8 2 2 2s2-0.8 2-2v-9.6c0-0.4 0-2.4 2-2.4s2 4 2 4v23.6c0 13.6-5.2 16.4-12.8 16.4-9.6 0-13.2-2-16.4-6.4-3.6-4-8.4-14.4-8.4-14.8-1.2-1.2-2.8-4.8-2.4-6.4 0-0.4 0.4-0.8 0.8-1.2 0.4 0 0.8-0.4 0.8-0.4 1.6 0 3.2 2 3.6 2.8l2.4 3.6c0.4 0.8 1.6 1.2 2.4 0.8 1.6 0 2-0.8 2-1.6v-20.8c0-1.6 0-4 2-4 1.6 0 2 1.2 2 3.2v13.2c0 1.2 0.8 2 2 2s2-0.8 2-2z"></path>
</svg>
