<?xml version="1.0" encoding="utf-8"?>
<!-- Generated by IcoMoon.io -->
<!DOCTYPE svg PUBLIC "-//W3C//DTD SVG 1.1//EN" "http://www.w3.org/Graphics/SVG/1.1/DTD/svg11.dtd">
<svg version="1.1" xmlns="http://www.w3.org/2000/svg" xmlns:xlink="http://www.w3.org/1999/xlink" width="16" height="16" viewBox="0 0 16 16">
<path fill="#444" d="M10 2c0 1.105-0.895 2-2 2s-2-0.895-2-2c0-1.105 0.895-2 2-2s2 0.895 2 2z"></path>
<path fill="#444" d="M6 16h1.5v-5h1v5h1.5v-9c-0-0.016-0.001-0.034-0.001-0.052 0-0.521 0.194-0.997 0.513-1.36l3.278-3.318c0.216-0.129 0.358-0.362 0.358-0.628 0-0.403-0.327-0.73-0.73-0.73-0.266 0-0.499 0.142-0.626 0.355l-2.362 2.383c-0.212 0.216-0.508 0.35-0.835 0.35-0.002 0-0.004 0-0.006-0h-3.18c-0.002 0-0.004 0-0.005 0-0.327 0-0.622-0.134-0.834-0.35l-2.32-2.39c-0.129-0.216-0.362-0.358-0.628-0.358-0.403 0-0.73 0.327-0.73 0.73 0 0.266 0.142 0.499 0.355 0.626l3.243 3.332c0.317 0.361 0.511 0.836 0.511 1.358 0 0.018-0 0.037-0.001 0.055l0 8.997z"></path>
</svg>
