<?xml version="1.0" encoding="utf-8"?>
<!-- Generated by IcoMoon.io -->
<!DOCTYPE svg PUBLIC "-//W3C//DTD SVG 1.1//EN" "http://www.w3.org/Graphics/SVG/1.1/DTD/svg11.dtd">
<svg version="1.1" xmlns="http://www.w3.org/2000/svg" xmlns:xlink="http://www.w3.org/1999/xlink" width="16" height="16" viewBox="0 0 16 16">
<path fill="#444" d="M14 8.3v-2.3c0-3.3-2.7-6-6-6s-6 2.7-6 6v2.3c-1.2 0.5-2 1.7-2 3.1v1.2c0 1.8 1.3 3.2 3 3.4h2v-8h-1v-2c0-2.2 1.8-4 4-4s4 1.8 4 4v2h-1v8h2c1.7-0.2 3-1.7 3-3.4v-1.2c0-1.4-0.8-2.6-2-3.1zM4 15h-1v-6h1v6zM13 15h-1v-6h1v6z"></path>
</svg>
