<?xml version="1.0" encoding="utf-8"?>
<!-- Generated by IcoMoon.io -->
<!DOCTYPE svg PUBLIC "-//W3C//DTD SVG 1.1//EN" "http://www.w3.org/Graphics/SVG/1.1/DTD/svg11.dtd">
<svg version="1.1" xmlns="http://www.w3.org/2000/svg" xmlns:xlink="http://www.w3.org/1999/xlink" width="64" height="64" viewBox="0 0 64 64">
<path fill="#444444" d="M56 33.2v-9.2c0-13.2-10.8-24-24-24s-24 10.8-24 24v9.2c-4.8 2-8 6.8-8 12.4v4.8c0 7.2 5.2 12.8 12 13.6h8v-32h-4v-8c0-8.8 7.2-16 16-16s16 7.2 16 16v8h-4v32h8c6.8-0.8 12-6.8 12-13.6v-4.8c0-5.6-3.2-10.4-8-12.4zM16 60h-4v-24h4v24zM52 60h-4v-24h4v24z"></path>
</svg>
