<?xml version="1.0" encoding="utf-8"?>
<!-- Generated by IcoMoon.io -->
<!DOCTYPE svg PUBLIC "-//W3C//DTD SVG 1.1//EN" "http://www.w3.org/Graphics/SVG/1.1/DTD/svg11.dtd">
<svg version="1.1" xmlns="http://www.w3.org/2000/svg" xmlns:xlink="http://www.w3.org/1999/xlink" width="16" height="16" viewBox="0 0 16 16">
<path fill="#444" d="M14.82 8c-0.309-0.851-0.969-1.511-1.799-1.813l-0.021-1.687c0-2.5-2.47-4.5-5.5-4.5s-5.5 2-5.5 4.5v1.68c-1.173 0.423-1.996 1.525-2 2.82v1c0 1.657 1.343 3 3 3h1v-7h-1v-1.5c0-1.93 2-3.5 4.5-3.5s4.5 1.57 4.5 3.5v1.5h-1v7h1c1.657 0 3-1.343 3-3v1.73c0 1.806-1.464 3.27-3.27 3.27h-1.73c0-0.552-0.448-1-1-1h-1c-0.552 0-1 0.448-1 1s0.448 1 1 1h3.73c2.358 0 4.27-1.912 4.27-4.27v-3.73h-1.18z"></path>
</svg>
