<?xml version="1.0" encoding="utf-8"?>
<!-- Generated by IcoMoon.io -->
<!DOCTYPE svg PUBLIC "-//W3C//DTD SVG 1.1//EN" "http://www.w3.org/Graphics/SVG/1.1/DTD/svg11.dtd">
<svg version="1.1" xmlns="http://www.w3.org/2000/svg" xmlns:xlink="http://www.w3.org/1999/xlink" width="64" height="64" viewBox="0 0 64 64">
<path fill="#444444" d="M46.8 8c-3.6 0-10.8 2-14.8 8.4-4-6.4-11.2-8.4-15.2-8.4-9.2 0-16.8 7.6-16.8 16.8 0 16 29.6 34 30.8 34.8l1.2 0.8 1.2-0.8c1.2-0.8 30.8-19.2 30.8-34.8 0-9.2-7.6-16.8-17.2-16.8zM32 55.6c-8.8-5.6-28-20-28-30.8 0-7.2 6-12.8 12.8-12.8 0.4 0 10 0.4 13.2 9.6l2 5.6 2-5.6c3.2-9.2 12.8-9.6 13.2-9.6 6.8 0 12.8 5.6 12.8 12.8 0 10.8-19.2 25.2-28 30.8z"></path>
</svg>
