<?xml version="1.0" encoding="utf-8"?>
<!-- Generated by IcoMoon.io -->
<!DOCTYPE svg PUBLIC "-//W3C//DTD SVG 1.1//EN" "http://www.w3.org/Graphics/SVG/1.1/DTD/svg11.dtd">
<svg version="1.1" xmlns="http://www.w3.org/2000/svg" xmlns:xlink="http://www.w3.org/1999/xlink" width="16" height="16" viewBox="0 0 16 16">
<path fill="#444" d="M11.7 2c-0.9 0-2.7 0.5-3.7 2.1-1-1.6-2.8-2.1-3.8-2.1-2.3 0-4.2 1.9-4.2 4.2 0 4 7.4 8.5 7.7 8.7l0.3 0.2 0.3-0.2c0.3-0.2 7.7-4.8 7.7-8.7 0-2.3-1.9-4.2-4.3-4.2zM8 13.9c-2.2-1.4-7-5-7-7.7 0-1.8 1.5-3.2 3.2-3.2 0.1 0 2.5 0.1 3.3 2.4l0.5 1.4 0.5-1.4c0.8-2.3 3.2-2.4 3.3-2.4 1.7 0 3.2 1.4 3.2 3.2 0 2.7-4.8 6.3-7 7.7z"></path>
</svg>
