<?xml version="1.0" encoding="utf-8"?>
<!-- Generated by IcoMoon.io -->
<!DOCTYPE svg PUBLIC "-//W3C//DTD SVG 1.1//EN" "http://www.w3.org/Graphics/SVG/1.1/DTD/svg11.dtd">
<svg version="1.1" xmlns="http://www.w3.org/2000/svg" xmlns:xlink="http://www.w3.org/1999/xlink" width="16" height="16" viewBox="0 0 16 16">
<path fill="#444" d="M15 4v-4h-7v4h-8v12h6v-3h4v3h6v-12h-1zM4 11h-2v-2h2v2zM4 8h-2v-2h2v2zM7 11h-2v-2h2v2zM7 8h-2v-2h2v2zM10 3v-1h1v-1h1v1h1v1h-1v1h-1v-1h-1zM11 11h-2v-2h2v2zM11 8h-2v-2h2v2zM14 11h-2v-2h2v2zM14 8h-2v-2h2v2z"></path>
</svg>
