<?xml version="1.0" encoding="utf-8"?>
<!-- Generated by IcoMoon.io -->
<!DOCTYPE svg PUBLIC "-//W3C//DTD SVG 1.1//EN" "http://www.w3.org/Graphics/SVG/1.1/DTD/svg11.dtd">
<svg version="1.1" xmlns="http://www.w3.org/2000/svg" xmlns:xlink="http://www.w3.org/1999/xlink" width="64" height="64" viewBox="0 0 64 64">
<path fill="#444444" d="M17.6 40.8c-2.4 0.4-5.6-1.2-6.8-1.6l-2 3.6c0 0 3.6 1.6 6.8 2v3.2h4v-3.6c3.6-1.2 5.6-4.4 6-7.2 0-3.2-2.4-5.6-7.6-7.6-1.6-0.8-4.4-2-4.4-3.6 0-2 1.6-3.2 4-3.2 2.8 0 5.6 1.2 5.6 1.2l1.6-3.6c0 0-2-0.8-4.8-1.6v-2.8h-4v2.8c-3.6 0.8-6 3.2-6.4 6.8 0 4.8 5.2 6.8 7.2 7.6 2.4 0.8 5.2 2.4 5.2 3.6 0 1.6-1.6 3.6-4.4 4z"></path>
<path fill="#444444" d="M0 8v48h64v-48h-64zM60 52h-56v-40h56v40z"></path>
<path fill="#444444" d="M32 20h24v4h-24v-4z"></path>
<path fill="#444444" d="M32 28h24v4h-24v-4z"></path>
<path fill="#444444" d="M32 36h12v4h-12v-4z"></path>
</svg>
