<?xml version="1.0" encoding="utf-8"?>
<!-- Generated by IcoMoon.io -->
<!DOCTYPE svg PUBLIC "-//W3C//DTD SVG 1.1//EN" "http://www.w3.org/Graphics/SVG/1.1/DTD/svg11.dtd">
<svg version="1.1" xmlns="http://www.w3.org/2000/svg" xmlns:xlink="http://www.w3.org/1999/xlink" width="16" height="16" viewBox="0 0 16 16">
<path fill="#444" d="M4.4 10.2c-0.6 0.1-1.4-0.3-1.7-0.4l-0.5 0.9c0 0 0.9 0.4 1.7 0.5v0.8h1v-0.9c0.9-0.3 1.4-1.1 1.5-1.8 0-0.8-0.6-1.4-1.9-1.9-0.4-0.2-1.1-0.5-1.1-0.9 0-0.5 0.4-0.8 1-0.8 0.7 0 1.4 0.3 1.4 0.3l0.4-0.9c0 0-0.5-0.2-1.2-0.4v-0.7h-1v0.7c-0.9 0.2-1.5 0.8-1.6 1.7 0 1.2 1.3 1.7 1.8 1.9 0.6 0.2 1.3 0.6 1.3 0.9 0 0.4-0.4 0.9-1.1 1z"></path>
<path fill="#444" d="M0 2v12h16v-12h-16zM15 13h-14v-10h14v10z"></path>
<path fill="#444" d="M8 5h6v1h-6v-1z"></path>
<path fill="#444" d="M8 7h6v1h-6v-1z"></path>
<path fill="#444" d="M8 9h3v1h-3v-1z"></path>
</svg>
