<?xml version="1.0" encoding="utf-8"?>
<!-- Generated by IcoMoon.io -->
<!DOCTYPE svg PUBLIC "-//W3C//DTD SVG 1.1//EN" "http://www.w3.org/Graphics/SVG/1.1/DTD/svg11.dtd">
<svg version="1.1" xmlns="http://www.w3.org/2000/svg" xmlns:xlink="http://www.w3.org/1999/xlink" width="16" height="16" viewBox="0 0 16 16">
<path fill="#444" d="M13 0l-7 6.1c-0.3-0.1-0.6-0.1-1-0.1-2.8 0-5 2.2-5 5s2.3 5 5 5 5-2.2 5-5c0-0.3 0-0.6-0.1-0.9l1.1-1.1v-2h2v-2h2l1-1v-4h-3zM12 6h-1.7l1.7-1.4v1.4zM15 3.6l-0.4 0.4h-1.9l2.3-2v1.6zM7.3 7.6l0.7 0.4 2-1.7v2.3l-0.8 0.8-0.3 0.4 0.1 0.5c0 0.2 0.1 0.5 0.1 0.7 0 2.2-1.8 4-4 4s-4-1.8-4-4 1.8-4 4-4c0.3 0 0.5 0 0.8 0.1l0.5 0.1 0.4-0.3 6.6-5.9h1.6l-7.7 6.6z"></path>
<path fill="#444" d="M6 11.5c0 0.828-0.672 1.5-1.5 1.5s-1.5-0.672-1.5-1.5c0-0.828 0.672-1.5 1.5-1.5s1.5 0.672 1.5 1.5z"></path>
</svg>
