<?xml version="1.0" encoding="utf-8"?>
<!-- Generated by IcoMoon.io -->
<!DOCTYPE svg PUBLIC "-//W3C//DTD SVG 1.1//EN" "http://www.w3.org/Graphics/SVG/1.1/DTD/svg11.dtd">
<svg version="1.1" xmlns="http://www.w3.org/2000/svg" xmlns:xlink="http://www.w3.org/1999/xlink" width="64" height="64" viewBox="0 0 64 64">
<path fill="#444444" d="M52 0l-28 24.4c-1.2-0.4-2.4-0.4-4-0.4-11.2 0-20 8.8-20 20s9.2 20 20 20 20-8.8 20-20c0-1.2 0-2.4-0.4-3.6l4.4-4.4v-8h8v-8h8l4-4v-16h-12zM48 24h-6.8l6.8-5.6v5.6zM60 14.4l-1.6 1.6h-7.6l9.2-8v6.4zM29.2 30.4l2.8 1.6 8-6.8v9.2l-3.2 3.2-1.2 1.6 0.4 2c0 0.8 0.4 2 0.4 2.8 0 8.8-7.2 16-16 16s-16-7.2-16-16 7.2-16 16-16c1.2 0 2 0 3.2 0.4l2 0.4 1.6-1.2 26.4-23.6h6.4l-30.8 26.4z"></path>
<path fill="#444444" d="M24 46c0 3.314-2.686 6-6 6s-6-2.686-6-6c0-3.314 2.686-6 6-6s6 2.686 6 6z"></path>
</svg>
