<?xml version="1.0" encoding="utf-8"?>
<!-- Generated by IcoMoon.io -->
<!DOCTYPE svg PUBLIC "-//W3C//DTD SVG 1.1//EN" "http://www.w3.org/Graphics/SVG/1.1/DTD/svg11.dtd">
<svg version="1.1" xmlns="http://www.w3.org/2000/svg" xmlns:xlink="http://www.w3.org/1999/xlink" width="16" height="16" viewBox="0 0 16 16">
<path fill="#444" d="M8.1 7c-0.2-0.1-0.4-0.2-0.6-0.3l7.5-6.7h-2l-7 6.1c-0.3-0.1-0.6-0.1-1-0.1-2.8 0-5 2.2-5 5s2.3 5 5 5 5-2.2 5-5c0-0.6-0.1-1.2-0.3-1.7l1.3-1.3v-2h2v-2h2l1-1v-3l-7.9 7zM4 13.2c-0.7 0-1.2-0.6-1.2-1.2s0.6-1.2 1.2-1.2 1.2 0.6 1.2 1.2-0.5 1.2-1.2 1.2z"></path>
</svg>
