<?xml version="1.0" encoding="utf-8"?>
<!-- Generated by IcoMoon.io -->
<!DOCTYPE svg PUBLIC "-//W3C//DTD SVG 1.1//EN" "http://www.w3.org/Graphics/SVG/1.1/DTD/svg11.dtd">
<svg version="1.1" xmlns="http://www.w3.org/2000/svg" xmlns:xlink="http://www.w3.org/1999/xlink" width="16" height="16" viewBox="0 0 16 16">
<path fill="#444" d="M0 4v9h16v-9h-16zM10 6h1v1h-1v-1zM8 6h1v1h-1v-1zM10 8v1h-1v-1h1zM6 6h1v1h-1v-1zM8 8v1h-1v-1h1zM4 6h1v1h-1v-1zM6 8v1h-1v-1h1zM2 6h1v1h-1v-1zM3 11h-1v-1h1v1zM3 8h1v1h-1v-1zM12 11h-8v-1h8v1zM12 9h-1v-1h1v1zM14 11h-1v-1h1v1zM14 9h-1v-2h-1v-1h2v3z"></path>
</svg>
