<?xml version="1.0" encoding="utf-8"?>
<!-- Generated by IcoMoon.io -->
<!DOCTYPE svg PUBLIC "-//W3C//DTD SVG 1.1//EN" "http://www.w3.org/Graphics/SVG/1.1/DTD/svg11.dtd">
<svg version="1.1" xmlns="http://www.w3.org/2000/svg" xmlns:xlink="http://www.w3.org/1999/xlink" width="64" height="64" viewBox="0 0 64 64">
<path fill="#444444" d="M60 20v28h-56v-28h56zM64 16h-64v36h64v-36z"></path>
<path fill="#444444" d="M16 40h32v4h-32v-4z"></path>
<path fill="#444444" d="M8 40h4v4h-4v-4z"></path>
<path fill="#444444" d="M52 40h4v4h-4v-4z"></path>
<path fill="#444444" d="M44 32h4v4h-4v-4z"></path>
<path fill="#444444" d="M36 32h4v4h-4v-4z"></path>
<path fill="#444444" d="M28 32h4v4h-4v-4z"></path>
<path fill="#444444" d="M20 32h4v4h-4v-4z"></path>
<path fill="#444444" d="M12 32h4v4h-4v-4z"></path>
<path fill="#444444" d="M40 24h4v4h-4v-4z"></path>
<path fill="#444444" d="M48 24v4h4v8h4v-12z"></path>
<path fill="#444444" d="M32 24h4v4h-4v-4z"></path>
<path fill="#444444" d="M24 24h4v4h-4v-4z"></path>
<path fill="#444444" d="M16 24h4v4h-4v-4z"></path>
<path fill="#444444" d="M8 24h4v4h-4v-4z"></path>
</svg>
