<?xml version="1.0" encoding="utf-8"?>
<!-- Generated by IcoMoon.io -->
<!DOCTYPE svg PUBLIC "-//W3C//DTD SVG 1.1//EN" "http://www.w3.org/Graphics/SVG/1.1/DTD/svg11.dtd">
<svg version="1.1" xmlns="http://www.w3.org/2000/svg" xmlns:xlink="http://www.w3.org/1999/xlink" width="64" height="64" viewBox="0 0 64 64">
<path fill="#444444" d="M0 16v36h64v-36h-64zM40 24h4v4h-4v-4zM32 24h4v4h-4v-4zM40 32v4h-4v-4h4zM24 24h4v4h-4v-4zM32 32v4h-4v-4h4zM16 24h4v4h-4v-4zM24 32v4h-4v-4h4zM8 24h4v4h-4v-4zM12 44h-4v-4h4v4zM12 32h4v4h-4v-4zM48 44h-32v-4h32v4zM48 36h-4v-4h4v4zM56 44h-4v-4h4v4zM56 36h-4v-8h-4v-4h8v12z"></path>
</svg>
