<?xml version="1.0" encoding="utf-8"?>
<!-- Generated by IcoMoon.io -->
<!DOCTYPE svg PUBLIC "-//W3C//DTD SVG 1.1//EN" "http://www.w3.org/Graphics/SVG/1.1/DTD/svg11.dtd">
<svg version="1.1" xmlns="http://www.w3.org/2000/svg" xmlns:xlink="http://www.w3.org/1999/xlink" width="16" height="16" viewBox="0 0 16 16">
<path fill="#444" d="M8 0c-4.4 0-8 3.6-8 8s3.6 8 8 8 8-3.6 8-8-3.6-8-8-8zM4 8c0-2.2 1.8-4 4-4s4 1.8 4 4c0 2.2-1.8 4-4 4s-4-1.8-4-4zM12.6 9.8c0.3-0.5 0.4-1.2 0.4-1.8s-0.1-1.3-0.4-1.8l1.5-1.5c0.6 1 0.9 2.1 0.9 3.3s-0.3 2.3-0.8 3.3l-1.6-1.5zM11.3 1.8l-1.5 1.6c-0.5-0.3-1.2-0.4-1.8-0.4s-1.3 0.1-1.8 0.4l-1.5-1.6c1-0.5 2.1-0.8 3.3-0.8s2.3 0.3 3.3 0.8zM1.8 4.7l1.5 1.5c-0.2 0.5-0.3 1.2-0.3 1.8s0.1 1.3 0.4 1.8l-1.5 1.5c-0.6-1-0.9-2.1-0.9-3.3s0.3-2.3 0.8-3.3zM4.7 14.2l1.5-1.5c0.5 0.2 1.2 0.3 1.8 0.3s1.3-0.1 1.8-0.4l1.5 1.5c-1 0.6-2.1 0.9-3.3 0.9s-2.3-0.3-3.3-0.8z"></path>
</svg>
