<?xml version="1.0" encoding="utf-8"?>
<!-- Generated by IcoMoon.io -->
<!DOCTYPE svg PUBLIC "-//W3C//DTD SVG 1.1//EN" "http://www.w3.org/Graphics/SVG/1.1/DTD/svg11.dtd">
<svg version="1.1" xmlns="http://www.w3.org/2000/svg" xmlns:xlink="http://www.w3.org/1999/xlink" width="64" height="64" viewBox="0 0 64 64">
<path fill="#444444" d="M32 0c-17.6 0-32 14.4-32 32s14.4 32 32 32 32-14.4 32-32-14.4-32-32-32zM16 32c0-8.8 7.2-16 16-16s16 7.2 16 16c0 8.8-7.2 16-16 16s-16-7.2-16-16zM50.4 39.2c1.2-2 1.6-4.8 1.6-7.2s-0.4-5.2-1.6-7.2l6-6c2.4 4 3.6 8.4 3.6 13.2s-1.2 9.2-3.2 13.2l-6.4-6zM45.2 7.2l-6 6.4c-2-1.2-4.8-1.6-7.2-1.6s-5.2 0.4-7.2 1.6l-6-6.4c4-2 8.4-3.2 13.2-3.2s9.2 1.2 13.2 3.2zM7.2 18.8l6 6c-0.8 2-1.2 4.8-1.2 7.2s0.4 5.2 1.6 7.2l-6 6c-2.4-4-3.6-8.4-3.6-13.2s1.2-9.2 3.2-13.2zM18.8 56.8l6-6c2 0.8 4.8 1.2 7.2 1.2s5.2-0.4 7.2-1.6l6 6c-4 2.4-8.4 3.6-13.2 3.6s-9.2-1.2-13.2-3.2z"></path>
</svg>
