<?xml version="1.0" encoding="utf-8"?>
<!-- Generated by IcoMoon.io -->
<!DOCTYPE svg PUBLIC "-//W3C//DTD SVG 1.1//EN" "http://www.w3.org/Graphics/SVG/1.1/DTD/svg11.dtd">
<svg version="1.1" xmlns="http://www.w3.org/2000/svg" xmlns:xlink="http://www.w3.org/1999/xlink" width="16" height="16" viewBox="0 0 16 16">
<path fill="#444" d="M8 0c-2.761 0-5 2.239-5 5 0.013 1.672 0.878 3.138 2.182 3.989l0.818 2.011c-0.276 0-0.5 0.224-0.5 0.5s0.224 0.5 0.5 0.5c-0.276 0-0.5 0.224-0.5 0.5s0.224 0.5 0.5 0.5c-0.276 0-0.5 0.224-0.5 0.5s0.224 0.5 0.5 0.5c-0.276 0-0.5 0.224-0.5 0.5s0.224 0.5 0.5 0.5h0.41c0.342 0.55 0.915 0.929 1.581 0.999 0.684-0.071 1.258-0.449 1.594-0.99l0.415-0.009c0.276 0 0.5-0.224 0.5-0.5s-0.224-0.5-0.5-0.5c0.276 0 0.5-0.224 0.5-0.5s-0.224-0.5-0.5-0.5c0.276 0 0.5-0.224 0.5-0.5s-0.224-0.5-0.5-0.5c0.276 0 0.5-0.224 0.5-0.5s-0.224-0.5-0.5-0.5l0.8-2c1.322-0.862 2.187-2.328 2.2-3.998 0-2.763-2.239-5.002-5-5.002zM10.25 8.21l-0.25 0.17-0.11 0.29-0.89 2.14c-0.042 0.111-0.147 0.189-0.27 0.19h-1.51c-0.103-0.020-0.186-0.093-0.219-0.188l-0.871-2.142-0.13-0.29-0.25-0.18c-1.045-0.7-1.729-1.868-1.75-3.197-0-2.212 1.791-4.003 4-4.003s4 1.791 4 4c-0.017 1.336-0.702 2.509-1.736 3.201z"></path>
<path fill="#444" d="M10.29 3c-0.574-0.612-1.387-0.995-2.289-1l-0.001 1c0.585 0.002 1.115 0.238 1.5 0.62 0.278 0.386 0.459 0.858 0.499 1.37l1.001 0.009c-0.045-0.756-0.305-1.443-0.718-2.011z"></path>
</svg>
