<?xml version="1.0" encoding="utf-8"?>
<!-- Generated by IcoMoon.io -->
<!DOCTYPE svg PUBLIC "-//W3C//DTD SVG 1.1//EN" "http://www.w3.org/Graphics/SVG/1.1/DTD/svg11.dtd">
<svg version="1.1" xmlns="http://www.w3.org/2000/svg" xmlns:xlink="http://www.w3.org/1999/xlink" width="64" height="64" viewBox="0 0 64 64">
<path fill="#444444" d="M46.8 7.6c-4-4.8-10.4-7.6-16.8-7.6s-12.8 2.8-16.8 7.6c-4 4.4-5.6 10.4-4.8 16 0.8 6 3.2 10.4 8.4 14.8 2 1.6 2.8 3.2 3.6 4.8 0 0.4 0.4 0.8 0.4 1.2-0.4 0.4-0.8 0.8-0.8 1.6 0 1.2 0.8 2 2 2-1.2 0-2 0.8-2 2s0.8 2 2 2c-1.2 0-2 0.8-2 2s0.8 2 2 2c-1.2 0-2 0.8-2 2s0.8 2 2 2h2c0 2 2.8 4 6 4s6-2 6-4h2c1.2 0 2-0.8 2-2s-0.8-2-2-2c1.2 0 2-0.8 2-2s-0.8-2-2-2c1.2 0 2-0.8 2-2s-0.8-2-2-2c1.2 0 2-0.8 2-2 0-0.8-0.4-1.2-0.8-1.6 0-0.4 0.4-0.4 0.4-0.8 0.8-1.6 1.6-3.2 3.6-4.8 5.2-4.4 7.6-8.8 8.4-15.2 0.8-5.6-0.8-11.2-4.8-16zM48 23.2c-0.8 5.2-2.8 8.8-7.2 12.8-2.4 2-3.6 4-4.8 5.6-0.8 2-1.2 2.4-2 2.4h-8c-0.8 0-1.2-0.4-2-2.4-0.8-1.6-2-4-4.4-6.4-5.2-4.4-6.4-8-7.2-12-0.8-4.4 0.8-9.2 3.6-12.8 3.6-4 8.8-6.4 14-6.4s10.4 2.4 14 6.4c2.8 3.6 4.4 8.4 4 12.8z"></path>
<path fill="#444444" d="M44 20h-4c0-2.8-3.2-8-8-8v-4c7.2 0 12 7.2 12 12z"></path>
</svg>
