<?xml version="1.0" encoding="utf-8"?>
<!-- Generated by IcoMoon.io -->
<!DOCTYPE svg PUBLIC "-//W3C//DTD SVG 1.1//EN" "http://www.w3.org/Graphics/SVG/1.1/DTD/svg11.dtd">
<svg version="1.1" xmlns="http://www.w3.org/2000/svg" xmlns:xlink="http://www.w3.org/1999/xlink" width="64" height="64" viewBox="0 0 64 64">
<path fill="#444444" d="M59.6 4.4c-5.6-5.6-14.8-5.6-20.4 0l-17.6 17.2c-5.6 6-5.6 14.8 0 20.8 0.4 0.4 1.2 0.8 1.6 1.2l6-6c-0.4-0.4-1.2-0.8-1.6-1.2-2.4-2.4-2.4-6.4 0-8.8l17.6-17.6c2.4-2.4 6.4-2.4 8.8 0s2.4 6.4 0 8.8l-5.2 5.2c1.6 3.2 2 6.8 1.6 10l9.2-9.2c6-5.6 6-14.8 0-20.4z"></path>
<path fill="#444444" d="M40.8 20.4l-6 6c0 0 1.2 0.8 1.6 1.2 2.4 2.4 2.4 6.4 0 8.8l-17.6 17.6c-2.4 2.4-6.4 2.4-8.8 0s-2.4-6.4 0-8.8l5.2-5.2c-1.6-3.2-0.4-5.2-1.6-10l-9.2 9.2c-5.6 5.6-5.6 14.8 0 20.4s14.8 5.6 20.4 0l17.6-17.6c5.6-5.6 5.6-14.8 0-20.4-0.8-0.4-1.6-1.2-1.6-1.2z"></path>
</svg>
