<?xml version="1.0" encoding="utf-8"?>
<!-- Generated by IcoMoon.io -->
<!DOCTYPE svg PUBLIC "-//W3C//DTD SVG 1.1//EN" "http://www.w3.org/Graphics/SVG/1.1/DTD/svg11.dtd">
<svg version="1.1" xmlns="http://www.w3.org/2000/svg" xmlns:xlink="http://www.w3.org/1999/xlink" width="16" height="16" viewBox="0 0 16 16">
<path fill="#444" d="M14.9 1.1c-1.4-1.4-3.7-1.4-5.1 0l-4.4 4.3c-1.4 1.5-1.4 3.7 0 5.2 0.1 0.1 0.3 0.2 0.4 0.3l1.5-1.5c-0.1-0.1-0.3-0.2-0.4-0.3-0.6-0.6-0.6-1.6 0-2.2l4.4-4.4c0.6-0.6 1.6-0.6 2.2 0s0.6 1.6 0 2.2l-1.3 1.3c0.4 0.8 0.5 1.7 0.4 2.5l2.3-2.3c1.5-1.4 1.5-3.7 0-5.1z"></path>
<path fill="#444" d="M10.2 5.1l-1.5 1.5c0 0 0.3 0.2 0.4 0.3 0.6 0.6 0.6 1.6 0 2.2l-4.4 4.4c-0.6 0.6-1.6 0.6-2.2 0s-0.6-1.6 0-2.2l1.3-1.3c-0.4-0.8-0.1-1.3-0.4-2.5l-2.3 2.3c-1.4 1.4-1.4 3.7 0 5.1s3.7 1.4 5.1 0l4.4-4.4c1.4-1.4 1.4-3.7 0-5.1-0.2-0.1-0.4-0.3-0.4-0.3z"></path>
</svg>
