<?xml version="1.0" encoding="utf-8"?>
<!-- Generated by IcoMoon.io -->
<!DOCTYPE svg PUBLIC "-//W3C//DTD SVG 1.1//EN" "http://www.w3.org/Graphics/SVG/1.1/DTD/svg11.dtd">
<svg version="1.1" xmlns="http://www.w3.org/2000/svg" xmlns:xlink="http://www.w3.org/1999/xlink" width="64" height="64" viewBox="0 0 64 64">
<path fill="#444444" d="M16 0h48v16h-48v-16z"></path>
<path fill="#444444" d="M16 24h48v16h-48v-16z"></path>
<path fill="#444444" d="M16 48h48v16h-48v-16z"></path>
<path fill="#444444" d="M4 0l-3.6 2 0.8 2.8 2.8-1.2v12.4h4v-16z"></path>
<path fill="#444444" d="M8.8 55.6c1.2-0.8 2-2 2-3.2 0-2-1.6-4-5.2-4-2 0-4 0.4-4.8 1.2h-0.4l0.8 3.2 0.4-0.4c0.4-0.4 1.6-0.8 2.8-0.8s1.6 0.4 1.6 1.2c0 1.6-2 1.6-2.4 1.6h-1.6v2.8h1.6c1.2 0 2.4 0.4 2.4 1.6 0 0.8-0.8 1.6-2.4 1.6s-2.8-0.8-3.2-0.8l-0.4-0.4v3.6h0.4c0.8 0.8 2.4 1.2 4.4 1.2 4 0 6.4-2 6.4-4.8 0-1.6-0.8-3.2-2.4-3.6z"></path>
<path fill="#444444" d="M0.4 25.6l1.2 4c0 0 2.8-2.4 4.8-1.2 4.4 3.2-6.4 9.6-6.4 9.6v2h12v-4h-4.8c2.4-2 4.8-4.8 4-7.6-2-7.6-10.8-2.8-10.8-2.8z"></path>
</svg>
