<?xml version="1.0" encoding="utf-8"?>
<!-- Generated by IcoMoon.io -->
<!DOCTYPE svg PUBLIC "-//W3C//DTD SVG 1.1//EN" "http://www.w3.org/Graphics/SVG/1.1/DTD/svg11.dtd">
<svg version="1.1" xmlns="http://www.w3.org/2000/svg" xmlns:xlink="http://www.w3.org/1999/xlink" width="16" height="16" viewBox="0 0 16 16">
<path fill="#444" d="M4 0h12v4h-12v-4z"></path>
<path fill="#444" d="M4 6h12v4h-12v-4z"></path>
<path fill="#444" d="M4 12h12v4h-12v-4z"></path>
<path fill="#444" d="M1 0l-0.9 0.5 0.2 0.7 0.7-0.3v3.1h1v-4z"></path>
<path fill="#444" d="M2.2 13.9c0.3-0.2 0.5-0.5 0.5-0.8 0-0.5-0.4-1-1.3-1-0.5 0-1 0.1-1.2 0.3h-0.1l0.2 0.8 0.1-0.1c0.1-0.1 0.4-0.2 0.7-0.2s0.4 0.1 0.4 0.3c0 0.4-0.5 0.4-0.6 0.4h-0.4v0.7h0.4c0.3 0 0.6 0.1 0.6 0.4 0 0.2-0.2 0.4-0.6 0.4s-0.7-0.2-0.8-0.2l-0.1-0.1v0.9h0.1c0.2 0.2 0.6 0.3 1.1 0.3 1 0 1.6-0.5 1.6-1.2 0-0.4-0.2-0.8-0.6-0.9z"></path>
<path fill="#444" d="M0.1 6.4l0.3 1c0 0 0.7-0.6 1.2-0.3 1.1 0.8-1.6 2.4-1.6 2.4v0.5h3v-1h-1.2c0.6-0.5 1.2-1.2 1-1.9-0.5-1.9-2.7-0.7-2.7-0.7z"></path>
</svg>
