<?xml version="1.0" encoding="utf-8"?>
<!-- Generated by IcoMoon.io -->
<!DOCTYPE svg PUBLIC "-//W3C//DTD SVG 1.1//EN" "http://www.w3.org/Graphics/SVG/1.1/DTD/svg11.dtd">
<svg version="1.1" xmlns="http://www.w3.org/2000/svg" xmlns:xlink="http://www.w3.org/1999/xlink" width="64" height="64" viewBox="0 0 64 64">
<path fill="#444444" d="M48 32v-12.4c0-8.8-6.4-15.6-15.2-15.6h-1.2c-8.4 0-15.6 6.8-15.6 15.6v12.4h-4l0.4 20c0 0-0.4 12 19.6 12s20-12 20-12v-20h-4zM36 56h-4v-8c-2.4 0-4-1.6-4-4s1.6-4 4-4 4 1.6 4 4v12zM40 32h-16v-12.4c0-4.4 3.6-7.6 7.6-7.6h1.2c4 0 7.2 3.2 7.2 7.6v12.4z"></path>
</svg>
