<?xml version="1.0" encoding="utf-8"?>
<!-- Generated by IcoMoon.io -->
<!DOCTYPE svg PUBLIC "-//W3C//DTD SVG 1.1//EN" "http://www.w3.org/Graphics/SVG/1.1/DTD/svg11.dtd">
<svg version="1.1" xmlns="http://www.w3.org/2000/svg" xmlns:xlink="http://www.w3.org/1999/xlink" width="16" height="16" viewBox="0 0 16 16">
<path fill="#444" d="M0 5h3v1h-3v-1z"></path>
<path fill="#444" d="M5 0h1v3h-1v-3z"></path>
<path fill="#444" d="M6 11h-1v-2.5l1 1z"></path>
<path fill="#444" d="M11 6h-1.5l-1-1h2.5z"></path>
<path fill="#444" d="M3.131 7.161l0.707 0.707-2.97 2.97-0.707-0.707 2.97-2.97z"></path>
<path fill="#444" d="M10.131 0.161l0.707 0.707-2.97 2.97-0.707-0.707 2.97-2.97z"></path>
<path fill="#444" d="M0.836 0.199l3.465 3.465-0.707 0.707-3.465-3.465 0.707-0.707z"></path>
<path fill="#444" d="M6.1 4.1l-2.1 2 9.8 9.9 2.2-2.1-9.9-9.8zM6.1 5.5l2.4 2.5-0.6 0.6-2.5-2.5 0.7-0.6z"></path>
</svg>
