<?xml version="1.0" encoding="utf-8"?>
<!-- Generated by IcoMoon.io -->
<!DOCTYPE svg PUBLIC "-//W3C//DTD SVG 1.1//EN" "http://www.w3.org/Graphics/SVG/1.1/DTD/svg11.dtd">
<svg version="1.1" xmlns="http://www.w3.org/2000/svg" xmlns:xlink="http://www.w3.org/1999/xlink" width="64" height="64" viewBox="0 0 64 64">
<path fill="#444444" d="M0 20h12v4h-12v-4z"></path>
<path fill="#444444" d="M20 0h4v12h-4v-12z"></path>
<path fill="#444444" d="M24 44h-4v-10l4 4z"></path>
<path fill="#444444" d="M44 24h-6l-4-4h10z"></path>
<path fill="#444444" d="M12.525 28.646l2.828 2.828-11.879 11.879-2.828-2.828 11.879-11.879z"></path>
<path fill="#444444" d="M40.525 0.646l2.828 2.828-11.879 11.879-2.828-2.828 11.879-11.879z"></path>
<path fill="#444444" d="M3.343 0.797l13.859 13.859-2.828 2.828-13.859-13.859 2.828-2.828z"></path>
<path fill="#444444" d="M24.4 16.4l-8.4 8 39.2 39.6 8.8-8.4-39.6-39.2zM24.4 22l9.6 10-2.4 2.4-10-10 2.8-2.4z"></path>
</svg>
