<?xml version="1.0" encoding="utf-8"?>
<!-- Generated by IcoMoon.io -->
<!DOCTYPE svg PUBLIC "-//W3C//DTD SVG 1.1//EN" "http://www.w3.org/Graphics/SVG/1.1/DTD/svg11.dtd">
<svg version="1.1" xmlns="http://www.w3.org/2000/svg" xmlns:xlink="http://www.w3.org/1999/xlink" width="16" height="16" viewBox="0 0 16 16">
<path fill="#444" d="M10 2c0 1.105-0.895 2-2 2s-2-0.895-2-2c0-1.105 0.895-2 2-2s2 0.895 2 2z"></path>
<path fill="#444" d="M12.79 7.32l-2.6-2.63c-0.421-0.426-1.004-0.69-1.65-0.69h-1.070c-0 0-0 0-0.001 0-0.648 0-1.235 0.264-1.659 0.69l-2.6 2.63c-0.216 0.129-0.358 0.362-0.358 0.628 0 0.403 0.327 0.73 0.73 0.73 0.266 0 0.499-0.142 0.626-0.355l1.792-1.793v9.47h1.5v-5h1v5h1.5v-9.47l1.75 1.8c0.135 0.175 0.344 0.287 0.58 0.287 0.403 0 0.73-0.327 0.73-0.73 0-0.228-0.105-0.432-0.269-0.566z"></path>
</svg>
