<?xml version="1.0" encoding="utf-8"?>
<!-- Generated by IcoMoon.io -->
<!DOCTYPE svg PUBLIC "-//W3C//DTD SVG 1.1//EN" "http://www.w3.org/Graphics/SVG/1.1/DTD/svg11.dtd">
<svg version="1.1" xmlns="http://www.w3.org/2000/svg" xmlns:xlink="http://www.w3.org/1999/xlink" width="64" height="64" viewBox="0 0 64 64">
<path fill="#444444" d="M8 0v4h4v4h-4v4h4v4h-4v4h4v4h-4v4h4v4h-4v4h4v4h-4v4h4v4h-4v4h4v4h-4v4h4v4h52v-64h-56zM60 60h-44v-56h44v56z"></path>
<path fill="#444444" d="M0 0h4v4h-4v-4z"></path>
<path fill="#444444" d="M4 4h4v4h-4v-4z"></path>
<path fill="#444444" d="M0 8h4v4h-4v-4z"></path>
<path fill="#444444" d="M4 12h4v4h-4v-4z"></path>
<path fill="#444444" d="M0 16h4v4h-4v-4z"></path>
<path fill="#444444" d="M4 20h4v4h-4v-4z"></path>
<path fill="#444444" d="M0 24h4v4h-4v-4z"></path>
<path fill="#444444" d="M4 28h4v4h-4v-4z"></path>
<path fill="#444444" d="M0 32h4v4h-4v-4z"></path>
<path fill="#444444" d="M4 36h4v4h-4v-4z"></path>
<path fill="#444444" d="M0 40h4v4h-4v-4z"></path>
<path fill="#444444" d="M4 44h4v4h-4v-4z"></path>
<path fill="#444444" d="M0 48h4v4h-4v-4z"></path>
<path fill="#444444" d="M4 52h4v4h-4v-4z"></path>
<path fill="#444444" d="M0 56h4v4h-4v-4z"></path>
<path fill="#444444" d="M4 60h4v4h-4v-4z"></path>
</svg>
