<?xml version="1.0" encoding="utf-8"?>
<!-- Generated by IcoMoon.io -->
<!DOCTYPE svg PUBLIC "-//W3C//DTD SVG 1.1//EN" "http://www.w3.org/Graphics/SVG/1.1/DTD/svg11.dtd">
<svg version="1.1" xmlns="http://www.w3.org/2000/svg" xmlns:xlink="http://www.w3.org/1999/xlink" width="64" height="64" viewBox="0 0 64 64">
<path fill="#444444" d="M60 8v4h-4v-4h-4v4h-4v-4h-4v4h-4v-4h-4v4h-4v-4h-4v4h-4v-4h-4v4h-4v-4h-4v4h-4v-4h-4v4h-4v52h64v-56h-4zM60 60h-56v-44h56v44z"></path>
<path fill="#444444" d="M60 0h4v4h-4v-4z"></path>
<path fill="#444444" d="M56 4h4v4h-4v-4z"></path>
<path fill="#444444" d="M52 0h4v4h-4v-4z"></path>
<path fill="#444444" d="M48 4h4v4h-4v-4z"></path>
<path fill="#444444" d="M44 0h4v4h-4v-4z"></path>
<path fill="#444444" d="M40 4h4v4h-4v-4z"></path>
<path fill="#444444" d="M36 0h4v4h-4v-4z"></path>
<path fill="#444444" d="M32 4h4v4h-4v-4z"></path>
<path fill="#444444" d="M28 0h4v4h-4v-4z"></path>
<path fill="#444444" d="M24 4h4v4h-4v-4z"></path>
<path fill="#444444" d="M20 0h4v4h-4v-4z"></path>
<path fill="#444444" d="M16 4h4v4h-4v-4z"></path>
<path fill="#444444" d="M12 0h4v4h-4v-4z"></path>
<path fill="#444444" d="M8 4h4v4h-4v-4z"></path>
<path fill="#444444" d="M4 0h4v4h-4v-4z"></path>
<path fill="#444444" d="M0 4h4v4h-4v-4z"></path>
</svg>
