<?xml version="1.0" encoding="utf-8"?>
<!-- Generated by IcoMoon.io -->
<!DOCTYPE svg PUBLIC "-//W3C//DTD SVG 1.1//EN" "http://www.w3.org/Graphics/SVG/1.1/DTD/svg11.dtd">
<svg version="1.1" xmlns="http://www.w3.org/2000/svg" xmlns:xlink="http://www.w3.org/1999/xlink" width="16" height="16" viewBox="0 0 16 16">
<path fill="#444" d="M0 0v14h1v-1h1v1h1v-1h1v1h1v-1h1v1h1v-1h1v1h1v-1h1v1h1v-1h1v1h1v-1h1v1h1v-1h1v-13h-16zM15 12h-14v-11h14v11z"></path>
<path fill="#444" d="M0 15h1v1h-1v-1z"></path>
<path fill="#444" d="M1 14h1v1h-1v-1z"></path>
<path fill="#444" d="M2 15h1v1h-1v-1z"></path>
<path fill="#444" d="M3 14h1v1h-1v-1z"></path>
<path fill="#444" d="M4 15h1v1h-1v-1z"></path>
<path fill="#444" d="M5 14h1v1h-1v-1z"></path>
<path fill="#444" d="M6 15h1v1h-1v-1z"></path>
<path fill="#444" d="M7 14h1v1h-1v-1z"></path>
<path fill="#444" d="M8 15h1v1h-1v-1z"></path>
<path fill="#444" d="M9 14h1v1h-1v-1z"></path>
<path fill="#444" d="M10 15h1v1h-1v-1z"></path>
<path fill="#444" d="M11 14h1v1h-1v-1z"></path>
<path fill="#444" d="M12 15h1v1h-1v-1z"></path>
<path fill="#444" d="M13 14h1v1h-1v-1z"></path>
<path fill="#444" d="M14 15h1v1h-1v-1z"></path>
<path fill="#444" d="M15 14h1v1h-1v-1z"></path>
</svg>
