<?xml version="1.0" encoding="utf-8"?>
<!-- Generated by IcoMoon.io -->
<!DOCTYPE svg PUBLIC "-//W3C//DTD SVG 1.1//EN" "http://www.w3.org/Graphics/SVG/1.1/DTD/svg11.dtd">
<svg version="1.1" xmlns="http://www.w3.org/2000/svg" xmlns:xlink="http://www.w3.org/1999/xlink" width="64" height="64" viewBox="0 0 64 64">
<path fill="#444444" d="M0 0v56h4v-4h4v4h4v-4h4v4h4v-4h4v4h4v-4h4v4h4v-4h4v4h4v-4h4v4h4v-4h4v4h4v-4h4v-52h-64zM60 48h-56v-44h56v44z"></path>
<path fill="#444444" d="M0 60h4v4h-4v-4z"></path>
<path fill="#444444" d="M4 56h4v4h-4v-4z"></path>
<path fill="#444444" d="M8 60h4v4h-4v-4z"></path>
<path fill="#444444" d="M12 56h4v4h-4v-4z"></path>
<path fill="#444444" d="M16 60h4v4h-4v-4z"></path>
<path fill="#444444" d="M20 56h4v4h-4v-4z"></path>
<path fill="#444444" d="M24 60h4v4h-4v-4z"></path>
<path fill="#444444" d="M28 56h4v4h-4v-4z"></path>
<path fill="#444444" d="M32 60h4v4h-4v-4z"></path>
<path fill="#444444" d="M36 56h4v4h-4v-4z"></path>
<path fill="#444444" d="M40 60h4v4h-4v-4z"></path>
<path fill="#444444" d="M44 56h4v4h-4v-4z"></path>
<path fill="#444444" d="M48 60h4v4h-4v-4z"></path>
<path fill="#444444" d="M52 56h4v4h-4v-4z"></path>
<path fill="#444444" d="M56 60h4v4h-4v-4z"></path>
<path fill="#444444" d="M60 56h4v4h-4v-4z"></path>
</svg>
