<?xml version="1.0" encoding="utf-8"?>
<!-- Generated by IcoMoon.io -->
<!DOCTYPE svg PUBLIC "-//W3C//DTD SVG 1.1//EN" "http://www.w3.org/Graphics/SVG/1.1/DTD/svg11.dtd">
<svg version="1.1" xmlns="http://www.w3.org/2000/svg" xmlns:xlink="http://www.w3.org/1999/xlink" width="16" height="16" viewBox="0 0 16 16">
<path fill="#444" d="M14 2v-1h-1v-1h-13v16h14v-1h-1v-1h1v-1h-1v-1h1v-1h-1v-1h1v-1h-1v-1h1v-1h-1v-1h1v-1h-1v-1h1v-1h-1v-1h1zM12 15h-11v-14h11v14z"></path>
<path fill="#444" d="M15 15h1v1h-1v-1z"></path>
<path fill="#444" d="M14 14h1v1h-1v-1z"></path>
<path fill="#444" d="M15 13h1v1h-1v-1z"></path>
<path fill="#444" d="M14 12h1v1h-1v-1z"></path>
<path fill="#444" d="M15 11h1v1h-1v-1z"></path>
<path fill="#444" d="M14 10h1v1h-1v-1z"></path>
<path fill="#444" d="M15 9h1v1h-1v-1z"></path>
<path fill="#444" d="M14 8h1v1h-1v-1z"></path>
<path fill="#444" d="M15 7h1v1h-1v-1z"></path>
<path fill="#444" d="M14 6h1v1h-1v-1z"></path>
<path fill="#444" d="M15 5h1v1h-1v-1z"></path>
<path fill="#444" d="M14 4h1v1h-1v-1z"></path>
<path fill="#444" d="M15 3h1v1h-1v-1z"></path>
<path fill="#444" d="M14 2h1v1h-1v-1z"></path>
<path fill="#444" d="M15 1h1v1h-1v-1z"></path>
<path fill="#444" d="M14 0h1v1h-1v-1z"></path>
</svg>
