<?xml version="1.0" encoding="utf-8"?>
<!-- Generated by IcoMoon.io -->
<!DOCTYPE svg PUBLIC "-//W3C//DTD SVG 1.1//EN" "http://www.w3.org/Graphics/SVG/1.1/DTD/svg11.dtd">
<svg version="1.1" xmlns="http://www.w3.org/2000/svg" xmlns:xlink="http://www.w3.org/1999/xlink" width="64" height="64" viewBox="0 0 64 64">
<path fill="#444444" d="M56 8v-4h-4v-4h-52v64h56v-4h-4v-4h4v-4h-4v-4h4v-4h-4v-4h4v-4h-4v-4h4v-4h-4v-4h4v-4h-4v-4h4v-4h-4v-4h4zM48 60h-44v-56h44v56z"></path>
<path fill="#444444" d="M60 60h4v4h-4v-4z"></path>
<path fill="#444444" d="M56 56h4v4h-4v-4z"></path>
<path fill="#444444" d="M60 52h4v4h-4v-4z"></path>
<path fill="#444444" d="M56 48h4v4h-4v-4z"></path>
<path fill="#444444" d="M60 44h4v4h-4v-4z"></path>
<path fill="#444444" d="M56 40h4v4h-4v-4z"></path>
<path fill="#444444" d="M60 36h4v4h-4v-4z"></path>
<path fill="#444444" d="M56 32h4v4h-4v-4z"></path>
<path fill="#444444" d="M60 28h4v4h-4v-4z"></path>
<path fill="#444444" d="M56 24h4v4h-4v-4z"></path>
<path fill="#444444" d="M60 20h4v4h-4v-4z"></path>
<path fill="#444444" d="M56 16h4v4h-4v-4z"></path>
<path fill="#444444" d="M60 12h4v4h-4v-4z"></path>
<path fill="#444444" d="M56 8h4v4h-4v-4z"></path>
<path fill="#444444" d="M60 4h4v4h-4v-4z"></path>
<path fill="#444444" d="M56 0h4v4h-4v-4z"></path>
</svg>
