<?xml version="1.0" encoding="utf-8"?>
<!-- Generated by IcoMoon.io -->
<!DOCTYPE svg PUBLIC "-//W3C//DTD SVG 1.1//EN" "http://www.w3.org/Graphics/SVG/1.1/DTD/svg11.dtd">
<svg version="1.1" xmlns="http://www.w3.org/2000/svg" xmlns:xlink="http://www.w3.org/1999/xlink" width="64" height="64" viewBox="0 0 64 64">
<path fill="#444444" d="M40 48.8c-1.2 0-2-0.4-3.2-0.8l-4.8-2-4.8 2c-0.8 0.4-2 0.8-3.2 0.8-0.8 0-1.2 0-2-0.4l-2 15.6 12-8 12 8-2.4-15.6c-0.4 0.4-1.2 0.4-1.6 0.4z"></path>
<path fill="#444444" d="M51.6 23.6c-0.4-0.8-0.4-2 0-2.8l2.4-4.8c0.8-1.6 0-3.6-2-4.4l-5.2-2c-0.8-0.4-1.6-1.2-2-2l-2-5.2c-0.4-1.6-1.6-2.4-2.8-2.4-0.4 0-1.2 0-1.6 0.4l-5.2 2.4c-0.4 0-0.8 0-1.2 0s-0.8 0-1.2-0.4l-5.2-2c-0.4-0.4-1.2-0.4-1.6-0.4-1.2 0-2.4 0.8-3.2 2l-2 5.6c0 0.8-0.8 1.6-1.6 2l-5.6 2c-1.6 0.4-2.4 2.4-1.6 4.4l2.4 5.2c0.4 0.8 0.4 2 0 2.8l-2.4 4.8c-0.8 1.6 0 3.6 2 4.4l5.2 2c0.8 0.4 1.6 1.2 2 2l2 5.2c0.4 1.6 1.6 2.4 2.8 2.4 0.4 0 0.8 0 1.2-0.4l5.2-2.4c0.4 0 0.8-0.4 1.2-0.4s0.8 0 1.2 0.4l5.2 2.4c0.4 0.4 0.8 0.4 1.2 0.4 1.2 0 2.4-0.8 3.2-2l2-5.2c0.4-0.8 1.2-1.6 2-2l5.2-2c1.6-0.8 2.8-2.8 2-4.4l-2-5.6zM32 38.4c-8.8 0-16-7.2-16-16s7.2-16 16-16 16 7.2 16 16c0 8.8-7.2 16-16 16z"></path>
<path fill="#444444" d="M44 22.4c0 6.627-5.373 12-12 12s-12-5.373-12-12c0-6.627 5.373-12 12-12s12 5.373 12 12z"></path>
</svg>
