<?xml version="1.0" encoding="utf-8"?>
<!-- Generated by IcoMoon.io -->
<!DOCTYPE svg PUBLIC "-//W3C//DTD SVG 1.1//EN" "http://www.w3.org/Graphics/SVG/1.1/DTD/svg11.dtd">
<svg version="1.1" xmlns="http://www.w3.org/2000/svg" xmlns:xlink="http://www.w3.org/1999/xlink" width="16" height="16" viewBox="0 0 16 16">
<path fill="#444" d="M10 12.2c-0.3 0-0.5-0.1-0.8-0.2l-1.2-0.5-1.2 0.5c-0.2 0.1-0.5 0.2-0.8 0.2-0.2 0-0.3 0-0.5-0.1l-0.5 3.9 3-2 3 2-0.6-3.9c-0.1 0.1-0.3 0.1-0.4 0.1z"></path>
<path fill="#444" d="M12.9 5.9c-0.1-0.2-0.1-0.5 0-0.7l0.6-1.2c0.2-0.4 0-0.9-0.5-1.1l-1.3-0.5c-0.2-0.1-0.4-0.3-0.5-0.5l-0.5-1.3c-0.1-0.4-0.4-0.6-0.7-0.6-0.1 0-0.3 0-0.4 0.1l-1.3 0.6c-0.1 0-0.2 0-0.3 0s-0.2 0-0.3-0.1l-1.3-0.5c-0.1-0.1-0.3-0.1-0.4-0.1-0.3 0-0.6 0.2-0.8 0.5l-0.5 1.4c0 0.2-0.2 0.4-0.4 0.5l-1.4 0.5c-0.4 0.1-0.6 0.6-0.4 1.1l0.6 1.3c0.1 0.2 0.1 0.5 0 0.7l-0.6 1.2c-0.2 0.4 0 0.9 0.5 1.1l1.3 0.5c0.2 0.1 0.4 0.3 0.5 0.5l0.5 1.3c0.1 0.4 0.4 0.6 0.7 0.6 0.1 0 0.2 0 0.3-0.1l1.3-0.6c0.1 0 0.2-0.1 0.3-0.1s0.2 0 0.3 0.1l1.3 0.6c0.1 0.1 0.2 0.1 0.3 0.1 0.3 0 0.6-0.2 0.8-0.5l0.5-1.3c0.1-0.2 0.3-0.4 0.5-0.5l1.3-0.5c0.4-0.2 0.7-0.7 0.5-1.1l-0.5-1.4zM8 9.6c-2.2 0-4-1.8-4-4s1.8-4 4-4 4 1.8 4 4c0 2.2-1.8 4-4 4z"></path>
<path fill="#444" d="M11 5.6c0 1.657-1.343 3-3 3s-3-1.343-3-3c0-1.657 1.343-3 3-3s3 1.343 3 3z"></path>
</svg>
