<?xml version="1.0" encoding="utf-8"?>
<!-- Generated by IcoMoon.io -->
<!DOCTYPE svg PUBLIC "-//W3C//DTD SVG 1.1//EN" "http://www.w3.org/Graphics/SVG/1.1/DTD/svg11.dtd">
<svg version="1.1" xmlns="http://www.w3.org/2000/svg" xmlns:xlink="http://www.w3.org/1999/xlink" width="64" height="64" viewBox="0 0 64 64">
<path fill="#444444" d="M62 21.6l-2-1.6v-16c0-2.4-1.6-4-4-4s-4 1.6-4 4v2c-8 3.6-20 10-32 10h-10c-5.6 0-10 4.8-10 10 0 3.6 2 6.8 4.8 8.4l4.4 23.6c0 1.2 1.2 2 2.8 2 0.4 0 0.4 0 0.8 0l14.4-2.8c1.6-0.4 2.4-1.6 2-2.8-1.2-2.4-3.2-6-4.8-7.2-0.8-0.4-2-3.6-2.8-7.2h2.4v-3.6c10.8 1.2 24 6.4 28 9.6v2c0 2.4 1.6 4 4 4s4-1.6 4-4v-16l1.6-1.2c1.6-1.2 2.4-2.8 2.4-4.4v-0.8c0-1.6-0.8-2.8-2-4zM8 20h12v4h-12v-4zM22.4 50.4c0.4 0 1.2 1.2 2 2.8l-11.2 2.8-4-20h7.6c0.8 5.2 2.4 12.8 5.6 14.4zM52 41.2c-6.4-3.2-17.6-8-28-9.2v-12c10.4-1.2 21.6-5.6 28-9.2v30.4z"></path>
</svg>
