<?xml version="1.0" encoding="utf-8"?>
<!-- Generated by IcoMoon.io -->
<!DOCTYPE svg PUBLIC "-//W3C//DTD SVG 1.1//EN" "http://www.w3.org/Graphics/SVG/1.1/DTD/svg11.dtd">
<svg version="1.1" xmlns="http://www.w3.org/2000/svg" xmlns:xlink="http://www.w3.org/1999/xlink" width="16" height="16" viewBox="0 0 16 16">
<path fill="#444" d="M15.5 5.4l-0.5-0.4v-4c0-0.6-0.4-1-1-1s-1 0.4-1 1v0.5c-2 0.9-5 2.5-8 2.5h-2.5c-1.4 0-2.5 1.2-2.5 2.5 0 0.9 0.5 1.7 1.2 2.1l1.1 5.9c0 0.3 0.3 0.5 0.7 0.5 0.1 0 0.1 0 0.2 0l3.6-0.7c0.4-0.1 0.6-0.4 0.5-0.7-0.3-0.6-0.8-1.5-1.2-1.8-0.2-0.1-0.5-0.9-0.7-1.8h0.6v-0.9c2.7 0.3 6 1.6 7 2.4v0.5c0 0.6 0.4 1 1 1s1-0.4 1-1v-4l0.4-0.3c0.4-0.3 0.6-0.7 0.6-1.1v-0.2c0-0.4-0.2-0.7-0.5-1zM2 5h3v1h-3v-1zM5.6 12.6c0.1 0 0.3 0.3 0.5 0.7l-2.8 0.7-1-5h1.9c0.2 1.3 0.6 3.2 1.4 3.6zM13 10.3c-1.6-0.8-4.4-2-7-2.3v-3c2.6-0.3 5.4-1.4 7-2.3v7.6z"></path>
</svg>
