<?xml version="1.0" encoding="utf-8"?>
<!-- Generated by IcoMoon.io -->
<!DOCTYPE svg PUBLIC "-//W3C//DTD SVG 1.1//EN" "http://www.w3.org/Graphics/SVG/1.1/DTD/svg11.dtd">
<svg version="1.1" xmlns="http://www.w3.org/2000/svg" xmlns:xlink="http://www.w3.org/1999/xlink" width="64" height="64" viewBox="0 0 64 64">
<path fill="#444444" d="M32 40v0c-6.8 0-12-5.2-12-12v-16c0-6.4 5.2-12 12-12v0c6.4 0 12 5.2 12 12v16c0 6.4-5.6 12-12 12z"></path>
<path fill="#444444" d="M48 20v10c0 7.6-7.2 14-15.2 14h-1.6c-8 0-15.2-6.4-15.2-14v-10c-2.4 0-4 1.6-4 4v6c0 8.8 7.2 16.4 16 17.6v8.4c-12 0-10 8-10 8h28c0 0 2-8-10-8v-8.4c8.8-1.6 16-8.8 16-17.6v-6c0-2.4-1.6-4-4-4z"></path>
</svg>
