<?xml version="1.0" encoding="utf-8"?>
<!-- Generated by IcoMoon.io -->
<!DOCTYPE svg PUBLIC "-//W3C//DTD SVG 1.1//EN" "http://www.w3.org/Graphics/SVG/1.1/DTD/svg11.dtd">
<svg version="1.1" xmlns="http://www.w3.org/2000/svg" xmlns:xlink="http://www.w3.org/1999/xlink" width="16" height="16" viewBox="0 0 16 16">
<path fill="#444" d="M11 0h-1v2h-6v14h7v-16zM6 14h-1v-1h1v1zM6 12h-1v-1h1v1zM6 10h-1v-1h1v1zM8 14h-1v-1h1v1zM8 12h-1v-1h1v1zM8 10h-1v-1h1v1zM10 14h-1v-1h1v1zM10 12h-1v-1h1v1zM10 10h-1v-1h1v1zM10 8h-5v-4h5v4z"></path>
</svg>
