<?xml version="1.0" encoding="utf-8"?>
<!-- Generated by IcoMoon.io -->
<!DOCTYPE svg PUBLIC "-//W3C//DTD SVG 1.1//EN" "http://www.w3.org/Graphics/SVG/1.1/DTD/svg11.dtd">
<svg version="1.1" xmlns="http://www.w3.org/2000/svg" xmlns:xlink="http://www.w3.org/1999/xlink" width="16" height="16" viewBox="0 0 16 16">
<path fill="#444" d="M8 16l-2-3h1v-2h2v2h1l-2 3z"></path>
<path fill="#444" d="M15 1v8h-14v-8h14zM16 0h-16v10h16v-10z"></path>
<path fill="#444" d="M8 2c1.657 0 3 1.343 3 3s-1.343 3-3 3h5v-1h1v-4h-1v-1h-5z"></path>
<path fill="#444" d="M5 5c0-1.657 1.343-3 3-3h-5v1h-1v4h1v1h5c-1.657 0-3-1.343-3-3z"></path>
</svg>
