<?xml version="1.0" encoding="utf-8"?>
<!-- Generated by IcoMoon.io -->
<!DOCTYPE svg PUBLIC "-//W3C//DTD SVG 1.1//EN" "http://www.w3.org/Graphics/SVG/1.1/DTD/svg11.dtd">
<svg version="1.1" xmlns="http://www.w3.org/2000/svg" xmlns:xlink="http://www.w3.org/1999/xlink" width="64" height="64" viewBox="0 0 64 64">
<path fill="#444444" d="M52.8 47.6c-18 0-32.4-14.4-32.4-32.4 0-5.6 1.2-10.8 3.6-15.2-13.6 3.6-24 16.4-24 31.6 0 18 14.4 32.4 32.4 32.4 12.4 0 23.2-7.2 28.8-17.6-2.4 0.8-5.2 1.2-8.4 1.2zM32.4 60c-15.6 0-28.4-12.8-28.4-28.4 0-10 5.2-18.8 13.2-24-0.8 2.4-0.8 4.8-0.8 7.6 0 20 16.4 36.4 36.4 36.8-5.6 4.8-12.8 8-20.4 8z"></path>
</svg>
