<?xml version="1.0" encoding="utf-8"?>
<!-- Generated by IcoMoon.io -->
<!DOCTYPE svg PUBLIC "-//W3C//DTD SVG 1.1//EN" "http://www.w3.org/Graphics/SVG/1.1/DTD/svg11.dtd">
<svg version="1.1" xmlns="http://www.w3.org/2000/svg" xmlns:xlink="http://www.w3.org/1999/xlink" width="16" height="16" viewBox="0 0 16 16">
<path fill="#444" d="M13.2 11.9c-4.5 0-8.1-3.6-8.1-8.1 0-1.4 0.3-2.7 0.9-3.8-3.4 0.9-6 4.1-6 7.9 0 4.5 3.6 8.1 8.1 8.1 3.1 0 5.8-1.8 7.2-4.4-0.6 0.2-1.3 0.3-2.1 0.3zM8.1 15c-3.9 0-7.1-3.2-7.1-7.1 0-2.5 1.3-4.7 3.3-6-0.2 0.6-0.2 1.2-0.2 1.9 0 5 4.1 9.1 9.1 9.2-1.4 1.2-3.2 2-5.1 2z"></path>
</svg>
