<?xml version="1.0" encoding="utf-8"?>
<!-- Generated by IcoMoon.io -->
<!DOCTYPE svg PUBLIC "-//W3C//DTD SVG 1.1//EN" "http://www.w3.org/Graphics/SVG/1.1/DTD/svg11.dtd">
<svg version="1.1" xmlns="http://www.w3.org/2000/svg" xmlns:xlink="http://www.w3.org/1999/xlink" width="64" height="64" viewBox="0 0 64 64">
<path fill="#444444" d="M60.8 0l-16.8 16.8v-4.8c0-6.8-5.2-12-12-12s-12 5.2-12 12v16c0 3.6 1.6 6.8 4 8.8l-3.2 3.2c-2.8-2.4-4.8-6-4.8-10v-10c-2.4 0-4 1.6-4 4v6c0 5.2 2.4 9.6 6 12.8l-18 18.4v2.8h2.8l61.2-61.6v-2.4h-3.2z"></path>
<path fill="#444444" d="M50 20.4l-2 2v7.6c0 7.6-7.2 14-15.2 14h-1.6c-1.2 0-2.4-0.4-3.6-0.4l-3.6 2.8c1.2 0.4 2.4 0.8 4 1.2v8.4c-12 0-10 8-10 8h28c0 0 2-8-10-8v-8.4c8.8-1.6 16-8.8 16-17.6v-6c0-1.6-0.8-2.8-2-3.6z"></path>
<path fill="#444444" d="M44 28v-1.6l-13.2 13.6c0.4 0 0.8 0 1.2 0 6.8 0 12-5.6 12-12z"></path>
</svg>
