<?xml version="1.0" encoding="utf-8"?>
<!-- Generated by IcoMoon.io -->
<!DOCTYPE svg PUBLIC "-//W3C//DTD SVG 1.1//EN" "http://www.w3.org/Graphics/SVG/1.1/DTD/svg11.dtd">
<svg version="1.1" xmlns="http://www.w3.org/2000/svg" xmlns:xlink="http://www.w3.org/1999/xlink" width="16" height="16" viewBox="0 0 16 16">
<path fill="#444" d="M15.2 0l-4.2 4.2v-1.2c0-1.7-1.3-3-3-3s-3 1.3-3 3v4c0 0.9 0.4 1.7 1 2.2l-0.8 0.8c-0.7-0.6-1.2-1.5-1.2-2.5v-2.5c-0.6 0-1 0.4-1 1v1.5c0 1.3 0.6 2.4 1.5 3.2l-4.5 4.6v0.7h0.7l15.3-15.4v-0.6h-0.8z"></path>
<path fill="#444" d="M12.5 5.1l-0.5 0.5v1.9c0 1.9-1.8 3.5-3.8 3.5h-0.4c-0.3 0-0.6-0.1-0.9-0.1l-0.9 0.7c0.3 0.1 0.6 0.2 1 0.3v2.1c-3 0-2.5 2-2.5 2h7c0 0 0.5-2-2.5-2v-2.1c2.2-0.4 4-2.2 4-4.4v-1.5c0-0.4-0.2-0.7-0.5-0.9z"></path>
<path fill="#444" d="M11 7v-0.4l-3.3 3.4c0.1 0 0.2 0 0.3 0 1.7 0 3-1.4 3-3z"></path>
</svg>
