<?xml version="1.0" encoding="utf-8"?>
<!-- Generated by IcoMoon.io -->
<!DOCTYPE svg PUBLIC "-//W3C//DTD SVG 1.1//EN" "http://www.w3.org/Graphics/SVG/1.1/DTD/svg11.dtd">
<svg version="1.1" xmlns="http://www.w3.org/2000/svg" xmlns:xlink="http://www.w3.org/1999/xlink" width="16" height="16" viewBox="0 0 16 16">
<path fill="#444" d="M2 4h11v4h-11v-4z"></path>
<path fill="#444" d="M2 2h11v1h-11v-1z"></path>
<path fill="#444" d="M8 13h3v1h-3v-1z"></path>
<path fill="#444" d="M8 11h5v1h-5v-1z"></path>
<path fill="#444" d="M8 9h5v1h-5v-1z"></path>
<path fill="#444" d="M2 13h5v1h-5v-1z"></path>
<path fill="#444" d="M2 11h5v1h-5v-1z"></path>
<path fill="#444" d="M2 9h5v1h-5v-1z"></path>
<path fill="#444" d="M15 2v-2h-15v14.5c0 0.828 0.672 1.5 1.5 1.5h13c0.828 0 1.5-0.672 1.5-1.5v-12.5h-1zM1.5 15c-0.276 0-0.5-0.224-0.5-0.5v-13.5h13v12.5c0 1.5 1 1.5 1 1.5h-13.5z"></path>
</svg>
