<?xml version="1.0" encoding="utf-8"?>
<!-- Generated by IcoMoon.io -->
<!DOCTYPE svg PUBLIC "-//W3C//DTD SVG 1.1//EN" "http://www.w3.org/Graphics/SVG/1.1/DTD/svg11.dtd">
<svg version="1.1" xmlns="http://www.w3.org/2000/svg" xmlns:xlink="http://www.w3.org/1999/xlink" width="16" height="16" viewBox="0 0 16 16">
<path fill="#444" d="M2 0v1h-0.52c-0.265 0-0.48 0.215-0.48 0.48v0c-0.001 0.012-0.002 0.026-0.002 0.040 0 0.265 0.215 0.48 0.48 0.48 0.001 0 0.001 0 0.002 0h0.52v1h-0.52c-0.265 0-0.48 0.215-0.48 0.48v0c-0.001 0.012-0.002 0.026-0.002 0.040 0 0.265 0.215 0.48 0.48 0.48 0.001 0 0.001 0 0.002 0h0.52v1h-0.52c-0.265 0-0.48 0.215-0.48 0.48 0 0 0 0 0 0v0c-0.001 0.012-0.002 0.026-0.002 0.040 0 0.265 0.215 0.48 0.48 0.48 0.001 0 0.001 0 0.002 0h0.52v1h-0.52c-0.265 0-0.48 0.215-0.48 0.48 0 0 0 0 0 0v0c-0.001 0.012-0.002 0.026-0.002 0.040 0 0.265 0.215 0.48 0.48 0.48 0.001 0 0.001 0 0.002 0h0.52v1h-0.52c-0.265 0-0.48 0.215-0.48 0.48 0 0 0 0 0 0v0c0 0.265 0.215 0.48 0.48 0.48 0 0 0 0 0 0h0.52v1h-0.52c-0.265 0-0.48 0.215-0.48 0.48 0 0 0 0 0 0v0c0 0.265 0.215 0.48 0.48 0.48 0 0 0 0 0 0h0.52v1h-0.52c-0.265 0-0.48 0.215-0.48 0.48 0 0 0 0 0 0v0c0 0.265 0.215 0.48 0.48 0.48 0 0 0 0 0 0h0.52v2h12v-15.88h-12zM3.5 14c-0.276 0-0.5-0.224-0.5-0.5s0.224-0.5 0.5-0.5c0.276 0 0.5 0.224 0.5 0.5s-0.224 0.5-0.5 0.5zM3.5 12c-0.276 0-0.5-0.224-0.5-0.5s0.224-0.5 0.5-0.5c0.276 0 0.5 0.224 0.5 0.5s-0.224 0.5-0.5 0.5zM3.5 10c-0.276 0-0.5-0.224-0.5-0.5s0.224-0.5 0.5-0.5c0.276 0 0.5 0.224 0.5 0.5s-0.224 0.5-0.5 0.5zM3.5 8c-0.276 0-0.5-0.224-0.5-0.5s0.224-0.5 0.5-0.5c0.276 0 0.5 0.224 0.5 0.5s-0.224 0.5-0.5 0.5zM3.5 6c-0.276 0-0.5-0.224-0.5-0.5s0.224-0.5 0.5-0.5c0.276 0 0.5 0.224 0.5 0.5s-0.224 0.5-0.5 0.5zM3.5 4c-0.276 0-0.5-0.224-0.5-0.5s0.224-0.5 0.5-0.5c0.276 0 0.5 0.224 0.5 0.5s-0.224 0.5-0.5 0.5zM3.5 2c-0.276 0-0.5-0.224-0.5-0.5s0.224-0.5 0.5-0.5c0.276 0 0.5 0.224 0.5 0.5s-0.224 0.5-0.5 0.5zM12 6h-6v-3h6v3z"></path>
</svg>
