<?xml version="1.0" encoding="utf-8"?>
<!-- Generated by IcoMoon.io -->
<!DOCTYPE svg PUBLIC "-//W3C//DTD SVG 1.1//EN" "http://www.w3.org/Graphics/SVG/1.1/DTD/svg11.dtd">
<svg version="1.1" xmlns="http://www.w3.org/2000/svg" xmlns:xlink="http://www.w3.org/1999/xlink" width="64" height="64" viewBox="0 0 64 64">
<path fill="#444444" d="M8 4v4h-2c-1.2 0-2 0.8-2 2v0c0 1.2 0.8 2 2 2h2v4h-2c-1.2 0-2 0.8-2 2v0c0 1.2 0.8 2 2 2h2v4h-2c-1.2 0-2 0.8-2 2v0c0 1.2 0.8 2 2 2h2v4h-2c-1.2 0-2 0.8-2 2v0c0 1.2 0.8 2 2 2h2v4h-2c-1.2 0-2 0.8-2 2v0c0 1.2 0.8 2 2 2h2v4h-2c-1.2 0-2 0.8-2 2v0c0 1.2 0.8 2 2 2h2v4h-2c-1.2 0-2 0.8-2 2v0c0 1.2 0.8 2 2 2h2v4h48v-60h-48zM14 60c-1.2 0-2-0.8-2-2s0.8-2 2-2 2 0.8 2 2c0 1.2-0.8 2-2 2zM14 52c-1.2 0-2-0.8-2-2s0.8-2 2-2 2 0.8 2 2c0 1.2-0.8 2-2 2zM14 44c-1.2 0-2-0.8-2-2s0.8-2 2-2 2 0.8 2 2c0 1.2-0.8 2-2 2zM14 36c-1.2 0-2-0.8-2-2s0.8-2 2-2 2 0.8 2 2c0 1.2-0.8 2-2 2zM14 28c-1.2 0-2-0.8-2-2s0.8-2 2-2 2 0.8 2 2c0 1.2-0.8 2-2 2zM14 20c-1.2 0-2-0.8-2-2s0.8-2 2-2 2 0.8 2 2c0 1.2-0.8 2-2 2zM14 12c-1.2 0-2-0.8-2-2s0.8-2 2-2 2 0.8 2 2c0 1.2-0.8 2-2 2zM48 28h-24v-12h24v12z"></path>
</svg>
