<?xml version="1.0" encoding="utf-8"?>
<!-- Generated by IcoMoon.io -->
<!DOCTYPE svg PUBLIC "-//W3C//DTD SVG 1.1//EN" "http://www.w3.org/Graphics/SVG/1.1/DTD/svg11.dtd">
<svg version="1.1" xmlns="http://www.w3.org/2000/svg" xmlns:xlink="http://www.w3.org/1999/xlink" width="16" height="16" viewBox="0 0 16 16">
<path fill="#444" d="M15.2 12c-0.658-1.414-2.067-2.376-3.701-2.376-0.077 0-0.154 0.002-0.23 0.006l-3.269 3.9-3.28-3.9c-0.049-0.002-0.106-0.003-0.163-0.003-1.648 0-3.072 0.958-3.746 2.348-0.422 0.9-0.707 1.917-0.808 2.988l1.997 0.037v1h12v-1h2c-0.104-1.107-0.388-2.124-0.824-3.057z"></path>
<path fill="#444" d="M6.57 8.73c-0.038 0.374-0.322 0.671-0.685 0.729l2.115 2.541 2.12-2.52c-0.368-0.059-0.652-0.356-0.69-0.727-0-0.613 0.8-0.413 1.43-1.453 0-0.030 2.88-7.3-2.86-7.3s-2.86 7.27-2.86 7.27c0.63 1.050 1.44 0.85 1.43 1.46z"></path>
</svg>
