<?xml version="1.0" encoding="utf-8"?>
<!-- Generated by IcoMoon.io -->
<!DOCTYPE svg PUBLIC "-//W3C//DTD SVG 1.1//EN" "http://www.w3.org/Graphics/SVG/1.1/DTD/svg11.dtd">
<svg version="1.1" xmlns="http://www.w3.org/2000/svg" xmlns:xlink="http://www.w3.org/1999/xlink" width="16" height="16" viewBox="0 0 16 16">
<path fill="#444" d="M14 15v-11h-3v-3h-9v14h-2v1h7v-3h2v3h7v-1h-2zM6 11h-2v-2h2v2zM6 8h-2v-2h2v2zM6 5h-2v-2h2v2zM9 11h-2v-2h2v2zM9 8h-2v-2h2v2zM9 5h-2v-2h2v2zM13 11h-2v-2h2v2zM13 8h-2v-2h2v2z"></path>
</svg>
