<?xml version="1.0" encoding="utf-8"?>
<!-- Generated by IcoMoon.io -->
<!DOCTYPE svg PUBLIC "-//W3C//DTD SVG 1.1//EN" "http://www.w3.org/Graphics/SVG/1.1/DTD/svg11.dtd">
<svg version="1.1" xmlns="http://www.w3.org/2000/svg" xmlns:xlink="http://www.w3.org/1999/xlink" width="64" height="64" viewBox="0 0 64 64">
<path fill="#444444" d="M32.4 12.4v0 0z"></path>
<path fill="#444444" d="M60.4 12.8v0-0.8z"></path>
<path fill="#444444" d="M39.6 6c-5.2 0-8 1.6-9.6 3.2-1.6-1.6-4.4-3.2-9.6-3.2-14 0-20.4 8-20.4 8v0 0 43.6l26-3.6c0 0 0.8 1.6 1.2 2h5.2c0.4-0.4 1.2-2 1.2-2l26 3.6v-43.6c0.4 0-5.6-8-20-8zM28 48c-2.4-0.8-5.2-1.2-9.2-1.6-0.4 0-0.4 0-0.8 0-5.6 0-10.4 1.6-14 2.8v-34.8c2-1.6 7.2-6 16.4-6 6.8 0 7.6 3.6 7.6 4 0 0 0 0 0 0v35.6zM56 49.2c-4-1.6-8.4-2.8-14-2.8-0.4 0-0.8 0-0.8 0-4 0-5.2 0.8-9.2 1.6v-35.6c0 0 0 0 0 0 0-0.8 0.8-4 7.6-4 9.2 0 16 4 16 6v34.8z"></path>
</svg>
