<?xml version="1.0" encoding="utf-8"?>
<!-- Generated by IcoMoon.io -->
<!DOCTYPE svg PUBLIC "-//W3C//DTD SVG 1.1//EN" "http://www.w3.org/Graphics/SVG/1.1/DTD/svg11.dtd">
<svg version="1.1" xmlns="http://www.w3.org/2000/svg" xmlns:xlink="http://www.w3.org/1999/xlink" width="16" height="16" viewBox="0 0 16 16">
<path fill="#444" d="M15 4.7v-0.7c-1.159-1.163-2.734-1.91-4.484-1.999-0.112-0.012-0.222-0.018-0.334-0.018-0.874 0-1.657 0.394-2.179 1.013-0.556-0.617-1.357-1.007-2.249-1.007-0.090 0-0.178 0.004-0.266 0.012-1.754 0.089-3.33 0.836-4.488 1.999l-0 0.7-1 0.3v10l6.7-1.4 0.3 0.4h2l0.3-0.4 6.7 1.4v-10zM5.48 11.31c-1.275 0.037-2.467 0.358-3.526 0.902l0.046-7.792c0.885-0.835 2.066-1.365 3.369-1.42 0.806 0.054 1.534 0.303 2.159 0.701l-0.019 7.869c-0.555-0.166-1.193-0.262-1.854-0.262-0.062 0-0.124 0.001-0.185 0.003zM14 12.19c-1.013-0.522-2.205-0.843-3.468-0.88-0.056-0.001-0.108-0.002-0.161-0.002-0.66 0-1.297 0.096-1.899 0.274l0.047-7.902c0.601-0.381 1.322-0.627 2.096-0.679 1.324 0.055 2.501 0.586 3.386 1.422l-0.003 7.768z"></path>
</svg>
