<?xml version="1.0" encoding="utf-8"?>
<!-- Generated by IcoMoon.io -->
<!DOCTYPE svg PUBLIC "-//W3C//DTD SVG 1.1//EN" "http://www.w3.org/Graphics/SVG/1.1/DTD/svg11.dtd">
<svg version="1.1" xmlns="http://www.w3.org/2000/svg" xmlns:xlink="http://www.w3.org/1999/xlink" width="64" height="64" viewBox="0 0 64 64">
<path fill="#444444" d="M20 14c0 3.314-2.686 6-6 6s-6-2.686-6-6c0-3.314 2.686-6 6-6s6 2.686 6 6z"></path>
<path fill="#444444" d="M14 0c-7.6 0-14 6.4-14 14s6.4 14 14 14 14-6.4 14-14-6.4-14-14-14zM14 24c-5.6 0-10-4.4-10-10s4.4-10 10-10 10 4.4 10 10c0 5.6-4.4 10-10 10z"></path>
<path fill="#444444" d="M14 32c-7.6 0-14 6.4-14 14s6.4 14 14 14 14-6.4 14-14c0-7.6-6.4-14-14-14zM14 56c-5.6 0-10-4.4-10-10s4.4-10 10-10 10 4.4 10 10c0 5.6-4.4 10-10 10z"></path>
<path fill="#444444" d="M32 8h32v12h-32v-12z"></path>
<path fill="#444444" d="M32 40h32v12h-32v-12z"></path>
</svg>
