<?xml version="1.0" encoding="utf-8"?>
<!-- Generated by IcoMoon.io -->
<!DOCTYPE svg PUBLIC "-//W3C//DTD SVG 1.1//EN" "http://www.w3.org/Graphics/SVG/1.1/DTD/svg11.dtd">
<svg version="1.1" xmlns="http://www.w3.org/2000/svg" xmlns:xlink="http://www.w3.org/1999/xlink" width="16" height="16" viewBox="0 0 16 16">
<path fill="#444" d="M4 11c0 0.552 0.448 1 1 1s1-0.448 1-1v-1h-1c-0.552 0-1 0.448-1 1z"></path>
<path fill="#444" d="M0 0v16h16v-16h-16zM11 9c1.105 0 2 0.895 2 2s-0.895 2-2 2c-1.105 0-2-0.895-2-2v-1h-2v1c0 1.105-0.895 2-2 2s-2-0.895-2-2c0-1.105 0.895-2 2-2h1v-2h-1c-1.105 0-2-0.895-2-2s0.895-2 2-2c1.105 0 2 0.895 2 2v1h2v-1c0-1.105 0.895-2 2-2s2 0.895 2 2c0 1.105-0.895 2-2 2h-1v2h1z"></path>
<path fill="#444" d="M12 5c0-0.552-0.448-1-1-1s-1 0.448-1 1v1h1c0.552 0 1-0.448 1-1z"></path>
<path fill="#444" d="M5 4c-0.552 0-1 0.448-1 1s0.448 1 1 1h1v-1c0-0.552-0.448-1-1-1z"></path>
<path fill="#444" d="M7 7h2v2h-2v-2z"></path>
<path fill="#444" d="M10 11c0 0.552 0.448 1 1 1s1-0.448 1-1c0-0.552-0.448-1-1-1h-1v1z"></path>
</svg>
