<?xml version="1.0" encoding="utf-8"?>
<!-- Generated by IcoMoon.io -->
<!DOCTYPE svg PUBLIC "-//W3C//DTD SVG 1.1//EN" "http://www.w3.org/Graphics/SVG/1.1/DTD/svg11.dtd">
<svg version="1.1" xmlns="http://www.w3.org/2000/svg" xmlns:xlink="http://www.w3.org/1999/xlink" width="16" height="16" viewBox="0 0 16 16">
<path fill="#444" d="M11 2.1c2 0 3 1.3 3 2.9h-1l1.5 2 1.5-2h-1c0-2.2-2-3.9-4-3.9v-1.1l-2 1.5 2 1.5v-0.9z"></path>
<path fill="#444" d="M9 9h6v6h-7v-15h-8v16h16v-8h-7v1zM7 8h-1v1h1v6h-6v-14h6v7z"></path>
<path fill="#444" d="M2 8h1v1h-1v-1z"></path>
<path fill="#444" d="M4 8h1v1h-1v-1z"></path>
</svg>
