<?xml version="1.0" encoding="utf-8"?>
<!-- Generated by IcoMoon.io -->
<!DOCTYPE svg PUBLIC "-//W3C//DTD SVG 1.1//EN" "http://www.w3.org/Graphics/SVG/1.1/DTD/svg11.dtd">
<svg version="1.1" xmlns="http://www.w3.org/2000/svg" xmlns:xlink="http://www.w3.org/1999/xlink" width="64" height="64" viewBox="0 0 64 64">
<path fill="#444444" d="M44 8.4c8 0 12 5.2 12 11.6h-4l6 8 6-8h-4c0-8.8-8-15.6-16-15.6v-4.4l-8 6 8 6v-3.6z"></path>
<path fill="#444444" d="M36 36h24v24h-28v-60h-32v64h64v-32h-28v4zM28 32h-4v4h4v24h-24v-56h24v28z"></path>
<path fill="#444444" d="M8 32h4v4h-4v-4z"></path>
<path fill="#444444" d="M16 32h4v4h-4v-4z"></path>
</svg>
