<?xml version="1.0" encoding="utf-8"?>
<!-- Generated by IcoMoon.io -->
<!DOCTYPE svg PUBLIC "-//W3C//DTD SVG 1.1//EN" "http://www.w3.org/Graphics/SVG/1.1/DTD/svg11.dtd">
<svg version="1.1" xmlns="http://www.w3.org/2000/svg" xmlns:xlink="http://www.w3.org/1999/xlink" width="16" height="16" viewBox="0 0 16 16">
<path fill="#444" d="M3.5 8c0.3 0 0.5 0.2 0.5 0.5v2c0 0.3-0.2 0.5-0.5 0.5s-0.5-0.2-0.5-0.5v-2c0-0.3 0.2-0.5 0.5-0.5v0zM3.5 7v0c-0.8 0-1.5 0.7-1.5 1.5v2c0 0.8 0.7 1.5 1.5 1.5v0c0.8 0 1.5-0.7 1.5-1.5v-2c0-0.8-0.7-1.5-1.5-1.5v0z"></path>
<path fill="#444" d="M8 7v3.5c0 0.3-0.2 0.5-0.5 0.5s-0.5-0.2-0.5-0.5v-3.5h-1v3.5c0 0.8 0.7 1.5 1.5 1.5v0c0.8 0 1.5-0.7 1.5-1.5v-3.5h-1z"></path>
<path fill="#444" d="M13 7h-3v1h1v4h1v-4h1z"></path>
<path fill="#444" d="M15 6v-1h-2.4l-3.7-3c0.1-0.2 0.1-0.3 0.1-0.5 0-0.8-0.7-1.5-1.5-1.5s-1.5 0.7-1.5 1.5c0 0.2 0 0.3 0.1 0.5l-3.7 3h-2.4v9h1v1h15v-9h-1zM6.7 2.8c0.3 0.1 0.5 0.2 0.8 0.2s0.5-0.1 0.8-0.2l2.7 2.2h-7l2.7-2.2zM14 13h-13v-7h13v7z"></path>
</svg>
