<?xml version="1.0" encoding="utf-8"?>
<!-- Generated by IcoMoon.io -->
<!DOCTYPE svg PUBLIC "-//W3C//DTD SVG 1.1//EN" "http://www.w3.org/Graphics/SVG/1.1/DTD/svg11.dtd">
<svg version="1.1" xmlns="http://www.w3.org/2000/svg" xmlns:xlink="http://www.w3.org/1999/xlink" width="64" height="64" viewBox="0 0 64 64">
<path fill="#444444" d="M14 32c1.2 0 2 0.8 2 2v8c0 1.2-0.8 2-2 2s-2-0.8-2-2v-8c0-1.2 0.8-2 2-2v0zM14 28v0c-3.2 0-6 2.8-6 6v8c0 3.2 2.8 6 6 6v0c3.2 0 6-2.8 6-6v-8c0-3.2-2.8-6-6-6v0z"></path>
<path fill="#444444" d="M32 28v14c0 1.2-0.8 2-2 2s-2-0.8-2-2v-14h-4v14c0 3.2 2.8 6 6 6v0c3.2 0 6-2.8 6-6v-14h-4z"></path>
<path fill="#444444" d="M52 28h-12v4h4v16h4v-16h4z"></path>
<path fill="#444444" d="M60 24v-4h-9.6l-14.8-12c0.4-0.8 0.4-1.2 0.4-2 0-3.2-2.8-6-6-6s-6 2.8-6 6c0 0.8 0 1.2 0.4 2l-14.8 12h-9.6v36h4v4h60v-36h-4zM26.8 11.2c1.2 0.4 2 0.8 3.2 0.8s2-0.4 3.2-0.8l10.8 8.8h-28l10.8-8.8zM56 52h-52v-28h52v28z"></path>
</svg>
