<?xml version="1.0" encoding="utf-8"?>
<!-- Generated by IcoMoon.io -->
<!DOCTYPE svg PUBLIC "-//W3C//DTD SVG 1.1//EN" "http://www.w3.org/Graphics/SVG/1.1/DTD/svg11.dtd">
<svg version="1.1" xmlns="http://www.w3.org/2000/svg" xmlns:xlink="http://www.w3.org/1999/xlink" width="16" height="16" viewBox="0 0 16 16">
<path fill="#444" d="M16 0h-16v16h16v-16zM13 15v-1h-1v1h-11v-14h12v1h1v-1h1v1h-1v1h1v1h-1v1h1v1h-1v1h1v1h-1v1h1v1h-1v1h1v1h-1v1h1v1h-1v1h-1z"></path>
<path fill="#444" d="M13 3h1v1h-1v-1z"></path>
<path fill="#444" d="M12 2h1v1h-1v-1z"></path>
<path fill="#444" d="M12 4h1v1h-1v-1z"></path>
<path fill="#444" d="M12 6h1v1h-1v-1z"></path>
<path fill="#444" d="M13 5h1v1h-1v-1z"></path>
<path fill="#444" d="M13 7h1v1h-1v-1z"></path>
<path fill="#444" d="M13 9h1v1h-1v-1z"></path>
<path fill="#444" d="M12 8h1v1h-1v-1z"></path>
<path fill="#444" d="M12 10h1v1h-1v-1z"></path>
<path fill="#444" d="M12 12h1v1h-1v-1z"></path>
<path fill="#444" d="M13 11h1v1h-1v-1z"></path>
<path fill="#444" d="M13 13h1v1h-1v-1z"></path>
</svg>
