<?xml version="1.0" encoding="utf-8"?>
<!-- Generated by IcoMoon.io -->
<!DOCTYPE svg PUBLIC "-//W3C//DTD SVG 1.1//EN" "http://www.w3.org/Graphics/SVG/1.1/DTD/svg11.dtd">
<svg version="1.1" xmlns="http://www.w3.org/2000/svg" xmlns:xlink="http://www.w3.org/1999/xlink" width="16" height="16" viewBox="0 0 16 16">
<path fill="#444" d="M16 16v-16h-16v16h16zM1 13h1v-1h-1v-11h14v12h-1v1h1v1h-1v-1h-1v1h-1v-1h-1v1h-1v-1h-1v1h-1v-1h-1v1h-1v-1h-1v1h-1v-1h-1v1h-1v-1h-1v-1z"></path>
<path fill="#444" d="M12 13h1v1h-1v-1z"></path>
<path fill="#444" d="M13 12h1v1h-1v-1z"></path>
<path fill="#444" d="M11 12h1v1h-1v-1z"></path>
<path fill="#444" d="M9 12h1v1h-1v-1z"></path>
<path fill="#444" d="M10 13h1v1h-1v-1z"></path>
<path fill="#444" d="M8 13h1v1h-1v-1z"></path>
<path fill="#444" d="M6 13h1v1h-1v-1z"></path>
<path fill="#444" d="M7 12h1v1h-1v-1z"></path>
<path fill="#444" d="M5 12h1v1h-1v-1z"></path>
<path fill="#444" d="M3 12h1v1h-1v-1z"></path>
<path fill="#444" d="M4 13h1v1h-1v-1z"></path>
<path fill="#444" d="M2 13h1v1h-1v-1z"></path>
</svg>
