<?xml version="1.0" encoding="utf-8"?>
<!-- Generated by IcoMoon.io -->
<!DOCTYPE svg PUBLIC "-//W3C//DTD SVG 1.1//EN" "http://www.w3.org/Graphics/SVG/1.1/DTD/svg11.dtd">
<svg version="1.1" xmlns="http://www.w3.org/2000/svg" xmlns:xlink="http://www.w3.org/1999/xlink" width="16" height="16" viewBox="0 0 16 16">
<path fill="#444" d="M0 16h16v-16h-16v16zM3 1v1h1v-1h11v14h-12v-1h-1v1h-1v-1h1v-1h-1v-1h1v-1h-1v-1h1v-1h-1v-1h1v-1h-1v-1h1v-1h-1v-1h1v-1h-1v-1h1v-1h1z"></path>
<path fill="#444" d="M2 12h1v1h-1v-1z"></path>
<path fill="#444" d="M3 13h1v1h-1v-1z"></path>
<path fill="#444" d="M3 11h1v1h-1v-1z"></path>
<path fill="#444" d="M3 9h1v1h-1v-1z"></path>
<path fill="#444" d="M2 10h1v1h-1v-1z"></path>
<path fill="#444" d="M2 8h1v1h-1v-1z"></path>
<path fill="#444" d="M2 6h1v1h-1v-1z"></path>
<path fill="#444" d="M3 7h1v1h-1v-1z"></path>
<path fill="#444" d="M3 5h1v1h-1v-1z"></path>
<path fill="#444" d="M3 3h1v1h-1v-1z"></path>
<path fill="#444" d="M2 4h1v1h-1v-1z"></path>
<path fill="#444" d="M2 2h1v1h-1v-1z"></path>
</svg>
