<?xml version="1.0" encoding="utf-8"?>
<!-- Generated by IcoMoon.io -->
<!DOCTYPE svg PUBLIC "-//W3C//DTD SVG 1.1//EN" "http://www.w3.org/Graphics/SVG/1.1/DTD/svg11.dtd">
<svg version="1.1" xmlns="http://www.w3.org/2000/svg" xmlns:xlink="http://www.w3.org/1999/xlink" width="64" height="64" viewBox="0 0 64 64">
<path fill="#444444" d="M64 64v-64h-64v64h64zM4 52h4v-4h-4v-44h56v48h-4v4h4v4h-4v-4h-4v4h-4v-4h-4v4h-4v-4h-4v4h-4v-4h-4v4h-4v-4h-4v4h-4v-4h-4v4h-4v-4h-4v-4z"></path>
<path fill="#444444" d="M48 52h4v4h-4v-4z"></path>
<path fill="#444444" d="M52 48h4v4h-4v-4z"></path>
<path fill="#444444" d="M44 48h4v4h-4v-4z"></path>
<path fill="#444444" d="M36 48h4v4h-4v-4z"></path>
<path fill="#444444" d="M40 52h4v4h-4v-4z"></path>
<path fill="#444444" d="M32 52h4v4h-4v-4z"></path>
<path fill="#444444" d="M24 52h4v4h-4v-4z"></path>
<path fill="#444444" d="M28 48h4v4h-4v-4z"></path>
<path fill="#444444" d="M20 48h4v4h-4v-4z"></path>
<path fill="#444444" d="M12 48h4v4h-4v-4z"></path>
<path fill="#444444" d="M16 52h4v4h-4v-4z"></path>
<path fill="#444444" d="M8 52h4v4h-4v-4z"></path>
</svg>
