<?xml version="1.0" encoding="utf-8"?>
<!-- Generated by IcoMoon.io -->
<!DOCTYPE svg PUBLIC "-//W3C//DTD SVG 1.1//EN" "http://www.w3.org/Graphics/SVG/1.1/DTD/svg11.dtd">
<svg version="1.1" xmlns="http://www.w3.org/2000/svg" xmlns:xlink="http://www.w3.org/1999/xlink" width="64" height="64" viewBox="0 0 64 64">
<path fill="#444444" d="M64 0h-64v64h64v-64zM52 60v-4h-4v4h-44v-56h48v4h4v-4h4v4h-4v4h4v4h-4v4h4v4h-4v4h4v4h-4v4h4v4h-4v4h4v4h-4v4h4v4h-4v4h-4z"></path>
<path fill="#444444" d="M52 12h4v4h-4v-4z"></path>
<path fill="#444444" d="M48 8h4v4h-4v-4z"></path>
<path fill="#444444" d="M48 16h4v4h-4v-4z"></path>
<path fill="#444444" d="M48 24h4v4h-4v-4z"></path>
<path fill="#444444" d="M52 20h4v4h-4v-4z"></path>
<path fill="#444444" d="M52 28h4v4h-4v-4z"></path>
<path fill="#444444" d="M52 36h4v4h-4v-4z"></path>
<path fill="#444444" d="M48 32h4v4h-4v-4z"></path>
<path fill="#444444" d="M48 40h4v4h-4v-4z"></path>
<path fill="#444444" d="M48 48h4v4h-4v-4z"></path>
<path fill="#444444" d="M52 44h4v4h-4v-4z"></path>
<path fill="#444444" d="M52 52h4v4h-4v-4z"></path>
</svg>
