<?xml version="1.0" encoding="utf-8"?>
<!-- Generated by IcoMoon.io -->
<!DOCTYPE svg PUBLIC "-//W3C//DTD SVG 1.1//EN" "http://www.w3.org/Graphics/SVG/1.1/DTD/svg11.dtd">
<svg version="1.1" xmlns="http://www.w3.org/2000/svg" xmlns:xlink="http://www.w3.org/1999/xlink" width="64" height="64" viewBox="0 0 64 64">
<path fill="#444444" d="M0 64h64v-64h-64v64zM12 4v4h4v-4h44v56h-48v-4h-4v4h-4v-4h4v-4h-4v-4h4v-4h-4v-4h4v-4h-4v-4h4v-4h-4v-4h4v-4h-4v-4h4v-4h-4v-4h4v-4h4z"></path>
<path fill="#444444" d="M8 48h4v4h-4v-4z"></path>
<path fill="#444444" d="M12 52h4v4h-4v-4z"></path>
<path fill="#444444" d="M12 44h4v4h-4v-4z"></path>
<path fill="#444444" d="M12 36h4v4h-4v-4z"></path>
<path fill="#444444" d="M8 40h4v4h-4v-4z"></path>
<path fill="#444444" d="M8 32h4v4h-4v-4z"></path>
<path fill="#444444" d="M8 24h4v4h-4v-4z"></path>
<path fill="#444444" d="M12 28h4v4h-4v-4z"></path>
<path fill="#444444" d="M12 20h4v4h-4v-4z"></path>
<path fill="#444444" d="M12 12h4v4h-4v-4z"></path>
<path fill="#444444" d="M8 16h4v4h-4v-4z"></path>
<path fill="#444444" d="M8 8h4v4h-4v-4z"></path>
</svg>
