<?xml version="1.0" encoding="utf-8"?>
<!-- Generated by IcoMoon.io -->
<!DOCTYPE svg PUBLIC "-//W3C//DTD SVG 1.1//EN" "http://www.w3.org/Graphics/SVG/1.1/DTD/svg11.dtd">
<svg version="1.1" xmlns="http://www.w3.org/2000/svg" xmlns:xlink="http://www.w3.org/1999/xlink" width="16" height="16" viewBox="0 0 16 16">
<path fill="#444" d="M0 0v16h16v-16h-16zM15 3h-1v1h1v11h-14v-12h1v-1h-1v-1h1v1h1v-1h1v1h1v-1h1v1h1v-1h1v1h1v-1h1v1h1v-1h1v1h1v-1h1v1h1v1z"></path>
<path fill="#444" d="M3 2h1v1h-1v-1z"></path>
<path fill="#444" d="M2 3h1v1h-1v-1z"></path>
<path fill="#444" d="M4 3h1v1h-1v-1z"></path>
<path fill="#444" d="M6 3h1v1h-1v-1z"></path>
<path fill="#444" d="M5 2h1v1h-1v-1z"></path>
<path fill="#444" d="M7 2h1v1h-1v-1z"></path>
<path fill="#444" d="M9 2h1v1h-1v-1z"></path>
<path fill="#444" d="M8 3h1v1h-1v-1z"></path>
<path fill="#444" d="M10 3h1v1h-1v-1z"></path>
<path fill="#444" d="M12 3h1v1h-1v-1z"></path>
<path fill="#444" d="M11 2h1v1h-1v-1z"></path>
<path fill="#444" d="M13 2h1v1h-1v-1z"></path>
</svg>
