<?xml version="1.0" encoding="utf-8"?>
<!-- Generated by IcoMoon.io -->
<!DOCTYPE svg PUBLIC "-//W3C//DTD SVG 1.1//EN" "http://www.w3.org/Graphics/SVG/1.1/DTD/svg11.dtd">
<svg version="1.1" xmlns="http://www.w3.org/2000/svg" xmlns:xlink="http://www.w3.org/1999/xlink" width="64" height="64" viewBox="0 0 64 64">
<path fill="#444444" d="M0 0v64h64v-64h-64zM60 12h-4v4h4v44h-56v-48h4v-4h-4v-4h4v4h4v-4h4v4h4v-4h4v4h4v-4h4v4h4v-4h4v4h4v-4h4v4h4v-4h4v4h4v4z"></path>
<path fill="#444444" d="M12 8h4v4h-4v-4z"></path>
<path fill="#444444" d="M8 12h4v4h-4v-4z"></path>
<path fill="#444444" d="M16 12h4v4h-4v-4z"></path>
<path fill="#444444" d="M24 12h4v4h-4v-4z"></path>
<path fill="#444444" d="M20 8h4v4h-4v-4z"></path>
<path fill="#444444" d="M28 8h4v4h-4v-4z"></path>
<path fill="#444444" d="M36 8h4v4h-4v-4z"></path>
<path fill="#444444" d="M32 12h4v4h-4v-4z"></path>
<path fill="#444444" d="M40 12h4v4h-4v-4z"></path>
<path fill="#444444" d="M48 12h4v4h-4v-4z"></path>
<path fill="#444444" d="M44 8h4v4h-4v-4z"></path>
<path fill="#444444" d="M52 8h4v4h-4v-4z"></path>
</svg>
