<?xml version="1.0" encoding="utf-8"?>
<!-- Generated by IcoMoon.io -->
<!DOCTYPE svg PUBLIC "-//W3C//DTD SVG 1.1//EN" "http://www.w3.org/Graphics/SVG/1.1/DTD/svg11.dtd">
<svg version="1.1" xmlns="http://www.w3.org/2000/svg" xmlns:xlink="http://www.w3.org/1999/xlink" width="16" height="16" viewBox="0 0 16 16">
<path fill="#444" d="M5.6 11.6l-1.2-1.2c-0.8-0.2-2-0.1-2.7 1-0.8 1.1-0.3 2.8-1.7 4.6 0 0 3.5 0 4.8-1.3 1.2-1.2 1.2-2.2 1-3l-0.2-0.1z"></path>
<path fill="#444" d="M5.8 8.1c-0.2 0.3-0.5 0.7-0.7 1 0 0.2-0.1 0.3-0.2 0.4l1.5 1.5c0.1-0.1 0.3-0.2 0.4-0.3 0.3-0.2 0.7-0.4 1-0.7 0.4 0 0.6-0.2 0.8-0.4l-2.2-2.2c-0.2 0.2-0.4 0.4-0.6 0.7z"></path>
<path fill="#444" d="M15.8 0.2c-0.3-0.3-0.7-0.3-1-0.1 0 0-3 2.5-5.9 5.1-0.4 0.4-0.7 0.7-1.1 1-0.2 0.2-0.4 0.4-0.6 0.5l2.1 2.1c0.2-0.2 0.4-0.4 0.5-0.7 0.3-0.4 0.6-0.7 0.9-1.1 2.5-3 5.1-5.9 5.1-5.9 0.3-0.2 0.3-0.6 0-0.9z"></path>
</svg>
