<?xml version="1.0" encoding="utf-8"?>
<!-- Generated by IcoMoon.io -->
<!DOCTYPE svg PUBLIC "-//W3C//DTD SVG 1.1//EN" "http://www.w3.org/Graphics/SVG/1.1/DTD/svg11.dtd">
<svg version="1.1" xmlns="http://www.w3.org/2000/svg" xmlns:xlink="http://www.w3.org/1999/xlink" width="64" height="64" viewBox="0 0 64 64">
<path fill="#444444" d="M22.4 46.4l-4.8-4.8c-3.2-0.8-8-0.4-10.8 4-3.2 4.4-1.2 11.2-6.8 18.4 0 0 14 0 19.2-5.2 4.8-4.8 4.8-8.8 4-12l-0.8-0.4z"></path>
<path fill="#444444" d="M23.2 32.4c-0.8 1.2-2 2.8-2.8 4 0 0.8-0.4 1.2-0.8 1.6l6 6c0.4-0.4 1.2-0.8 1.6-1.2 1.2-0.8 2.8-1.6 4-2.8 1.6 0 2.4-0.8 3.2-1.6l-8.8-8.8c-0.8 0.8-1.6 1.6-2.4 2.8z"></path>
<path fill="#444444" d="M63.2 0.8c-1.2-1.2-2.8-1.2-4-0.4 0 0-12 10-23.6 20.4-1.6 1.6-2.8 2.8-4.4 4-0.8 0.8-1.6 1.6-2.4 2l8.4 8.4c0.8-0.8 1.6-1.6 2-2.8 1.2-1.6 2.4-2.8 3.6-4.4 10-12 20.4-23.6 20.4-23.6 1.2-0.8 1.2-2.4 0-3.6z"></path>
</svg>
