<?xml version="1.0" encoding="utf-8"?>
<!-- Generated by IcoMoon.io -->
<!DOCTYPE svg PUBLIC "-//W3C//DTD SVG 1.1//EN" "http://www.w3.org/Graphics/SVG/1.1/DTD/svg11.dtd">
<svg version="1.1" xmlns="http://www.w3.org/2000/svg" xmlns:xlink="http://www.w3.org/1999/xlink" width="64" height="64" viewBox="0 0 64 64">
<path fill="#444444" d="M64 28.4c0-10.8-5.2-28.4-29.2-28.4s-34 29.6-30 39.6c3.2 7.6 10 0.4 12.4 4 7.2 10-8 15.2 0.4 18.8 10 4.4 46.4 1.6 46.4-34zM18 36c-3.6 0-6-2.8-6-6s2.4-6 6-6 6 2.8 6 6-2.8 6-6 6zM24 14c0-3.2 2.4-6 6-6s6 2.8 6 6-2.8 6-6 6-6-2.8-6-6zM34 56c-3.6 0-6-2.8-6-6s2.4-6 6-6 6 2.8 6 6-2.8 6-6 6zM44 18c0-3.2 2.4-6 6-6s6 2.8 6 6-2.8 6-6 6-6-2.8-6-6zM50 44c-3.2 0-6-2.8-6-6s2.4-6 6-6 6 2.8 6 6-2.8 6-6 6z"></path>
</svg>
