<?xml version="1.0" encoding="utf-8"?>
<!-- Generated by IcoMoon.io -->
<!DOCTYPE svg PUBLIC "-//W3C//DTD SVG 1.1//EN" "http://www.w3.org/Graphics/SVG/1.1/DTD/svg11.dtd">
<svg version="1.1" xmlns="http://www.w3.org/2000/svg" xmlns:xlink="http://www.w3.org/1999/xlink" width="16" height="16" viewBox="0 0 16 16">
<path fill="#444" d="M8.25 0c-6.38 0-9.11 7.38-8.010 9.92 0.82 1.89 2.62 0.080 3.34 1 1.88 2.46-2.11 3.81 0.090 4.68 2.59 1.060 12.33 0.4 12.33-8.53 0-2.69-1.34-7.070-7.75-7.070zM4.47 9c-0.815-0.017-1.47-0.682-1.47-1.5 0-0.828 0.672-1.5 1.5-1.5s1.5 0.671 1.5 1.5c0 0 0 0 0 0 0 0.828-0.672 1.5-1.5 1.5-0.011 0-0.021-0-0.032-0zM6 3.5c0-0.828 0.672-1.5 1.5-1.5s1.5 0.672 1.5 1.5-0.672 1.5-1.5 1.5c-0.011 0-0.021-0-0.032-0-0.814-0.017-1.468-0.682-1.468-1.5 0-0 0-0 0-0zM8.47 14c-0.815-0.017-1.47-0.682-1.47-1.5 0-0.828 0.672-1.5 1.5-1.5s1.5 0.671 1.5 1.5c0 0 0 0 0 0 0 0.828-0.672 1.5-1.5 1.5-0.011 0-0.021-0-0.032-0zM12.47 11c-0.815-0.017-1.47-0.682-1.47-1.5 0-0.828 0.672-1.5 1.5-1.5s1.5 0.671 1.5 1.5c0 0 0 0 0 0 0 0.828-0.672 1.5-1.5 1.5-0.011 0-0.021-0-0.032-0zM12.47 6c-0.815-0.017-1.47-0.682-1.47-1.5 0-0.828 0.672-1.5 1.5-1.5s1.5 0.671 1.5 1.5c0 0 0 0 0 0 0 0.828-0.672 1.5-1.5 1.5-0.011 0-0.021-0-0.032-0z"></path>
</svg>
