<?xml version="1.0" encoding="utf-8"?>
<!-- Generated by IcoMoon.io -->
<!DOCTYPE svg PUBLIC "-//W3C//DTD SVG 1.1//EN" "http://www.w3.org/Graphics/SVG/1.1/DTD/svg11.dtd">
<svg version="1.1" xmlns="http://www.w3.org/2000/svg" xmlns:xlink="http://www.w3.org/1999/xlink" width="64" height="64" viewBox="0 0 64 64">
<path fill="#444444" d="M10.8 61.2c-2.8 0-5.6-1.2-7.6-3.2-3.6-3.6-4.8-10 0-14.8l35.6-35.6c5.6-5.6 15.2-5.6 20.8 0s5.6 15.2 0 20.8l-29.6 29.6c-0.8 0.8-2 0.8-2.8 0s-0.8-2 0-2.8l29.6-29.6c4-4 4-10.8 0-14.8s-10.8-4-14.8 0l-35.6 35.6c-3.2 3.2-2.4 6.8 0 8.8 2.4 2.4 6 3.2 8.8 0l35.6-35.6c0.8-0.8 0.8-2 0-2.8s-2-0.8-2.8 0l-29.6 29.6c-0.8 0.8-2 0.8-2.8 0s-0.8-2 0-2.8l29.6-29.6c2.4-2.4 6.4-2.4 8.8 0s2.4 6.4 0 8.8l-35.6 35.6c-2.4 1.6-5.2 2.8-7.6 2.8z"></path>
</svg>
