<?xml version="1.0" encoding="utf-8"?>
<!-- Generated by IcoMoon.io -->
<!DOCTYPE svg PUBLIC "-//W3C//DTD SVG 1.1//EN" "http://www.w3.org/Graphics/SVG/1.1/DTD/svg11.dtd">
<svg version="1.1" xmlns="http://www.w3.org/2000/svg" xmlns:xlink="http://www.w3.org/1999/xlink" width="16" height="16" viewBox="0 0 16 16">
<path fill="#444" d="M2.7 15.3c-0.7 0-1.4-0.3-1.9-0.8-0.9-0.9-1.2-2.5 0-3.7l8.9-8.9c1.4-1.4 3.8-1.4 5.2 0s1.4 3.8 0 5.2l-7.4 7.4c-0.2 0.2-0.5 0.2-0.7 0s-0.2-0.5 0-0.7l7.4-7.4c1-1 1-2.7 0-3.7s-2.7-1-3.7 0l-8.9 8.9c-0.8 0.8-0.6 1.7 0 2.2 0.6 0.6 1.5 0.8 2.2 0l8.9-8.9c0.2-0.2 0.2-0.5 0-0.7s-0.5-0.2-0.7 0l-7.4 7.4c-0.2 0.2-0.5 0.2-0.7 0s-0.2-0.5 0-0.7l7.4-7.4c0.6-0.6 1.6-0.6 2.2 0s0.6 1.6 0 2.2l-8.9 8.9c-0.6 0.4-1.3 0.7-1.9 0.7z"></path>
</svg>
