<?xml version="1.0" encoding="utf-8"?>
<!-- Generated by IcoMoon.io -->
<!DOCTYPE svg PUBLIC "-//W3C//DTD SVG 1.1//EN" "http://www.w3.org/Graphics/SVG/1.1/DTD/svg11.dtd">
<svg version="1.1" xmlns="http://www.w3.org/2000/svg" xmlns:xlink="http://www.w3.org/1999/xlink" width="64" height="64" viewBox="0 0 64 64">
<path fill="#444444" d="M4 47.6l-4 16.4 16.4-4 36.8-36.8-12.4-12.4-36.8 36.8zM6 60l-1.6-2 1.6-8 8 8-8 2zM43.6 17.6l-32.4 32-2.4-2.4 32.4-32 2.4 2.4z"></path>
<path fill="#444444" d="M61.2 2.8c-4.4-4.4-10.4-2-10.4-2l-6 6 12.4 12.4 6-6c0-0.4 2.4-6-2-10.4zM53.6 6.4l-2-2c2.4-2.4 4.4-0.4 4.4-0.4l-2.4 2.4z"></path>
</svg>
