<?xml version="1.0" encoding="utf-8"?>
<!-- Generated by IcoMoon.io -->
<!DOCTYPE svg PUBLIC "-//W3C//DTD SVG 1.1//EN" "http://www.w3.org/Graphics/SVG/1.1/DTD/svg11.dtd">
<svg version="1.1" xmlns="http://www.w3.org/2000/svg" xmlns:xlink="http://www.w3.org/1999/xlink" width="16" height="16" viewBox="0 0 16 16">
<path fill="#444" d="M12.2 10c-1.1-0.1-1.7 1.4-2.5 1.8-1.3 0.7-3.7-1.8-3.7-1.8s-2.5-2.4-1.9-3.7c0.5-0.8 2-1.4 1.9-2.5-0.1-1-2.3-4.6-3.4-3.6-2.4 2.2-2.6 3.1-2.6 4.9-0.1 3.1 3.9 7 3.9 7 0.4 0.4 3.9 4 7 3.9 1.8 0 2.7-0.2 4.9-2.6 1-1.1-2.5-3.3-3.6-3.4z"></path>
</svg>
