<?xml version="1.0" encoding="utf-8"?>
<!-- Generated by IcoMoon.io -->
<!DOCTYPE svg PUBLIC "-//W3C//DTD SVG 1.1//EN" "http://www.w3.org/Graphics/SVG/1.1/DTD/svg11.dtd">
<svg version="1.1" xmlns="http://www.w3.org/2000/svg" xmlns:xlink="http://www.w3.org/1999/xlink" width="16" height="16" viewBox="0 0 16 16">
<path fill="#444" d="M15.88 3.86l-0.61-1.31c-0.155-0.326-0.443-0.568-0.792-0.658-1.938-0.528-4.161-0.851-6.453-0.891-2.342 0.041-4.565 0.363-6.687 0.934-0.165 0.048-0.453 0.29-0.605 0.609l-0.613 1.317c-0.075 0.152-0.119 0.331-0.12 0.52v0.87c-0.001 0.012-0.001 0.026-0.001 0.041 0 0.392 0.318 0.71 0.71 0.71 0.011 0 0.022-0 0.033-0.001l2.518 0c0.412-0.010 0.742-0.346 0.742-0.76 0-0.018-0.001-0.035-0.002-0.053l0-0.838c-0-0.004-0-0.008-0-0.012 0-0.229 0.119-0.43 0.298-0.546 0.947-0.508 2.069-0.806 3.26-0.806 0.156 0 0.31 0.005 0.464 0.015 0.122-0.011 0.288-0.017 0.456-0.017 1.178 0 2.287 0.291 3.261 0.805 0.143 0.099 0.262 0.3 0.262 0.529 0 0.004-0 0.009-0 0.013l0 0.859c-0.001 0.015-0.002 0.033-0.002 0.050 0 0.413 0.33 0.75 0.741 0.76l2.521 0c0.009 0 0.020 0.001 0.031 0.001 0.392 0 0.71-0.318 0.71-0.71 0-0.014-0-0.029-0.001-0.043l0-0.868c-0.001-0.189-0.045-0.368-0.123-0.527z"></path>
<path fill="#444" d="M12 8.3c-0.624-0.797-1.001-1.815-1.001-2.92 0-0.028 0-0.056 0.001-0.084l-0-0.296h-1v1h-4v-1h-1v0.33c0 0.024 0.001 0.052 0.001 0.080 0 1.105-0.377 2.122-1.009 2.93l-2.992 3.66v3h14v-3zM8 13c-1.657 0-3-1.343-3-3s1.343-3 3-3c1.657 0 3 1.343 3 3s-1.343 3-3 3z"></path>
<path fill="#444" d="M10 10c0 1.105-0.895 2-2 2s-2-0.895-2-2c0-1.105 0.895-2 2-2s2 0.895 2 2z"></path>
</svg>
