<?xml version="1.0" encoding="utf-8"?>
<!-- Generated by IcoMoon.io -->
<!DOCTYPE svg PUBLIC "-//W3C//DTD SVG 1.1//EN" "http://www.w3.org/Graphics/SVG/1.1/DTD/svg11.dtd">
<svg version="1.1" xmlns="http://www.w3.org/2000/svg" xmlns:xlink="http://www.w3.org/1999/xlink" width="64" height="64" viewBox="0 0 64 64">
<path fill="#444444" d="M48.8 40c-4.4-0.4-6.8 5.6-10 7.2-5.2 2.8-14.8-7.2-14.8-7.2s-10-9.6-7.6-14.8c2-3.2 8-5.6 7.6-10-0.4-4-9.2-18.4-13.6-14.4-9.6 8.8-10.4 12.4-10.4 19.6-0.4 12.4 15.6 28 15.6 28 1.6 1.6 15.6 16 28 15.6 7.2 0 10.8-0.8 19.6-10.4 4-4.4-10-13.2-14.4-13.6z"></path>
</svg>
