<?xml version="1.0" encoding="utf-8"?>
<!-- Generated by IcoMoon.io -->
<!DOCTYPE svg PUBLIC "-//W3C//DTD SVG 1.1//EN" "http://www.w3.org/Graphics/SVG/1.1/DTD/svg11.dtd">
<svg version="1.1" xmlns="http://www.w3.org/2000/svg" xmlns:xlink="http://www.w3.org/1999/xlink" width="64" height="64" viewBox="0 0 64 64">
<path fill="#444444" d="M64 56h-64v-48h64v48zM4 52h56v-40h-56v40z"></path>
<path fill="#444444" d="M8 40v8h48v-4c0 0 0.8-6.8-8-8-7.6-1.2-8.8 2.4-15.2 2.4-4.4 0-3.6-6.4-12.8-6.4-6.8 0-12 8-12 8z"></path>
<path fill="#444444" d="M52 24c0 4.418-3.582 8-8 8s-8-3.582-8-8c0-4.418 3.582-8 8-8s8 3.582 8 8z"></path>
</svg>
