<?xml version="1.0" encoding="utf-8"?>
<!-- Generated by IcoMoon.io -->
<!DOCTYPE svg PUBLIC "-//W3C//DTD SVG 1.1//EN" "http://www.w3.org/Graphics/SVG/1.1/DTD/svg11.dtd">
<svg version="1.1" xmlns="http://www.w3.org/2000/svg" xmlns:xlink="http://www.w3.org/1999/xlink" width="64" height="64" viewBox="0 0 64 64">
<path fill="#444444" d="M59.2 5.6l-0.8-0.8c-2.8-3.2-7.2-4.8-11.2-4.8s-8.4 1.6-11.6 4.8l-30.8 30.8c-6.4 6.4-6.4 16.4 0 22.8l0.8 0.8c2.8 3.2 7.2 4.8 11.2 4.8s8.4-1.6 11.6-4.8l31.2-31.2c6-6 6-16.4-0.4-22.4zM56.4 25.6l-15.6 15.6-14-14.4-15.2 15.2c-4.4 4.4-4.4 10-4 14v0c-4.8-4.8-4.8-12.4 0-17.2l31.2-31.2c2-2.4 5.2-3.6 8.4-3.6s6.4 1.2 8.8 3.6l0.8 0.8c2 2 3.2 5.2 3.2 8.4s-1.2 6.4-3.6 8.8z"></path>
</svg>
