<?xml version="1.0" encoding="utf-8"?>
<!-- Generated by IcoMoon.io -->
<!DOCTYPE svg PUBLIC "-//W3C//DTD SVG 1.1//EN" "http://www.w3.org/Graphics/SVG/1.1/DTD/svg11.dtd">
<svg version="1.1" xmlns="http://www.w3.org/2000/svg" xmlns:xlink="http://www.w3.org/1999/xlink" width="16" height="16" viewBox="0 0 16 16">
<path fill="#444" d="M14.8 1.4l-0.2-0.2c-0.7-0.8-1.8-1.2-2.8-1.2s-2.1 0.4-2.9 1.2l-7.7 7.7c-1.6 1.6-1.6 4.1 0 5.7l0.2 0.2c0.7 0.8 1.8 1.2 2.8 1.2s2.1-0.4 2.9-1.2l7.8-7.8c1.5-1.5 1.5-4.1-0.1-5.6zM14.1 6.4l-3.9 3.9-3.5-3.6-3.8 3.8c-1.1 1.1-1.1 2.5-1 3.5v0c-1.2-1.2-1.2-3.1 0-4.3l7.8-7.8c0.5-0.6 1.3-0.9 2.1-0.9s1.6 0.3 2.2 0.9l0.2 0.2c0.5 0.5 0.8 1.3 0.8 2.1s-0.3 1.6-0.9 2.2z"></path>
</svg>
