<?xml version="1.0" encoding="utf-8"?>
<!-- Generated by IcoMoon.io -->
<!DOCTYPE svg PUBLIC "-//W3C//DTD SVG 1.1//EN" "http://www.w3.org/Graphics/SVG/1.1/DTD/svg11.dtd">
<svg version="1.1" xmlns="http://www.w3.org/2000/svg" xmlns:xlink="http://www.w3.org/1999/xlink" width="16" height="16" viewBox="0 0 16 16">
<path fill="#444" d="M3.5 8l6.3-6.3c0.4-0.4 1-0.7 1.7-0.7s1.3 0.3 1.8 0.7c1 1 1 2.6 0 3.5l-2.8 2.8h1.4l2-2c1.4-1.4 1.4-3.6 0-4.9-0.7-0.7-1.6-1-2.5-1s-1.7 0.2-2.4 0.9l-6.3 6.4c-0.3 0.2-0.5 0.5-0.7 0.9 0.5-0.2 1-0.3 1.5-0.3z"></path>
<path fill="#444" d="M7.3 5.6l-2.4 2.4h4.7z"></path>
<path fill="#444" d="M12.5 9h-9c-1.9 0-3.5 1.6-3.5 3.5s1.6 3.5 3.5 3.5h9c1.9 0 3.5-1.6 3.5-3.5s-1.6-3.5-3.5-3.5zM12.5 15h-4.5v-4h-4.5c-1.1 0-2 0.6-2.5 1.2 0.2-1.2 1.2-2.2 2.5-2.2h9c1.4 0 2.5 1.1 2.5 2.5s-1.1 2.5-2.5 2.5z"></path>
</svg>
