<?xml version="1.0" encoding="utf-8"?>
<!-- Generated by IcoMoon.io -->
<!DOCTYPE svg PUBLIC "-//W3C//DTD SVG 1.1//EN" "http://www.w3.org/Graphics/SVG/1.1/DTD/svg11.dtd">
<svg version="1.1" xmlns="http://www.w3.org/2000/svg" xmlns:xlink="http://www.w3.org/1999/xlink" width="64" height="64" viewBox="0 0 64 64">
<path fill="#444444" d="M14 32l25.2-25.2c1.6-1.6 4-2.8 6.8-2.8s5.2 1.2 7.2 2.8c4 4 4 10.4 0 14l-11.2 11.2h5.6l8-8c5.6-5.6 5.6-14.4 0-19.6-2.8-2.8-6.4-4-10-4s-6.8 0.8-9.6 3.6l-25.2 25.6c-1.2 0.8-2 2-2.8 3.6 2-0.8 4-1.2 6-1.2z"></path>
<path fill="#444444" d="M29.2 22.4l-9.6 9.6h18.8z"></path>
<path fill="#444444" d="M50 36h-36c-7.6 0-14 6.4-14 14s6.4 14 14 14h36c7.6 0 14-6.4 14-14s-6.4-14-14-14zM50 60h-18v-16h-18c-4.4 0-8 2.4-10 4.8 0.8-4.8 4.8-8.8 10-8.8h36c5.6 0 10 4.4 10 10s-4.4 10-10 10z"></path>
</svg>
