<?xml version="1.0" encoding="utf-8"?>
<!-- Generated by IcoMoon.io -->
<!DOCTYPE svg PUBLIC "-//W3C//DTD SVG 1.1//EN" "http://www.w3.org/Graphics/SVG/1.1/DTD/svg11.dtd">
<svg version="1.1" xmlns="http://www.w3.org/2000/svg" xmlns:xlink="http://www.w3.org/1999/xlink" width="64" height="64" viewBox="0 0 64 64">
<path fill="#444444" d="M44 26v-22h4v-4h-32v4h4v22c0 0-8 6-8 14 0 2 7.6 2.8 16 2.8v8.8c0 2.8 0.8 5.6 2 8.4l2 4 2-4c1.2-2.4 2-5.2 2-8.4v-8.8c8.4 0 16-1.2 16-2.8 0-8-8-14-8-14zM28 26.4c0 0-2 1.2-6.4 5.6-4 4-6 7.6-6 7.6s0.4-4 3.2-7.6c3.6-4.4 5.2-5.6 5.2-5.6v-22.4h4v22.4z"></path>
</svg>
