<?xml version="1.0" encoding="utf-8"?>
<!-- Generated by IcoMoon.io -->
<!DOCTYPE svg PUBLIC "-//W3C//DTD SVG 1.1//EN" "http://www.w3.org/Graphics/SVG/1.1/DTD/svg11.dtd">
<svg version="1.1" xmlns="http://www.w3.org/2000/svg" xmlns:xlink="http://www.w3.org/1999/xlink" width="16" height="16" viewBox="0 0 16 16">
<path fill="#444" d="M11 6.5v-5.5h1v-1h-8v1h1v5.5c0 0-2 1.5-2 3.5 0 0.5 1.9 0.7 4 0.7v2.2c0 0.7 0.2 1.4 0.5 2.1l0.5 1 0.5-1c0.3-0.6 0.5-1.3 0.5-2.1v-2.2c2.1 0 4-0.3 4-0.7 0-2-2-3.5-2-3.5zM7 6.6c0 0-0.5 0.3-1.6 1.4-1 1-1.5 1.9-1.5 1.9s0.1-1 0.8-1.9c0.9-1.1 1.3-1.4 1.3-1.4v-5.6h1v5.6z"></path>
</svg>
