<?xml version="1.0" encoding="utf-8"?>
<!-- Generated by IcoMoon.io -->
<!DOCTYPE svg PUBLIC "-//W3C//DTD SVG 1.1//EN" "http://www.w3.org/Graphics/SVG/1.1/DTD/svg11.dtd">
<svg version="1.1" xmlns="http://www.w3.org/2000/svg" xmlns:xlink="http://www.w3.org/1999/xlink" width="64" height="64" viewBox="0 0 64 64">
<path fill="#444444" d="M58.8 12.4c-1.6-1.6-4-1.6-5.6 0l-11.2 11.2-6-5.6 11.2-11.2c1.6-1.6 1.6-4 0-5.6s-4-1.6-5.6 0l-11.2 11.2-5.6-5.6-5.6 5.6 2.8 2.8-5.6 5.6c-5.6 5.6-6 14-2 20.4-6.8 6-10.4 15.2-10.4 22.8h8c0-5.2 1.6-12.8 8.4-17.6 6 3.2 13.6 2 18.4-2.8l5.6-5.6 2.8 2.8 5.6-5.6-5.6-5.6 11.2-11.2c2-2 2-4.4 0.4-6z"></path>
</svg>
