<?xml version="1.0" encoding="utf-8"?>
<!-- Generated by IcoMoon.io -->
<!DOCTYPE svg PUBLIC "-//W3C//DTD SVG 1.1//EN" "http://www.w3.org/Graphics/SVG/1.1/DTD/svg11.dtd">
<svg version="1.1" xmlns="http://www.w3.org/2000/svg" xmlns:xlink="http://www.w3.org/1999/xlink" width="64" height="64" viewBox="0 0 64 64">
<path fill="#444444" d="M46.4 20c-0.8 0-2 0-2.4 0 0-0.8-0.8-2.4-1.6-3.2s-2.4-1.6-4.4-1.6c-0.8 0-1.6 0-2.4 0.4-0.4-0.8-0.8-1.2-1.2-2-0.8-0.8-2-1.6-4.4-1.6-0.8 0-1.6 0-2 0.4v-6.8c0-2.4-1.6-5.6-5.6-5.6-1.6 0-3.2 0.8-4.4 1.6-2 2.4-2 5.6-2 5.6v17.2c-2.4 0.4-4.4 1.2-5.6 2.4-2.4 2.8-2.4 6.4-2.4 11.2 0 0.8 0 2 0 2.8 0 5.6 2.8 8.4 5.6 11.2l1.2 1.6c5.2 4.8 9.6 6.4 20.4 6.4 11.6 0 16.8-6.4 16.8-20.4v-10c0-2.8-0.8-8.4-5.6-9.6zM48 29.6v10.4c0 13.6-5.2 16.4-12.8 16.4-9.6 0-13.2-1.2-17.2-5.2-0.4-0.4-0.8-0.8-1.6-1.6-2.8-3.2-4.4-4.8-4.4-8.8 0-0.8 0-2 0-2.8 0-4 0-6.8 1.2-8.4 0.4-0.4 1.6-0.8 2.8-0.8v2l-1.2 6c0 0.4 0 0.4 0.4 0.8s0.8 0 0.8 0l4-4.8c0-0.4 0-0.8 0-0.8v-24.8c0-0.4 0-2 0.8-2.8 0.4 0 0.8-0.4 1.6-0.4 1.2 0 1.6 1.2 1.6 1.6v12.4c0 0 0 0 0 0v4.8c0 1.2 0.8 2.4 2 2.4s2-1.2 2-2v-5.2c0 0 0 0 0 0 0-0.4 0.4-2 2-2 1.2 0 2 0.4 2 1.6v5.2c0 1.2 0.8 2.4 2 2.4s2-1.2 2-2v-2.8c0-0.4 0.4-1.2 2-1.2 0.8 0 1.2 0.4 1.2 0.4 0.8 0.4 0.8 1.6 0.8 1.6v3.2c0 1.2 0.8 2 1.6 2 1.2 0 2-0.4 2-1.6 0-0.4 0.4-0.8 0.8-1.2 0 0 0.4 0 0.8 0 2.4 0.8 2.8 4.8 2.8 6 0-0.4 0-0.4 0 0z"></path>
</svg>
