<?xml version="1.0" encoding="utf-8"?>
<!-- Generated by IcoMoon.io -->
<!DOCTYPE svg PUBLIC "-//W3C//DTD SVG 1.1//EN" "http://www.w3.org/Graphics/SVG/1.1/DTD/svg11.dtd">
<svg version="1.1" xmlns="http://www.w3.org/2000/svg" xmlns:xlink="http://www.w3.org/1999/xlink" width="64" height="64" viewBox="0 0 64 64">
<path fill="#444444" d="M59.6 3.6c-4.4-4-10-5.2-12.4-1.6-2.8 4.4 2 6.8-1.2 10-2 2.4-8-3.2-8-3.2l-3.2-3.2-5.6 5.6c-2.4 2.8-8.4 6-10.4 4.4-2.8-2.4 0.4-7.2-2-10.4-2.8-4-8.4-3.2-12 1.2-4 4.4-5.6 9.6-2 12 4.4 2.8 7.6-1.2 10.8 2 1.6 1.6-0.8 6.8-2 8.4l-9.2 9.2 26 26 6.8-6.8c2.8-2.8 6-8 4.4-9.6-2.4-2.8-6.8 0.4-10-1.6-4-2.8-3.2-8 1.2-12s10-5.2 12.4-1.6c2.8 4.4-1.6 7.2 1.6 10.4 1.6 1.6 6.4-0.8 8-2.4l8.4-8.4-4.4-4.4c-2.4-2.4-7.6-8-5.6-10 2.4-2.8 6.8 0.8 10-1.6 3.6-3.2 2.4-8.4-1.6-12.4z"></path>
</svg>
