<?xml version="1.0" encoding="utf-8"?>
<!-- Generated by IcoMoon.io -->
<!DOCTYPE svg PUBLIC "-//W3C//DTD SVG 1.1//EN" "http://www.w3.org/Graphics/SVG/1.1/DTD/svg11.dtd">
<svg version="1.1" xmlns="http://www.w3.org/2000/svg" xmlns:xlink="http://www.w3.org/1999/xlink" width="64" height="64" viewBox="0 0 64 64">
<path fill="#444444" d="M24 0h-24v24h24v-24zM20 20h-16v-16h16v16z"></path>
<path fill="#444444" d="M8 8h8v8h-8v-8z"></path>
<path fill="#444444" d="M0 64h24v-24h-24v24zM4 44h16v16h-16v-16z"></path>
<path fill="#444444" d="M8 48h8v8h-8v-8z"></path>
<path fill="#444444" d="M40 0v24h24v-24h-24zM60 20h-16v-16h16v16z"></path>
<path fill="#444444" d="M48 8h8v8h-8v-8z"></path>
<path fill="#444444" d="M8 28h-8v8h12v-4h-4z"></path>
<path fill="#444444" d="M28 36h8v8h-8v-8z"></path>
<path fill="#444444" d="M12 28h8v4h-8v-4z"></path>
<path fill="#444444" d="M36 48h-8v4h4v4h4v-4z"></path>
<path fill="#444444" d="M24 28v4h-4v4h8v-8z"></path>
<path fill="#444444" d="M32 16h4v8h-4v-8z"></path>
<path fill="#444444" d="M36 32v4h8v-8h-12v4z"></path>
<path fill="#444444" d="M28 24h4v4h-4v-4z"></path>
<path fill="#444444" d="M36 56h8v8h-8v-8z"></path>
<path fill="#444444" d="M28 56h4v8h-4v-8z"></path>
<path fill="#444444" d="M36 44h4v4h-4v-4z"></path>
<path fill="#444444" d="M36 12v-8h-4v-4h-4v16h4v-4z"></path>
<path fill="#444444" d="M48 56h4v8h-4v-8z"></path>
<path fill="#444444" d="M48 48h8v4h-8v-4z"></path>
<path fill="#444444" d="M44 52h4v4h-4v-4z"></path>
<path fill="#444444" d="M40 48h4v4h-4v-4z"></path>
<path fill="#444444" d="M56 40v4h4v4h4v-8h-4z"></path>
<path fill="#444444" d="M60 52h-4v12h8v-8h-4z"></path>
<path fill="#444444" d="M40 40v4h12v-8h-8v4z"></path>
<path fill="#444444" d="M48 28v4h8v4h8v-8h-8z"></path>
</svg>
