<?xml version="1.0" encoding="utf-8"?>
<!-- Generated by IcoMoon.io -->
<!DOCTYPE svg PUBLIC "-//W3C//DTD SVG 1.1//EN" "http://www.w3.org/Graphics/SVG/1.1/DTD/svg11.dtd">
<svg version="1.1" xmlns="http://www.w3.org/2000/svg" xmlns:xlink="http://www.w3.org/1999/xlink" width="16" height="16" viewBox="0 0 16 16">
<path fill="#444" d="M9 11h-3c0-3 1.6-4 2.7-4.6 0.4-0.2 0.7-0.4 0.9-0.6 0.5-0.5 0.3-1.2 0.2-1.4-0.3-0.7-1-1.4-2.3-1.4-2.1 0-2.5 1.9-2.5 2.3l-3-0.4c0.2-1.7 1.7-4.9 5.5-4.9 2.3 0 4.3 1.3 5.1 3.2 0.7 1.7 0.4 3.5-0.8 4.7-0.5 0.5-1.1 0.8-1.6 1.1-0.9 0.5-1.2 1-1.2 2z"></path>
<path fill="#444" d="M9.5 14c0 1.105-0.895 2-2 2s-2-0.895-2-2c0-1.105 0.895-2 2-2s2 0.895 2 2z"></path>
</svg>
