<?xml version="1.0" encoding="utf-8"?>
<!-- Generated by IcoMoon.io -->
<!DOCTYPE svg PUBLIC "-//W3C//DTD SVG 1.1//EN" "http://www.w3.org/Graphics/SVG/1.1/DTD/svg11.dtd">
<svg version="1.1" xmlns="http://www.w3.org/2000/svg" xmlns:xlink="http://www.w3.org/1999/xlink" width="16" height="16" viewBox="0 0 16 16">
<path fill="#444" d="M8 0c-4.4 0-8 3.6-8 8s3.6 8 8 8 8-3.6 8-8-3.6-8-8-8zM8.9 13h-2v-2h2v2zM11 8.1c-0.4 0.4-0.8 0.6-1.2 0.7-0.6 0.4-0.8 0.2-0.8 1.2h-2c0-2 1.2-2.6 2-3 0.3-0.1 0.5-0.2 0.7-0.4 0.1-0.1 0.3-0.3 0.1-0.7-0.2-0.5-0.8-1-1.7-1-1.4 0-1.6 1.2-1.7 1.5l-2-0.3c0.1-1.1 1-3.2 3.6-3.2 1.6 0 3 0.9 3.6 2.2 0.4 1.1 0.2 2.2-0.6 3z"></path>
</svg>
