<?xml version="1.0" encoding="utf-8"?>
<!-- Generated by IcoMoon.io -->
<!DOCTYPE svg PUBLIC "-//W3C//DTD SVG 1.1//EN" "http://www.w3.org/Graphics/SVG/1.1/DTD/svg11.dtd">
<svg version="1.1" xmlns="http://www.w3.org/2000/svg" xmlns:xlink="http://www.w3.org/1999/xlink" width="64" height="64" viewBox="0 0 64 64">
<path fill="#444444" d="M36 44h-12c0-12 6.4-16 10.8-18.4 1.6-0.8 2.8-1.6 3.6-2.4 2-2 1.2-4.8 0.8-5.6-1.2-2.8-4-5.6-9.2-5.6-8.4 0-10 7.6-10 9.2l-12-1.6c0.8-6.8 6.8-19.6 22-19.6 9.2 0 17.2 5.2 20.4 12.8 2.8 6.8 1.6 14-3.2 18.8-2 2-4.4 3.2-6.4 4.4-3.6 2-4.8 4-4.8 8z"></path>
<path fill="#444444" d="M38 56c0 4.418-3.582 8-8 8s-8-3.582-8-8c0-4.418 3.582-8 8-8s8 3.582 8 8z"></path>
</svg>
