<?xml version="1.0" encoding="utf-8"?>
<!-- Generated by IcoMoon.io -->
<!DOCTYPE svg PUBLIC "-//W3C//DTD SVG 1.1//EN" "http://www.w3.org/Graphics/SVG/1.1/DTD/svg11.dtd">
<svg version="1.1" xmlns="http://www.w3.org/2000/svg" xmlns:xlink="http://www.w3.org/1999/xlink" width="64" height="64" viewBox="0 0 64 64">
<path fill="#444444" d="M36 40h-8c0-8 4.8-10.4 8-12 1.2-0.4 2-0.8 2.8-1.6 0.4-0.4 1.2-1.2 0.4-2.8-0.8-2-3.2-4-6.8-4-5.6 0-6.4 4.8-6.8 6l-8-1.2c0.4-4.4 4-12.8 14.4-12.8 6.4 0 12 3.6 14.4 8.8 1.6 4.4 0.8 8.8-2.4 12-1.6 1.6-3.2 2.4-4.8 2.8-2.4 1.6-3.2 0.8-3.2 4.8z"></path>
<path fill="#444444" d="M32 4c15.6 0 28 12.4 28 28s-12.4 28-28 28-28-12.4-28-28 12.4-28 28-28zM32 0c-17.6 0-32 14.4-32 32s14.4 32 32 32 32-14.4 32-32-14.4-32-32-32v0z"></path>
<path fill="#444444" d="M27.6 44h8v8h-8v-8z"></path>
</svg>
