<?xml version="1.0" encoding="utf-8"?>
<!-- Generated by IcoMoon.io -->
<!DOCTYPE svg PUBLIC "-//W3C//DTD SVG 1.1//EN" "http://www.w3.org/Graphics/SVG/1.1/DTD/svg11.dtd">
<svg version="1.1" xmlns="http://www.w3.org/2000/svg" xmlns:xlink="http://www.w3.org/1999/xlink" width="64" height="64" viewBox="0 0 64 64">
<path fill="#444444" d="M52 48h-8c-4 0-6.8-4.8-9.6-10.8-1.2 2.8-2.4 6-4 9.2 3.2 5.6 7.2 9.6 13.6 9.6h8v8l12-12-12-12v8z"></path>
<path fill="#444444" d="M21.6 26.4c1.2-2.8 2.4-6 4-8.8-3.2-5.6-7.6-9.6-13.6-9.6h-12v8h12c4 0 6.8 4.8 9.6 10.4z"></path>
<path fill="#444444" d="M64 12l-12-12v8h-8c-10.8 0-15.6 12-20 22.8-3.2 8.4-6.8 17.2-12 17.2h-12v8h12c10.4 0 15.2-11.2 19.6-22.4 3.6-8.8 7.2-17.6 12.4-17.6h8v8l12-12z"></path>
</svg>
