<?xml version="1.0" encoding="utf-8"?>
<!-- Generated by IcoMoon.io -->
<!DOCTYPE svg PUBLIC "-//W3C//DTD SVG 1.1//EN" "http://www.w3.org/Graphics/SVG/1.1/DTD/svg11.dtd">
<svg version="1.1" xmlns="http://www.w3.org/2000/svg" xmlns:xlink="http://www.w3.org/1999/xlink" width="64" height="64" viewBox="0 0 64 64">
<path fill="#444444" d="M32 12.4l5.6 8.8-6.4 4.4 5.2 1.2 11.2 2.4 2.4-10.8 1.6-5.6-7.2 4.4-8-13.2h-8.8l-10.4 17.2 6.8 4z"></path>
<path fill="#444444" d="M64 48l-10.8-17.2-6.8 4 8 13.2h-10.4v-8l-12 12 12 12v-8h14.8z"></path>
<path fill="#444444" d="M9.6 48v0l5.6-9.2 6.8 4.4-3.6-16.8-11.2 2.8-5.2 1.2 6.4 4-8.4 13.6 5.2 8h22.8v-8z"></path>
</svg>
