<?xml version="1.0" encoding="utf-8"?>
<!-- Generated by IcoMoon.io -->
<!DOCTYPE svg PUBLIC "-//W3C//DTD SVG 1.1//EN" "http://www.w3.org/Graphics/SVG/1.1/DTD/svg11.dtd">
<svg version="1.1" xmlns="http://www.w3.org/2000/svg" xmlns:xlink="http://www.w3.org/1999/xlink" width="64" height="64" viewBox="0 0 64 64">
<path fill="#444444" d="M10.4 22.4c3.6-8.4 12-14.4 21.6-14.4 12 0 21.6 8.8 23.6 20h8c-2-15.6-15.2-28-31.6-28-12 0-22.4 6.4-27.6 16.4l-4.4-4.4v16h16l-5.6-5.6z"></path>
<path fill="#444444" d="M64 36h-16.4l6 5.6c-3.6 8.4-12 14.4-22 14.4-11.6 0-21.6-8.8-23.6-20h-8c2 15.6 15.6 28 31.6 28 12 0 22.4-6.8 28-16.4l4.4 4.4v-16z"></path>
</svg>
