<?xml version="1.0" encoding="utf-8"?>
<!-- Generated by IcoMoon.io -->
<!DOCTYPE svg PUBLIC "-//W3C//DTD SVG 1.1//EN" "http://www.w3.org/Graphics/SVG/1.1/DTD/svg11.dtd">
<svg version="1.1" xmlns="http://www.w3.org/2000/svg" xmlns:xlink="http://www.w3.org/1999/xlink" width="16" height="16" viewBox="0 0 16 16">
<path fill="#444" d="M2.6 5.6c0.9-2.1 3-3.6 5.4-3.6 3 0 5.4 2.2 5.9 5h2c-0.5-3.9-3.8-7-7.9-7-3 0-5.6 1.6-6.9 4.1l-1.1-1.1v4h4l-1.4-1.4z"></path>
<path fill="#444" d="M16 9h-4.1l1.5 1.4c-0.9 2.1-3 3.6-5.5 3.6-2.9 0-5.4-2.2-5.9-5h-2c0.5 3.9 3.9 7 7.9 7 3 0 5.6-1.7 7-4.1l1.1 1.1v-4z"></path>
</svg>
