<?xml version="1.0" encoding="utf-8"?>
<!-- Generated by IcoMoon.io -->
<!DOCTYPE svg PUBLIC "-//W3C//DTD SVG 1.1//EN" "http://www.w3.org/Graphics/SVG/1.1/DTD/svg11.dtd">
<svg version="1.1" xmlns="http://www.w3.org/2000/svg" xmlns:xlink="http://www.w3.org/1999/xlink" width="64" height="64" viewBox="0 0 64 64">
<path fill="#444444" d="M56 52v-4c0-0.8 0-16.4-11.2-21.6-8.8-4-8.8-14-8.8-14.4v-12h-8v12c0 0.4 0 10.4-8.8 14.4-11.2 5.2-11.2 20.8-11.2 21.6v4h-8l12 12 12-12h-8v-4c0 0 0-11.2 6.8-14.4 4.4-2 7.2-5.2 9.2-8 2 3.2 4.8 6 9.2 8 6.8 3.2 6.8 14.4 6.8 14.4v4h-8l12 12 12-12h-8z"></path>
</svg>
