<?xml version="1.0" encoding="utf-8"?>
<!-- Generated by IcoMoon.io -->
<!DOCTYPE svg PUBLIC "-//W3C//DTD SVG 1.1//EN" "http://www.w3.org/Graphics/SVG/1.1/DTD/svg11.dtd">
<svg version="1.1" xmlns="http://www.w3.org/2000/svg" xmlns:xlink="http://www.w3.org/1999/xlink" width="64" height="64" viewBox="0 0 64 64">
<path fill="#444444" d="M64 0c0 0-14-1.6-26.8 11.2-6.4 6-11.6 14-15.6 21.2l-10-2.4-6.4 6.4 11.2 5.6c-1.2 2.4-1.6 4-1.6 4l3.2 3.2c0 0 1.6-0.8 4-1.6l5.6 11.2 6.4-6.4-2-10c6.8-4 15.2-9.2 21.2-15.2 12.4-12.8 10.8-27.2 10.8-27.2zM51.2 19.2c-1.6 1.6-4.4 1.6-6.4 0-1.6-1.6-1.6-4.4 0-6.4 1.6-1.6 4.4-1.6 6.4 0 1.6 1.6 1.6 4.4 0 6.4z"></path>
<path fill="#444444" d="M16 56.8c-3.2 3.2-10.4 1.6-10.4 1.6s-1.6-7.2 1.6-10.4c3.2-3.2 6-3.6 6-3.6s-5.2-1.2-8.4 2.4c-6.4 6.4-4 16.8-4 16.8s10.4 2.4 16.8-4c3.6-3.6 2.4-8.8 2.4-8.8s-0.8 2.8-4 6z"></path>
</svg>
