<?xml version="1.0" encoding="utf-8"?>
<!-- Generated by IcoMoon.io -->
<!DOCTYPE svg PUBLIC "-//W3C//DTD SVG 1.1//EN" "http://www.w3.org/Graphics/SVG/1.1/DTD/svg11.dtd">
<svg version="1.1" xmlns="http://www.w3.org/2000/svg" xmlns:xlink="http://www.w3.org/1999/xlink" width="64" height="64" viewBox="0 0 64 64">
<path fill="#444444" d="M0 0v64h64v-64h-64zM14.4 56c-3.6 0-6.4-2.8-6.4-6.4s2.8-6.4 6.4-6.4 6.4 2.8 6.4 6.4-2.4 6.4-6.4 6.4zM30.4 56c0-12.4-10-22.4-22.4-22.4v-9.6c17.6 0 32 14.4 32 32h-9.6zM46.4 56c0-21.2-17.2-38.4-38.4-38.4v-9.6c26.4 0 48 21.6 48 48h-9.6z"></path>
</svg>
