<?xml version="1.0" encoding="utf-8"?>
<!-- Generated by IcoMoon.io -->
<!DOCTYPE svg PUBLIC "-//W3C//DTD SVG 1.1//EN" "http://www.w3.org/Graphics/SVG/1.1/DTD/svg11.dtd">
<svg version="1.1" xmlns="http://www.w3.org/2000/svg" xmlns:xlink="http://www.w3.org/1999/xlink" width="16" height="16" viewBox="0 0 16 16">
<path fill="#444" d="M8 0c-4.418 0-8 3.582-8 8s3.582 8 8 8c4.418 0 8-3.582 8-8s-3.582-8-8-8zM11.13 14.25l-0.37-0.9-0.92 0.38 0.37 0.9c-0.659 0.23-1.419 0.363-2.21 0.363s-1.551-0.133-2.259-0.378l0.419-0.885-0.92-0.38-0.37 0.9c-1.355-0.69-2.43-1.765-3.102-3.080l0.882-0.41-0.38-0.93-0.9 0.37c-0.23-0.659-0.363-1.419-0.363-2.21s0.133-1.551 0.378-2.259l0.885 0.419 0.38-0.92-0.9-0.37c0.691-1.351 1.766-2.423 3.080-3.092l0.41 0.882 0.92-0.38-0.37-0.9c0.659-0.23 1.419-0.363 2.21-0.363s1.551 0.133 2.259 0.378l-0.419 0.885 0.92 0.38 0.37-0.9c1.355 0.69 2.43 1.765 3.102 3.080l-0.882 0.41 0.38 0.92 0.9-0.37c0.23 0.659 0.363 1.419 0.363 2.21s-0.133 1.551-0.378 2.259l-0.885-0.419-0.38 0.92 0.9 0.37c-0.69 1.355-1.765 2.43-3.080 3.102z"></path>
<path fill="#444" d="M10.36 3.62l-1.16 2.79c-0.329-0.253-0.746-0.407-1.199-0.41h0.279l1.15-2.77c-0.426-0.14-0.917-0.223-1.427-0.23-0.023-0-0.047-0-0.071-0-2.795 0-5.060 2.265-5.060 5.060s2.265 5.060 5.060 5.060c2.795 0 5.060-2.265 5.060-5.060 0-1.904-1.052-3.563-2.606-4.426z"></path>
</svg>
