<?xml version="1.0" encoding="utf-8"?>
<!-- Generated by IcoMoon.io -->
<!DOCTYPE svg PUBLIC "-//W3C//DTD SVG 1.1//EN" "http://www.w3.org/Graphics/SVG/1.1/DTD/svg11.dtd">
<svg version="1.1" xmlns="http://www.w3.org/2000/svg" xmlns:xlink="http://www.w3.org/1999/xlink" width="64" height="64" viewBox="0 0 64 64">
<path fill="#444444" d="M30 0c-16.4 0-30 13.6-30 30s13.6 30 30 30 30-13.6 30-30-13.6-30-30-30zM53.2 41.6c-0.8 2-2 3.6-3.6 5.2l-5.6-5.6c2-2.4 3.6-5.6 3.6-9.2h8c0 2-0.4 4-1.2 6l-3.6-1.6-1.6 3.6 4 1.6zM40.4 49.6l-3.6 1.6 1.6 3.6c-2.4 0.4-4.4 0.8-6.4 1.2v-8c3.6-0.4 6.4-1.6 9.2-3.6l5.6 5.6c-1.6 1.2-3.2 2.4-5.2 3.6l-1.2-4zM19.6 49.6l-1.6 3.6c-2-0.8-3.6-2-5.2-3.6l6-5.6c2.4 2 5.6 3.6 9.2 3.6v8c-2 0-4-0.4-6-1.2l1.6-3.6-4-1.2zM12.4 28h-8.4c0-2 0.4-4 1.2-6l3.6 1.6 1.6-3.6-3.6-1.6c0.8-2 2-3.6 3.6-5.2l5.6 5.6c-2 2.8-3.6 5.6-3.6 9.2zM19.6 10.4l3.6-1.6-1.2-3.6c2-0.4 4-0.8 6-1.2v8c-3.6 0.4-6.4 2-9.2 4l-5.6-5.6c1.6-1.2 3.2-2.4 5.2-3.6l1.2 3.6zM53.2 18.4l-3.6 1.6 1.6 3.6 3.6-1.6c0.4 2 0.8 4 1.2 6h-8c-0.4-3.6-1.6-6.4-4-9.2l-5.6 5.6c0.8 1.6 1.6 3.6 1.6 5.6 0 5.6-4.4 10-10 10s-10-4.4-10-10c0-5.6 4.4-10 10-10 2 0 4 0.8 5.6 1.6l5.6-5.6c-2.8-2-5.6-3.6-9.2-4v-8c2 0 4 0.4 6 1.2l-1.6 3.6 3.6 1.6 1.6-3.6c2 0.8 3.6 2 5.2 3.6l-5.6 5.6 2.8 2.8 5.6-5.6c1.6 1.6 2.8 3.2 3.6 5.2zM6.8 41.6l3.6-1.6-1.6-3.6-3.6 1.6c-0.4-2-0.8-4-1.2-6h8c0.4 3.6 2 6.4 4 9.2l-5.6 5.6c-1.6-1.6-2.8-3.2-3.6-5.2z"></path>
<path fill="#444444" d="M36 30c0 3.314-2.686 6-6 6s-6-2.686-6-6c0-3.314 2.686-6 6-6s6 2.686 6 6z"></path>
</svg>
