<?xml version="1.0" encoding="utf-8"?>
<!-- Generated by IcoMoon.io -->
<!DOCTYPE svg PUBLIC "-//W3C//DTD SVG 1.1//EN" "http://www.w3.org/Graphics/SVG/1.1/DTD/svg11.dtd">
<svg version="1.1" xmlns="http://www.w3.org/2000/svg" xmlns:xlink="http://www.w3.org/1999/xlink" width="16" height="16" viewBox="0 0 16 16">
<path fill="#444" d="M15.81 9l-2.47-4.93 0.83-0.15c0.239-0.044 0.418-0.251 0.418-0.5 0-0.281-0.227-0.508-0.508-0.508-0.032 0-0.063 0.003-0.093 0.009l-0.777 0.14c-0.993-0.755-2.25-1.21-3.613-1.21-0.21 0-0.418 0.011-0.623 0.032-0.036-0.5-0.457-0.882-0.967-0.882-0.003 0-0.005 0-0.008 0-0.552 0-1 0.448-1 1v0.2c-1.714 0.336-3.151 1.327-4.066 2.697l-0.754 0.153c-0.257 0.024-0.457 0.239-0.457 0.5 0 0.277 0.225 0.502 0.502 0.502 0.016 0 0.032-0.001 0.047-0.002l0.088 0 0.35-0.050-2.52 5h-0.19c0 1.1 1.34 2 3 2s3-0.9 3-2h-0.19l-2.56-5.12h0.1c0.172-0.031 0.311-0.144 0.379-0.297 0.021-0.093 0.701-1.583 3.271-2.363v10.78h-1v1h-2v1h8v-1h-2v-1h-1v-11.12c0.201-0.031 0.434-0.049 0.67-0.049 1.152 0 2.205 0.419 3.016 1.114l-0.006-0.005-2.49 5.060h-0.19c0 1.1 1.34 2 3 2s3-0.9 3-2h-0.19zM5 11h-4l2-3.94zM11 9l2-3.94 2 3.94h-4z"></path>
</svg>
