<?xml version="1.0" encoding="utf-8"?>
<!-- Generated by IcoMoon.io -->
<!DOCTYPE svg PUBLIC "-//W3C//DTD SVG 1.1//EN" "http://www.w3.org/Graphics/SVG/1.1/DTD/svg11.dtd">
<svg version="1.1" xmlns="http://www.w3.org/2000/svg" xmlns:xlink="http://www.w3.org/1999/xlink" width="16" height="16" viewBox="0 0 16 16">
<path fill="#444" d="M16 3.1c0 0-2.1-1.1-3.5-1-0.3 0-0.5 0.1-0.7 0.2l-4.3 3.4-1.8-1.5c0.1-0.3 0.2-0.6 0.3-1 0.1-1.8-1.4-3.4-3.3-3.2-1.2 0.1-2.3 1-2.6 2.2-0.3 1.3 0.2 2.5 1.2 3.2l3.3 2.6-3.3 2.6c-1 0.7-1.5 1.9-1.2 3.2 0.3 1.2 1.4 2 2.6 2.2 1.9 0.2 3.4-1.4 3.2-3.2 0-0.3-0.1-0.7-0.3-1l1.8-1.5 4.3 3.4c0.2 0.1 0.4 0.2 0.7 0.2 1.4 0.1 3.5-1 3.5-1l-5.7-4.9 5.8-4.9zM2.8 4.6c-0.9-0.1-1.6-0.9-1.5-1.8s0.9-1.6 1.8-1.5c0.9 0.1 1.6 0.9 1.5 1.8 0 0.9-0.9 1.6-1.8 1.5zM3.1 14.7c-0.9 0.1-1.7-0.6-1.8-1.5s0.6-1.7 1.5-1.8c0.9-0.1 1.7 0.6 1.8 1.5s-0.6 1.7-1.5 1.8zM12.4 3.2c0 0 0.1 0 0.2 0 0.4 0 0.9 0.1 1.4 0.2l-6.8 5.7-0.9-1.1 6.1-4.8zM14 12.6c-0.5 0.2-1 0.3-1.4 0.2-0.1 0-0.2 0-0.2 0l-4-3.2 1-0.9 4.6 3.9z"></path>
</svg>
