<?xml version="1.0" encoding="utf-8"?>
<!-- Generated by IcoMoon.io -->
<!DOCTYPE svg PUBLIC "-//W3C//DTD SVG 1.1//EN" "http://www.w3.org/Graphics/SVG/1.1/DTD/svg11.dtd">
<svg version="1.1" xmlns="http://www.w3.org/2000/svg" xmlns:xlink="http://www.w3.org/1999/xlink" width="64" height="64" viewBox="0 0 64 64">
<path fill="#444444" d="M64 12.4c0 0-8.4-4.4-14-4-1.2 0-2 0.4-2.8 0.8l-17.2 13.6-7.2-6c0.4-1.2 0.8-2.4 1.2-4 0.4-7.2-5.6-13.6-13.2-12.8-4.8 0.4-9.2 4-10.4 8.8-1.2 5.2 0.8 10 4.8 12.8l13.2 10.4-13.2 10.4c-4 2.8-6 7.6-4.8 12.8 1.2 4.8 5.6 8 10.4 8.8 7.6 0.8 13.6-5.6 12.8-12.8 0-1.2-0.4-2.8-1.2-4l7.2-6 17.2 13.6c0.8 0.4 1.6 0.8 2.8 0.8 5.6 0.4 14-4 14-4l-22.8-19.6 23.2-19.6zM11.2 18.4c-3.6-0.4-6.4-3.6-6-7.2s3.6-6.4 7.2-6c3.6 0.4 6.4 3.6 6 7.2 0 3.6-3.6 6.4-7.2 6zM12.4 58.8c-3.6 0.4-6.8-2.4-7.2-6s2.4-6.8 6-7.2c3.6-0.4 6.8 2.4 7.2 6s-2.4 6.8-6 7.2zM49.6 12.8c0 0 0.4 0 0.8 0 1.6 0 3.6 0.4 5.6 0.8l-27.2 22.8-3.6-4.4 24.4-19.2zM56 50.4c-2 0.8-4 1.2-5.6 0.8-0.4 0-0.8 0-0.8 0l-16-12.8 4-3.6 18.4 15.6z"></path>
</svg>
