<?xml version="1.0" encoding="utf-8"?>
<!-- Generated by IcoMoon.io -->
<!DOCTYPE svg PUBLIC "-//W3C//DTD SVG 1.1//EN" "http://www.w3.org/Graphics/SVG/1.1/DTD/svg11.dtd">
<svg version="1.1" xmlns="http://www.w3.org/2000/svg" xmlns:xlink="http://www.w3.org/1999/xlink" width="16" height="16" viewBox="0 0 16 16">
<path fill="#444" d="M8 10.8l0.9-0.8-0.9-0.9 5.7-5.7 1.2-0.4 1.1-2.2-0.7-0.7-2.3 1-0.5 1.2-5.6 5.7-0.9-0.9-0.8 0.9c0 0 0.8 0.6-0.1 1.5-0.5 0.5-1.3-0.1-2.8 1.4-0.5 0.5-2.1 2.1-2.1 2.1s-0.6 1 0.6 2.2 2.2 0.6 2.2 0.6 1.6-1.6 2.1-2.1c1.4-1.4 0.9-2.3 1.3-2.7 0.9-0.9 1.6-0.2 1.6-0.2zM4.9 10.4l0.7 0.7-3.8 3.8-0.7-0.7z"></path>
</svg>
