<?xml version="1.0" encoding="utf-8"?>
<!-- Generated by IcoMoon.io -->
<!DOCTYPE svg PUBLIC "-//W3C//DTD SVG 1.1//EN" "http://www.w3.org/Graphics/SVG/1.1/DTD/svg11.dtd">
<svg version="1.1" xmlns="http://www.w3.org/2000/svg" xmlns:xlink="http://www.w3.org/1999/xlink" width="64" height="64" viewBox="0 0 64 64">
<path fill="#444444" d="M32 43.2l3.6-3.2-3.6-3.6 22.8-22.8 4.8-1.6 4.4-8.8-2.8-2.8-9.2 4-2 4.8-22.4 22.8-3.6-3.6-3.2 3.6c0 0 3.2 2.4-0.4 6-2 2-5.2-0.4-11.2 5.6-2 2-8.4 8.4-8.4 8.4s-2.4 4 2.4 8.8 8.8 2.4 8.8 2.4 6.4-6.4 8.4-8.4c5.6-5.6 3.6-9.2 5.2-10.8 3.6-3.6 6.4-0.8 6.4-0.8zM19.6 41.6l2.8 2.8-15.2 15.2-2.8-2.8z"></path>
</svg>
