<?xml version="1.0" encoding="utf-8"?>
<!-- Generated by IcoMoon.io -->
<!DOCTYPE svg PUBLIC "-//W3C//DTD SVG 1.1//EN" "http://www.w3.org/Graphics/SVG/1.1/DTD/svg11.dtd">
<svg version="1.1" xmlns="http://www.w3.org/2000/svg" xmlns:xlink="http://www.w3.org/1999/xlink" width="64" height="64" viewBox="0 0 64 64">
<path fill="#444444" d="M62.8 57.2l-16.8-16.8c-0.8-0.8-2-1.2-3.2-1.2 3.2-4 5.2-9.6 5.2-15.2 0-13.2-10.8-24-24-24s-24 10.8-24 24 10.8 24 24 24c5.6 0 11.2-2 15.2-5.6 0 1.2 0 2.4 1.2 3.2l16.8 16.8c0.8 0.8 2 1.2 2.8 1.2s2-0.4 2.8-1.2c1.6-1.2 1.6-3.6 0-5.2zM24 42c-10 0-18-8-18-18s8-18 18-18 18 8 18 18-8 18-18 18z"></path>
<path fill="#444444" d="M28 12h-8v8h-8v8h8v8h8v-8h8v-8h-8z"></path>
</svg>
