<?xml version="1.0" encoding="utf-8"?>
<!-- Generated by IcoMoon.io -->
<!DOCTYPE svg PUBLIC "-//W3C//DTD SVG 1.1//EN" "http://www.w3.org/Graphics/SVG/1.1/DTD/svg11.dtd">
<svg version="1.1" xmlns="http://www.w3.org/2000/svg" xmlns:xlink="http://www.w3.org/1999/xlink" width="16" height="16" viewBox="0 0 16 16">
<path fill="#444" d="M0 15h16v1h-16v-1z"></path>
<path fill="#444" d="M0 0v6c0.005 0.732 0.401 1.37 0.991 1.715l0.009 6.285h9v-5h3v5h2v-6.28c0.599-0.35 0.995-0.988 1-1.719v-6.001h-16zM4 2h2v4c0 0.552-0.448 1-1 1s-1-0.448-1-1v-4zM2 7c-0.552 0-1-0.448-1-1v-4h2v4c0 0.552-0.448 1-1 1zM8 12h-5v-3h5v3zM9 6c0 0.552-0.448 1-1 1s-1-0.448-1-1v-4h2v4zM12 6c0 0.552-0.448 1-1 1s-1-0.448-1-1v-4h2v4zM15 6c0 0.552-0.448 1-1 1s-1-0.448-1-1v-4h2v4z"></path>
</svg>
