<?xml version="1.0" encoding="utf-8"?>
<!-- Generated by IcoMoon.io -->
<!DOCTYPE svg PUBLIC "-//W3C//DTD SVG 1.1//EN" "http://www.w3.org/Graphics/SVG/1.1/DTD/svg11.dtd">
<svg version="1.1" xmlns="http://www.w3.org/2000/svg" xmlns:xlink="http://www.w3.org/1999/xlink" width="16" height="16" viewBox="0 0 16 16">
<path fill="#444" d="M6.9 13.2l1.1 1.1 1.1-1.1c-0.3-0.3-0.7-0.5-1.1-0.5s-0.9 0.2-1.1 0.5z"></path>
<path fill="#444" d="M8 4.6c2.7 0 5.1 1.1 6.9 2.8l1.1-1.1c-2-2-4.9-3.3-8-3.3s-6 1.3-8 3.3l1.1 1.1c1.8-1.7 4.2-2.8 6.9-2.8z"></path>
<path fill="#444" d="M2.3 8.6l1.1 1.1c1.2-1.1 2.8-1.8 4.6-1.8s3.4 0.7 4.6 1.9l1.1-1.1c-1.4-1.6-3.5-2.5-5.7-2.5s-4.3 0.9-5.7 2.4z"></path>
<path fill="#444" d="M4.6 10.9l1.1 1.1c0.6-0.6 1.4-0.9 2.3-0.9s1.7 0.4 2.3 0.9l1.1-1.1c-0.8-0.9-2.1-1.4-3.4-1.4s-2.6 0.5-3.4 1.4z"></path>
</svg>
