<?xml version="1.0" encoding="utf-8"?>
<!-- Generated by IcoMoon.io -->
<!DOCTYPE svg PUBLIC "-//W3C//DTD SVG 1.1//EN" "http://www.w3.org/Graphics/SVG/1.1/DTD/svg11.dtd">
<svg version="1.1" xmlns="http://www.w3.org/2000/svg" xmlns:xlink="http://www.w3.org/1999/xlink" width="64" height="64" viewBox="0 0 64 64">
<path fill="#444444" d="M27.6 52.8l4.4 4.4 4.4-4.4c-1.2-1.2-2.8-2-4.4-2s-3.6 0.8-4.4 2z"></path>
<path fill="#444444" d="M32 18.4c10.8 0 20.4 4.4 27.6 11.2l4.4-4.4c-8-8-19.6-13.2-32-13.2s-24 5.2-32 13.2l4.4 4.4c7.2-6.8 16.8-11.2 27.6-11.2z"></path>
<path fill="#444444" d="M9.2 34.4l4.4 4.4c4.8-4.4 11.2-7.2 18.4-7.2s13.6 2.8 18.4 7.6l4.4-4.4c-5.6-6.4-14-10-22.8-10s-17.2 3.6-22.8 9.6z"></path>
<path fill="#444444" d="M18.4 43.6l4.4 4.4c2.4-2.4 5.6-3.6 9.2-3.6s6.8 1.6 9.2 3.6l4.4-4.4c-3.2-3.6-8.4-5.6-13.6-5.6s-10.4 2-13.6 5.6z"></path>
</svg>
