<?xml version="1.0" encoding="utf-8"?>
<!-- Generated by IcoMoon.io -->
<!DOCTYPE svg PUBLIC "-//W3C//DTD SVG 1.1//EN" "http://www.w3.org/Graphics/SVG/1.1/DTD/svg11.dtd">
<svg version="1.1" xmlns="http://www.w3.org/2000/svg" xmlns:xlink="http://www.w3.org/1999/xlink" width="64" height="64" viewBox="0 0 64 64">
<path fill="#444444" d="M64 24h-14.4c-2.8-4.8-8-8-13.6-8s-11.2 3.2-13.6 8h-22.4v16h22.4c2.8 4.8 8 8 13.6 8s11.2-3.2 13.6-8h14.4v-16zM4 36v-8h16.4c0 1.2-0.4 2.8-0.4 4s0.4 2.8 0.4 4h-16.4zM36 44c-6.8 0-12-5.2-12-12s5.2-12 12-12 12 5.2 12 12c0 6.8-5.2 12-12 12z"></path>
</svg>
