<?xml version="1.0" encoding="utf-8"?>
<!-- Generated by IcoMoon.io -->
<!DOCTYPE svg PUBLIC "-//W3C//DTD SVG 1.1//EN" "http://www.w3.org/Graphics/SVG/1.1/DTD/svg11.dtd">
<svg version="1.1" xmlns="http://www.w3.org/2000/svg" xmlns:xlink="http://www.w3.org/1999/xlink" width="64" height="64" viewBox="0 0 64 64">
<path fill="#444444" d="M32 4c15.6 0 28 12.4 28 28s-12.4 28-28 28-28-12.4-28-28 12.4-28 28-28zM32 0c-17.6 0-32 14.4-32 32s14.4 32 32 32 32-14.4 32-32-14.4-32-32-32v0z"></path>
<path fill="#444444" d="M32 52.8c-8 0-15.2-4.8-18.4-12.4l3.6-1.6c2.4 6 8.4 9.6 14.8 9.6s12.4-4 14.8-9.6l3.6 1.6c-3.2 8-10.4 12.4-18.4 12.4z"></path>
<path fill="#444444" d="M28 24c0 2.209-1.791 4-4 4s-4-1.791-4-4c0-2.209 1.791-4 4-4s4 1.791 4 4z"></path>
<path fill="#444444" d="M44 24c0 2.209-1.791 4-4 4s-4-1.791-4-4c0-2.209 1.791-4 4-4s4 1.791 4 4z"></path>
</svg>
