<?xml version="1.0" encoding="utf-8"?>
<!-- Generated by IcoMoon.io -->
<!DOCTYPE svg PUBLIC "-//W3C//DTD SVG 1.1//EN" "http://www.w3.org/Graphics/SVG/1.1/DTD/svg11.dtd">
<svg version="1.1" xmlns="http://www.w3.org/2000/svg" xmlns:xlink="http://www.w3.org/1999/xlink" width="16" height="16" viewBox="0 0 16 16">
<path fill="#444" d="M14 6c-1.105 0-2 0.895-2 2 0 0.060 0 0.11 0 0.16l-0.81 0.25-2.3-3.48-1.73 4.32-1.16-5.81-2.3 4.78-1.64-1.31-2.060 1.090v1.080l1.94-1 2.11 1.7 1.56-3.22 1.23 6.19 2.27-5.68 1.68 2.52 1.55-0.48c0.364 0.54 0.973 0.89 1.664 0.89 1.105 0 2-0.895 2-2s-0.895-2-2-2c-0.001 0-0.003 0-0.004 0zM14 9c-0.552 0-1-0.448-1-1s0.448-1 1-1c0.552 0 1 0.448 1 1s-0.448 1-1 1z"></path>
</svg>
