<?xml version="1.0" encoding="utf-8"?>
<!-- Generated by IcoMoon.io -->
<!DOCTYPE svg PUBLIC "-//W3C//DTD SVG 1.1//EN" "http://www.w3.org/Graphics/SVG/1.1/DTD/svg11.dtd">
<svg version="1.1" xmlns="http://www.w3.org/2000/svg" xmlns:xlink="http://www.w3.org/1999/xlink" width="16" height="16" viewBox="0 0 16 16">
<path fill="#444" d="M4.1 8c0.2 0.6 0.3 1.1 0.3 1.1 0.8 1.3 1.8 1.1 1.8 1.8 0 0.3-0.2 0.6-0.5 0.7l2.3 1.8 2.3-1.7c-0.3-0.2-0.5-0.4-0.5-0.7 0-0.8 1-0.5 1.8-1.8 0 0 0.2-0.4 0.3-1.1v0c0.3-1.1 0.6-3.1 0.5-4.1h-1.5c0-0.3 0.1-0.6 0.1-1h1.1c-0.3-1.4-1-2-2.2-2.3-0.5-0.4-1.2-0.7-1.9-0.7s-1.4 0.3-1.9 0.7c-1.2 0.3-1.8 0.9-2.2 2.3h1.1c0 0.4 0.1 0.7 0.2 1h-1.6c-0.1 1 0.2 3 0.5 4v0zM11.2 8.5c-0.1 0.1-0.2 0.2-0.3 0.3l-0.5 0.6c-0.4 0.5-0.8 0.8-1.4 0.9l-0.4 0.1c-0.4 0.1-0.9 0.1-1.4 0l-0.4-0.1c-0.6-0.2-1.1-0.5-1.5-1.1l-0.2-0.4c-0.1-0.1-0.2-0.2-0.3-0.3l-0.7-0.5 3.1-0.9c0.5-0.1 1-0.2 1.5 0l3.2 0.9-0.7 0.5zM6 3c0-1.1 0.9-2 2-2s2 0.9 2 2c0 1.1-0.9 2-2 2s-2-0.9-2-2z"></path>
<path fill="#444" d="M15.5 14.2c-1.3-2.4-2.6-2-3.9-2.2 0 0 0 0-0.1 0l-3.5 2.6-3.5-2.6c0 0 0 0-0.1 0-1.4 0.1-2.6-0.2-3.9 2.2-0.2 0.4-0.4 1.1-0.5 1.8h16c-0.1-0.7-0.3-1.4-0.5-1.8z"></path>
</svg>
