<?xml version="1.0" encoding="utf-8"?>
<!-- Generated by IcoMoon.io -->
<!DOCTYPE svg PUBLIC "-//W3C//DTD SVG 1.1//EN" "http://www.w3.org/Graphics/SVG/1.1/DTD/svg11.dtd">
<svg version="1.1" xmlns="http://www.w3.org/2000/svg" xmlns:xlink="http://www.w3.org/1999/xlink" width="64" height="64" viewBox="0 0 64 64">
<path fill="#444444" d="M16.4 32c0.8 2.4 1.2 4.4 1.2 4.4 3.2 5.2 7.2 4.4 7.2 7.2 0 1.2-0.8 2.4-2 2.8l9.2 7.2 9.2-6.8c-1.2-0.8-2-1.6-2-2.8 0-3.2 4-2 7.2-7.2 0 0 0.8-1.6 1.2-4.4v0c1.2-4.4 2.4-12.4 2-16.4h-6c0-1.2 0.4-2.4 0.4-4h4.4c-1.2-5.6-4-8-8.8-9.2-2-1.6-4.8-2.8-7.6-2.8s-5.6 1.2-7.6 2.8c-4.8 1.2-7.2 3.6-8.8 9.2h4.4c0 1.6 0.4 2.8 0.8 4h-6.4c-0.4 4 0.8 12 2 16v0zM44.8 34c-0.4 0.4-0.8 0.8-1.2 1.2l-2 2.4c-1.6 2-3.2 3.2-5.6 3.6l-1.6 0.4c-1.6 0.4-3.6 0.4-5.6 0l-1.6-0.4c-2.4-0.8-4.4-2-6-4.4l-0.8-1.6c-0.4-0.4-0.8-0.8-1.2-1.2l-2.8-2 12.4-3.6c2-0.4 4-0.8 6 0l12.8 3.6-2.8 2zM24 12c0-4.4 3.6-8 8-8s8 3.6 8 8c0 4.4-3.6 8-8 8s-8-3.6-8-8z"></path>
<path fill="#444444" d="M62 56.8c-5.2-9.6-10.4-8-15.6-8.8 0 0 0 0-0.4 0l-14 10.4-14-10.4c0 0 0 0-0.4 0-5.6 0.4-10.4-0.8-15.6 8.8-0.8 1.6-1.6 4.4-2 7.2h64c-0.4-2.8-1.2-5.6-2-7.2z"></path>
</svg>
