<?xml version="1.0" encoding="utf-8"?>
<!-- Generated by IcoMoon.io -->
<!DOCTYPE svg PUBLIC "-//W3C//DTD SVG 1.1//EN" "http://www.w3.org/Graphics/SVG/1.1/DTD/svg11.dtd">
<svg version="1.1" xmlns="http://www.w3.org/2000/svg" xmlns:xlink="http://www.w3.org/1999/xlink" width="16" height="16" viewBox="0 0 16 16">
<path fill="#444" d="M0 11h6v5h-6v-5z"></path>
<path fill="#444" d="M11 10v-2l-0.64 0.64c-0.851-0.81-1.38-1.952-1.38-3.217 0-0.149 0.007-0.296 0.022-0.441l1.999 0.018v-5h-6v5h2c0.013 0.127 0.020 0.274 0.020 0.423 0 1.265-0.529 2.407-1.378 3.216l-0.642-0.638v2h2l-0.65-0.65c1.028-0.991 1.667-2.38 1.667-3.919 0-0.152-0.006-0.302-0.018-0.45-0.010 0.149-0.016 0.299-0.016 0.45 0 1.539 0.639 2.928 1.665 3.917l-0.648 0.652h2z"></path>
<path fill="#444" d="M10 11h6v5h-6v-5z"></path>
</svg>
