<?xml version="1.0" encoding="utf-8"?>
<!-- Generated by IcoMoon.io -->
<!DOCTYPE svg PUBLIC "-//W3C//DTD SVG 1.1//EN" "http://www.w3.org/Graphics/SVG/1.1/DTD/svg11.dtd">
<svg version="1.1" xmlns="http://www.w3.org/2000/svg" xmlns:xlink="http://www.w3.org/1999/xlink" width="64" height="64" viewBox="0 0 64 64">
<path fill="#444444" d="M4 44h20v20h-20v-20z"></path>
<path fill="#444444" d="M44 44h20v20h-20v-20z"></path>
<path fill="#444444" d="M38.8 37.6l-2.8 2.4h8v-7.2l-2.4 2c0 0-2.4-2-3.6-4s-2-4.4-2-6.8h12v-24h-28v24h12c0 2.4-0.8 4.8-2 6.8s-3.6 4-3.6 4l-2.4-2v7.2h8l-2.8-2.4c0 0 2.4-2 4-4.8 0.4-0.4 0.4-0.8 0.8-1.2 0.4 0.4 0.4 0.8 0.8 1.2 1.6 2.8 4 4.8 4 4.8z"></path>
</svg>
