<?xml version="1.0" encoding="utf-8"?>
<!-- Generated by IcoMoon.io -->
<!DOCTYPE svg PUBLIC "-//W3C//DTD SVG 1.1//EN" "http://www.w3.org/Graphics/SVG/1.1/DTD/svg11.dtd">
<svg version="1.1" xmlns="http://www.w3.org/2000/svg" xmlns:xlink="http://www.w3.org/1999/xlink" width="64" height="64" viewBox="0 0 64 64">
<path fill="#444444" d="M22.8 60.8c1.2 1.2 4 3.2 7.2 3.2 10.8 0 13.2-8 13.6-14.4 0.8-9.2 3.2-8.8 4.4-8.8 2.8 0 3.6 1.6 3.6 4.4-2.4 1.6-4 4-4 6.8 0 4.4 3.6 8 8 8s8-3.6 8-8-3.6-8-8-8c-0.4 0-0.4 0-0.8 0-0.8-3.6-2.8-7.2-7.2-7.2-6.4 0-8 5.6-8.4 11.6-0.4 8.4-3.2 11.6-9.2 11.6-1.6 0-3.2-0.8-4-1.6-2.4-2-2-9.2-2-9.2 8 0 16-7.2 18.8-19.2l-0.8-0.4c1.2-4.8 2-10.4 2-14.4 0-4.4-1.2-7.6-4-10s-6-3.2-8.4-3.2c-0.8-1.2-2-2-3.6-2-2 0-4 1.6-4 4s1.6 4 4 4c1.6 0 2.8-0.8 3.2-2 2 0 4 0.8 6 2.4s2.8 3.6 2.8 6.8c0 3.6-0.8 8.8-2 14l-0.8-0.4c-1.2 4.4-5.2 14.4-13.2 14.4h-4c-8 0-12-10-13.2-14.4l-0.8 0.4c-1.2-5.2-2-10.4-2-14 0-3.2 0.8-5.2 2.8-6.8 1.6-1.6 4-2 6-2.4 0.4 1.2 1.6 2 3.2 2 2.4 0 4-1.6 4-4s-1.6-4-4-4c-1.6 0-2.8 0.8-3.6 2-2.4 0-5.6 0.8-8.4 3.2s-4 5.6-4 10c0 4 0.8 9.6 2 14.8l-0.8 0.4c2.8 11.6 10.8 18.8 18.8 18.8 0 0-0.4 8.8 2.8 11.6zM56 56c-2.4 0-4-1.6-4-4s1.6-4 4-4 4 1.6 4 4-2 4-4 4z"></path>
</svg>
