<?xml version="1.0" encoding="utf-8"?>
<!-- Generated by IcoMoon.io -->
<!DOCTYPE svg PUBLIC "-//W3C//DTD SVG 1.1//EN" "http://www.w3.org/Graphics/SVG/1.1/DTD/svg11.dtd">
<svg version="1.1" xmlns="http://www.w3.org/2000/svg" xmlns:xlink="http://www.w3.org/1999/xlink" width="16" height="16" viewBox="0 0 16 16">
<path fill="#444" d="M8.5 8.14v-3.64h-1v3.64c-0.301 0.176-0.5 0.498-0.5 0.866 0 0.552 0.448 1 1 1s1-0.448 1-1c0-0.368-0.199-0.69-0.495-0.863z"></path>
<path fill="#444" d="M8 2c-3.866 0-7 3.134-7 7s3.134 7 7 7c3.866 0 7-3.134 7-7s-3.134-7-7-7zM8 14.5c-3.038 0-5.5-2.462-5.5-5.5s2.462-5.5 5.5-5.5c3.038 0 5.5 2.462 5.5 5.5-0.006 3.035-2.465 5.494-5.499 5.5z"></path>
<path fill="#444" d="M6 0h4v1.5h-4v-1.5z"></path>
<path fill="#444" d="M0.005 4.438l2.713-2.939 1.102 1.017-2.713 2.939-1.102-1.017z"></path>
<path fill="#444" d="M12.186 2.519l1.102-1.017 2.713 2.939-1.102 1.017-2.713-2.939z"></path>
</svg>
