<?xml version="1.0" encoding="utf-8"?>
<!-- Generated by IcoMoon.io -->
<!DOCTYPE svg PUBLIC "-//W3C//DTD SVG 1.1//EN" "http://www.w3.org/Graphics/SVG/1.1/DTD/svg11.dtd">
<svg version="1.1" xmlns="http://www.w3.org/2000/svg" xmlns:xlink="http://www.w3.org/1999/xlink" width="16" height="16" viewBox="0 0 16 16">
<path fill="#444" d="M1 0v7.2l0.5-0.5 1.2 0.6c0 0 0.1 0 0.1 0l0.2-0.6 0.3-0.7h2.4l0.2 0.7 0.2 0.6c0 0 0.1 0 0.1 0l1.2-0.6 1.8 1.8-0.6 1.2c0 0 0 0.1 0 0.1l0.6 0.2 0.7 0.2v2.4l-0.7 0.2-0.6 0.2c0 0 0 0.1 0 0.1l0.6 1.2-0.4 0.7h7.2v-15h-15z"></path>
<path fill="#444" d="M5.5 11.5c0 0.552-0.448 1-1 1s-1-0.448-1-1c0-0.552 0.448-1 1-1s1 0.448 1 1z"></path>
<path fill="#444" d="M7.9 12.4l1.1-0.4v-1l-1.1-0.4c-0.1-0.3-0.2-0.6-0.4-0.9l0.5-1-0.7-0.7-1 0.5c-0.3-0.2-0.6-0.3-0.9-0.4l-0.4-1.1h-1l-0.4 1.1c-0.3 0.1-0.6 0.2-0.9 0.4l-1-0.5-0.7 0.7 0.5 1.1c-0.2 0.3-0.3 0.6-0.4 0.9l-1.1 0.3v1l1.1 0.4c0.1 0.3 0.2 0.6 0.4 0.9l-0.5 1 0.7 0.7 1.1-0.5c0.3 0.2 0.6 0.3 0.9 0.4l0.3 1.1h1l0.4-1.1c0.3-0.1 0.6-0.2 0.9-0.4l1 0.5 0.7-0.7-0.5-1.1c0.2-0.2 0.3-0.5 0.4-0.8zM4.5 13.5c-1.1 0-2-0.9-2-2s0.9-2 2-2 2 0.9 2 2c0 1.1-0.9 2-2 2z"></path>
</svg>
