<?xml version="1.0" encoding="utf-8"?>
<!-- Generated by IcoMoon.io -->
<!DOCTYPE svg PUBLIC "-//W3C//DTD SVG 1.1//EN" "http://www.w3.org/Graphics/SVG/1.1/DTD/svg11.dtd">
<svg version="1.1" xmlns="http://www.w3.org/2000/svg" xmlns:xlink="http://www.w3.org/1999/xlink" width="64" height="64" viewBox="0 0 64 64">
<path fill="#444444" d="M4 0v28.8l2-2 4.8 2.4c0 0 0.4 0 0.4 0l0.8-2.4 1.2-2.8h9.6l0.8 2.8 0.8 2.4c0 0 0.4 0 0.4 0l4.8-2.4 7.2 7.2-2.4 4.8c0 0 0 0.4 0 0.4l2.4 0.8 2.8 0.8v9.6l-2.8 0.8-2.4 0.8c0 0 0 0.4 0 0.4l2.4 4.8-1.6 2.8h28.8v-60h-60z"></path>
<path fill="#444444" d="M22 46c0 2.209-1.791 4-4 4s-4-1.791-4-4c0-2.209 1.791-4 4-4s4 1.791 4 4z"></path>
<path fill="#444444" d="M31.6 49.6l4.4-1.6v-4l-4.4-1.6c-0.4-1.2-0.8-2.4-1.6-3.6l2-4-2.8-2.8-4 2c-1.2-0.8-2.4-1.2-3.6-1.6l-1.6-4.4h-4l-1.6 4.4c-1.2 0.4-2.4 0.8-3.6 1.6l-4-2-2.8 2.8 2 4.4c-0.8 1.2-1.2 2.4-1.6 3.6l-4.4 1.2v4l4.4 1.6c0.4 1.2 0.8 2.4 1.6 3.6l-2 4 2.8 2.8 4.4-2c1.2 0.8 2.4 1.2 3.6 1.6l1.2 4.4h4l1.6-4.4c1.2-0.4 2.4-0.8 3.6-1.6l4 2 2.8-2.8-2-4.4c0.8-0.8 1.2-2 1.6-3.2zM18 54c-4.4 0-8-3.6-8-8s3.6-8 8-8 8 3.6 8 8c0 4.4-3.6 8-8 8z"></path>
</svg>
