<?xml version="1.0" encoding="utf-8"?>
<!-- Generated by IcoMoon.io -->
<!DOCTYPE svg PUBLIC "-//W3C//DTD SVG 1.1//EN" "http://www.w3.org/Graphics/SVG/1.1/DTD/svg11.dtd">
<svg version="1.1" xmlns="http://www.w3.org/2000/svg" xmlns:xlink="http://www.w3.org/1999/xlink" width="16" height="16" viewBox="0 0 16 16">
<path fill="#444" d="M16 4l-8.060-4-7.94 4v1h1v11h2v-9h10v9h2v-11h1v-1zM4 6v-1h2v1h-2zM7 6v-1h2v1h-2zM10 6v-1h2v1h-2z"></path>
<path fill="#444" d="M6 9h-1v-1h-1v3h3v-3h-1v1z"></path>
<path fill="#444" d="M6 13h-1v-1h-1v3h3v-3h-1v1z"></path>
<path fill="#444" d="M10 13h-1v-1h-1v3h3v-3h-1v1z"></path>
</svg>
