<?xml version="1.0" encoding="utf-8"?>
<!-- Generated by IcoMoon.io -->
<!DOCTYPE svg PUBLIC "-//W3C//DTD SVG 1.1//EN" "http://www.w3.org/Graphics/SVG/1.1/DTD/svg11.dtd">
<svg version="1.1" xmlns="http://www.w3.org/2000/svg" xmlns:xlink="http://www.w3.org/1999/xlink" width="16" height="16" viewBox="0 0 16 16">
<path fill="#444" d="M10.5 7c-0.5-0.3-1-0.5-1.4-0.7-2-0.9-2.1-1.1-2-1.9s0.4-1 0.6-1.2c0.9-0.5 2.8-0.1 3.5 0.2l1.1-2.8c-0.4-0.2-3.7-1.4-6.1 0-0.8 0.5-1.9 1.5-2.1 3.4-0.2 1.3 0.1 2.3 0.7 3h-4.8v1h16v-1h-5.5z"></path>
<path fill="#444" d="M7.7 9c0 0 0.1 0 0.1 0.1 2 0.9 2.4 1.2 2.2 2.5-0.2 0.9-0.5 1.1-0.8 1.3-1.1 0.6-3.3 0-4.4-0.5l-1.2 2.6c0.3 0.1 2.3 1 4.5 1 0.9 0 1.8-0.2 2.6-0.6 0.9-0.5 2-1.4 2.4-3.4 0.2-1.3 0-2.3-0.4-3.1h-5z"></path>
</svg>
