<?xml version="1.0" encoding="utf-8"?>
<!-- Generated by IcoMoon.io -->
<!DOCTYPE svg PUBLIC "-//W3C//DTD SVG 1.1//EN" "http://www.w3.org/Graphics/SVG/1.1/DTD/svg11.dtd">
<svg version="1.1" xmlns="http://www.w3.org/2000/svg" xmlns:xlink="http://www.w3.org/1999/xlink" width="64" height="64" viewBox="0 0 64 64">
<path fill="#444444" d="M42 28c-2-1.2-4-2-5.6-2.8-8-3.6-8.4-4.4-8-7.6s1.6-4 2.4-4.8c3.6-2 11.2-0.4 14 0.8l4.4-11.2c-1.6-0.8-14.8-5.6-24.4 0-3.2 2-7.6 6-8.4 13.6-0.8 5.2 0.4 9.2 2.8 12h-19.2v4h64v-4h-22z"></path>
<path fill="#444444" d="M30.8 36c0 0 0.4 0 0.4 0.4 8 3.6 9.6 4.8 8.8 10-0.8 3.6-2 4.4-3.2 5.2-4.4 2.4-13.2 0-17.6-2l-4.8 10.4c1.2 0.4 9.2 4 18 4 3.6 0 7.2-0.8 10.4-2.4 3.6-2 8-5.6 9.6-13.6 0.8-5.2 0-9.2-1.6-12.4h-20z"></path>
</svg>
