<?xml version="1.0" encoding="utf-8"?>
<!-- Generated by IcoMoon.io -->
<!DOCTYPE svg PUBLIC "-//W3C//DTD SVG 1.1//EN" "http://www.w3.org/Graphics/SVG/1.1/DTD/svg11.dtd">
<svg version="1.1" xmlns="http://www.w3.org/2000/svg" xmlns:xlink="http://www.w3.org/1999/xlink" width="64" height="64" viewBox="0 0 64 64">
<path fill="#444444" d="M63.2 2l-0.4-0.8-0.8-0.4c-0.4 0-10-3.2-16.8 3.6l-26.8 26.4c-3.6-2.4-6.8-4.8-7.2-4l-1.6 1.2c-0.8 0.8 3.6 6.8 7.2 10.8l-10 13.6c-1.2-1.2-3.2-1.2-4.4 0l-1.2 1.2c-1.2 1.2-1.2 3.2 0 4.4l4 4c1.2 1.2 3.2 1.2 4.4 0l1.2-1.2c1.2-1.2 1.2-3.2 0-4.4v0l14-10c4 3.6 10 8 10.8 7.2l1.6-1.6c0.4-0.4-1.6-4-4.4-7.2l26.8-26.8c6.8-6 3.6-15.6 3.6-16zM30.8 42l-3.2-3.2 24.8-27.6-27.6 24.8-2.8-2.8 26-26c4-4 9.2-3.2 11.6-2.8 0.4 2.4 1.2 7.6-2.8 11.2l-26 26.4z"></path>
</svg>
