<?xml version="1.0" encoding="utf-8"?>
<!-- Generated by IcoMoon.io -->
<!DOCTYPE svg PUBLIC "-//W3C//DTD SVG 1.1//EN" "http://www.w3.org/Graphics/SVG/1.1/DTD/svg11.dtd">
<svg version="1.1" xmlns="http://www.w3.org/2000/svg" xmlns:xlink="http://www.w3.org/1999/xlink" width="16" height="16" viewBox="0 0 16 16">
<path fill="#444" d="M15.8 0.5l-0.1-0.2-0.2-0.1c-0.1 0-2.5-0.8-4.2 0.9l-6.7 6.6c-0.9-0.6-1.7-1.2-1.8-1l-0.4 0.3c-0.2 0.2 0.9 1.7 1.8 2.7l-2.5 3.4c-0.3-0.3-0.8-0.3-1.1 0l-0.3 0.3c-0.3 0.3-0.3 0.8 0 1.1l1 1c0.3 0.3 0.8 0.3 1.1 0l0.3-0.3c0.3-0.3 0.3-0.8 0-1.1v0l3.5-2.5c1 0.9 2.5 2 2.7 1.8l0.4-0.4c0.1-0.1-0.4-1-1.1-1.8l6.7-6.7c1.7-1.5 0.9-3.9 0.9-4zM7.7 10.5l-0.8-0.8 6.2-6.9-6.9 6.2-0.7-0.7 6.5-6.5c1-1 2.3-0.8 2.9-0.7 0.1 0.6 0.3 1.9-0.7 2.8l-6.5 6.6z"></path>
</svg>
