<?xml version="1.0" encoding="utf-8"?>
<!-- Generated by IcoMoon.io -->
<!DOCTYPE svg PUBLIC "-//W3C//DTD SVG 1.1//EN" "http://www.w3.org/Graphics/SVG/1.1/DTD/svg11.dtd">
<svg version="1.1" xmlns="http://www.w3.org/2000/svg" xmlns:xlink="http://www.w3.org/1999/xlink" width="64" height="64" viewBox="0 0 64 64">
<path fill="#444444" d="M24 0h40v16h-40v-16z"></path>
<path fill="#444444" d="M24 24h40v16h-40v-16z"></path>
<path fill="#444444" d="M24 48h40v16h-40v-16z"></path>
<path fill="#444444" d="M12 4v8h-8v-8h8zM16 0h-16v16h16v-16z"></path>
<path fill="#444444" d="M12 52v8h-8v-8h8zM16 48h-16v16h16v-16z"></path>
<path fill="#444444" d="M21.2 23.6l-2.4-3.2-3.6 3.6h-15.2v16h16v-11.2l5.2-5.2zM10.8 28l-2.8 2.8-3.2-2.8h6zM4 32.8l3.6 3.2h-3.6v-3.2zM12 36h-3.6l3.6-3.6v3.6z"></path>
</svg>
