<?xml version="1.0" encoding="utf-8"?>
<!-- Generated by IcoMoon.io -->
<!DOCTYPE svg PUBLIC "-//W3C//DTD SVG 1.1//EN" "http://www.w3.org/Graphics/SVG/1.1/DTD/svg11.dtd">
<svg version="1.1" xmlns="http://www.w3.org/2000/svg" xmlns:xlink="http://www.w3.org/1999/xlink" width="16" height="16" viewBox="0 0 16 16">
<path fill="#444" d="M15 6.1l-1.4-2.9c-0.4-0.7-1.1-1.2-2-1.2h-0.6v-1.3c0-0.4-0.3-0.7-0.7-0.7h-4.6c-0.4 0-0.7 0.3-0.7 0.7v1.3h-0.7c-0.8 0-1.6 0.5-1.9 1.2l-1.4 2.9c-0.6 0.1-1 0.6-1 1.1v3.5c0 0.6 0 1.1 1 1.2v2c0 0.6 0.4 1.1 1 1.1h0.9c0.6 0 1.1-0.5 1.1-1.1v-1.9h8v1.9c0 0.6 0.4 1.1 1 1.1h0.9c0.6 0 1.1-0.5 1.1-1.1v-2c1-0.1 1-0.6 1-1.2v-3.5c0-0.5-0.4-1-1-1.1zM4 8.4c0 0.3-0.3 0.6-0.6 0.6h-1.8c-0.3 0-0.6-0.3-0.6-0.6v-0.8c0-0.3 0.3-0.6 0.6-0.6h1.8c0.3 0 0.6 0.3 0.6 0.6v0.8zM10 11h-4v-1h4v1zM2.1 6l1.2-2.4c0.2-0.4 0.6-0.6 1-0.6h7.4c0.4 0 0.8 0.2 1 0.6l1.2 2.4h-11.8zM15 8.4c0 0.3-0.3 0.6-0.6 0.6h-1.8c-0.3 0-0.6-0.3-0.6-0.6v-0.8c0-0.3 0.3-0.6 0.6-0.6h1.8c0.3 0 0.6 0.3 0.6 0.6v0.8z"></path>
</svg>
