<?xml version="1.0" encoding="utf-8"?>
<!-- Generated by IcoMoon.io -->
<!DOCTYPE svg PUBLIC "-//W3C//DTD SVG 1.1//EN" "http://www.w3.org/Graphics/SVG/1.1/DTD/svg11.dtd">
<svg version="1.1" xmlns="http://www.w3.org/2000/svg" xmlns:xlink="http://www.w3.org/1999/xlink" width="64" height="64" viewBox="0 0 64 64">
<path fill="#444444" d="M18.4 30.4c-0.4 0.4-2 1.6-6.4 1.6 4.4 0 6 1.2 6.4 1.6 0.8-0.8 2.4-1.6 6-1.6-3.6 0-5.2-0.8-6-1.6z"></path>
<path fill="#444444" d="M32 0c-17.6 0-32 14.4-32 32s14.4 32 32 32c17.6 0 32-14.4 32-32s-14.4-32-32-32zM52.4 46.4c-4 0-5.6-3.2-6.4-6.4-0.8 3.6-2.4 8-7.2 8-4.4 0-6-4.4-6.8-8-0.8 4-2.4 8-6.8 8s-6.4-4.4-7.2-8c-0.8 3.2-2.4 6.4-6.4 6.4-8 0-7.6-12-7.6-12s0.8-2.4 6.8-2.4c-6 0-6.8-2-6.8-2s-0.4-12 7.6-12c4 0 5.6 3.2 6.4 6.4 0.8-3.6 2.4-8 7.2-8 4.4-0.4 6 4 6.8 7.6 0.8-4 2.4-8 6.8-8s6.4 4.4 7.2 8c0.8-3.2 2.4-6.4 6.4-6.4 8 0 7.6 12 7.6 12s-1.2 2.4-7.2 2.4c-4.8 0-6.4-1.2-7.2-1.6-0.8 0.8-2.8 1.6-6.4 1.6-4.8 0-6.4-0.8-7.2-1.6-0.4 0.4-2.4 1.6-6.4 1.6 4 0 5.6 1.2 6.4 1.6 0.8-0.8 2.4-1.6 7.2-1.6 4 0 5.6 0.8 6.8 1.6 0-0.4 2-1.6 6.8-1.6 6 0 7.2 2.4 7.2 2.4s0.4 12-7.6 12z"></path>
</svg>
