<?xml version="1.0" encoding="utf-8"?>
<!-- Generated by IcoMoon.io -->
<!DOCTYPE svg PUBLIC "-//W3C//DTD SVG 1.1//EN" "http://www.w3.org/Graphics/SVG/1.1/DTD/svg11.dtd">
<svg version="1.1" xmlns="http://www.w3.org/2000/svg" xmlns:xlink="http://www.w3.org/1999/xlink" width="16" height="16" viewBox="0 0 16 16">
<path fill="#444" d="M4.6 7.6c-0.1 0.1-0.5 0.4-1.6 0.4 1.1 0 1.5 0.3 1.6 0.4 0.2-0.2 0.6-0.4 1.5-0.4-0.9 0-1.3-0.2-1.5-0.4z"></path>
<path fill="#444" d="M8 0c-4.4 0-8 3.6-8 8s3.6 8 8 8c4.4 0 8-3.6 8-8s-3.6-8-8-8zM13.1 11.6c-1 0-1.4-0.8-1.6-1.6-0.2 0.9-0.6 2-1.8 2-1.1 0-1.5-1.1-1.7-2-0.2 1-0.6 2-1.7 2s-1.6-1.1-1.8-2c-0.2 0.8-0.6 1.6-1.6 1.6-2 0-1.9-3-1.9-3s0.2-0.6 1.7-0.6c-1.5 0-1.7-0.5-1.7-0.5s-0.1-3 1.9-3c1 0 1.4 0.8 1.6 1.6 0.2-0.9 0.6-2 1.8-2 1.1-0.1 1.5 1 1.7 1.9 0.2-1 0.6-2 1.7-2s1.6 1.1 1.8 2c0.2-0.8 0.6-1.6 1.6-1.6 2 0 1.9 3 1.9 3s-0.3 0.6-1.8 0.6c-1.2 0-1.6-0.3-1.8-0.4-0.2 0.2-0.7 0.4-1.6 0.4-1.2 0-1.6-0.2-1.8-0.4-0.1 0.1-0.6 0.4-1.6 0.4 1 0 1.4 0.3 1.6 0.4 0.2-0.2 0.6-0.4 1.8-0.4 1 0 1.4 0.2 1.7 0.4 0-0.1 0.5-0.4 1.7-0.4 1.5 0 1.8 0.6 1.8 0.6s0.1 3-1.9 3z"></path>
</svg>
