<?xml version="1.0" encoding="utf-8"?>
<!-- Generated by IcoMoon.io -->
<!DOCTYPE svg PUBLIC "-//W3C//DTD SVG 1.1//EN" "http://www.w3.org/Graphics/SVG/1.1/DTD/svg11.dtd">
<svg version="1.1" xmlns="http://www.w3.org/2000/svg" xmlns:xlink="http://www.w3.org/1999/xlink" width="64" height="64" viewBox="0 0 64 64">
<path fill="#444444" d="M50 19.6c-5.6 0-10 3.2-10.4 3.6l4.8 6.4c0 0 2.8-2 5.6-2 5.6 0 6 4.8 6 6.4-1.6-0.4-4.4-1.2-8-0.4-5.6 1.2-11.2 8-8.4 15.6 2.8 7.2 12.4 8.4 16.4 2.4v4h8v-21.2c0-10.8-7.6-14.8-14-14.8zM46 45.6c-0.4-7.6 6-7.6 10-7.2v4c0 4.8-9.2 9.2-10 3.2z"></path>
<path fill="#444444" d="M27.6 56h8.4l-12.8-48h-10.8l-12.4 48h8.4l4-16h10.8l4.4 16zM14.4 32l3.2-12.8 3.6 12.8h-6.8z"></path>
</svg>
