<?xml version="1.0" encoding="utf-8"?>
<!-- Generated by IcoMoon.io -->
<!DOCTYPE svg PUBLIC "-//W3C//DTD SVG 1.1//EN" "http://www.w3.org/Graphics/SVG/1.1/DTD/svg11.dtd">
<svg version="1.1" xmlns="http://www.w3.org/2000/svg" xmlns:xlink="http://www.w3.org/1999/xlink" width="64" height="64" viewBox="0 0 64 64">
<path fill="#444444" d="M62.4 32.8c0 0 2-2 1.6-6.4 0-6-6.4-6.4-6.4-6.4h-9.6c-0.8 0-1.2-0.8-1.2-1.6 1.2-2.8 3.2-8.4 2.4-12.4-1.2-5.6-6-6-7.6-6-0.4 0-0.8 0.4-0.8 0.8l-4 11.2c0 0 0 0.4-0.4 0.4l-10.4 11.2c-0.4 0.4-0.8 0.4-1.2 0.4h-0.8v28h0.8c2.8 0 12.8 8 21.6 8s10.8-1.2 12.4-4c1.6-2.8 0.4-5.2 0.4-5.2s2-1.2 2.4-4c0.4-2.8-0.4-4.4-0.4-4.4s2-1.6 2-4.8c0.4-3.6-0.8-4.8-0.8-4.8z"></path>
<path fill="#444444" d="M0 56h20v-32h-20v32zM10 42c2.4 0 4 1.6 4 4s-1.6 4-4 4-4-1.6-4-4c0-2.4 1.6-4 4-4z"></path>
</svg>
