<?xml version="1.0" encoding="utf-8"?>
<!-- Generated by IcoMoon.io -->
<!DOCTYPE svg PUBLIC "-//W3C//DTD SVG 1.1//EN" "http://www.w3.org/Graphics/SVG/1.1/DTD/svg11.dtd">
<svg version="1.1" xmlns="http://www.w3.org/2000/svg" xmlns:xlink="http://www.w3.org/1999/xlink" width="16" height="16" viewBox="0 0 16 16">
<path fill="#444" d="M15.6 7.8c0 0 0.5 0.5 0.4 1.6 0 1.5-1.6 1.6-1.6 1.6h-2.4c-0.2 0-0.3 0.2-0.3 0.4 0.3 0.7 0.8 2.1 0.6 3.1-0.3 1.4-1.5 1.5-1.9 1.5-0.1 0-0.2-0.1-0.2-0.2l-1-2.8c0 0 0-0.1-0.1-0.1l-2.6-2.8c-0.1-0.1-0.2-0.1-0.3-0.1h-0.2v-7h0.2c0.7 0 3.2-2 5.4-2s2.7 0.3 3.1 1c0.4 0.7 0.1 1.3 0.1 1.3s0.5 0.3 0.6 1c0.1 0.7-0.1 1.1-0.1 1.1s0.5 0.4 0.5 1.2c0.1 0.9-0.2 1.2-0.2 1.2z"></path>
<path fill="#444" d="M0 11h5v-8h-5v8zM2.5 7.5c0.6 0 1 0.4 1 1s-0.4 1-1 1-1-0.4-1-1c0-0.6 0.4-1 1-1z"></path>
</svg>
