<?xml version="1.0" encoding="utf-8"?>
<!-- Generated by IcoMoon.io -->
<!DOCTYPE svg PUBLIC "-//W3C//DTD SVG 1.1//EN" "http://www.w3.org/Graphics/SVG/1.1/DTD/svg11.dtd">
<svg version="1.1" xmlns="http://www.w3.org/2000/svg" xmlns:xlink="http://www.w3.org/1999/xlink" width="16" height="16" viewBox="0 0 16 16">
<path fill="#444" d="M15.6 7.3c0.1-0.3 0.3-0.7 0.2-1.2 0-0.6-0.3-1.1-0.5-1.3 0.1-0.3 0.1-0.6 0-1.1s-0.4-0.8-0.6-1c0.1-0.3 0.1-0.8-0.3-1.4-0.4-1-1.2-1.3-3.6-1.3-1.7 0-3.3 0.8-4.6 1.5-0.4 0.2-1 0.5-1.2 0.5v0h-5v9h5v-0.9l2.7 2.7 1 2.8c0.2 0.2 0.4 0.4 0.8 0.4h0.1c0 0 0 0 0 0 0.5 0 2-0.1 2.4-1.9 0.2-0.9-0.1-2.2-0.5-3.1h2.3c0.7-0.1 2.1-0.6 2.2-2.1 0-0.7-0.2-1.3-0.4-1.6zM2.5 7.5c0.6 0 1 0.4 1 1s-0.4 1-1 1-1-0.4-1-1c0-0.6 0.4-1 1-1zM13.8 10h-2.5c-0.3 0-0.5 0.1-0.7 0.4-0.2 0.2-0.2 0.5-0.1 0.8 0.5 1.2 0.7 2.2 0.6 2.8-0.2 0.9-0.9 1.1-1.4 1.1l-1-2.7c0-0.1-0.1-0.2-0.2-0.3l-2.9-2.9c-0.1-0.1-0.3-0.2-0.5-0.2h-0.1v-6c0.4 0 0.8-0.2 1.7-0.6 1.1-0.6 2.7-1.4 4.1-1.4 2.5 0 2.7 0.4 2.9 0.7 0.3 0.5 0.1 0.9 0.1 0.9l-0.2 0.4 0.4 0.3c0 0 0.4 0.2 0.5 0.7 0.1 0.4 0 0.7 0 0.7l-0.3 0.3 0.3 0.3c0 0 0.4 0.3 0.4 0.9 0 0.5-0.2 0.7-0.2 0.7l-0.4 0.3 0.4 0.4c0 0 0.4 0.4 0.3 1.2 0 1.1-1.1 1.2-1.2 1.2z"></path>
</svg>
