<?xml version="1.0" encoding="utf-8"?>
<!-- Generated by IcoMoon.io -->
<!DOCTYPE svg PUBLIC "-//W3C//DTD SVG 1.1//EN" "http://www.w3.org/Graphics/SVG/1.1/DTD/svg11.dtd">
<svg version="1.1" xmlns="http://www.w3.org/2000/svg" xmlns:xlink="http://www.w3.org/1999/xlink" width="64" height="64" viewBox="0 0 64 64">
<path fill="#444444" d="M62.4 29.2c0.4-1.2 1.2-2.8 0.8-4.8 0-2.4-1.2-4.4-2-5.2 0.4-1.2 0.4-2.4 0-4.4s-1.6-3.2-2.4-4c0.4-1.2 0.4-3.2-1.2-5.6-1.6-4-4.8-5.2-14.4-5.2-6.8 0-13.2 3.2-18.4 6-1.6 0.8-4 2-4.8 2v0h-20v36h20v-3.6l10.8 10.8 4 11.2c0.8 0.8 1.6 1.6 3.2 1.6h0.4c0 0 0 0 0 0 2 0 8-0.4 9.6-7.6 0.8-3.6-0.4-8.8-2-12.4h9.2c2.8-0.4 8.4-2.4 8.8-8.4 0-2.8-0.8-5.2-1.6-6.4zM10 30c2.4 0 4 1.6 4 4s-1.6 4-4 4-4-1.6-4-4c0-2.4 1.6-4 4-4zM55.2 40h-10c-1.2 0-2 0.4-2.8 1.6-0.8 0.8-0.8 2-0.4 3.2 2 4.8 2.8 8.8 2.4 11.2-0.8 3.6-3.6 4.4-5.6 4.4l-4-10.8c0-0.4-0.4-0.8-0.8-1.2l-11.6-11.6c-0.4-0.4-1.2-0.8-2-0.8h-0.4v-24c1.6 0 3.2-0.8 6.8-2.4 4.4-2.4 10.8-5.6 16.4-5.6 10 0 10.8 1.6 11.6 2.8 1.2 2 0.4 3.6 0.4 3.6l-0.8 1.6 1.6 1.2c0 0 1.6 0.8 2 2.8 0.4 1.6 0 2.8 0 2.8l-1.2 1.2 1.2 1.2c0 0 1.6 1.2 1.6 3.6 0 2-0.8 2.8-0.8 2.8l-1.6 1.2 1.6 1.6c0 0 1.6 1.6 1.2 4.8 0 4.4-4.4 4.8-4.8 4.8z"></path>
</svg>
