<?xml version="1.0" encoding="utf-8"?>
<!-- Generated by IcoMoon.io -->
<!DOCTYPE svg PUBLIC "-//W3C//DTD SVG 1.1//EN" "http://www.w3.org/Graphics/SVG/1.1/DTD/svg11.dtd">
<svg version="1.1" xmlns="http://www.w3.org/2000/svg" xmlns:xlink="http://www.w3.org/1999/xlink" width="64" height="64" viewBox="0 0 64 64">
<path fill="#444444" d="M64 28.4c0-6-5.6-8.4-8.8-8.4h-8.8c1.6-4 2.8-8.8 2-12.4-2-7.2-8-7.6-10-7.6h-0.4c-1.6 0-2.4 0.8-3.2 2l-4 11.2-10.8 10.8h-20v36h20v-4c0.8 0 2.8 1.2 4.8 2.4 4.8 2.4 11.6 6 18 6 9.6 0 12.8-1.2 15.2-5.2 1.2-2.4 1.2-4.4 1.2-5.6 0.8-0.8 2-2 2.4-4s0.4-3.2 0-4.4c0.8-1.2 1.6-2.8 2-5.2 0-2-0.4-3.6-0.8-4.8 0.4-1.6 1.2-3.6 1.2-6.8zM10 54c-2.4 0-4-1.6-4-4s1.6-4 4-4 4 1.6 4 4c0 2.4-1.6 4-4 4zM58.8 36.4c0 0 0.8 0.8 0.8 2.8 0 2.4-1.6 3.6-1.6 3.6l-1.2 1.2 0.8 1.2c0 0 0.8 1.2 0 2.8-0.4 1.6-2 2.8-2 2.8l-1.2 1.2 0.8 1.6c0 0 0.8 1.6-0.4 3.6-0.8 1.6-1.6 2.8-11.6 2.8-5.6 0-12-3.2-16.4-5.6-3.2-1.6-5.2-2.4-6.8-2.4v0-24h0.4c0.8 0 1.6-0.4 2.4-0.8l11.2-11.2c0.4-0.4 0.4-0.8 0.8-1.2l4-10.8c2 0 4.8 0.8 5.6 4.4 0.4 2.4-0.4 6.4-2.4 11.2-0.4 1.2-0.4 2 0.4 3.2 0.4 0.8 1.6 1.2 2.8 1.2h10c0.4 0 4.8 0.8 4.8 4.4 0 3.2-1.2 4.8-1.2 4.8l-1.2 1.6 1.2 1.6z"></path>
</svg>
