<?xml version="1.0" encoding="utf-8"?>
<!-- Generated by IcoMoon.io -->
<!DOCTYPE svg PUBLIC "-//W3C//DTD SVG 1.1//EN" "http://www.w3.org/Graphics/SVG/1.1/DTD/svg11.dtd">
<svg version="1.1" xmlns="http://www.w3.org/2000/svg" xmlns:xlink="http://www.w3.org/1999/xlink" width="16" height="16" viewBox="0 0 16 16">
<path fill="#444" d="M9.060 9.060c0.271-0.271 0.439-0.646 0.439-1.060s-0.168-0.789-0.439-1.060c-0.59-0.59-6.72-4.6-6.72-4.6s4 6.13 4.59 6.72c0.272 0.274 0.649 0.444 1.065 0.444s0.793-0.17 1.065-0.444z"></path>
<path fill="#444" d="M8 0v3h1v-1.41c3.153 0.495 5.536 3.192 5.536 6.445 0 3.601-2.919 6.52-6.52 6.52s-6.52-2.919-6.52-6.52c0-1.256 0.355-2.428 0.97-3.423l-0.916-1.322c-0.958 1.303-1.533 2.939-1.533 4.71 0 4.418 3.582 8 8 8s8-3.582 8-8c0-4.418-3.582-8-8-8-0.006 0-0.012 0-0.017 0z"></path>
</svg>
