<?xml version="1.0" encoding="utf-8"?>
<!-- Generated by IcoMoon.io -->
<!DOCTYPE svg PUBLIC "-//W3C//DTD SVG 1.1//EN" "http://www.w3.org/Graphics/SVG/1.1/DTD/svg11.dtd">
<svg version="1.1" xmlns="http://www.w3.org/2000/svg" xmlns:xlink="http://www.w3.org/1999/xlink" width="64" height="64" viewBox="0 0 64 64">
<path fill="#444444" d="M32 16h-4v20h16v-4h-12z"></path>
<path fill="#444444" d="M64 28v-16l-4.4 4.4c-5.2-10-15.6-16.4-27.6-16.4-17.6 0-32 14.4-32 32s14.4 32 32 32c9.6 0 18.4-4.4 24-11.2l-6-5.2c-4.4 5.2-10.8 8.4-18 8.4-13.2 0-24-10.8-24-24s10.8-24 24-24c9.6 0 18 6 22 14l-6 6h16z"></path>
</svg>
