<?xml version="1.0" encoding="utf-8"?>
<!-- Generated by IcoMoon.io -->
<!DOCTYPE svg PUBLIC "-//W3C//DTD SVG 1.1//EN" "http://www.w3.org/Graphics/SVG/1.1/DTD/svg11.dtd">
<svg version="1.1" xmlns="http://www.w3.org/2000/svg" xmlns:xlink="http://www.w3.org/1999/xlink" width="16" height="16" viewBox="0 0 16 16">
<path fill="#444" d="M8 4h-1v5h4v-1h-3z"></path>
<path fill="#444" d="M8 0c-3 0-5.6 1.6-6.9 4.1l-1.1-1.1v4h4l-1.5-1.5c1-2 3.1-3.5 5.5-3.5 3.3 0 6 2.7 6 6s-2.7 6-6 6c-1.8 0-3.4-0.8-4.5-2.1l-1.5 1.3c1.4 1.7 3.6 2.8 6 2.8 4.4 0 8-3.6 8-8s-3.6-8-8-8z"></path>
</svg>
