<?xml version="1.0" encoding="utf-8"?>
<!-- Generated by IcoMoon.io -->
<!DOCTYPE svg PUBLIC "-//W3C//DTD SVG 1.1//EN" "http://www.w3.org/Graphics/SVG/1.1/DTD/svg11.dtd">
<svg version="1.1" xmlns="http://www.w3.org/2000/svg" xmlns:xlink="http://www.w3.org/1999/xlink" width="64" height="64" viewBox="0 0 64 64">
<path fill="#444444" d="M41.2 32.8l-3.6 3.6 3.6 3.6-4.8 4.8 17.2 17.2c2.4 2.4 6 2.4 8.4 0s2.4-6 0-8.4l-20.8-20.8zM56.8 60c-1.6 0-3.2-1.2-3.2-3.2 0-1.6 1.2-3.2 3.2-3.2s3.2 1.2 3.2 3.2c0 2-1.2 3.2-3.2 3.2z"></path>
<path fill="#444444" d="M14.4 32l3.6-2.4 6-6.8 3.6 3.6 3.6-3.6-0.4-0.4c0.8-2 1.2-4 1.2-6.4 0-8.8-7.2-16-16-16-2.4 0-4.4 0.4-6.4 1.2l11.6 11.6-8.4 8.4-11.6-11.6c-0.8 2-1.2 4-1.2 6.4 0 8.4 6.4 14.8 14.4 16z"></path>
<path fill="#444444" d="M32 43.2l3.6-3.2-3.6-3.6 22.8-22.8 4.8-1.6 4.4-8.8-2.8-2.8-9.2 4-2 4.8-22.4 22.8-3.6-3.6-3.2 3.6c0 0 3.2 2.4-0.4 6-2 2-5.2-0.4-11.2 5.6-2 2-8.4 8.4-8.4 8.4s-2.4 4 2.4 8.8 8.8 2.4 8.8 2.4 6.4-6.4 8.4-8.4c5.6-5.6 3.6-9.2 5.2-10.8 3.6-3.6 6.4-0.8 6.4-0.8zM19.6 41.6l2.8 2.8-15.2 15.2-2.8-2.8z"></path>
</svg>
