<?xml version="1.0" encoding="utf-8"?>
<!-- Generated by IcoMoon.io -->
<!DOCTYPE svg PUBLIC "-//W3C//DTD SVG 1.1//EN" "http://www.w3.org/Graphics/SVG/1.1/DTD/svg11.dtd">
<svg version="1.1" xmlns="http://www.w3.org/2000/svg" xmlns:xlink="http://www.w3.org/1999/xlink" width="16" height="16" viewBox="0 0 16 16">
<path fill="#444" d="M11.3 16c-1.2 0-1.7-3.9-1.7-4.1-0.1-1.3-1-2.1-1.6-2.2-0.6 0-1.4 0.9-1.6 2.2 0 0.2-0.5 4.1-1.7 4.1s-1.8-4.4-1.9-4.4c-0.2-1.4 0.1-3.4 0.2-4-0.4-1.2-1.8-5.6-0.5-7 0.5-0.4 1.1-0.6 1.9-0.6 0.6 0 1.3 0.1 2 0.3 0.6 0.1 1.1 0.2 1.6 0.2s1-0.1 1.6-0.2c0.7-0.2 1.4-0.3 2-0.3 0.8 0 1.4 0.2 1.8 0.7 1.3 1.4-0.1 5.8-0.5 7 0.1 0.5 0.4 2.5 0.2 3.9 0.1 0-0.5 4.4-1.8 4.4zM8 8.7c1.3 0.1 2.4 1.4 2.6 3.1 0.1 1.2 0.5 2.4 0.7 2.9 0.3-0.6 0.7-2.1 0.9-3.3 0.2-1.4-0.2-3.7-0.2-3.7v-0.2c0.7-2.1 1.4-5.3 0.8-6.1-0.3-0.3-0.7-0.4-1.2-0.4s-1.2 0.1-1.8 0.3c-0.6 0.1-1.2 0.2-1.8 0.2s-1.2-0.1-1.8-0.2c-0.6-0.2-1.3-0.3-1.8-0.3s-0.9 0.1-1.1 0.4c-0.7 0.7 0 4 0.8 6.1v0.2c0 0-0.4 2.3-0.2 3.7 0.2 1.2 0.6 2.7 0.9 3.3 0.2-0.6 0.6-1.7 0.7-2.9 0.1-1.6 1.2-3 2.5-3.1z"></path>
</svg>
