<?xml version="1.0" encoding="utf-8"?>
<!-- Generated by IcoMoon.io -->
<!DOCTYPE svg PUBLIC "-//W3C//DTD SVG 1.1//EN" "http://www.w3.org/Graphics/SVG/1.1/DTD/svg11.dtd">
<svg version="1.1" xmlns="http://www.w3.org/2000/svg" xmlns:xlink="http://www.w3.org/1999/xlink" width="64" height="64" viewBox="0 0 64 64">
<path fill="#444444" d="M45.2 64c-4.8 0-6.8-15.6-6.8-16.4-0.4-5.2-4-8.4-6.4-8.8-2.4 0-5.6 3.6-6.4 8.8 0 0.8-2 16.4-6.8 16.4s-7.2-17.6-7.6-17.6c-0.8-5.6 0.4-13.6 0.8-16-1.6-4.8-7.2-22.4-2-28 2-1.6 4.4-2.4 7.6-2.4 2.4 0 5.2 0.4 8 1.2 2.4 0.4 4.4 0.8 6.4 0.8s4-0.4 6.4-0.8c2.8-0.8 5.6-1.2 8-1.2 3.2 0 5.6 0.8 7.2 2.8 5.2 5.6-0.4 23.2-2 28 0.4 2 1.6 10 0.8 15.6 0.4 0-2 17.6-7.2 17.6zM32 34.8c5.2 0.4 9.6 5.6 10.4 12.4 0.4 4.8 2 9.6 2.8 11.6 1.2-2.4 2.8-8.4 3.6-13.2 0.8-5.6-0.8-14.8-0.8-14.8v-0.8c2.8-8.4 5.6-21.2 3.2-24.4-1.2-1.2-2.8-1.6-4.8-1.6s-4.8 0.4-7.2 1.2c-2.4 0.4-4.8 0.8-7.2 0.8s-4.8-0.4-7.2-0.8c-2.4-0.8-5.2-1.2-7.2-1.2s-3.6 0.4-4.4 1.6c-2.8 2.8 0 16 3.2 24.4v0.8c0 0-1.6 9.2-0.8 14.8 0.8 4.8 2.4 10.8 3.6 13.2 0.8-2.4 2.4-6.8 2.8-11.6 0.4-6.4 4.8-12 10-12.4z"></path>
</svg>
