<?xml version="1.0" encoding="utf-8"?>
<!-- Generated by IcoMoon.io -->
<!DOCTYPE svg PUBLIC "-//W3C//DTD SVG 1.1//EN" "http://www.w3.org/Graphics/SVG/1.1/DTD/svg11.dtd">
<svg version="1.1" xmlns="http://www.w3.org/2000/svg" xmlns:xlink="http://www.w3.org/1999/xlink" width="16" height="16" viewBox="0 0 16 16">
<path fill="#444" d="M12.62 6c-0.093-0.023-0.2-0.036-0.31-0.036s-0.217 0.013-0.319 0.038c-0.045-0.33-0.192-0.616-0.402-0.843-0.257-0.259-0.614-0.42-1.008-0.42-0.018 0-0.036 0-0.053 0.001-0-0-0.004-0-0.007-0-0.22 0-0.43 0.044-0.621 0.124-0.062-0.183-0.163-0.336-0.29-0.464-0.261-0.25-0.617-0.403-1.008-0.403-0.036 0-0.072 0.001-0.107 0.004l0.005-0c0.315-0.414 0.505-0.938 0.505-1.506 0-1.381-1.119-2.5-2.5-2.5s-2.5 1.119-2.5 2.5c0 0.813 0.388 1.535 0.989 1.992l0.006 2.664c-0.554 0.015-1.054 0.233-1.432 0.581-0.568 0.619-0.568 1.579-0.568 2.779 0 0.23 0 0.47 0 0.72 0.032 1.127 0.573 2.121 1.402 2.764l0.358 0.356c1.24 1.27 2.38 1.65 5.020 1.65 2.88 0 4.22-1.61 4.22-5.060v-2.51c0-0.77-0.22-2.12-1.38-2.43zM13 8.35v2.59c0 3.37-1.29 4.060-3.22 4.060-2.6 0-3.4-0.39-4.3-1.33l-0.36-0.37c-0.657-0.468-1.088-1.215-1.12-2.065-0-0.265-0-0.505-0-0.735-0.033-0.178-0.053-0.383-0.053-0.592 0-0.538 0.126-1.047 0.351-1.498 0.186-0.132 0.431-0.228 0.698-0.24l0.003 0.7v-0.22l-0.34 1.5c-0.010 0.022-0.016 0.048-0.016 0.075 0 0.103 0.083 0.186 0.186 0.186 0.075 0 0.14-0.045 0.17-0.11l1-1.211c0.003-0.014 0.005-0.029 0.005-0.045s-0.002-0.031-0.005-0.046l0-5.609c-0-0.012-0.001-0.026-0.001-0.039 0-0.256 0.083-0.492 0.223-0.684 0.091-0.096 0.223-0.158 0.369-0.158 0.010 0 0.020 0 0.030 0.001-0.001-0-0.001-0-0.001-0 0.21 0 0.38 0.17 0.38 0.38 0 0.004-0 0.007-0 0.011l0 3.869c0 0.276 0.224 0.5 0.5 0.5s0.5-0.224 0.5-0.5v-1.32c0.010-0.251 0.217-0.451 0.47-0.451 0.011 0 0.021 0 0.032 0.001 0.023-0.005 0.051-0.008 0.079-0.008 0.232 0 0.42 0.188 0.42 0.42 0 0.010-0 0.020-0.001 0.029l0 1.329c0 0.276 0.224 0.5 0.5 0.5s0.5-0.224 0.5-0.5v-0.64c0.034-0.218 0.22-0.383 0.445-0.383 0.019 0 0.038 0.001 0.057 0.004 0.013-0.002 0.030-0.003 0.047-0.003 0.112 0 0.214 0.043 0.291 0.113 0.1 0.129 0.16 0.294 0.16 0.473 0 0.006-0 0.012-0 0.017l0 0.819c0.003 0.252 0.193 0.459 0.438 0.49 0.021 0.003 0.043 0.004 0.066 0.004 0.241 0 0.442-0.166 0.496-0.39 0.026-0.112 0.082-0.204 0.16-0.273 0.033-0.015 0.071-0.024 0.111-0.024s0.078 0.009 0.112 0.024c0.38 0.249 0.628 0.674 0.628 1.157 0 0.057-0.003 0.113-0.010 0.169l0.001-0.007z"></path>
</svg>
