<?xml version="1.0" encoding="utf-8"?>
<!-- Generated by IcoMoon.io -->
<!DOCTYPE svg PUBLIC "-//W3C//DTD SVG 1.1//EN" "http://www.w3.org/Graphics/SVG/1.1/DTD/svg11.dtd">
<svg version="1.1" xmlns="http://www.w3.org/2000/svg" xmlns:xlink="http://www.w3.org/1999/xlink" width="16" height="16" viewBox="0 0 16 16">
<path fill="#444" d="M13 11.2v-7.4c0-1-0.8-1.8-1.8-1.8h-2.2v-1h2v-1h-6v1h2v1h-2.2c-1 0-1.8 0.8-1.8 1.8v7.4c0 1 0.8 1.8 1.8 1.8h0.2l-0.7 1h-1.3v1h0.7l-0.7 1h2l0.6-1h4.9l0.6 1h2l-0.7-1h0.6v-1h-1.3l-0.7-1h0.2c1 0 1.8-0.8 1.8-1.8zM4 3.9c0-0.5 0.4-0.9 0.9-0.9h6.1c0.6 0 1 0.4 1 0.9v2.1c0 0.6-0.4 1-0.9 1h-6.2c-0.5 0-0.9-0.4-0.9-0.9v-2.2zM4 11c0-0.6 0.4-1 1-1s1 0.4 1 1c0 0.6-0.4 1-1 1s-1-0.4-1-1zM9.9 14h-3.8l0.6-1h2.6l0.6 1zM10 11c0-0.6 0.4-1 1-1s1 0.4 1 1c0 0.6-0.4 1-1 1s-1-0.4-1-1z"></path>
</svg>
