<?xml version="1.0" encoding="utf-8"?>
<!-- Generated by IcoMoon.io -->
<!DOCTYPE svg PUBLIC "-//W3C//DTD SVG 1.1//EN" "http://www.w3.org/Graphics/SVG/1.1/DTD/svg11.dtd">
<svg version="1.1" xmlns="http://www.w3.org/2000/svg" xmlns:xlink="http://www.w3.org/1999/xlink" width="64" height="64" viewBox="0 0 64 64">
<path fill="#444444" d="M52 44.8v-29.6c0-4-3.2-7.2-7.2-7.2h-8.8v-4h8v-4h-24v4h8v4h-8.8c-4 0-7.2 3.2-7.2 7.2v29.6c0 4 3.2 7.2 7.2 7.2h0.8l-2.8 4h-5.2v4h2.8l-2.8 4h8l2.4-4h19.6l2.4 4h8l-2.8-4h2.4v-4h-5.2l-2.8-4h0.8c4 0 7.2-3.2 7.2-7.2zM16 15.6c0-2 1.6-3.6 3.6-3.6h24.4c2.4 0 4 1.6 4 3.6v8.4c0 2.4-1.6 4-3.6 4h-24.8c-2 0-3.6-1.6-3.6-3.6v-8.8zM16 44c0-2.4 1.6-4 4-4s4 1.6 4 4c0 2.4-1.6 4-4 4s-4-1.6-4-4zM39.6 56h-15.2l2.4-4h10.4l2.4 4zM40 44c0-2.4 1.6-4 4-4s4 1.6 4 4c0 2.4-1.6 4-4 4s-4-1.6-4-4z"></path>
</svg>
