<?xml version="1.0" encoding="utf-8"?>
<!-- Generated by IcoMoon.io -->
<!DOCTYPE svg PUBLIC "-//W3C//DTD SVG 1.1//EN" "http://www.w3.org/Graphics/SVG/1.1/DTD/svg11.dtd">
<svg version="1.1" xmlns="http://www.w3.org/2000/svg" xmlns:xlink="http://www.w3.org/1999/xlink" width="16" height="16" viewBox="0 0 16 16">
<path fill="#444" d="M13 3s0-0.51-2-0.8v-0.7c-0.017-0.832-0.695-1.5-1.53-1.5-0 0-0 0-0 0h-3c-0.815 0.017-1.47 0.682-1.47 1.5 0 0 0 0 0 0v0.7c-0.765 0.068-1.452 0.359-2.007 0.806l-0.993-0.006v1h12v-1h-1zM6 1.5c0.005-0.274 0.226-0.495 0.499-0.5l3.001-0c0 0 0.001 0 0.001 0 0.282 0 0.513 0.22 0.529 0.499l0 0.561c-0.353-0.042-0.763-0.065-1.178-0.065-0.117 0-0.233 0.002-0.349 0.006-0.553-0-2.063-0-2.503 0.070v-0.57z"></path>
<path fill="#444" d="M2 5v1h1v9c1.234 0.631 2.692 1 4.236 1 0.002 0 0.003 0 0.005 0h1.52c0.001 0 0.003 0 0.004 0 1.544 0 3.002-0.369 4.289-1.025l-0.054-8.975h1v-1h-12zM6 13.92q-0.51-0.060-1-0.17v-6.75h1v6.92zM9 14h-2v-7h2v7zM11 13.72c-0.267 0.070-0.606 0.136-0.95 0.184l-0.050-6.904h1v6.72z"></path>
</svg>
