<?xml version="1.0" encoding="utf-8"?>
<!-- Generated by IcoMoon.io -->
<!DOCTYPE svg PUBLIC "-//W3C//DTD SVG 1.1//EN" "http://www.w3.org/Graphics/SVG/1.1/DTD/svg11.dtd">
<svg version="1.1" xmlns="http://www.w3.org/2000/svg" xmlns:xlink="http://www.w3.org/1999/xlink" width="64" height="64" viewBox="0 0 64 64">
<path fill="#444444" d="M8 20v4h4v36c0 0 4.4 4 18 4s18-4 18-4v-36h4v-4h-44zM24 56h-4v-28h4v28zM32 56h-4v-28h4v28zM40 56h-4v-28h4v28z"></path>
<path fill="#444444" d="M48 12c0 0 0-2-8-3.2v-2.8c0-3.2-2.8-6-6-6h-8c-3.2 0-6 2.8-6 6v2.8c-6.4 1.2-8 3.2-8 3.2h-4v4h44v-4h-4zM24 6c0-1.2 0.8-2 2-2h8c0.8 0 2 0.8 2 2v2.4c0-0.4-3.6-0.4-6-0.4s-4.4 0-6 0.4v-2.4z"></path>
</svg>
