<?xml version="1.0" encoding="utf-8"?>
<!-- Generated by IcoMoon.io -->
<!DOCTYPE svg PUBLIC "-//W3C//DTD SVG 1.1//EN" "http://www.w3.org/Graphics/SVG/1.1/DTD/svg11.dtd">
<svg version="1.1" xmlns="http://www.w3.org/2000/svg" xmlns:xlink="http://www.w3.org/1999/xlink" width="64" height="64" viewBox="0 0 64 64">
<path fill="#444444" d="M24 12h40v28h-40v-28z"></path>
<path fill="#444444" d="M60 56c0 4.418-3.582 8-8 8s-8-3.582-8-8c0-4.418 3.582-8 8-8s8 3.582 8 8z"></path>
<path fill="#444444" d="M52 44c5.2 0 9.6 3.2 11.2 8h0.8v-8h-12z"></path>
<path fill="#444444" d="M20 20h-16l-4 16v16h4.8c1.6-4.8 6-8 11.2-8s9.6 3.2 11.2 8h13.6c1.6-4.8 6-8 11.2-8h-32v-24zM16 36h-12l3.2-12h8.8v12z"></path>
<path fill="#444444" d="M24 56c0 4.418-3.582 8-8 8s-8-3.582-8-8c0-4.418 3.582-8 8-8s8 3.582 8 8z"></path>
</svg>
