<?xml version="1.0" encoding="utf-8"?>
<!-- Generated by IcoMoon.io -->
<!DOCTYPE svg PUBLIC "-//W3C//DTD SVG 1.1//EN" "http://www.w3.org/Graphics/SVG/1.1/DTD/svg11.dtd">
<svg version="1.1" xmlns="http://www.w3.org/2000/svg" xmlns:xlink="http://www.w3.org/1999/xlink" width="16" height="16" viewBox="0 0 16 16">
<path fill="#444" d="M6 3h10v7h-10v-7z"></path>
<path fill="#444" d="M15 14c0 1.105-0.895 2-2 2s-2-0.895-2-2c0-1.105 0.895-2 2-2s2 0.895 2 2z"></path>
<path fill="#444" d="M13 11c1.3 0 2.4 0.8 2.8 2h0.2v-2h-3z"></path>
<path fill="#444" d="M5 5h-4l-1 4v4h1.2c0.4-1.2 1.5-2 2.8-2s2.4 0.8 2.8 2h3.4c0.4-1.2 1.5-2 2.8-2h-8v-6zM4 9h-3l0.8-3h2.2v3z"></path>
<path fill="#444" d="M6 14c0 1.105-0.895 2-2 2s-2-0.895-2-2c0-1.105 0.895-2 2-2s2 0.895 2 2z"></path>
</svg>
