<?xml version="1.0" encoding="utf-8"?>
<!-- Generated by IcoMoon.io -->
<!DOCTYPE svg PUBLIC "-//W3C//DTD SVG 1.1//EN" "http://www.w3.org/Graphics/SVG/1.1/DTD/svg11.dtd">
<svg version="1.1" xmlns="http://www.w3.org/2000/svg" xmlns:xlink="http://www.w3.org/1999/xlink" width="64" height="64" viewBox="0 0 64 64">
<path fill="#444444" d="M64 12c-2.4 1.2-4.8 1.6-7.6 2 2.8-1.6 4.8-4 5.6-7.2-2.4 1.6-5.2 2.4-8.4 3.2-2.4-2.4-6-4-9.6-4-6.8 0-12.8 6-12.8 13.2 0 1.2 0 2 0.4 2.8-10.8-0.4-20.8-5.6-27.2-13.6-1.2 2-1.6 4-1.6 6.8 0 4.4 2.4 8.4 6 10.8-2 0-4-0.8-6-1.6 0 0 0 0 0 0 0 6.4 4.4 11.6 10.4 12.8-1.2 0.4-2.4 0.4-3.6 0.4-0.8 0-1.6 0-2.4-0.4 1.6 5.2 6.4 9.2 12.4 9.2-4.4 3.6-10 5.6-16.4 5.6-1.2 0-2 0-3.2 0 6 3.6 12.8 6 20 6 24 0 37.2-20 37.2-37.2 0-0.4 0-1.2 0-1.6 2.8-2 5.2-4.4 6.8-7.2z"></path>
</svg>
