<?xml version="1.0" encoding="utf-8"?>
<!-- Generated by IcoMoon.io -->
<!DOCTYPE svg PUBLIC "-//W3C//DTD SVG 1.1//EN" "http://www.w3.org/Graphics/SVG/1.1/DTD/svg11.dtd">
<svg version="1.1" xmlns="http://www.w3.org/2000/svg" xmlns:xlink="http://www.w3.org/1999/xlink" width="64" height="64" viewBox="0 0 64 64">
<path fill="#444444" d="M0 0v64h64v-64h-64zM51.2 22.4c0 0.4 0 0.8 0 1.2 0 13.2-10 28-28 28-5.6 0-10.8-1.6-15.2-4.4 0.8 0 1.6 0 2.4 0 4.8 0 8.8-1.6 12.4-4.4-4.4 0-8-2.8-9.2-6.8 0.8 0 1.2 0 2 0s1.6 0 2.4-0.4c-4.4-0.8-8-4.8-8-9.6 0 0 0 0 0 0 1.2 0.8 2.8 1.2 4.4 1.2-2.8-1.6-4.4-4.8-4.4-8 0-2 0.4-3.6 1.2-4.8 4.8 6 12.4 9.6 20.4 10 0-0.8-0.4-1.6-0.4-2.4 0-5.6 4.4-10 10-10 2.8 0 5.2 1.2 7.2 3.2 2.4-0.4 4.4-1.2 6.4-2.4-0.8 2.4-2.4 4.4-4.4 5.6 2-0.4 4-0.8 5.6-1.6-1.2 2.4-2.8 4-4.8 5.6z"></path>
</svg>
