<?xml version="1.0" encoding="utf-8"?>
<!-- Generated by IcoMoon.io -->
<!DOCTYPE svg PUBLIC "-//W3C//DTD SVG 1.1//EN" "http://www.w3.org/Graphics/SVG/1.1/DTD/svg11.dtd">
<svg version="1.1" xmlns="http://www.w3.org/2000/svg" xmlns:xlink="http://www.w3.org/1999/xlink" width="64" height="64" viewBox="0 0 64 64">
<path fill="#444444" d="M32 4.4v-4.4h-4v4.4c-24.8 1.6-28 27.6-28 27.6h0.4c0.8 0 4.8-4 9.6-4s8.8 4 9.6 4h0.4c1.2 0 4-2.8 8-3.6v27.6c0 2.8 0.8 4.8 2.4 6.4 1.2 1.2 2.8 1.6 3.6 1.6 0 0 0.4 0 0.4 0 0.8 0 2 0 3.2-1.2 1.6-1.2 2.4-3.6 2.4-6.8h-4c0 0 0 4-2 4s-2-4-2-4v-27.6c4 0.8 6.8 3.6 7.6 3.6h0.4c0.8 0 4.8-4 9.6-4s8.8 4 9.6 4h0.8c0 0-2.8-26.4-28-27.6z"></path>
</svg>
