<?xml version="1.0" encoding="utf-8"?>
<!-- Generated by IcoMoon.io -->
<!DOCTYPE svg PUBLIC "-//W3C//DTD SVG 1.1//EN" "http://www.w3.org/Graphics/SVG/1.1/DTD/svg11.dtd">
<svg version="1.1" xmlns="http://www.w3.org/2000/svg" xmlns:xlink="http://www.w3.org/1999/xlink" width="16" height="16" viewBox="0 0 16 16">
<path fill="#444" d="M5.36 0.9l-0.27-0.57c-0.083-0.197-0.275-0.333-0.499-0.333-0.1 0-0.193 0.027-0.274 0.074-0.217 0.074-0.372 0.279-0.372 0.52 0 0.087 0.020 0.169 0.056 0.242l0.319 0.577c-6.2 3.49-3.9 10.59-3.9 10.59h0.060c0.25-0.12 0.8-1.64 2.050-2.25s2.78-0.090 3-0.21l0.12-0.060c0.477-0.742 0.998-1.387 1.58-1.97l3.37 7.070c0.246 0.619 0.729 1.098 1.334 1.335 0.168 0.053 0.343 0.080 0.524 0.080 0.254 0 0.495-0.053 0.713-0.149l0.359-0.176c0.263-0.145 0.462-0.38 0.558-0.662 0.117-0.276 0.183-0.586 0.183-0.913 0-0.401-0.1-0.778-0.277-1.108-0.102-0.189-0.311-0.324-0.551-0.324-0.076 0-0.149 0.014-0.217 0.038-0.182 0.089-0.308 0.277-0.308 0.495 0 0.093 0.023 0.18 0.064 0.257s0.529 1.067-0.101 1.337-1.19-0.73-1.19-0.73l-3.42-7.060c0.372-0.043 0.803-0.067 1.24-0.067s0.868 0.024 1.292 0.072l0.068-0.065c0.25-0.12 0.8-1.64 2.050-2.25s2.78-0.090 3-0.21h0.060s-3.98-6.41-10.62-3.58zM7.36 6.36c-1.034 0.399-1.834 1.209-2.211 2.224-0.55-1.082-0.909-2.375-1.007-3.74-0.142-2.244 0.608-2.924 0.608-2.924l0.77-0.32c1.084 0.101 2.052 0.534 2.816 1.195 0.976 0.895 1.747 2.009 2.233 3.265-0.339-0.021-0.752-0.067-1.175-0.067-0.724 0-1.417 0.134-2.054 0.379z"></path>
</svg>
