<?xml version="1.0" encoding="utf-8"?>
<!-- Generated by IcoMoon.io -->
<!DOCTYPE svg PUBLIC "-//W3C//DTD SVG 1.1//EN" "http://www.w3.org/Graphics/SVG/1.1/DTD/svg11.dtd">
<svg version="1.1" xmlns="http://www.w3.org/2000/svg" xmlns:xlink="http://www.w3.org/1999/xlink" width="16" height="16" viewBox="0 0 16 16">
<path fill="#444" d="M8 0h1v4h-1v-4z"></path>
<path fill="#444" d="M8 12h1v4h-1v-4z"></path>
<path fill="#444" d="M7 9h-4c-0.552 0-1-0.448-1-1s0.448-1 1-1h4v-2h-4c-1.657 0-3 1.343-3 3s1.343 3 3 3h4v-2z"></path>
<path fill="#444" d="M13 5h-4v2h4c0.552 0 1 0.448 1 1s-0.448 1-1 1h-4v2h4c1.657 0 3-1.343 3-3s-1.343-3-3-3z"></path>
<path fill="#444" d="M4.51 15.44l2.49-3.44h-1.23l-2.080 2.88 0.82 0.56z"></path>
<path fill="#444" d="M12.49 15.44l-2.49-3.44h1.23l2.080 2.88-0.82 0.56z"></path>
<path fill="#444" d="M12.49 0.99l-2.49 3.010h1.23l2.080-2.66-0.82-0.35z"></path>
<path fill="#444" d="M4.51 0.99l2.49 3.010h-1.23l-2.080-2.66 0.82-0.35z"></path>
</svg>
