<?xml version="1.0" encoding="utf-8"?>
<!-- Generated by IcoMoon.io -->
<!DOCTYPE svg PUBLIC "-//W3C//DTD SVG 1.1//EN" "http://www.w3.org/Graphics/SVG/1.1/DTD/svg11.dtd">
<svg version="1.1" xmlns="http://www.w3.org/2000/svg" xmlns:xlink="http://www.w3.org/1999/xlink" width="64" height="64" viewBox="0 0 64 64">
<path fill="#444444" d="M28 0h4v16h-4v-16z"></path>
<path fill="#444444" d="M28 48h4v16h-4v-16z"></path>
<path fill="#444444" d="M28 36h-16c-2.4 0-4-1.6-4-4s1.6-4 4-4h16v-8h-16c-6.8 0-12 5.2-12 12s5.2 12 12 12h16v-8z"></path>
<path fill="#444444" d="M48 20h-16v8h16c2.4 0 4 1.6 4 4s-1.6 4-4 4h-16v8h16c6.8 0 12-5.2 12-12s-5.2-12-12-12z"></path>
<path fill="#444444" d="M14 61.6l10-13.6h-4.8l-8.4 11.6z"></path>
<path fill="#444444" d="M46 61.6l-10-13.6h4.8l8.4 11.6z"></path>
<path fill="#444444" d="M46 4l-10 12h4.8l8.4-10.8z"></path>
<path fill="#444444" d="M14 4l10 12h-4.8l-8.4-10.8z"></path>
</svg>
