<?xml version="1.0" encoding="utf-8"?>
<!-- Generated by IcoMoon.io -->
<!DOCTYPE svg PUBLIC "-//W3C//DTD SVG 1.1//EN" "http://www.w3.org/Graphics/SVG/1.1/DTD/svg11.dtd">
<svg version="1.1" xmlns="http://www.w3.org/2000/svg" xmlns:xlink="http://www.w3.org/1999/xlink" width="16" height="16" viewBox="0 0 16 16">
<path fill="#444" d="M8 8v-3.1c0-2.2-1.8-3.9-3.9-3.9h-0.3c-2.2 0-3.8 1.7-3.8 3.9v2.1h2v-2.1c0-1.1 0.7-1.9 1.8-1.9h0.3c1 0 1.9 0.8 1.9 1.9v3.1h-1l0.1 5c0 0-0.1 3 4.9 3s5-3 5-3v-5h-7zM11 14h-1v-1.8c-0.6 0-1-0.6-1-1.1 0-0.6 0.4-1.1 1-1.1s1 0.4 1 0.9v3.1z"></path>
</svg>
