<?xml version="1.0" encoding="utf-8"?>
<!-- Generated by IcoMoon.io -->
<!DOCTYPE svg PUBLIC "-//W3C//DTD SVG 1.1//EN" "http://www.w3.org/Graphics/SVG/1.1/DTD/svg11.dtd">
<svg version="1.1" xmlns="http://www.w3.org/2000/svg" xmlns:xlink="http://www.w3.org/1999/xlink" width="64" height="64" viewBox="0 0 64 64">
<path fill="#444444" d="M32 32v-12.4c0-8.8-7.2-15.6-15.6-15.6h-1.2c-8.8 0-15.2 6.8-15.2 15.6v8.4h8v-8.4c0-4.4 2.8-7.6 7.2-7.6h1.2c4 0 7.6 3.2 7.6 7.6v12.4h-4l0.4 20c0 0-0.4 12 19.6 12s20-12 20-12v-20h-28zM44 56h-4v-7.2c-2.4 0-4-2.4-4-4.4 0-2.4 1.6-4.4 4-4.4s4 1.6 4 3.6v12.4z"></path>
</svg>
