<?xml version="1.0" encoding="utf-8"?>
<!-- Generated by IcoMoon.io -->
<!DOCTYPE svg PUBLIC "-//W3C//DTD SVG 1.1//EN" "http://www.w3.org/Graphics/SVG/1.1/DTD/svg11.dtd">
<svg version="1.1" xmlns="http://www.w3.org/2000/svg" xmlns:xlink="http://www.w3.org/1999/xlink" width="64" height="64" viewBox="0 0 64 64">
<path fill="#444444" d="M60 12v40h-56v-40h56zM64 8h-64v48h64v-48z"></path>
<path fill="#444444" d="M32 20h24v4h-24v-4z"></path>
<path fill="#444444" d="M32 28h24v4h-24v-4z"></path>
<path fill="#444444" d="M32 36h12v4h-12v-4z"></path>
<path fill="#444444" d="M21.6 28h-1.6v-0.4c2.4-0.8 4-3.2 4-5.6 0-3.2-2.8-6-6-6s-6 2.8-6 6c0 2.8 1.6 4.8 4 5.6v0.4h-1.6c-3.6 0-6.4 2.8-6.4 6.4v9.6h20v-9.6c0-3.6-2.8-6.4-6.4-6.4z"></path>
</svg>
