<?xml version="1.0" encoding="utf-8"?>
<!-- Generated by IcoMoon.io -->
<!DOCTYPE svg PUBLIC "-//W3C//DTD SVG 1.1//EN" "http://www.w3.org/Graphics/SVG/1.1/DTD/svg11.dtd">
<svg version="1.1" xmlns="http://www.w3.org/2000/svg" xmlns:xlink="http://www.w3.org/1999/xlink" width="64" height="64" viewBox="0 0 64 64">
<path fill="#444444" d="M32 0c-22.4 0-11.6 29.2-11.6 29.2 2.4 4 5.6 3.2 5.6 6 0 2.4-2.8 3.2-5.6 3.6-4.4 0-8.4-0.8-12.4 6.4-2.4 4.4-3.6 18.8-3.6 18.8h54.8c0 0-1.2-14.4-3.2-18.8-4-7.6-8-6.4-12.4-6.8-2.8-0.4-5.6-1.2-5.6-3.6s3.2-1.6 5.6-6c0 0.4 10.8-28.8-11.6-28.8z"></path>
</svg>
