<?xml version="1.0" encoding="utf-8"?>
<!-- Generated by IcoMoon.io -->
<!DOCTYPE svg PUBLIC "-//W3C//DTD SVG 1.1//EN" "http://www.w3.org/Graphics/SVG/1.1/DTD/svg11.dtd">
<svg version="1.1" xmlns="http://www.w3.org/2000/svg" xmlns:xlink="http://www.w3.org/1999/xlink" width="16" height="16" viewBox="0 0 16 16">
<path fill="#444" d="M14 13h-3v-3h1v2h2z"></path>
<path fill="#444" d="M16 12.5c0-2.5-2-4.5-4.5-4.5-0.7 0-1.4 0.2-2 0.5 0.2-0.3 0.8-0.3 1.4-1.2 0 0 2.7-7.3-2.9-7.3s-2.9 7.3-2.9 7.3c0.6 1 1.4 0.8 1.4 1.5s-0.7 0.7-1.4 0.8c-1.1 0.1-2.1-0.1-3.1 1.7-0.6 1.1-0.9 4.7-0.9 4.7h10.4c-1.9 0-3.5-1.6-3.5-3.5s1.6-3.5 3.5-3.5 3.5 1.6 3.5 3.5c0 1.9-1.6 3.5-3.5 3.5h3.4c0 0 0-0.2 0-0.5 0.6-0.8 1.1-1.8 1.1-3z"></path>
</svg>
