<?xml version="1.0" encoding="utf-8"?>
<!-- Generated by IcoMoon.io -->
<!DOCTYPE svg PUBLIC "-//W3C//DTD SVG 1.1//EN" "http://www.w3.org/Graphics/SVG/1.1/DTD/svg11.dtd">
<svg version="1.1" xmlns="http://www.w3.org/2000/svg" xmlns:xlink="http://www.w3.org/1999/xlink" width="64" height="64" viewBox="0 0 64 64">
<path fill="#444444" d="M21.2 38.8c-1.6 0-3.6-0.8-3.6-2.4s2-1.2 3.6-4c0 0 7.2-19.6-7.2-19.6s-7.2 19.6-7.2 19.6c1.6 2.8 3.6 2.4 3.6 4s-2 2.4-3.6 2.4c-2.4 0.4-4.4 0-6.8 2.4v22.8h20c0.8-6.8 2.8-20.8 4.4-24.4 0 0 0.4-0.4 0.4-0.4-0.8-0.4-2-0.4-3.6-0.4z"></path>
<path fill="#444444" d="M64 38c-2.8-3.2-5.2-2.8-8-3.2-2-0.4-4.4-0.8-4.4-2.8s2.4-1.2 4.4-4.8c0 0 8.4-23.6-8.8-23.6-17.6 0.4-9.2 24-9.2 24 2 3.2 4.4 2.8 4.4 4.4 0 2-2.4 2.4-4.4 2.8-3.6 0.4-6.8 0-10 6-1.6 3.6-4 23.2-4 23.2h40v-26z"></path>
</svg>
