<?xml version="1.0" encoding="utf-8"?>
<!-- Generated by IcoMoon.io -->
<!DOCTYPE svg PUBLIC "-//W3C//DTD SVG 1.1//EN" "http://www.w3.org/Graphics/SVG/1.1/DTD/svg11.dtd">
<svg version="1.1" xmlns="http://www.w3.org/2000/svg" xmlns:xlink="http://www.w3.org/1999/xlink" width="16" height="16" viewBox="0 0 16 16">
<path fill="#444" d="M14.2 16h0.6c0 0 0-0.2 0-0.6l-0.6 0.6z"></path>
<path fill="#444" d="M8.6 13.9c-0.7-0.7-1-1.8-0.8-2.8s0.8-1.8 1.7-2.1c0-0.1-0.1-0.2-0.1-0.2 0-0.6 0.8-0.4 1.4-1.5 0 0 2.7-7.3-2.9-7.3-5.5 0-2.8 7.3-2.8 7.3 0.6 1 1.4 0.8 1.4 1.5s-0.7 0.7-1.4 0.8c-1.1 0.1-2.1-0.1-3.1 1.7-0.6 1.1-0.9 4.7-0.9 4.7h9.6l-2.1-2.1z"></path>
<path fill="#444" d="M14.9 10.1c-0.2-0.1-0.5-0.1-0.7-0.1-0.7 0-1.3 0.6-1.7 1.1-0.4-0.5-1-1.1-1.7-1.1-0.3 0-0.5 0-0.7 0.1-1.2 0.4-1.4 2-0.5 2.9l3 2.9 3-2.9c0.8-0.9 0.5-2.5-0.7-2.9z"></path>
</svg>
