<?xml version="1.0" encoding="utf-8"?>
<!-- Generated by IcoMoon.io -->
<!DOCTYPE svg PUBLIC "-//W3C//DTD SVG 1.1//EN" "http://www.w3.org/Graphics/SVG/1.1/DTD/svg11.dtd">
<svg version="1.1" xmlns="http://www.w3.org/2000/svg" xmlns:xlink="http://www.w3.org/1999/xlink" width="64" height="64" viewBox="0 0 64 64">
<path fill="#444444" d="M56.8 64h2.4c0 0 0-0.8 0-2.4l-2.4 2.4z"></path>
<path fill="#444444" d="M34.4 55.6c-2.8-2.8-4-7.2-3.2-11.2s3.2-7.2 6.8-8.4c0-0.4-0.4-0.8-0.4-0.8 0-2.4 3.2-1.6 5.6-6 0 0 10.8-29.2-11.6-29.2-22 0-11.2 29.2-11.2 29.2 2.4 4 5.6 3.2 5.6 6s-2.8 2.8-5.6 3.2c-4.4 0.4-8.4-0.4-12.4 6.8-2.4 4.4-3.6 18.8-3.6 18.8h38.4l-8.4-8.4z"></path>
<path fill="#444444" d="M59.6 40.4c-0.8-0.4-2-0.4-2.8-0.4-2.8 0-5.2 2.4-6.8 4.4-1.6-2-4-4.4-6.8-4.4-1.2 0-2 0-2.8 0.4-4.8 1.6-5.6 8-2 11.6l12 11.6 12-11.6c3.2-3.6 2-10-2.8-11.6z"></path>
</svg>
