<?xml version="1.0" encoding="utf-8"?>
<!-- Generated by IcoMoon.io -->
<!DOCTYPE svg PUBLIC "-//W3C//DTD SVG 1.1//EN" "http://www.w3.org/Graphics/SVG/1.1/DTD/svg11.dtd">
<svg version="1.1" xmlns="http://www.w3.org/2000/svg" xmlns:xlink="http://www.w3.org/1999/xlink" width="64" height="64" viewBox="0 0 64 64">
<path fill="#444444" d="M56 52h-12v-12h4v8h8z"></path>
<path fill="#444444" d="M64 50c0-10-8-18-18-18-2.8 0-5.6 0.8-8 2 0.8-1.2 3.2-1.2 5.6-4.8 0 0 10.8-29.2-11.6-29.2s-11.6 29.2-11.6 29.2c2.4 4 5.6 3.2 5.6 6s-2.8 2.8-5.6 3.2c-4.4 0.4-8.4-0.4-12.4 6.8-2.4 4.4-3.6 18.8-3.6 18.8h41.6c-7.6 0-14-6.4-14-14s6.4-14 14-14 14 6.4 14 14c0 7.6-6.4 14-14 14h13.6c0 0 0-0.8 0-2 2.4-3.2 4.4-7.2 4.4-12z"></path>
</svg>
