<?xml version="1.0" encoding="utf-8"?>
<!-- Generated by IcoMoon.io -->
<!DOCTYPE svg PUBLIC "-//W3C//DTD SVG 1.1//EN" "http://www.w3.org/Graphics/SVG/1.1/DTD/svg11.dtd">
<svg version="1.1" xmlns="http://www.w3.org/2000/svg" xmlns:xlink="http://www.w3.org/1999/xlink" width="64" height="64" viewBox="0 0 64 64">
<path fill="#444444" d="M30 57.6c-3.2-3.2-3.2-8 0-11.2s8-3.2 11.2 0l2.4 2.4 7.6-8.4c-2.8-1.6-5.2-1.6-8-1.6-2.8-0.4-5.6-1.2-5.6-3.6s3.2-1.6 5.6-6c0 0 10.8-29.2-11.6-29.2-22 0-11.2 29.2-11.2 29.2 2.4 4 5.6 3.2 5.6 6s-2.8 2.8-5.6 3.2c-4.4 0.4-8.4-0.4-12.4 6.8-2.4 4.4-3.6 18.8-3.6 18.8h32l-6.4-6.4z"></path>
<path fill="#444444" d="M51.2 64h8.4c0 0-0.4-3.6-0.8-8l-7.6 8z"></path>
<path fill="#444444" d="M44 64c-1.2 0-2-0.4-2.8-1.2l-8-8c-1.6-1.6-1.6-4 0-5.6s4-1.6 5.6 0l5.2 5.2 13.2-14.4c1.6-1.6 4-1.6 5.6-0.4 1.6 1.6 1.6 4 0.4 5.6l-16 17.2c-1.2 1.2-2 1.6-3.2 1.6 0 0 0 0 0 0z"></path>
</svg>
