<?xml version="1.0" encoding="utf-8"?>
<!-- Generated by IcoMoon.io -->
<!DOCTYPE svg PUBLIC "-//W3C//DTD SVG 1.1//EN" "http://www.w3.org/Graphics/SVG/1.1/DTD/svg11.dtd">
<svg version="1.1" xmlns="http://www.w3.org/2000/svg" xmlns:xlink="http://www.w3.org/1999/xlink" width="64" height="64" viewBox="0 0 64 64">
<path fill="#444444" d="M28 60l-7.6-22.4h-0.4c-2.4 0-3.6-1.6-3.6-3.6 0-1.6 1.2-3.6 3.6-3.6h2.8c1.6 0 2.8 1.2 3.6 2.4l5.6 19.2 5.6-19.6c0.4-1.2 2-2.4 3.2-2.4h3.2c2.4 0 3.6 2 3.6 3.6 0.4 2.4-0.8 4-3.6 4h-0.4l-7.6 22.4c-0.4 1.2-1.6 2.4-4 2.4s-3.6-1.2-4-2.4zM10.8 10h14c6.4 0 6.8 4.8 7.2 7.6 0.4-2.4 0.8-7.6 7.2-7.6h14c2.8 0 4.4-1.2 4.4-3.2v-2c0-2 0.8-3.2 3.2-3.2 2 0 3.2 1.2 3.2 3.2v5.2c0 6-2.8 9.2-9.6 9.2h-14.4c-4 0-4.8 2-4.8 3.6 0 2.4-1.6 3.2-3.2 3.2s-3.2-1.2-3.2-3.2c0-1.6-0.8-3.6-4.8-3.6h-14.4c-6.8 0-9.6-2.8-9.6-9.2v-5.2c0-2 1.2-3.2 3.2-3.2s3.2 1.2 3.2 3.2v1.6c0 2.4 1.2 3.6 4.4 3.6z"></path>
</svg>
