<?xml version="1.0" encoding="utf-8"?>
<!-- Generated by IcoMoon.io -->
<!DOCTYPE svg PUBLIC "-//W3C//DTD SVG 1.1//EN" "http://www.w3.org/Graphics/SVG/1.1/DTD/svg11.dtd">
<svg version="1.1" xmlns="http://www.w3.org/2000/svg" xmlns:xlink="http://www.w3.org/1999/xlink" width="16" height="16" viewBox="0 0 16 16">
<path fill="#444" d="M15 9l-5.6 1.9v0.1c0 0.6-0.5 0.9-0.9 0.9s-0.9-0.3-0.9-0.9v-0.7c0-0.4 0.3-0.7 0.6-0.9l4.8-1.4-4.8-1.5c-0.3-0.1-0.6-0.4-0.6-0.8v-0.7c0-0.7 0.5-1 0.9-1 0.5 0 0.9 0.3 0.9 1v0.1l5.6 1.9c0.3 0.1 0.6 0.4 0.6 1s-0.3 0.9-0.6 1zM2.5 13.3v-3.5c0-1.6 1.2-1.7 1.9-1.8-0.7-0.1-1.9-0.2-1.9-1.8v-3.5c0-0.7-0.3-1.1-0.8-1.1h-0.5c-0.5 0-0.8-0.2-0.8-0.8 0-0.5 0.4-0.8 0.8-0.8h1.3c1.5 0 2.3 0.7 2.3 2.4v3.6c0 1.1 0.5 1.2 0.9 1.2 0.6 0 0.8 0.4 0.8 0.8s-0.3 0.8-0.8 0.8c-0.4 0-0.9 0.2-0.9 1.2v3.6c0 1.6-0.8 2.4-2.3 2.4h-1.3c-0.5 0-0.8-0.3-0.8-0.8s0.3-0.8 0.8-0.8h0.4c0.6 0 0.9-0.3 0.9-1.1z"></path>
</svg>
