<?xml version="1.0" encoding="utf-8"?>
<!-- Generated by IcoMoon.io -->
<!DOCTYPE svg PUBLIC "-//W3C//DTD SVG 1.1//EN" "http://www.w3.org/Graphics/SVG/1.1/DTD/svg11.dtd">
<svg version="1.1" xmlns="http://www.w3.org/2000/svg" xmlns:xlink="http://www.w3.org/1999/xlink" width="64" height="64" viewBox="0 0 64 64">
<path fill="#444444" d="M60 36l-22.4 7.6v0.4c0 2.4-2 3.6-3.6 3.6s-3.6-1.2-3.6-3.6v-2.8c0-1.6 1.2-2.8 2.4-3.6l19.2-5.6-19.2-6c-1.2-0.4-2.4-1.6-2.4-3.2v-2.8c0-2.8 2-4 3.6-4 2 0 3.6 1.2 3.6 4v0.4l22.4 7.6c1.2 0.4 2.4 1.6 2.4 4s-1.2 3.6-2.4 4zM10 53.2v-14c0-6.4 4.8-6.8 7.6-7.2-2.8-0.4-7.6-0.8-7.6-7.2v-14c0-2.8-1.2-4.4-3.2-4.4h-2c-2 0-3.2-0.8-3.2-3.2 0-2 1.6-3.2 3.2-3.2h5.2c6 0 9.2 2.8 9.2 9.6v14.4c0 4.4 2 4.8 3.6 4.8 2.4 0 3.2 1.6 3.2 3.2s-1.2 3.2-3.2 3.2c-1.6 0-3.6 0.8-3.6 4.8v14.4c0 6.4-3.2 9.6-9.2 9.6h-5.2c-2 0-3.2-1.2-3.2-3.2s1.2-3.2 3.2-3.2h1.6c2.4 0 3.6-1.2 3.6-4.4z"></path>
</svg>
