<!-- Generated by IcoMoon.io -->
<svg version="1.1" xmlns="http://www.w3.org/2000/svg" width="16" height="16" viewBox="0 0 16 16">
<title>vaadin-h</title>
<path fill="#444" d="M15.21 0.35c-0.436 0-0.79 0.354-0.79 0.79v0 0.46c0 0.5-0.32 0.85-1.070 0.85h-3.55c-1.61 0-1.73 1.19-1.8 1.83v0c-0.060-0.64-0.18-1.83-1.79-1.83h-3.57c-0.75 0-1.090-0.37-1.090-0.86v-0.45c0-0.006 0-0.013 0-0.020 0-0.425-0.345-0.77-0.77-0.77-0 0-0 0-0 0h0c-0 0-0 0-0 0-0.431 0-0.78 0.349-0.78 0.78 0 0.004 0 0.007 0 0.011v-0.001 1.32c0 1.54 0.7 2.31 2.34 2.31h3.66c1.090 0 1.19 0.46 1.19 0.9 0 0 0 0.090 0 0.13 0.048 0.428 0.408 0.758 0.845 0.758s0.797-0.33 0.845-0.754l0-0.004s0-0.080 0-0.13c0-0.44 0.1-0.9 1.19-0.9h3.61c1.61 0 2.32-0.77 2.32-2.31v-1.32c0-0.436-0.354-0.79-0.79-0.79v0z"></path>
<path fill="#444" d="M11.21 7.38c-0.012-0-0.026-0.001-0.040-0.001-0.453 0-0.835 0.301-0.958 0.714l-0.002 0.007-2.21 4.21-2.3-4.2c-0.122-0.425-0.507-0.731-0.963-0.731-0.013 0-0.026 0-0.039 0.001l0.002-0c-0.012-0-0.025-0.001-0.039-0.001-0.58 0-1.050 0.47-1.050 1.050 0 0.212 0.063 0.41 0.171 0.575l-0.002-0.004 3.29 6.1c0.15 0.333 0.478 0.561 0.86 0.561s0.71-0.228 0.858-0.555l0.002-0.006 3.34-6.1c0.090-0.152 0.144-0.335 0.144-0.53 0-0.58-0.47-1.050-1.050-1.050-0.005 0-0.010 0-0.014 0h0.001z"></path>
</svg>
