<?xml version="1.0" encoding="utf-8"?>
<!-- Generated by IcoMoon.io -->
<!DOCTYPE svg PUBLIC "-//W3C//DTD SVG 1.1//EN" "http://www.w3.org/Graphics/SVG/1.1/DTD/svg11.dtd">
<svg version="1.1" xmlns="http://www.w3.org/2000/svg" xmlns:xlink="http://www.w3.org/1999/xlink" width="16" height="16" viewBox="0 0 16 16">
<path fill="#444" d="M7 15l-1.9-5.6h-0.1c-0.6 0-0.9-0.4-0.9-0.9 0-0.4 0.3-0.9 0.9-0.9h0.7c0.4 0 0.7 0.3 0.9 0.6l1.4 4.8 1.4-4.9c0.1-0.3 0.5-0.6 0.8-0.6h0.8c0.6 0 0.9 0.5 0.9 0.9 0.1 0.6-0.2 1-0.9 1h-0.1l-1.9 5.6c-0.1 0.3-0.4 0.6-1 0.6s-0.9-0.3-1-0.6zM2.7 2.5h3.5c1.6 0 1.7 1.2 1.8 1.9 0.1-0.6 0.2-1.9 1.8-1.9h3.5c0.7 0 1.1-0.3 1.1-0.8v-0.5c0-0.5 0.2-0.8 0.8-0.8 0.5 0 0.8 0.3 0.8 0.8v1.3c0 1.5-0.7 2.3-2.4 2.3h-3.6c-1 0-1.2 0.5-1.2 0.9 0 0.6-0.4 0.8-0.8 0.8s-0.8-0.3-0.8-0.8c0-0.4-0.2-0.9-1.2-0.9h-3.6c-1.7 0-2.4-0.7-2.4-2.3v-1.3c0-0.5 0.3-0.8 0.8-0.8s0.8 0.3 0.8 0.8v0.4c0 0.6 0.3 0.9 1.1 0.9z"></path>
</svg>
