<!-- Generated by IcoMoon.io -->
<svg version="1.1" xmlns="http://www.w3.org/2000/svg" width="16" height="16" viewBox="0 0 16 16">
<title>vaadin-v</title>
<path fill="#444" d="M5.8 7.16h-0.13c-0.44 0-0.9-0.1-0.9-1.19v-3.62c0-1.64-0.77-2.35-2.31-2.35h-1.32c-0.436 0-0.79 0.354-0.79 0.79v0c0 0.436 0.354 0.79 0.79 0.79v0h0.46c0.5 0 0.85 0.32 0.85 1.070v3.55c0 1.61 1.19 1.73 1.83 1.8v0c-0.64 0.060-1.83 0.18-1.83 1.79v3.55c0 0.75-0.37 1.090-0.86 1.090h-0.45c-0.006-0-0.013-0-0.020-0-0.425 0-0.77 0.345-0.77 0.77 0 0 0 0 0 0v-0c0 0 0 0 0 0 0 0.431 0.349 0.78 0.78 0.78 0.004 0 0.007-0 0.011-0h1.319c1.54 0 2.31-0.7 2.31-2.34v-3.59c0-1.090 0.46-1.19 0.9-1.19h0.13c0.428-0.048 0.758-0.408 0.758-0.845s-0.33-0.797-0.754-0.845l-0.004-0z"></path>
<path fill="#444" d="M15.1 7.19v0l-6.1-3.32c-0.152-0.090-0.335-0.144-0.53-0.144-0.58 0-1.050 0.47-1.050 1.050 0 0.005 0 0.010 0 0.014v-0.001c-0 0.012-0.001 0.026-0.001 0.040 0 0.453 0.301 0.835 0.714 0.958l0.007 0.002 4.21 2.26-4.24 2.25c-0.425 0.122-0.731 0.507-0.731 0.963 0 0.013 0 0.026 0.001 0.039l-0-0.002c-0 0.012-0.001 0.025-0.001 0.039 0 0.58 0.47 1.050 1.050 1.050 0.212 0 0.41-0.063 0.575-0.171l-0.004 0.002 6.1-3.29c0.333-0.15 0.561-0.478 0.561-0.86s-0.228-0.71-0.555-0.858l-0.006-0.002z"></path>
</svg>
