<?xml version="1.0" encoding="utf-8"?>
<!-- Generated by IcoMoon.io -->
<!DOCTYPE svg PUBLIC "-//W3C//DTD SVG 1.1//EN" "http://www.w3.org/Graphics/SVG/1.1/DTD/svg11.dtd">
<svg version="1.1" xmlns="http://www.w3.org/2000/svg" xmlns:xlink="http://www.w3.org/1999/xlink" width="64" height="64" viewBox="0 0 64 64">
<path fill="#444444" d="M63.6 17.6c-3.6 20-23.6 37.2-29.6 41.2s-11.6-1.6-13.6-5.6c-2-5.2-8.8-30.4-10.8-32.8-1.6-2-7.2 2.4-7.2 2.4l-2.4-3.6c0 0 10.8-13.2 19.2-14.8 8.8-1.6 8.8 13.6 10.8 22 2 8 3.6 12.8 5.2 12.8s5.2-4.4 8.8-11.6c3.6-6.8 0-13.2-7.6-8.8 3.2-17.2 30.8-21.6 27.2-1.2z"></path>
</svg>
