<?xml version="1.0" encoding="utf-8"?>
<!-- Generated by IcoMoon.io -->
<!DOCTYPE svg PUBLIC "-//W3C//DTD SVG 1.1//EN" "http://www.w3.org/Graphics/SVG/1.1/DTD/svg11.dtd">
<svg version="1.1" xmlns="http://www.w3.org/2000/svg" xmlns:xlink="http://www.w3.org/1999/xlink" width="64" height="64" viewBox="0 0 64 64">
<path fill="#444444" d="M0 0v64h64v-64h-64zM55.6 21.2c-2.8 15.2-17.6 28-22 30.8s-8.8-1.2-10-4.4c-1.6-3.6-6.8-22.8-8-24.4-1.6-1.2-5.6 2-5.6 2l-2-2.8c0 0 8-9.6 14.4-10.8s6.4 10 8 16.4c1.6 6 2.4 9.6 4 9.6 1.2 0 4-3.6 6.8-8.8s0-10-5.6-6.4c2-13.2 22.8-16.4 20-1.2z"></path>
</svg>
