<?xml version="1.0" encoding="utf-8"?>
<!-- Generated by IcoMoon.io -->
<!DOCTYPE svg PUBLIC "-//W3C//DTD SVG 1.1//EN" "http://www.w3.org/Graphics/SVG/1.1/DTD/svg11.dtd">
<svg version="1.1" xmlns="http://www.w3.org/2000/svg" xmlns:xlink="http://www.w3.org/1999/xlink" width="64" height="64" viewBox="0 0 64 64">
<path fill="#444444" d="M60 34c0 9.2-3.2 18-8 24.8l2.8 3.2c6-7.6 9.6-17.6 9.6-28 0-12.4-4.8-23.6-12.8-32l-2 4c6.4 7.2 10.4 17.2 10.4 28z"></path>
<path fill="#444444" d="M47.2 9.6l-2 4c4.4 5.6 6.8 12.8 6.8 20.4 0 6.8-2 12.8-5.2 18.4l2.8 3.2c4.4-6 6.8-13.6 6.8-21.6-0.4-9.2-3.6-17.6-9.2-24.4z"></path>
<path fill="#444444" d="M43.2 17.6l-2 4.4c2 3.6 3.2 7.6 3.2 12 0 4-1.2 8-2.8 11.6l2.8 3.6c2.4-4.4 4-9.6 4-14.8-0.4-6.4-2-12-5.2-16.8z"></path>
<path fill="#444444" d="M16 20h-16v24h16l20 16v-56z"></path>
</svg>
