<?xml version="1.0" encoding="utf-8"?>
<!-- Generated by IcoMoon.io -->
<!DOCTYPE svg PUBLIC "-//W3C//DTD SVG 1.1//EN" "http://www.w3.org/Graphics/SVG/1.1/DTD/svg11.dtd">
<svg version="1.1" xmlns="http://www.w3.org/2000/svg" xmlns:xlink="http://www.w3.org/1999/xlink" width="16" height="16" viewBox="0 0 16 16">
<path fill="#444" d="M11 3v-3h-9v14h-2v1h7v-5h2v-2h5v-5h-3zM-3 4v-4h-7v4h-8v12h6v-3h4v3h6v-12h-1zM-14 11h-2v-2h2v2zM-14 8h-2v-2h2v2zM-11 11h-2v-2h2v2zM-11 8h-2v-2h2v2zM-8 3v-1h1v-1h1v1h1v1h-1v1h-1v-1h-1zM-7 11h-2v-2h2v2zM-7 8h-2v-2h2v2zM-4 11h-2v-2h2v2zM-4 8h-2v-2h2v2zM6 10h-2v-2h2v2zM6 7h-2v-2h2v2zM6 4h-2v-2h2v2zM9 7h-2v-2h2v2zM9 4h-2v-2h2v2zM13 7h-2v-2h2v2z"></path>
<path fill="#444" d="M14 11v-2h-4v2h-2v5h8v-5h-2zM13 11h-2v-1h2v1z"></path>
</svg>
