<?xml version="1.0" encoding="utf-8"?>
<!-- Generated by IcoMoon.io -->
<!DOCTYPE svg PUBLIC "-//W3C//DTD SVG 1.1//EN" "http://www.w3.org/Graphics/SVG/1.1/DTD/svg11.dtd">
<svg version="1.1" xmlns="http://www.w3.org/2000/svg" xmlns:xlink="http://www.w3.org/1999/xlink" width="64" height="64" viewBox="0 0 64 64">
<path fill="#444444" d="M62 53.6l-31.2-31.2c0.8-2 1.2-4 1.2-6.4 0-8.8-7.2-16-16-16-2.4 0-4.4 0.4-6.4 1.2l11.6 11.6-8.4 8.4-11.6-11.6c-0.8 2-1.2 4-1.2 6.4 0 8.8 7.2 16 16 16 2.4 0 4.4-0.4 6.4-1.2l31.2 31.2c2.4 2.4 6 2.4 8.4 0s2.4-6 0-8.4zM27.2 30.4l-5.6-5.6 3.6-3.6 5.6 5.6-3.6 3.6zM56.8 60c-1.6 0-3.2-1.2-3.2-3.2 0-1.6 1.2-3.2 3.2-3.2s3.2 1.2 3.2 3.2c0 2-1.2 3.2-3.2 3.2z"></path>
</svg>
