<?xml version="1.0" encoding="utf-8"?>
<!-- Generated by IcoMoon.io -->
<!DOCTYPE svg PUBLIC "-//W3C//DTD SVG 1.1//EN" "http://www.w3.org/Graphics/SVG/1.1/DTD/svg11.dtd">
<svg version="1.1" xmlns="http://www.w3.org/2000/svg" xmlns:xlink="http://www.w3.org/1999/xlink" width="16" height="16" viewBox="0 0 16 16">
<path fill="#444" d="M15.5 13.4l-7.8-7.8c0.2-0.5 0.3-1 0.3-1.6 0-2.2-1.8-4-4-4-0.6 0-1.1 0.1-1.6 0.3l2.9 2.9-2.1 2.1-2.9-2.9c-0.2 0.5-0.3 1-0.3 1.6 0 2.2 1.8 4 4 4 0.6 0 1.1-0.1 1.6-0.3l7.8 7.8c0.6 0.6 1.5 0.6 2.1 0s0.6-1.5 0-2.1zM6.8 7.6l-1.4-1.4 0.9-0.9 1.4 1.4-0.9 0.9zM14.2 15c-0.4 0-0.8-0.3-0.8-0.8 0-0.4 0.3-0.8 0.8-0.8s0.8 0.3 0.8 0.8c0 0.5-0.3 0.8-0.8 0.8z"></path>
</svg>
