<?xml version="1.0" encoding="utf-8"?>
<!-- Generated by IcoMoon.io -->
<!DOCTYPE svg PUBLIC "-//W3C//DTD SVG 1.1//EN" "http://www.w3.org/Graphics/SVG/1.1/DTD/svg11.dtd">
<svg version="1.1" xmlns="http://www.w3.org/2000/svg" xmlns:xlink="http://www.w3.org/1999/xlink" width="64" height="64" viewBox="0 0 64 64">
<path fill="#444444" d="M31.6 24c0.8 0 1.2-0.8 1.2-2v-5.6c0-1.2-0.4-2-1.2-2s-1.2 0.8-1.2 2v5.6c0 1.2 0.4 2 1.2 2z"></path>
<path fill="#444444" d="M28.4 47.6c-0.4 0.8-1.2 1.2-1.6 1.2s-0.4 0-0.4-0.4c0 0 0-0.4 0-0.8v-10h-2.4v10.4c0 0.8 0 1.6 0.4 2 0.4 0.8 0.8 0.8 1.6 0.8s1.6-0.4 2.8-1.6v1.6h2.4v-13.2h-2.8v10z"></path>
<path fill="#444444" d="M15.2 35.6h2.8v15.2h2.8v-15.2h2.8v-2.8h-8.4z"></path>
<path fill="#444444" d="M37.6 37.2c-0.8 0-1.6 0.8-2.4 1.6v-6h-2.4v17.6h2.4v-1.2c0.8 0.8 1.6 1.6 2.4 1.6s1.6-0.4 2-1.6c0-0.4 0.4-1.6 0.4-2.8v-5.2c0-1.2 0-2-0.4-2.8-0.4-0.4-0.8-1.2-2-1.2zM37.6 46.8c0 1.2-0.4 1.6-1.2 1.6-0.4 0-0.8 0-1.2-0.4v-8c0.4-0.4 0.8-0.4 1.2-0.4 0.8 0 1.2 0.8 1.2 2v5.2z"></path>
<path fill="#444444" d="M45.2 37.2c-1.2 0-2 0.4-2.8 1.2-0.4 0.8-0.8 1.6-0.8 3.2v4.8c0 1.6 0.4 2.4 0.8 3.2 0.8 0.8 1.6 1.2 2.8 1.2s2.4-0.4 2.8-1.6c0.4-0.4 0.4-0.8 0.4-1.6 0-0.4 0-0.8 0-1.6v-0.4h-2.4c0 0.8 0 1.6 0 1.6 0 0.8-0.4 0.8-1.2 0.8s-1.2-0.8-1.2-2v-2.4h4.8v-2.8c0-1.6-0.4-2.4-0.8-3.2 0 0.4-1.2-0.4-2.4-0.4zM46.4 42.4h-2.4v-1.2c0-1.2 0.4-2 1.2-2s1.2 0.8 1.2 2v1.2z"></path>
<path fill="#444444" d="M0 0v64h64v-64h-64zM37.2 12.4h2.4v10c0 0.4 0 0.8 0 0.8 0 0.4 0 0.8 0.4 0.8s0.8-0.4 1.6-1.2v-10.4h2.4v13.2h-2.4v-1.2c-0.8 1.2-2 1.6-2.8 1.6s-1.2-0.4-1.6-0.8c0-0.4-0.4-1.2-0.4-2v-10.8zM28 16.8c0-1.2 0-2.4 0.8-3.2s1.6-1.2 2.8-1.2c1.2 0 2 0.4 2.8 1.2 0.4 0.8 0.8 1.6 0.8 3.2v4.8c0 1.6-0.4 2.4-0.8 3.2-0.8 0.8-1.6 1.2-2.8 1.2s-2-0.4-2.8-1.2c-0.8-0.8-0.8-1.6-0.8-3.2v-4.8zM21.2 8l2 7.2 2-7.2h2.8l-3.2 10.8v7.2h-2.8v-7.2c-0.4-1.6-0.8-3.2-1.6-6-0.8-1.6-1.2-3.2-2-4.8h2.8zM51.2 51.6c-0.4 2-2.4 3.6-4.4 4-4.8 0.4-10 0.4-14.8 0.4s-10 0-14.8-0.4c-2-0.4-4-1.6-4.4-4-0.8-3.2-0.8-6.4-0.8-9.6 0-2.8 0-6 0.8-9.2 0.4-2 2.4-3.6 4.4-4 4.8-0.4 10-0.4 14.8-0.4s10 0 14.8 0.4c2 0.4 4 1.6 4.4 4 0.8 3.2 0.8 6.4 0.8 9.2 0 3.2 0 6.4-0.8 9.6z"></path>
</svg>
