<?xml version="1.0" encoding="utf-8"?>
<!-- Generated by IcoMoon.io -->
<!DOCTYPE svg PUBLIC "-//W3C//DTD SVG 1.1//EN" "http://www.w3.org/Graphics/SVG/1.1/DTD/svg11.dtd">
<svg version="1.1" xmlns="http://www.w3.org/2000/svg" xmlns:xlink="http://www.w3.org/1999/xlink" width="64" height="64" viewBox="0 0 64 64">
<path fill="#444444" d="M26.4 0h-3.6l-2.4 9.2-2.4-9.2h-4c0.8 2.4 1.6 4.4 2.4 6.8 1.2 3.2 2 6 2 7.6v9.6h3.6v-9.6l4.4-14.4zM36 18v-6c0-2-0.4-3.2-1.2-4.4s-2-1.6-3.6-1.6c-1.6 0-2.8 0.8-3.6 2-0.8 0.8-1.2 2-1.2 4v6.4c0 2 0.4 3.2 1.2 4 0.8 1.2 2 1.6 3.6 1.6s2.8-0.8 3.6-2c0.8-0.4 1.2-2 1.2-4zM32.8 18.8c0 1.6-0.4 2.4-1.6 2.4s-1.6-0.8-1.6-2.4v-7.6c0-1.6 0.4-2.4 1.6-2.4s1.6 0.8 1.6 2.4v7.6zM48 24v-18h-3.2v13.6c-0.8 1.2-1.2 1.6-2 1.6-0.4 0-0.8-0.4-0.8-0.8 0 0 0-0.4 0-1.2v-13.2h-3.2v14c0 1.2 0 2 0.4 2.8 0 0.8 0.8 1.2 2 1.2s2.4-0.8 3.6-2v2h3.2z"></path>
<path fill="#444444" d="M49.6 42c-1.2 0-1.6 0.8-1.6 2.4v1.6h3.2v-1.6c0-1.6-0.4-2.4-1.6-2.4z"></path>
<path fill="#444444" d="M38 42c-0.4 0-1.2 0.4-1.6 0.8v10.8c0.4 0.4 1.2 0.8 1.6 0.8 0.8 0 1.2-0.8 1.2-2.4v-7.6c0-1.6-0.4-2.4-1.2-2.4z"></path>
<path fill="#444444" d="M57.6 33.2c-0.8-2.8-3.2-5.2-5.6-5.2-6.4-0.8-13.2-0.8-20-0.8s-13.2 0-20 0.8c-2.4 0-4.8 2.4-5.6 5.2-0.8 4-0.8 8.4-0.8 12.4s0 8.4 0.8 12.4c0.8 2.8 2.8 4.8 5.6 5.2 6.8 0.8 13.2 0.8 20 0.8s13.2 0 20-0.8c2.8-0.4 5.2-2.4 5.6-5.2 0.8-4 0.8-8.4 0.8-12.4s0-8.4-0.8-12.4zM20.8 36.8h-4v20.4h-3.6v-20.4h-3.6v-3.6h11.2v3.6zM30.4 57.2h-3.2v-2c-1.2 1.6-2.4 2-3.6 2s-1.6-0.4-2-1.2c0-0.4-0.4-1.2-0.4-2.8v-14h3.2v12.8c0 0.8 0 1.2 0 1.2 0 0.4 0.4 0.8 0.8 0.8 0.8 0 1.2-0.4 2-1.6v-13.2h3.2v18zM42.4 51.6c0 1.6 0 2.8-0.4 3.6-0.4 1.2-1.2 2-2.4 2s-2.4-0.8-3.2-2v1.6h-3.2v-23.6h3.2v7.6c1.2-1.2 2-2 3.2-2s2 0.8 2.4 2c0.4 0.8 0.4 2 0.4 3.6v7.2zM54.4 48.8h-6.4v3.2c0 1.6 0.4 2.4 1.6 2.4 0.8 0 1.2-0.4 1.6-1.2 0 0 0-0.8 0-2h3.2v0.4c0 1.2 0 1.6 0 2 0 0.8-0.4 1.2-0.8 2-0.8 1.2-2 2-4 2-1.6 0-2.8-0.8-4-2-0.8-0.8-1.2-2.4-1.2-4v-6c0-2 0.4-3.2 0.8-4 0.8-1.2 2-2 4-2 1.6 0 2.8 0.8 3.6 2 0.8 0.8 0.8 2.4 0.8 4v3.2z"></path>
</svg>
