<?xml version="1.0" encoding="utf-8"?>
<!-- Generated by IcoMoon.io -->
<!DOCTYPE svg PUBLIC "-//W3C//DTD SVG 1.1//EN" "http://www.w3.org/Graphics/SVG/1.1/DTD/svg11.dtd">
<svg version="1.1" xmlns="http://www.w3.org/2000/svg" xmlns:xlink="http://www.w3.org/1999/xlink" width="16" height="16" viewBox="0 0 16 16">
<path fill="#444" d="M6.6 0h-0.9l-0.6 2.3-0.6-2.3h-1c0.2 0.6 0.4 1.1 0.6 1.7 0.3 0.8 0.5 1.5 0.5 1.9v2.4h0.9v-2.4l1.1-3.6zM9 4.5v-1.5c0-0.5-0.1-0.8-0.3-1.1s-0.5-0.4-0.9-0.4c-0.4 0-0.7 0.2-0.9 0.5-0.2 0.2-0.3 0.5-0.3 1v1.6c0 0.5 0.1 0.8 0.3 1 0.2 0.3 0.5 0.4 0.9 0.4s0.7-0.2 0.9-0.5c0.2-0.1 0.3-0.5 0.3-1zM8.2 4.7c0 0.4-0.1 0.6-0.4 0.6s-0.4-0.2-0.4-0.6v-1.9c0-0.4 0.1-0.6 0.4-0.6s0.4 0.2 0.4 0.6v1.9zM12 6v-4.5h-0.8v3.4c-0.2 0.3-0.3 0.4-0.5 0.4-0.1 0-0.2-0.1-0.2-0.2 0 0 0-0.1 0-0.3v-3.3h-0.8v3.5c0 0.3 0 0.5 0.1 0.7 0 0.2 0.2 0.3 0.5 0.3s0.6-0.2 0.9-0.5v0.5h0.8z"></path>
<path fill="#444" d="M12.4 10.5c-0.3 0-0.4 0.2-0.4 0.6v0.4h0.8v-0.4c0-0.4-0.1-0.6-0.4-0.6z"></path>
<path fill="#444" d="M9.5 10.5c-0.1 0-0.3 0.1-0.4 0.2v2.7c0.1 0.1 0.3 0.2 0.4 0.2 0.2 0 0.3-0.2 0.3-0.6v-1.9c0-0.4-0.1-0.6-0.3-0.6z"></path>
<path fill="#444" d="M14.4 8.3c-0.2-0.7-0.8-1.3-1.4-1.3-1.6-0.2-3.3-0.2-5-0.2s-3.3 0-5 0.2c-0.6 0-1.2 0.6-1.4 1.3-0.2 1-0.2 2.1-0.2 3.1s0 2.1 0.2 3.1c0.2 0.7 0.7 1.2 1.4 1.3 1.7 0.2 3.3 0.2 5 0.2s3.3 0 5-0.2c0.7-0.1 1.3-0.6 1.4-1.3 0.2-1 0.2-2.1 0.2-3.1s0-2.1-0.2-3.1zM5.2 9.2h-1v5.1h-0.9v-5.1h-0.9v-0.9h2.8v0.9zM7.6 14.3h-0.8v-0.5c-0.3 0.4-0.6 0.5-0.9 0.5s-0.4-0.1-0.5-0.3c0-0.1-0.1-0.3-0.1-0.7v-3.5h0.8v3.2c0 0.2 0 0.3 0 0.3 0 0.1 0.1 0.2 0.2 0.2 0.2 0 0.3-0.1 0.5-0.4v-3.3h0.8v4.5zM10.6 12.9c0 0.4 0 0.7-0.1 0.9-0.1 0.3-0.3 0.5-0.6 0.5s-0.6-0.2-0.8-0.5v0.4h-0.8v-5.9h0.8v1.9c0.3-0.3 0.5-0.5 0.8-0.5s0.5 0.2 0.6 0.5c0.1 0.2 0.1 0.5 0.1 0.9v1.8zM13.6 12.2h-1.6v0.8c0 0.4 0.1 0.6 0.4 0.6 0.2 0 0.3-0.1 0.4-0.3 0 0 0-0.2 0-0.5h0.8v0.1c0 0.3 0 0.4 0 0.5 0 0.2-0.1 0.3-0.2 0.5-0.2 0.3-0.5 0.5-1 0.5-0.4 0-0.7-0.2-1-0.5-0.2-0.2-0.3-0.6-0.3-1v-1.5c0-0.5 0.1-0.8 0.2-1 0.2-0.3 0.5-0.5 1-0.5 0.4 0 0.7 0.2 0.9 0.5 0.2 0.2 0.2 0.6 0.2 1v0.8z"></path>
</svg>
